<svg width="556" height="538" viewBox="0 0 556 538" fill="none" xmlns="http://www.w3.org/2000/svg">
<path d="M188.625 385.188C198.456 385.188 206.5 377.144 206.5 367.312C206.5 362.397 204.534 357.928 201.227 354.711C198.009 351.404 193.541 349.438 188.625 349.438H117.125V322.625C117.125 293.042 93.0831 269 63.5 269C48.6638 269 35.2575 274.988 25.605 284.73C15.8631 294.382 9.875 307.789 9.875 322.625V403.062C9.875 432.646 33.9169 456.688 63.5 456.688H108.188C118.019 456.688 126.062 464.731 126.062 474.562V510.312C126.062 520.144 134.106 528.188 143.938 528.188C148.853 528.188 153.322 526.221 156.539 522.914C159.846 519.697 161.812 515.228 161.812 510.312V454.096C161.812 433.807 150.373 415.218 132.14 406.101L90.3125 385.188H188.625Z" fill="white"/>
<path d="M423.86 406.101C405.627 415.218 394.188 433.807 394.188 454.096V510.312C394.188 515.228 396.154 519.697 399.461 522.914C402.678 526.221 407.147 528.188 412.062 528.188C421.894 528.188 429.938 520.144 429.938 510.312V474.562C429.938 464.731 437.981 456.688 447.812 456.688H492.5C522.083 456.688 546.125 432.646 546.125 403.062V322.625C546.125 307.789 540.137 294.382 530.395 284.73C520.743 274.988 507.336 269 492.5 269C462.917 269 438.875 293.042 438.875 322.625V349.438H367.375C362.459 349.438 357.991 351.404 354.773 354.711C351.466 357.928 349.5 362.397 349.5 367.312C349.5 377.144 357.544 385.188 367.375 385.188H465.688L423.86 406.101Z" fill="white"/>
<path d="M336.183 420.938H219.727C205.517 420.938 191.842 415.307 181.832 405.208L161.812 385.188H394.188L374.167 405.208C364.068 415.307 350.483 420.938 336.273 420.938H336.183Z" fill="white"/>
<path d="M242.25 528.188C242.25 508.436 258.248 492.438 278 492.438C297.752 492.438 313.75 508.436 313.75 528.188" fill="white"/>
<path d="M63.5 242.188C88.1802 242.188 108.188 222.18 108.188 197.5C108.188 172.82 88.1802 152.812 63.5 152.812C38.8198 152.812 18.8125 172.82 18.8125 197.5C18.8125 222.18 38.8198 242.188 63.5 242.188Z" fill="white"/>
<path d="M492.5 242.188C517.18 242.188 537.188 222.18 537.188 197.5C537.188 172.82 517.18 152.812 492.5 152.812C467.82 152.812 447.812 172.82 447.812 197.5C447.812 222.18 467.82 242.188 492.5 242.188Z" fill="white"/>
<path d="M412.062 206.438L379.172 148.791C388.646 134.58 394.188 117.509 394.188 99.1875C394.188 49.8525 354.147 9.8125 304.812 9.8125C255.478 9.8125 215.438 49.8525 215.438 99.1875C215.438 148.522 255.478 188.562 304.812 188.562C315.359 188.562 325.458 186.596 334.843 183.289L412.062 206.438Z" fill="white"/>
<path d="M63.5 251.125C93.0831 251.125 117.125 227.083 117.125 197.5C117.125 167.917 93.0831 143.875 63.5 143.875C33.9169 143.875 9.875 167.917 9.875 197.5C9.875 227.083 33.9169 251.125 63.5 251.125ZM63.5 161.75C83.2519 161.75 99.25 177.748 99.25 197.5C99.25 217.252 83.2519 233.25 63.5 233.25C43.7481 233.25 27.75 217.252 27.75 197.5C27.75 177.748 43.7481 161.75 63.5 161.75Z" fill="black"/>
<path d="M492.5 251.125C522.083 251.125 546.125 227.083 546.125 197.5C546.125 167.917 522.083 143.875 492.5 143.875C462.917 143.875 438.875 167.917 438.875 197.5C438.875 227.083 462.917 251.125 492.5 251.125ZM492.5 161.75C512.252 161.75 528.25 177.748 528.25 197.5C528.25 217.252 512.252 233.25 492.5 233.25C472.748 233.25 456.75 217.252 456.75 197.5C456.75 177.748 472.748 161.75 492.5 161.75Z" fill="black"/>
<path d="M492.502 260.062C458.004 260.062 429.94 288.126 429.94 322.625V340.5H367.377C352.631 340.5 340.565 352.566 340.565 367.312C340.565 370.441 341.191 373.479 342.174 376.25H213.742C214.725 373.479 215.351 370.441 215.351 367.312C215.351 352.566 203.285 340.5 188.538 340.5H125.976V322.625C125.976 288.126 97.9118 260.062 63.4131 260.062C28.9143 260.062 0.850586 288.126 0.850586 322.625V403.062C0.850586 431.305 19.7087 455.257 45.5381 463.033V519.25H9.87746V537.125H546.127V519.25H510.377V463.033C536.207 455.347 555.065 431.394 555.065 403.062V322.625C555.065 288.126 527.001 260.062 492.502 260.062ZM367.377 394.125H372.651L367.824 398.951C359.423 407.353 348.162 412 336.186 412H219.73C207.754 412 196.582 407.353 188.091 398.951L183.265 394.125H367.288H367.377ZM63.5025 519.25V465.625H108.19C113.106 465.625 117.127 469.647 117.127 474.562V510.312C117.127 513.441 117.753 516.479 118.736 519.25H63.5025ZM152.877 510.312C152.877 515.228 148.856 519.25 143.94 519.25C139.024 519.25 135.002 515.228 135.002 510.312V474.562C135.002 459.816 122.937 447.75 108.19 447.75H63.5025C38.835 447.75 18.815 427.73 18.815 403.062V322.625C18.815 297.958 38.835 277.938 63.5025 277.938C88.17 277.938 108.19 297.958 108.19 322.625V349.438C108.19 354.353 112.212 358.375 117.127 358.375H188.627C193.543 358.375 197.565 362.397 197.565 367.312C197.565 372.228 193.543 376.25 188.627 376.25H90.315V313.688H72.44V385.188C72.44 390.103 76.4618 394.125 81.3775 394.125H88.17L128.121 414.145C143.404 421.742 152.788 437.114 152.788 454.096V510.312H152.877ZM234.209 519.25H169.054C170.037 516.479 170.663 513.441 170.663 510.312V454.096C170.663 430.232 157.436 408.783 136.075 398.147L128.121 394.125H158.061L175.489 411.553C187.287 423.351 203.017 429.875 219.73 429.875H268.976V484.394C251.458 487.969 237.694 501.733 234.119 519.25H234.209ZM252.799 519.25C256.463 508.883 266.294 501.375 278.002 501.375C289.711 501.375 299.452 508.883 303.206 519.25H252.888H252.799ZM321.707 519.25C318.132 501.733 304.368 487.969 286.851 484.394V429.875H336.096C352.809 429.875 368.539 423.351 380.337 411.553L397.765 394.125H427.706L419.751 398.147C398.391 408.783 385.163 430.232 385.163 454.096V510.312C385.163 513.441 385.789 516.479 386.772 519.25H321.617H321.707ZM492.413 519.25H437.179C438.162 516.479 438.788 513.441 438.788 510.312V474.562C438.788 469.647 442.81 465.625 447.726 465.625H492.413V519.25ZM537.101 403.062C537.101 427.73 517.081 447.75 492.413 447.75H447.726C432.979 447.75 420.913 459.816 420.913 474.562V510.312C420.913 515.228 416.891 519.25 411.976 519.25C407.06 519.25 403.038 515.228 403.038 510.312V454.096C403.038 437.025 412.512 421.742 427.706 414.145L467.656 394.125H474.449C479.364 394.125 483.386 390.103 483.386 385.188V313.688H465.511V376.25H367.199C362.283 376.25 358.261 372.228 358.261 367.312C358.261 362.397 362.283 358.375 367.199 358.375H438.699C443.614 358.375 447.636 354.353 447.636 349.438V322.625C447.636 297.958 467.656 277.938 492.324 277.938C516.991 277.938 537.011 297.958 537.011 322.625V403.062H537.101Z" fill="black"/>
<path d="M304.812 197.5C315.001 197.5 325.101 195.891 335.021 192.674L409.471 215.017C410.364 215.286 411.169 215.375 412.062 215.375C414.744 215.375 417.336 214.124 419.034 211.979C421.268 209.119 421.626 205.186 419.838 201.969L389.54 148.969C398.477 133.865 403.125 116.794 403.125 99.098C403.125 44.8474 359.063 0.785522 304.812 0.785522C250.562 0.785522 206.5 44.8474 206.5 99.098C206.5 153.349 250.562 197.411 304.812 197.411V197.5ZM304.812 18.7499C349.143 18.7499 385.25 54.8574 385.25 99.1874C385.25 115.186 380.602 130.558 371.665 143.875C369.788 146.735 369.609 150.31 371.307 153.259L393.115 191.422L337.345 174.709C336.541 174.441 335.647 174.352 334.753 174.352C333.77 174.352 332.697 174.531 331.714 174.888C322.866 178.016 313.75 179.625 304.723 179.625C260.393 179.625 224.286 143.517 224.286 99.1874C224.286 54.8574 260.393 18.7499 304.723 18.7499H304.812Z" fill="black"/>
<path d="M260.125 90.25H278V108.125H260.125V90.25Z" fill="black"/>
<path d="M295.875 90.25H313.75V108.125H295.875V90.25Z" fill="black"/>
<path d="M331.625 90.25H349.5V108.125H331.625V90.25Z" fill="black"/>
<path d="M135 260.062H152.875V277.938H135V260.062Z" fill="black"/>
<path d="M170.75 260.062H188.625V277.938H170.75V260.062Z" fill="black"/>
<path d="M206.5 260.062H224.375V277.938H206.5V260.062Z" fill="black"/>
</svg>
