<svg width="16" height="16" viewBox="0 0 16 16" fill="none" xmlns="http://www.w3.org/2000/svg">
<g clip-path="url(#clip0_78_2)">
<path d="M1.78894 7.14818C2.63361 7.14818 3.32006 6.46172 3.32006 5.61706C3.32006 4.77239 2.63361 4.08594 1.78894 4.08594C0.944266 4.08594 0.257812 4.77239 0.257812 5.61706C0.257812 6.46172 0.944266 7.14818 1.78894 7.14818ZM1.78894 4.59631C2.3529 4.59631 2.80969 5.05309 2.80969 5.61706C2.80969 6.18105 2.3529 6.63778 1.78894 6.63778C1.22497 6.63778 0.768186 6.18105 0.768186 5.61706C0.768186 5.05309 1.22497 4.59631 1.78894 4.59631Z" fill="black" stroke="black" stroke-width="0.2"/>
<path d="M14.037 7.14818C14.8817 7.14818 15.5681 6.46172 15.5681 5.61706C15.5681 4.77239 14.8817 4.08594 14.037 4.08594C13.1923 4.08594 12.5059 4.77239 12.5059 5.61706C12.5059 6.46172 13.1923 7.14818 14.037 7.14818ZM14.037 4.59631C14.601 4.59631 15.0577 5.05309 15.0577 5.61706C15.0577 6.18105 14.601 6.63778 14.037 6.63778C13.4731 6.63778 13.0163 6.18105 13.0163 5.61706C13.0163 5.05309 13.4731 4.59631 14.037 4.59631Z" fill="black" stroke="black" stroke-width="0.2"/>
<path d="M14.0378 7.40283C13.0529 7.40283 12.2516 8.20412 12.2516 9.18917V9.69951H10.4652C10.0442 9.69951 9.69969 10.0441 9.69969 10.465C9.69969 10.5544 9.71754 10.6412 9.7456 10.7202H6.07857C6.10664 10.6412 6.12451 10.5544 6.12451 10.465C6.12451 10.0441 5.77999 9.69951 5.35894 9.69951H3.57263V9.18917C3.57263 8.20412 2.77134 7.40283 1.78631 7.40283C0.801286 7.40283 0 8.20412 0 9.18917V11.4858C0 12.2922 0.538446 12.9761 1.27594 13.1982V14.8033H0.257739V15.3137H15.569V14.8033H14.5482V13.1982C15.2857 12.9787 15.8242 12.2948 15.8242 11.4858V9.18917C15.8242 8.20412 15.0229 7.40283 14.0378 7.40283ZM10.4652 11.2306H10.6158L10.478 11.3684C10.2381 11.6084 9.91661 11.741 9.57465 11.741H6.24954C5.9076 11.741 5.58861 11.6084 5.34617 11.3684L5.20837 11.2306H10.4627H10.4652ZM1.78887 14.8033V13.2721H3.0648C3.20517 13.2721 3.31998 13.387 3.31998 13.5273V14.5481C3.31998 14.6374 3.33785 14.7241 3.36591 14.8033H1.78887ZM4.34073 14.5481C4.34073 14.6884 4.22591 14.8033 4.08555 14.8033C3.94519 14.8033 3.83035 14.6884 3.83035 14.5481V13.5273C3.83035 13.1063 3.48586 12.7618 3.0648 12.7618H1.78887C1.08455 12.7618 0.512928 12.1902 0.512928 11.4858V9.18917C0.512928 8.48486 1.08455 7.91323 1.78887 7.91323C2.49318 7.91323 3.0648 8.48486 3.0648 9.18917V9.95471C3.0648 10.0951 3.17964 10.2099 3.31998 10.2099H5.36148C5.50184 10.2099 5.61668 10.3247 5.61668 10.465C5.61668 10.6054 5.50184 10.7202 5.36148 10.7202H2.55442V8.93397H2.04406V10.9754C2.04406 11.1158 2.15889 11.2306 2.29924 11.2306H2.49318L3.63388 11.8023C4.07025 12.0192 4.33818 12.4581 4.33818 12.943V14.5481H4.34073ZM6.66295 14.8033H4.80261C4.83068 14.7241 4.84856 14.6374 4.84856 14.5481V12.943C4.84856 12.2616 4.4709 11.6492 3.86098 11.3455L3.63388 11.2306H4.48874L4.98635 11.7282C5.32321 12.0651 5.77234 12.2514 6.24954 12.2514H7.65563V13.8081C7.15545 13.9102 6.76246 14.3031 6.66037 14.8033H6.66295ZM7.19372 14.8033C7.29834 14.5073 7.57908 14.2929 7.91335 14.2929C8.24769 14.2929 8.52578 14.5073 8.63298 14.8033H7.19631H7.19372ZM9.16123 14.8033C9.05914 14.3031 8.66615 13.9102 8.16603 13.8081V12.2514H9.57206C10.0493 12.2514 10.4984 12.0651 10.8353 11.7282L11.3329 11.2306H12.1878L11.9606 11.3455C11.3508 11.6492 10.973 12.2616 10.973 12.943V14.5481C10.973 14.6374 10.991 14.7241 11.019 14.8033H9.15865H9.16123ZM14.0353 14.8033H12.4582C12.4863 14.7241 12.5042 14.6374 12.5042 14.5481V13.5273C12.5042 13.387 12.619 13.2721 12.7594 13.2721H14.0353V14.8033ZM15.3113 11.4858C15.3113 12.1902 14.7396 12.7618 14.0353 12.7618H12.7594C12.3383 12.7618 11.9938 13.1063 11.9938 13.5273V14.5481C11.9938 14.6884 11.879 14.8033 11.7386 14.8033C11.5983 14.8033 11.4834 14.6884 11.4834 14.5481V12.943C11.4834 12.4556 11.754 12.0192 12.1878 11.8023L13.3284 11.2306H13.5224C13.6627 11.2306 13.7775 11.1158 13.7775 10.9754V8.93397H13.2672V10.7202H10.4601C10.3198 10.7202 10.2049 10.6054 10.2049 10.465C10.2049 10.3247 10.3198 10.2099 10.4601 10.2099H12.5017C12.642 10.2099 12.7568 10.0951 12.7568 9.95471V9.18917C12.7568 8.48486 13.3284 7.91323 14.0327 7.91323C14.737 7.91323 15.3087 8.48486 15.3087 9.18917V11.4858H15.3113Z" fill="black" stroke="black" stroke-width="0.2"/>
<path d="M8.67814 5.61668C8.96903 5.61668 9.25746 5.57074 9.54066 5.47889L11.6664 6.11683C11.6919 6.12451 11.7149 6.12705 11.7404 6.12705C11.817 6.12705 11.891 6.09134 11.9394 6.03009C12.0032 5.94843 12.0135 5.83614 11.9624 5.74428L11.0973 4.231C11.3525 3.79974 11.4852 3.31233 11.4852 2.80706C11.4852 1.25807 10.2271 0 8.67814 0C7.12916 0 5.87109 1.25807 5.87109 2.80706C5.87109 4.35606 7.12916 5.61414 8.67814 5.61414V5.61668ZM8.67814 0.512927C9.94392 0.512927 10.9748 1.54388 10.9748 2.80961C10.9748 3.26641 10.8421 3.70532 10.5869 4.08556C10.5333 4.16721 10.5282 4.26929 10.5767 4.35349L11.1994 5.44314L9.60706 4.96594C9.58411 4.95829 9.55857 4.95575 9.53303 4.95575C9.50497 4.95575 9.47432 4.96086 9.44626 4.97105C9.19365 5.06036 8.93334 5.1063 8.67562 5.1063C7.40989 5.1063 6.37894 4.07534 6.37894 2.80961C6.37894 1.54388 7.40989 0.512927 8.67562 0.512927H8.67814Z" fill="black" stroke="black" stroke-width="0.2"/>
<path d="M7.40234 2.5542H7.91268V3.06457H7.40234V2.5542Z" fill="black" stroke="black" stroke-width="0.2"/>
<path d="M8.42383 2.5542H8.93417V3.06457H8.42383V2.5542Z" fill="black" stroke="black" stroke-width="0.2"/>
<path d="M9.44531 2.5542H9.95565V3.06457H9.44531V2.5542Z" fill="black" stroke="black" stroke-width="0.2"/>
<path d="M3.83008 7.40283H4.34045V7.91323H3.83008V7.40283Z" fill="black" stroke="black" stroke-width="0.2"/>
<path d="M4.85156 7.40283H5.36194V7.91323H4.85156V7.40283Z" fill="black" stroke="black" stroke-width="0.2"/>
<path d="M5.87109 7.40283H6.38146V7.91323H5.87109V7.40283Z" fill="black" stroke="black" stroke-width="0.2"/>
</g>
<defs>
<clipPath id="clip0_78_2">
<rect width="15.8242" height="15.3138" fill="white"/>
</clipPath>
</defs>
</svg>
