<svg width="817" height="572" viewBox="0 0 817 572" fill="none" xmlns="http://www.w3.org/2000/svg">
<path d="M-1.488e-05 231.483L-2.97604e-06 503.815C-1.33502e-06 541.357 30.5417 571.899 68.0838 571.899L558.283 571.899C595.824 571.899 626.367 541.357 626.367 503.815L626.367 258.716L599.133 258.716L599.133 503.815C599.133 526.337 580.805 544.665 558.283 544.665L68.0838 544.665C45.562 544.665 27.2338 526.337 27.2338 503.815L27.2338 231.482C27.2338 208.96 45.562 190.632 68.0838 190.632L462.967 190.632L462.967 163.4L68.0838 163.4C30.5417 163.4 -1.65211e-05 193.941 -1.488e-05 231.483Z" fill="#045ba7"/>
<path d="M362.694 32.8029L195.753 166.382L212.774 187.666L379.7 54.0864C401.351 36.7523 428.558 27.2211 456.294 27.2339L789.765 27.2339L789.765 226.444C789.765 296.788 732.534 354.032 662.178 354.032L612.749 354.032L612.749 381.266L662.178 381.266C747.54 381.266 816.999 311.806 816.999 226.444L816.999 13.6162C816.999 6.08607 810.913 3.92828e-05 803.383 3.96119e-05L456.308 5.4783e-05C422.43 -0.014305 389.177 11.6279 362.694 32.8029Z" fill="#045ba7"/>
<path d="M321.126 340.467C321.399 330.909 325.374 322.016 332.319 315.467L526.764 132.472L508.096 112.633L313.636 295.655C301.394 307.216 294.383 322.861 293.905 339.691C293.334 356.698 299.529 372.534 310.954 384.626C311.104 384.776 312.138 385.866 312.288 386.002C335.627 409.272 372.256 410.839 397.556 389.61L536.037 272.329L578.167 272.329C653.412 272.343 721.673 225.024 748.061 154.558L722.557 145C700.131 204.887 642.11 245.109 578.167 245.097L531.054 245.097C527.84 245.097 524.708 246.241 522.244 248.323L379.99 368.789C365.639 380.84 344.791 379.954 330.889 366.065C324.326 359.122 321.071 350.054 321.126 340.467Z" fill="#045ba7"/>
<path d="M27.2334 245.091L27.2334 272.325L367.649 272.325L367.649 245.091L27.2334 245.091Z" fill="#045ba7"/>
<path d="M449.351 313.185L449.351 340.422L612.771 340.422L612.771 313.185L449.351 313.185Z" fill="#045ba7"/>
<path d="M13.6235 313.188L13.6235 340.422L313.189 340.422L313.189 313.188L13.6235 313.188Z" fill="#045ba7"/>
<path d="M68.083 476.578L68.083 503.815L245.12 503.815L245.12 476.578L68.083 476.578Z" fill="#045ba7"/>
<path d="M68.083 408.495L68.083 435.732L177.03 435.732L177.03 408.495L68.083 408.495Z" fill="#045ba7"/>
<path d="M449.357 408.488L449.357 490.198C449.357 497.714 455.444 503.815 462.975 503.815L544.684 503.815C552.216 503.815 558.302 497.714 558.302 490.198L558.302 408.488C558.302 400.971 552.216 394.87 544.684 394.87L462.975 394.87C455.444 394.87 449.357 400.971 449.357 408.488ZM531.067 422.106L531.067 476.578L476.594 476.578L476.594 422.106L531.067 422.106Z" fill="#045ba7"/>
</svg>
