<?xml version="1.0" encoding="utf-8"?>
<!-- Generator: Adobe Illustrator 25.2.1, SVG Export Plug-In . SVG Version: 6.00 Build 0)  -->
<svg version="1.1" id="Layer_1" xmlns="http://www.w3.org/2000/svg" xmlns:xlink="http://www.w3.org/1999/xlink" x="0px" y="0px"
	 viewBox="0 0 16 16" style="enable-background:new 0 0 16 16;" xml:space="preserve">
<path d="M9.2,4.8c1.3-0.2,2.2-1.5,1.9-2.8S9.6-0.2,8.3,0c-1.1,0.2-1.9,1.2-2,2.3h1.2c0.9,0,1.7,0.8,1.7,1.7V4.8z M4.9,12.5h2.6
	c0.9,0,1.7-0.8,1.7-1.7V5.6H12c0.4,0,0.7,0.3,0.7,0.7v4.3c0.1,2.3-1.8,4.2-4.1,4.3C6.9,14.8,5.6,13.9,4.9,12.5L4.9,12.5z M15.6,3.2
	c0,0.9-0.7,1.7-1.7,1.7c-0.9,0-1.7-0.7-1.7-1.7S13,1.5,14,1.5C14.9,1.5,15.6,2.2,15.6,3.2z M13.4,12.7c0,0-0.1,0-0.1,0
	c0.3-0.7,0.4-1.4,0.4-2.1V6.3c0-0.2,0-0.5-0.1-0.7h1.8c0.4,0,0.7,0.3,0.7,0.7v3.8C16,11.5,14.8,12.7,13.4,12.7L13.4,12.7L13.4,12.7
	L13.4,12.7z"/>
<path d="M1.9,10.9c0,0-0.6,0-0.6-0.6C1.4,9.7,1.9,8,4.2,8s2.9,1.7,2.9,2.3c0,0.6-0.6,0.6-0.6,0.6H1.9z M4.2,7.4c1,0,1.7-0.8,1.7-1.7
	S5.2,4,4.2,4S2.5,4.7,2.5,5.7S3.3,7.4,4.2,7.4z"/>
</svg>
