<?xml version="1.0" encoding="UTF-8"?>
<svg id="Layer_1" xmlns="http://www.w3.org/2000/svg" version="1.1" xmlns:xlink="http://www.w3.org/1999/xlink" viewBox="0 0 24 24">
  <!-- Generator: Adobe Illustrator 29.5.0, SVG Export Plug-In . SVG Version: 2.1.0 Build 137)  -->
  <defs>
    <style>
      .st0 {
        fill: #252f4a;
      }

      .st1, .st2 {
        fill: none;
      }

      .st3 {
        fill: #f9f9f9;
      }

      .st2 {
        stroke: #dbdfe9;
      }

      .st4 {
        fill: #c4cada;
      }

      .st5 {
        clip-path: url(#clippath);
      }
    </style>
    <clipPath id="clippath">
      <rect class="st1" width="24" height="24"/>
    </clipPath>
  </defs>
  <g class="st5">
    <g>
      <path class="st3" d="M18.86.29H5.14C2.46.29.29,2.46.29,5.14v13.71c0,2.68,2.17,4.86,4.86,4.86h13.71c2.68,0,4.86-2.17,4.86-4.86V5.14c0-2.68-2.17-4.86-4.86-4.86Z"/>
      <path class="st2" d="M18.86.29H5.14C2.46.29.29,2.46.29,5.14v13.71c0,2.68,2.17,4.86,4.86,4.86h13.71c2.68,0,4.86-2.17,4.86-4.86V5.14c0-2.68-2.17-4.86-4.86-4.86Z"/>
    </g>
  </g>
  <path class="st4" d="M8.91,9.74c0-1.33,1.07-2.4,2.4-2.4s2.4,1.07,2.4,2.4-1.07,2.4-2.4,2.4-2.4-1.07-2.4-2.4ZM15.15,9.74c0-2.12-1.72-3.84-3.84-3.84s-3.84,1.72-3.84,3.84,1.72,3.84,3.84,3.84,3.84-1.72,3.84-3.84ZM6.03,20.3c0-2.12,1.72-3.84,3.84-3.84h2.88c2.12,0,3.84,1.72,3.84,3.84v.24c0,.4.32.72.72.72s.72-.32.72-.72v-.24c0-2.92-2.36-5.28-5.28-5.28h-2.88c-2.92,0-5.28,2.36-5.28,5.28v.24c0,.4.32.72.72.72s.72-.32.72-.72v-.24Z"/>
  <path class="st0" d="M16.65,9.61c0-2.95-2.39-5.33-5.33-5.33s-5.33,2.39-5.33,5.33,2.39,5.34,5.33,5.34,5.33-2.39,5.33-5.34ZM17.98,9.61c0,1.6-.57,3.07-1.51,4.22l.07.06,3,3,.09.1c.17.26.14.61-.09.84-.23.23-.58.26-.84.09l-.1-.09-3-3-.05-.07c-1.15.94-2.62,1.51-4.22,1.51-3.68,0-6.67-2.98-6.67-6.67s2.98-6.67,6.67-6.67,6.67,2.98,6.67,6.67Z"/>
</svg>