<?xml version="1.0" encoding="UTF-8"?>
<svg id="Layer_1" xmlns="http://www.w3.org/2000/svg" version="1.1" viewBox="0 0 24 24">
  <!-- Generator: Adobe Illustrator 29.5.0, SVG Export Plug-In . SVG Version: 2.1.0 Build 137)  -->
  <defs>
    <style>
      .st0 {
        fill: #252f4a;
        stroke: #252f4a;
        stroke-miterlimit: 10;
        stroke-width: .25px;
      }

      .st1 {
        fill: #c4cada;
      }
    </style>
  </defs>
  <path class="st1" d="M8.08,8.9c0-1.72,1.4-3.12,3.12-3.12s3.12,1.4,3.12,3.12-1.4,3.12-3.12,3.12-3.12-1.4-3.12-3.12ZM16.19,8.9c0-2.76-2.23-4.99-4.99-4.99s-4.99,2.23-4.99,4.99,2.23,4.99,4.99,4.99,4.99-2.23,4.99-4.99ZM4.33,22.62c0-2.76,2.23-4.99,4.99-4.99h3.74c2.76,0,4.99,2.23,4.99,4.99v.31c0,.52.42.94.94.94s.94-.42.94-.94v-.31c0-3.79-3.07-6.86-6.86-6.86h-3.74c-3.79,0-6.86,3.07-6.86,6.86v.31c0,.52.42.94.94.94s.94-.42.94-.94v-.31Z"/>
  <path class="st0" d="M18.13,8.72c0-3.83-3.11-6.94-6.94-6.94s-6.94,3.11-6.94,6.94,3.11,6.94,6.94,6.94,6.94-3.11,6.94-6.94ZM19.86,8.72c0,2.09-.74,4-1.97,5.49l.09.07,3.9,3.9.11.13c.22.34.18.79-.11,1.09-.3.29-.75.33-1.09.11l-.14-.11-3.9-3.9-.07-.09c-1.49,1.23-3.41,1.97-5.49,1.97-4.79,0-8.66-3.88-8.66-8.66S6.41.05,11.2.05s8.66,3.88,8.66,8.66Z"/>
</svg>