<svg xmlns="http://www.w3.org/2000/svg" version="1.1" xmlns:xlink="http://www.w3.org/1999/xlink" xmlns:svgjs="http://svgjs.dev/svgjs" width="1000" height="1000" viewBox="0 0 1000 1000"><rect width="1000" height="1000" fill="#ffffff"></rect><g transform="matrix(0.7,0,0,0.7,149.5757667632463,292.0727025999937)"><svg viewBox="0 0 396 235" data-background-color="#60777f" preserveAspectRatio="xMidYMid meet" height="593" width="1000" xmlns="http://www.w3.org/2000/svg" xmlns:xlink="http://www.w3.org/1999/xlink"><g id="tight-bounds" transform="matrix(1,0,0,1,0.23999493785777304,0.21359886533723227)"><svg viewBox="0 0 395.52 234.5728010692848" height="234.5728010692848" width="395.52"><g><svg viewBox="0 0 395.52 234.5728010692848" height="234.5728010692848" width="395.52"><g transform="matrix(1,0,0,1,0,141.461374653366)"><svg viewBox="0 0 395.52 93.1114264159188" height="93.1114264159188" width="395.52"><g id="textblocktransform"><svg viewBox="0 0 395.52 93.1114264159188" height="93.1114264159188" width="395.52" id="textblock"><g><svg viewBox="0 0 395.52 54.14096878363831" height="54.14096878363831" width="395.52"><g transform="matrix(1,0,0,1,0,0)"><svg width="395.52" viewBox="1.9000000953674316 -37.599998474121094 278.67999267578125 38.14999771118164" height="54.14096878363831" data-palette-color="#ffffff"><path d="M5.9-3.5L5.9-33.4 1.9-34.05 1.9-37.15 28.55-37.15 29.2-28.75 25.7-28.75 24.05-33.7 13.25-34.15 13.25-20.7 20.2-20.85 21-24.95 24.2-24.95 24.2-12.85 21-12.85 20.2-17.15 13.25-17.3 13.25-3.2 25.35-3.8 28.25-10.2 32-9.15 30.7 0 1.95 0 1.95-3 5.9-3.5ZM38.65-3.5L38.65-33.4 34.9-34.05 34.9-37.15 42.2-37.15Q43.85-37.15 46.65-37.35L46.65-37.35Q47.3-37.4 48.62-37.45 49.95-37.5 51-37.5L51-37.5Q60.2-37.5 64.77-32.9 69.35-28.3 69.35-19.85L69.35-19.85Q69.35-13.95 67.07-9.35 64.8-4.75 60.6-2.18 56.4 0.4 50.8 0.4L50.8 0.4Q49.35 0.4 46.25 0.2L46.25 0.2Q43.35 0 42.3 0L42.3 0 34.7 0 34.7-3 38.65-3.5ZM45.9-3.35Q47.6-2.9 50.65-2.9L50.65-2.9Q55.65-3 58.5-6.93 61.35-10.85 61.35-18.7L61.35-18.7Q61.35-26.15 58.55-30.23 55.75-34.3 49.85-34.3L49.85-34.3Q48.6-34.3 47.47-34.15 46.35-34 45.9-33.95L45.9-33.95 45.9-3.35ZM90.05 0.4Q82.45 0.4 78.75-3.4 75.05-7.2 75.05-15.35L75.05-15.35 75.05-33.4 71.75-34.05 71.75-37.15 86.85-37.15 86.85-34.05 82.6-33.35 82.6-14.7Q82.6-2.8 91.05-2.8L91.05-2.8Q95.2-2.8 97.2-5.88 99.2-8.95 99.2-14.5L99.2-14.5 99.2-33.35 94.9-34.05 94.9-37.15 107.4-37.15 107.4-34.05 104-33.4 104-14.9Q104-7.1 100.22-3.35 96.45 0.4 90.05 0.4L90.05 0.4ZM113.84-3.5L113.84-33.4 109.84-34.05 109.84-37.15 136.49-37.15 137.14-28.75 133.64-28.75 131.99-33.7 121.19-34.15 121.19-20.7 128.14-20.85 128.94-24.95 132.14-24.95 132.14-12.85 128.94-12.85 128.14-17.15 121.19-17.3 121.19-3.2 133.29-3.8 136.19-10.2 139.94-9.15 138.64 0 109.89 0 109.89-3 113.84-3.5ZM159.99 0.55Q154.49 0.55 150.52-1.88 146.54-4.3 144.49-8.55 142.44-12.8 142.44-18.15L142.44-18.15Q142.44-24.3 144.82-28.7 147.19-33.1 151.54-35.35 155.89-37.6 161.69-37.6L161.69-37.6Q167.14-37.6 173.94-36.05L173.94-36.05 173.39-26.75 168.34-26.75 166.99-33.15Q166.49-33.65 165.09-34.08 163.69-34.5 161.44-34.5L161.44-34.5Q156.54-34.5 153.74-30.53 150.94-26.55 150.94-19.05L150.94-19.05Q150.94-11.7 153.34-7.18 155.74-2.65 160.64-2.65L160.64-2.65Q162.64-2.65 164.39-3.15 166.14-3.65 167.04-4.45L167.04-4.45 167.04-15.2 161.74-15.7 161.74-19.05 176.94-19.05 176.94-15.7 174.29-15.25 174.29-2Q173.24-1.95 170.49-1.15L170.49-1.15Q167.29-0.3 165.02 0.13 162.74 0.55 159.99 0.55L159.99 0.55ZM180.04-3.5L191.54-37.35 199.19-37.35 210.74-3.5 213.64-3 213.64 0 198.89 0 198.89-3 202.64-3.5 200.69-10 187.74-10 185.79-3.45 189.84-3 189.84 0 177.09 0 177.04-3 180.04-3.5ZM199.69-13.5L194.99-28.9 194.09-32.8 193.14-28.85 188.69-13.5 199.69-13.5ZM227.09-3.5L227.09-33.85 219.94-33.6 217.99-22.7 213.79-22.7 214.64-37.15 246.89-37.15 247.49-22.7 243.54-22.7 241.59-33.6 234.54-33.85 234.54-3.5 241.54-3 241.54 0 220.69 0 220.69-3 227.09-3.5ZM254.48-3.5L254.48-33.4 250.48-34.05 250.48-37.15 277.13-37.15 277.78-28.75 274.28-28.75 272.63-33.7 261.83-34.15 261.83-20.7 268.78-20.85 269.58-24.95 272.78-24.95 272.78-12.85 269.58-12.85 268.78-17.15 261.83-17.3 261.83-3.2 273.93-3.8 276.83-10.2 280.58-9.15 279.28 0 250.53 0 250.53-3 254.48-3.5Z" opacity="1" transform="matrix(1,0,0,1,0,0)" fill="#000000" class="undefined-text-0" data-fill-palette-color="primary" id="text-0"></path></svg></g></svg></g><g transform="matrix(1,0,0,1,75.54432,66.9223521302045)"><svg viewBox="0 0 244.43135999999998 26.189074285714288" height="26.189074285714288" width="244.43135999999998"><g transform="matrix(1,0,0,1,0,0)"><svg width="244.43135999999998" viewBox="2 -32.70000076293945 310.7699890136719 33.29999923706055" height="26.189074285714288" data-palette-color="#ffffff"><path d="M14.3-11.2L14.3-11.65 14.35-13.4 14.35-15.15Q14.35-21 10.55-21L10.55-21Q8.9-21 7.98-19.88 7.05-18.75 7.05-17.25 7.05-15.75 7.45-14.65L7.45-14.65Q6.6-13.9 5.1-13.9 3.6-13.9 3.6-16.35 3.6-18.8 5.53-20.5 7.45-22.2 11-22.2L11-22.2Q17.95-22.2 17.95-14L17.95-14 17.95-3.75Q17.95-1.05 19.45-1.05L19.45-1.05Q20.15-1.05 20.68-1.7 21.2-2.35 21.2-3.2 21.2-4.05 21.05-4.8L21.05-4.8 22-4.95Q22.2-4.2 22.2-3.3L22.2-3.3Q22.2-1.5 21.13-0.45 20.05 0.6 18.3 0.6 16.55 0.6 15.45-0.83 14.35-2.25 14.35-5.1L14.35-5.1 14.35-6Q13.5-2.6 11.65-1 9.8 0.6 7.38 0.6 4.95 0.6 3.48-0.93 2-2.45 2-4.98 2-7.5 4.35-9.47 6.7-11.45 11.1-11.45L11.1-11.45Q12.05-11.45 14.3-11.2L14.3-11.2ZM8.5-1.3L8.5-1.3Q10.6-1.3 12.28-3.68 13.95-6.05 14.25-10.35L14.25-10.35Q13.75-10.4 12.85-10.4L12.85-10.4Q8.85-10.4 7.13-8.72 5.4-7.05 5.4-4.85L5.4-4.85Q5.4-3.4 6.25-2.35 7.1-1.3 8.5-1.3ZM45.55-14.6L45.55-14.6 45.55-1.5Q45.55-0.9 46.25-0.9L46.25-0.9 48.6-0.9 48.6 0 39.6 0 39.6-0.9 41.25-0.9Q41.95-0.9 41.95-1.5L41.95-1.5 41.95-15.25Q41.95-17.8 40.82-19.03 39.7-20.25 37.85-20.25L37.85-20.25Q35.25-20.25 33.55-17.18 31.85-14.1 31.85-8.35L31.85-8.35 31.85-1.6Q31.85-0.9 32.55-0.9L32.55-0.9 34.2-0.9 34.2 0 25.2 0 25.2-0.9 27.55-0.9Q28.25-0.9 28.25-1.5L28.25-1.5 28.25-20Q28.25-20.7 27.55-20.7L27.55-20.7 25.2-20.7 25.2-21.6 27.65-21.6Q30.65-21.6 31.85-21.9L31.85-21.9 31.85-15.1Q33.55-22.2 39.35-22.2L39.35-22.2Q41.95-22.2 43.75-20.33 45.55-18.45 45.55-14.6ZM74.94-22.2L74.94-22.2Q78.39-22.2 80.39-19.9 82.39-17.6 82.39-13.15L82.39-13.15Q82.39-12.25 82.29-11.15L82.29-11.15 68.64-11.15 68.64-10.8Q68.64-6.05 70.37-3.33 72.09-0.6 74.82-0.6 77.54-0.6 79.29-2 81.04-3.4 81.69-6L81.69-6 82.64-5.8Q82.04-2.75 79.89-1.07 77.74 0.6 74.94 0.6L74.94 0.6Q70.59 0.6 67.72-2.45 64.84-5.5 64.84-10.78 64.84-16.05 67.74-19.13 70.64-22.2 74.94-22.2ZM78.94-14.85L78.94-14.85Q78.94-21 74.34-21L74.34-21Q72.04-21 70.42-18.5 68.79-16 68.69-12.15L68.69-12.15 78.74-12.15Q78.94-13.85 78.94-14.85ZM101.74 0.3L101.74 0.3 101.74-4Q98.94 0.6 95.12 0.6 91.29 0.6 89.09-2.45 86.89-5.5 86.89-10.75 86.89-16 89.69-19.1 92.49-22.2 96.74-22.2L96.74-22.2Q99.49-22.2 101.74-20.85L101.74-20.85 101.74-30.8Q101.74-31.5 101.04-31.5L101.04-31.5 98.69-31.5 98.69-32.4 101.14-32.4Q104.14-32.4 105.34-32.7L105.34-32.7 105.34-1.6Q105.34-0.9 106.04-0.9L106.04-0.9 108.39-0.9 108.39 0 105.94 0Q102.94 0 101.74 0.3ZM96.87-20.7Q94.29-20.7 92.49-18.13 90.69-15.55 90.69-10.95 90.69-6.35 92.17-3.83 93.64-1.3 95.89-1.3L95.89-1.3Q99.14-1.3 101.74-5.85L101.74-5.85 101.74-19.3Q99.44-20.7 96.87-20.7ZM131.24-21.9L131.24-21.9 131.24-1.6Q131.24-0.9 131.94-0.9L131.94-0.9 134.29-0.9 134.29 0 131.84 0Q128.84 0 127.64 0.3L127.64 0.3 127.64-6.45Q125.94 0.6 120.14 0.6L120.14 0.6Q117.54 0.6 115.74-1.28 113.94-3.15 113.94-7L113.94-7 113.94-20Q113.94-20.7 113.24-20.7L113.24-20.7 110.89-20.7 110.89-21.6 113.34-21.6Q116.34-21.6 117.54-21.9L117.54-21.9 117.54-6.35Q117.54-3.8 118.66-2.58 119.79-1.35 121.64-1.35L121.64-1.35Q124.29-1.35 125.96-4.58 127.64-7.8 127.64-13.85L127.64-13.85 127.64-20Q127.64-20.7 126.94-20.7L126.94-20.7 124.59-20.7 124.59-21.6 127.04-21.6Q130.04-21.6 131.24-21.9ZM147.99-21L147.99-21Q145.14-21 143.36-18.28 141.59-15.55 141.59-10.8 141.59-6.05 143.31-3.33 145.04-0.6 147.76-0.6 150.49-0.6 152.24-2 153.99-3.4 154.64-6L154.64-6 155.59-5.8Q154.99-2.75 152.84-1.07 150.69 0.6 147.89 0.6L147.89 0.6Q143.54 0.6 140.66-2.45 137.79-5.5 137.79-10.8 137.79-16.1 140.69-19.15 143.59-22.2 147.99-22.2L147.99-22.2Q151.39-22.2 153.09-20.68 154.79-19.15 154.79-16.6L154.79-16.6Q154.79-13.3 152.94-13.3L152.94-13.3Q151.44-13.3 150.54-14.1L150.54-14.1Q151.24-15.6 151.24-17.23 151.24-18.85 150.41-19.93 149.59-21 147.99-21ZM171.13-11.2L171.13-11.65 171.18-13.4 171.18-15.15Q171.18-21 167.38-21L167.38-21Q165.73-21 164.81-19.88 163.88-18.75 163.88-17.25 163.88-15.75 164.28-14.65L164.28-14.65Q163.43-13.9 161.93-13.9 160.43-13.9 160.43-16.35 160.43-18.8 162.36-20.5 164.28-22.2 167.83-22.2L167.83-22.2Q174.78-22.2 174.78-14L174.78-14 174.78-3.75Q174.78-1.05 176.28-1.05L176.28-1.05Q176.98-1.05 177.51-1.7 178.03-2.35 178.03-3.2 178.03-4.05 177.88-4.8L177.88-4.8 178.83-4.95Q179.03-4.2 179.03-3.3L179.03-3.3Q179.03-1.5 177.96-0.45 176.88 0.6 175.13 0.6 173.38 0.6 172.28-0.83 171.18-2.25 171.18-5.1L171.18-5.1 171.18-6Q170.33-2.6 168.48-1 166.63 0.6 164.21 0.6 161.78 0.6 160.31-0.93 158.83-2.45 158.83-4.98 158.83-7.5 161.18-9.47 163.53-11.45 167.93-11.45L167.93-11.45Q168.88-11.45 171.13-11.2L171.13-11.2ZM165.33-1.3L165.33-1.3Q167.43-1.3 169.11-3.68 170.78-6.05 171.08-10.35L171.08-10.35Q170.58-10.4 169.68-10.4L169.68-10.4Q165.68-10.4 163.96-8.72 162.23-7.05 162.23-4.85L162.23-4.85Q162.23-3.4 163.08-2.35 163.93-1.3 165.33-1.3ZM186.68-26.9L186.68-26.9 187.43-26.9 187.43-21.6 192.43-21.6 192.43-20.7 187.43-20.7 187.43-3.75Q187.43-1.05 188.93-1.05L188.93-1.05Q189.63-1.05 190.16-1.7 190.68-2.35 190.68-3.2 190.68-4.05 190.53-4.8L190.53-4.8 191.48-4.95Q191.68-4.2 191.68-3.3L191.68-3.3Q191.68-1.5 190.61-0.45 189.53 0.6 187.78 0.6 186.03 0.6 184.93-0.83 183.83-2.25 183.83-5.1L183.83-5.1 183.83-20Q183.83-20.7 183.13-20.7L183.13-20.7 180.78-20.7 180.78-21.6 183.23-21.6Q184.83-21.6 186.68-26.9ZM198.73-1.6L198.73-1.6 198.73-20Q198.73-20.7 198.03-20.7L198.03-20.7 195.68-20.7 195.68-21.6 198.13-21.6Q201.13-21.6 202.33-21.9L202.33-21.9 202.33-1.5Q202.33-0.9 203.03-0.9L203.03-0.9 205.38-0.9 205.38 0 195.68 0 195.68-0.9 198.03-0.9Q198.73-0.9 198.73-1.6ZM198.85-27.13Q198.18-27.8 198.18-28.8 198.18-29.8 198.85-30.48 199.53-31.15 200.53-31.15 201.53-31.15 202.2-30.48 202.88-29.8 202.88-28.8 202.88-27.8 202.2-27.13 201.53-26.45 200.53-26.45 199.53-26.45 198.85-27.13ZM211.68-2.45Q208.88-5.5 208.88-10.8 208.88-16.1 211.68-19.15 214.48-22.2 218.98-22.2 223.48-22.2 226.3-19.15 229.13-16.1 229.13-10.8 229.13-5.5 226.3-2.45 223.48 0.6 218.98 0.6 214.48 0.6 211.68-2.45ZM214.48-18.32Q212.68-15.55 212.68-10.8 212.68-6.05 214.48-3.28 216.28-0.5 218.98-0.5 221.68-0.5 223.5-3.28 225.33-6.05 225.33-10.8 225.33-15.55 223.5-18.32 221.68-21.1 218.98-21.1 216.28-21.1 214.48-18.32ZM253.72-14.6L253.72-14.6 253.72-1.5Q253.72-0.9 254.42-0.9L254.42-0.9 256.77-0.9 256.77 0 247.77 0 247.77-0.9 249.42-0.9Q250.12-0.9 250.12-1.5L250.12-1.5 250.12-15.25Q250.12-17.8 249-19.03 247.87-20.25 246.02-20.25L246.02-20.25Q243.42-20.25 241.72-17.18 240.02-14.1 240.02-8.35L240.02-8.35 240.02-1.6Q240.02-0.9 240.72-0.9L240.72-0.9 242.37-0.9 242.37 0 233.37 0 233.37-0.9 235.72-0.9Q236.42-0.9 236.42-1.5L236.42-1.5 236.42-20Q236.42-20.7 235.72-20.7L235.72-20.7 233.37-20.7 233.37-21.6 235.82-21.6Q238.82-21.6 240.02-21.9L240.02-21.9 240.02-15.1Q241.72-22.2 247.52-22.2L247.52-22.2Q250.12-22.2 251.92-20.33 253.72-18.45 253.72-14.6ZM275.82-2.45Q273.02-5.5 273.02-10.8 273.02-16.1 275.82-19.15 278.62-22.2 283.12-22.2 287.62-22.2 290.44-19.15 293.27-16.1 293.27-10.8 293.27-5.5 290.44-2.45 287.62 0.6 283.12 0.6 278.62 0.6 275.82-2.45ZM278.62-18.32Q276.82-15.55 276.82-10.8 276.82-6.05 278.62-3.28 280.42-0.5 283.12-0.5 285.82-0.5 287.64-3.28 289.47-6.05 289.47-10.8 289.47-15.55 287.64-18.32 285.82-21.1 283.12-21.1 280.42-21.1 278.62-18.32ZM303.77-13.55L303.77-13.55 308.97-11.6Q310.82-10.9 311.79-9.47 312.77-8.05 312.77-6.3L312.77-6.3Q312.77-3.6 310.62-1.5 308.47 0.6 304.84 0.6 301.22 0.6 298.02-0.75L298.02-0.75Q298.32-1.95 298.32-4.95L298.32-4.95 298.32-6.95 299.22-6.95 299.57-4.35Q300.02-0.6 304.82-0.6L304.82-0.6Q306.97-0.6 308.39-1.93 309.82-3.25 309.82-4.95L309.82-4.95Q309.82-7.3 306.97-8.35L306.97-8.35 301.77-10.3Q300.02-10.95 299.12-12.35 298.22-13.75 298.22-15.5L298.22-15.5Q298.22-18.15 300.12-20.18 302.02-22.2 304.89-22.2 307.77-22.2 311.37-20.85L311.37-20.85Q311.07-19.65 311.07-16.65L311.07-16.65 311.07-14.65 310.17-14.65 309.82-17.25Q309.42-20.85 305.27-20.85L305.27-20.85Q303.42-20.85 302.22-19.7 301.02-18.55 301.02-17L301.02-17Q301.02-14.6 303.77-13.55Z" opacity="1" transform="matrix(1,0,0,1,0,0)" fill="#000000" class="undefined-text-1" data-fill-palette-color="secondary" id="text-1"></path></svg></g></svg></g></svg></g></svg></g><g transform="matrix(1,0,0,1,133.4200043466001,0)"><svg viewBox="0 0 128.67999130679976 128.6799913067998" height="128.6799913067998" width="128.67999130679976"><g><svg></svg></g><g id="icon-0"><svg viewBox="0 0 128.67999130679976 128.6799913067998" height="128.6799913067998" width="128.67999130679976"><g><path xmlns="http://www.w3.org/2000/svg" d="M38.604 128.68c-21.32 0-38.604-17.284-38.604-38.604v-51.472c0-21.32 17.284-38.604 38.604-38.604h51.472c21.32 0 38.604 17.284 38.604 38.604v51.472c0 21.32-17.284 38.604-38.604 38.604z" fill="#000000" fill-rule="nonzero" stroke="none" stroke-width="1" stroke-linecap="butt" stroke-linejoin="miter" stroke-miterlimit="10" stroke-dasharray="" stroke-dashoffset="0" font-family="none" font-weight="none" font-size="none" text-anchor="none" style="mix-blend-mode: normal" data-fill-palette-color="accent"></path></g><g transform="matrix(1,0,0,1,25.735998261359946,45.77801424544016)"><svg viewBox="0 0 77.20799478407987 37.12396281591947" height="37.12396281591947" width="77.20799478407987"><g><svg xmlns="http://www.w3.org/2000/svg" xmlns:xlink="http://www.w3.org/1999/xlink" version="1.1" x="0" y="0" viewBox="0 23.363250732421875 90 43.274749755859375" style="enable-background:new 0 0 90 90;" xml:space="preserve" height="37.12396281591947" width="77.20799478407987" class="icon-s-0" data-fill-palette-color="quaternary" id="s-0"><path d="M87.921 42.246L49.199 24.159c-2.275-1.061-6.123-1.061-8.398 0L2.08 42.246C0.269 43.088 0 44.209 0 44.807c0 0.59 0.269 1.718 2.08 2.561l7.204 3.369v7.794c-1.081 0.358-1.874 1.347-1.874 2.548 0 1.506 1.221 2.726 2.723 2.726s2.723-1.22 2.723-2.726c0-1.201-0.793-2.189-1.874-2.548v-7.004l13.316 6.222v1.393 0.657c0 1.996 2.6 3.787 6.723 5.041 3.671 1.114 8.543 1.798 13.909 1.798 5.367 0 10.242-0.684 13.914-1.798 4.119-1.254 6.72-3.045 6.72-5.041v-0.657-1.233-0.093l22.36-10.447C89.729 46.518 90 45.396 90 44.807 89.997 44.209 89.729 43.088 87.921 42.246zM10.132 62.106c-0.564 0-1.025-0.465-1.025-1.028 0-0.537 0.428-0.955 0.958-0.995 0.023 0 0.04 0.026 0.066 0.026s0.043-0.026 0.066-0.026c0.531 0.04 0.958 0.458 0.958 0.995C11.157 61.642 10.696 62.106 10.132 62.106zM26.712 48.886c3.367-3.907 10.255-6.6 18.218-6.6 7.99 0 14.902 2.713 18.256 6.64 0.02 0.02 0.032 0.046 0.053 0.073 0.238 0.285 0.428 0.583 0.627 0.875v0.617 0.133 0.623 5.838c-1.615-1.234-4.302-2.282-7.668-3.012-0.916-0.199-1.884-0.372-2.893-0.524-2.561-0.378-5.389-0.59-8.375-0.59-2.944 0-5.737 0.205-8.271 0.577-1.012 0.146-1.98 0.318-2.899 0.517-3.413 0.73-6.132 1.785-7.764 3.032v-5.838-0.623-0.199-0.558c0.212-0.318 0.421-0.637 0.68-0.941L26.712 48.886zM58.505 63.161c-3.19 0.994-7.728 1.777-13.575 1.777-5.847 0-10.384-0.783-13.574-1.777-3.227-1.009-5.005-2.229-5.26-3.132-0.023-0.072-0.1-0.159-0.1-0.231 0-0.213 0.106-0.444 0.302-0.696 0.189-0.246 0.484-0.505 0.856-0.77 1.552-1.115 4.683-2.329 9.253-3.045 0.992-0.152 2.076-0.272 3.204-0.378 1.648-0.146 3.39-0.252 5.319-0.252 1.978 0 3.752 0.112 5.437 0.265 1.121 0.106 2.199 0.226 3.188 0.385 4.511 0.724 7.615 1.917 9.153 3.025 0.372 0.265 0.667 0.523 0.856 0.77 0.195 0.252 0.302 0.483 0.302 0.696 0 0.072-0.076 0.159-0.1 0.231C63.51 60.932 61.732 62.152 58.505 63.161zM87.204 45.828L65.563 55.938v-6.242V49.37c-0.093-0.146-0.17-0.299-0.269-0.444-0.17-0.245-0.396-0.471-0.584-0.703-3.622-4.511-11.101-7.635-19.781-7.635-8.649 0-16.108 3.104-19.74 7.588-0.206 0.252-0.445 0.491-0.624 0.75-0.1 0.146-0.176 0.299-0.269 0.444v0.259 6.242l-13.316-6.216V44.76c0-0.471-0.381-0.849-0.849-0.849s-0.849 0.378-0.849 0.849v4.1l-6.487-3.031c-0.809-0.378-1.098-0.789-1.098-1.021 0-0.239 0.289-0.644 1.098-1.021l38.722-18.087c0.902-0.421 2.172-0.664 3.482-0.664 1.311 0 2.58 0.242 3.482 0.664l38.722 18.087c0.81 0.378 1.095 0.782 1.098 1.021C88.302 45.039 88.014 45.45 87.204 45.828z" fill="#ffffff" data-fill-palette-color="quaternary"></path></svg></g></svg></g></svg></g></svg></g><g></g></svg></g><defs></defs></svg><rect width="395.52" height="234.5728010692848" fill="none" stroke="none" visibility="hidden"></rect></g></svg></g></svg>