<svg width="45" height="45" viewBox="0 0 45 45" fill="none" xmlns="http://www.w3.org/2000/svg">
<circle cx="22.5" cy="22.5" r="22.5" fill="#C4C4C4"/>
<path opacity="0.4" d="M22.5 45C34.9263 45 45 34.9265 45 22.5C45 10.0736 34.9263 0 22.5 0C10.0736 0 0 10.0736 0 22.5C0 34.9265 10.0736 45 22.5 45Z" fill="white"/>
<path d="M22.5 10.259C17.8425 10.259 14.0625 14.039 14.0625 18.6964C14.0625 23.264 17.64 26.9765 22.3875 27.1115H22.59H22.7475H22.7925C27.3375 26.954 30.915 23.264 30.9375 18.6964C30.9375 14.039 27.1575 10.259 22.5 10.259Z" fill="white"/>
<path d="M38.01 38.4263C34.005 42.1163 28.65 44.3888 22.755 44.3888C16.86 44.3888 11.505 42.1163 7.5 38.4263C8.04 36.3788 9.5025 34.5113 11.64 33.0713C17.7825 28.9762 27.7725 28.9762 33.87 33.0713C36.03 34.5113 37.47 36.3788 38.01 38.4263Z" fill="white"/>
</svg>
