<?xml version="1.0" encoding="utf-8"?>
<!-- Generator: Adobe Illustrator 25.2.1, SVG Export Plug-In . SVG Version: 6.00 Build 0)  -->
<svg version="1.1" id="Layer_1" xmlns="http://www.w3.org/2000/svg" xmlns:xlink="http://www.w3.org/1999/xlink" x="0px" y="0px"
	 viewBox="0 0 50 50" style="enable-background:new 0 0 50 50;" xml:space="preserve">
<style type="text/css">
	.st0{fill:none;stroke:#D1BFDD;stroke-width:2;stroke-miterlimit:10;}
	.st1{fill:#F37025;}
</style>
<path class="st0" d="M18.7,3.5c3.7-2.1,8.2-2.1,11.9,0L40.1,9c3.7,2.1,6,6,6,10.2v11c0,4.2-2.3,8.1-6,10.2L30.6,46
	c-3.7,2.1-8.2,2.1-11.9,0l-9.6-5.5c-3.7-2.1-6-6-6-10.2v-11c0-4.2,2.3-8.1,6-10.2L18.7,3.5z"/>
<path class="st1" d="M21.1,13.7c0-1.5,1.2-2.7,2.7-2.7h1.8c1.5,0,2.7,1.2,2.7,2.7v19.5c0,1.5-1.2,2.7-2.7,2.7h-1.8
	c-1.5,0-2.7-1.2-2.7-2.7V13.7z M12.2,24.3c0-1.5,1.2-2.7,2.7-2.7h1.8c1.5,0,2.7,1.2,2.7,2.7v8.8c0,1.5-1.2,2.7-2.7,2.7h-1.8
	c-1.5,0-2.7-1.2-2.7-2.7V24.3z M32.6,14.6h1.8c1.5,0,2.7,1.2,2.7,2.7v15.9c0,1.5-1.2,2.7-2.7,2.7h-1.8c-1.5,0-2.7-1.2-2.7-2.7V17.2
	C29.9,15.8,31.1,14.6,32.6,14.6z"/>
</svg>
