<svg width="22" height="20" viewBox="0 0 22 20" fill="none" xmlns="http://www.w3.org/2000/svg">
<path d="M19.1487 6.65944C19.8739 5.95457 20.3259 4.96671 20.3259 3.87473C20.3259 2.79589 19.8735 1.75795 19.085 1.0267C18.9518 0.903244 18.7448 0.912022 18.6221 1.0456C18.4994 1.17961 18.5081 1.38792 18.6409 1.51142C19.2954 2.1183 19.6709 2.97958 19.6709 3.87473C19.6709 6.24067 17.2103 7.77582 15.1241 6.78329C15.0429 6.74472 14.9888 6.66441 14.9835 6.57425C14.957 6.12685 14.7648 4.70379 13.411 3.71096C13.3385 3.65782 13.2997 3.56921 13.3106 3.47961C13.5599 1.42567 15.6892 0.11327 17.6397 0.881276C17.8082 0.947179 17.9981 0.863719 18.0641 0.694075C18.13 0.52443 18.0466 0.333293 17.8781 0.26739C15.6016 -0.627925 13.1153 0.820995 12.6929 3.18542C12.6838 3.2368 12.6292 3.26517 12.5811 3.24558C11.6539 2.86815 10.6173 2.87346 9.70372 3.24571C9.65581 3.26521 9.6015 3.23701 9.59234 3.18581C9.26866 1.37866 7.69446 0.00282603 5.80662 0.00282603C4.16354 0.00282603 2.70076 1.05352 2.16717 2.6166C2.10822 2.78884 2.19948 2.97608 2.37063 3.03537C2.54134 3.09427 2.72783 3.00285 2.78674 2.83061C3.22906 1.53339 4.44293 0.661988 5.80658 0.661988C7.43359 0.661988 8.78028 1.89357 8.97445 3.47896C8.98537 3.56826 8.94743 3.65678 8.87528 3.70988C7.95442 4.38811 7.37516 5.44486 7.30396 6.57339C7.29829 6.66325 7.24475 6.74342 7.16388 6.78195C5.15324 7.74005 2.71232 6.35565 2.61684 4.0074C2.60941 3.82547 2.45747 3.68484 2.27627 3.69146C2.0955 3.69894 1.95534 3.85228 1.96234 4.03421C2.00209 5.00978 2.40028 5.92248 3.08627 6.61196C1.33702 6.90774 0 8.44224 0 10.2853V15.7361C0 16.4552 0.579262 17.0382 1.29379 17.0382H5.33625V18.6976C5.33625 19.4169 5.91572 20 6.63047 20L15.3997 19.9996C16.0966 19.9837 16.6638 19.3997 16.6638 18.6975V17.0382H20.7058C21.4206 17.0382 22 16.455 22 15.7357V10.2853C22 8.52575 20.7809 7.04747 19.1487 6.65944ZM9.65121 3.99646C11.6493 2.92886 14.1306 4.26487 14.3229 6.56059L14.3199 6.56102L14.3229 6.56059C14.3435 6.79773 14.3352 7.04081 14.3116 7.21975C14.3085 7.22018 14.305 7.22018 14.3015 7.22018L14.3116 7.21975C14.2284 8.07013 13.7215 8.97302 12.892 9.52152H12.8903V9.52281C12.2113 9.97151 11.4213 10.123 10.6826 10.015C10.304 9.97008 9.81269 9.79992 9.39275 9.52147C7.35152 8.17085 7.51244 5.13519 9.65121 3.99646ZM15.3765 19.3408H6.63047C6.27743 19.3408 5.99122 19.0528 5.99122 18.6975V13.2471C5.99122 12.5589 6.21259 11.9086 6.63132 11.3668C6.74223 11.2231 6.71649 11.0161 6.5737 10.904C6.43092 10.7924 6.22527 10.8183 6.11389 10.962C5.60519 11.6207 5.33625 12.4108 5.33625 13.2471V16.379H1.29379C0.940973 16.379 0.654973 16.0911 0.654973 15.7361V10.2853C0.654973 8.59204 2.01893 7.21936 3.70146 7.21936H3.8665C4.84649 7.79666 6.02581 7.89837 7.07184 7.53088C7.21162 7.4818 7.36119 7.56596 7.39462 7.71104C7.52825 8.29102 7.79178 8.82145 8.15246 9.26967C8.26379 9.40805 8.19461 9.61488 8.02441 9.66353C7.73347 9.74669 7.45293 9.86548 7.19026 10.0181C7.03351 10.1095 6.9798 10.3108 7.07016 10.4686C7.16053 10.6263 7.36098 10.6804 7.51773 10.5894C8.25748 10.1588 8.93282 10.1784 9.14667 10.1815C9.18814 10.1821 9.22836 10.1937 9.26453 10.2141C10.4494 10.8838 11.884 10.8587 13.0112 10.2195C13.0525 10.196 13.0994 10.1836 13.1467 10.1864C14.7366 10.2822 16.0088 11.6145 16.0088 13.2471C16.0088 14.3475 16.0088 17.5973 16.0088 18.6975C16.0088 19.0547 15.7128 19.3408 15.3765 19.3408ZM21.345 15.7361C21.345 16.0907 21.0582 16.379 20.7058 16.379H16.6638V13.2471C16.6638 11.4872 15.4451 10.0084 13.812 9.62089C14.4414 9.00986 14.8229 8.22992 14.9451 7.42502C16.0388 7.90689 17.3349 7.85296 18.4103 7.22156C20.0381 7.28089 21.345 8.6326 21.345 10.2853V15.7361Z" fill="white" fill-opacity="0.81"/>
</svg>
