<svg width="23" height="22" viewBox="0 0 23 22" fill="none" xmlns="http://www.w3.org/2000/svg">
<path d="M22.347 7.94531L11.472 0.0703125C11.3408 -0.0234375 11.1645 -0.0234375 11.0333 0.0703125L6.75451 3.17156V1.87781C6.75451 1.67156 6.58576 1.50281 6.37951 1.50281H3.37576C3.16951 1.50281 3.00076 1.67156 3.00076 1.87781V5.89031L0.154512 7.94906C0.0232622 8.04281 -0.0329879 8.21531 0.0195121 8.36906C0.0682621 8.52281 0.214512 8.62781 0.375762 8.62781H17.2508C17.457 8.62781 17.6258 8.45906 17.6258 8.25281C17.6258 8.04656 17.457 7.87781 17.2508 7.87781H1.53451L3.59701 6.38531C3.69451 6.31406 3.75076 6.20156 3.75076 6.08156V2.24906H6.00076V3.90281C6.00076 4.04531 6.07951 4.17281 6.20701 4.23656C6.33451 4.30031 6.48451 4.28906 6.59701 4.20656L11.2508 0.835312L20.967 7.87406H19.8758C19.6695 7.87406 19.5008 8.04281 19.5008 8.24906V20.9991H3.00076V10.1241C3.00076 9.91781 2.83201 9.74906 2.62576 9.74906C2.41951 9.74906 2.25076 9.91781 2.25076 10.1241V21.3741C2.25076 21.5803 2.41951 21.7491 2.62576 21.7491H19.8758C20.082 21.7491 20.2508 21.5803 20.2508 21.3741V8.62406H22.1258C22.287 8.62406 22.4333 8.51906 22.482 8.36531C22.5308 8.21156 22.4783 8.04281 22.347 7.94531Z" fill="white" fill-opacity="0.81"/>
<path d="M8.16456 19.4127C8.41581 19.7052 8.78331 19.8739 9.17331 19.8739C9.90456 19.8739 10.5008 19.2777 10.5008 18.5464V10.1239C10.5008 9.98895 10.4296 9.8652 10.3133 9.7977C10.1971 9.7302 10.0546 9.7302 9.93831 9.7977C9.35706 10.1389 8.83956 10.5214 8.39706 10.9339C7.17831 12.0852 6.96831 13.9339 7.90206 15.3327L8.23581 15.8314L7.86081 18.3439C7.80456 18.7264 7.91706 19.1164 8.16831 19.4089L8.16456 19.4127ZM8.91081 11.4814C9.16206 11.2452 9.44331 11.0164 9.75081 10.8064V18.5464C9.75081 18.8652 9.49206 19.1239 9.17331 19.1239C9.00456 19.1239 8.84331 19.0489 8.73456 18.9214C8.62581 18.7939 8.57706 18.6252 8.59956 18.4564L8.99706 15.8014C9.01206 15.7077 8.98956 15.6139 8.93706 15.5389L8.52456 14.9164C7.79706 13.8214 7.95831 12.3777 8.91081 11.4777V11.4814Z" fill="white" fill-opacity="0.81"/>
<path d="M11.626 9.74902C11.4197 9.74902 11.251 9.91777 11.251 10.124V11.7365C11.251 12.2615 11.5097 12.749 11.9485 13.0378C12.1997 13.2065 12.3385 13.4953 12.3047 13.8103L12.0385 18.0965C12.0047 18.614 12.256 19.1165 12.6872 19.4053C12.9347 19.5703 13.216 19.6528 13.4972 19.6528C13.7785 19.6528 14.0635 19.5703 14.3072 19.4053C14.7385 19.1165 14.9897 18.6178 14.956 18.0965L14.6897 13.7953C14.6597 13.4953 14.7985 13.2028 15.0497 13.0378C15.4847 12.7453 15.7472 12.2615 15.7472 11.7365V10.124C15.7472 9.91777 15.5785 9.74902 15.3722 9.74902C15.166 9.74902 14.9972 9.91777 14.9972 10.124V11.7365C14.9972 12.0103 14.8622 12.2615 14.6335 12.4153C14.1497 12.7378 13.8872 13.2965 13.9435 13.859L14.2097 18.149C14.2247 18.4003 14.1047 18.6478 13.8947 18.7865C13.6547 18.9478 13.3435 18.9478 13.1035 18.7865C12.8935 18.6478 12.7697 18.4003 12.7885 18.149L13.051 13.874C13.1072 13.2965 12.8447 12.7378 12.361 12.4153C12.1322 12.2653 11.9972 12.0103 11.9972 11.7365V10.124C11.9972 9.91777 11.8285 9.74902 11.6222 9.74902H11.626Z" fill="white" fill-opacity="0.81"/>
<path d="M13.876 11.999V10.124C13.876 9.91777 13.7072 9.74902 13.501 9.74902C13.2947 9.74902 13.126 9.91777 13.126 10.124V11.999C13.126 12.2053 13.2947 12.374 13.501 12.374C13.7072 12.374 13.876 12.2053 13.876 11.999Z" fill="white" fill-opacity="0.81"/>
</svg>
