<svg width="300" height="242" viewBox="0 0 300 242" fill="none" xmlns="http://www.w3.org/2000/svg">
<path d="M277.087 58.5692H269.559V133.84H277.087C289.552 133.826 299.654 123.723 299.668 111.259V81.15C299.654 68.6853 289.552 58.5829 277.087 58.5692Z" fill="#24A2AA"/>
<path d="M0 81.15V111.259C0.0137821 123.723 10.1162 133.826 22.5809 133.84H30.1088V58.5692H22.5809C10.1162 58.5829 0.0137821 68.6853 0 81.15Z" fill="#24A2AA"/>
<path fill-rule="evenodd" clip-rule="evenodd" d="M82.4561 0C61.4692 0 44.4561 17.0132 44.4561 38V165.228C44.4561 186.215 61.4692 203.228 82.456 203.228H117.406L118.776 233.34C119.096 240.367 126.991 244.327 132.815 240.382L187.659 203.228H217.446C238.433 203.228 255.446 186.215 255.446 165.228V38C255.446 17.0132 238.433 0 217.446 0H82.4561Z" fill="#24A2AA"/>
<path d="M71.4565 50.0007L74.7653 56.051L80.8156 59.3598L74.7653 62.6685L71.4565 68.7189L68.1478 62.6685L62.0974 59.3598L68.1478 56.051L71.4565 50.0007Z" fill="white"/>
<path d="M84.559 65.5992L86.7652 69.6323L90.7984 71.8386L86.7652 74.0448L84.559 78.078L82.3527 74.0448L78.3196 71.8386L82.3527 69.6323L84.559 65.5992Z" fill="white"/>
<path d="M71.4566 78.7018L72.5597 80.7184L74.5763 81.8215L72.5597 82.9246L71.4566 84.9412L70.3535 82.9246L68.3369 81.8215L70.3535 80.7184L71.4566 78.7018Z" fill="white"/>
<path fill-rule="evenodd" clip-rule="evenodd" d="M215.303 62.1924C217.438 61.3102 218.731 59.5181 218.752 57.2631C218.773 55.0081 217.518 52.7412 215.821 52.2743L157.34 29.1762L157.34 29.1761C155.643 28.7093 153.946 28.2424 152.245 28.2265C150.544 28.2106 148.838 28.6457 147.133 29.0808L88.2304 51.0827C86.0954 51.9649 84.8026 53.757 84.7816 56.012C84.7605 58.267 86.0196 60.0829 88.1377 61.0048L100.004 65.626C96.5469 71.4572 94.3572 78.2024 94.2898 85.4184L94.235 91.2814C94.1761 97.5954 91.9864 104.341 89.3882 109.278C88.0831 112.422 86.3571 115.112 84.631 117.801L84.6346 117.787C85.0686 116.302 85.1776 115.867 85.1236 116.021C85.0696 116.175 84.8526 116.918 84.6346 117.787L84.6299 117.803L84.631 117.801C84.3158 119.06 84.0006 120.577 84.1751 120.956C84.592 121.862 85.4341 122.772 86.7058 123.235L93.2798 124.3L99.8565 126.966C100.4 127.261 100.947 127.184 101.495 126.973C102.085 132.444 103.358 137.596 105.589 142.429C108.622 149.361 112.521 154.993 117.719 160.192C122.918 164.957 128.55 168.856 135.482 171.889C141.98 174.922 149.345 176.221 156.71 176.221C162.776 176.221 168.408 174.922 174.04 173.189C179.672 171.456 184.437 168.856 189.203 165.391C193.968 161.925 197.867 158.026 201.333 153.26C204.799 148.928 207.398 143.729 209.131 138.53H194.835C193.535 141.996 191.802 145.029 189.636 148.061C187.47 151.094 184.87 153.693 181.405 155.859C177.939 158.459 174.473 160.192 170.14 161.492C165.808 162.791 161.476 163.658 156.71 163.658C151.512 163.658 146.313 162.791 141.547 160.625C136.782 158.892 132.449 155.859 128.55 152.394C125.084 148.928 121.619 145.029 119.452 140.263C117.286 135.498 115.987 130.732 115.553 125.533H213.03V123.367V121.201C213.03 117.683 212.034 114.191 211.027 110.667L211.027 110.666L211.027 110.666C210.671 109.417 210.313 108.164 209.998 106.904C208.698 101.705 206.532 96.9399 203.499 91.7411C201.766 88.2753 199.167 85.2427 196.134 81.7768C195.855 81.2173 195.394 80.8384 194.87 80.4069C194.582 80.1702 194.275 79.9176 193.968 79.6107L193.535 79.1774L180.105 83.943L163.642 90.0082C161.476 90.8747 158.876 91.3079 156.277 91.3079C153.678 91.3079 151.078 90.8747 148.912 90.0082L132.449 83.943L119.019 79.1774L118.586 79.6107L116.853 81.3436C112.954 85.2427 109.488 89.575 106.889 94.7738C107.105 95.4236 107.322 96.1818 107.539 96.94C107.755 97.6981 107.972 98.4563 108.188 99.1061C109.488 105.171 110.355 113.403 108.622 122.501C108.622 123.367 108.188 124.234 107.322 124.667C106.455 125.1 105.589 125.533 104.722 125.1L103.616 124.823C103.673 124.65 103.708 124.473 103.71 124.296C105.503 114.39 104.729 106.264 103.512 99.9378C103.305 99.2593 103.1 98.468 102.895 97.6768C102.689 96.8855 102.484 96.0943 102.278 95.4158C102.072 94.7374 101.76 93.9451 101.448 93.1529L101.448 93.1528C101.137 92.3606 100.825 91.5684 100.619 90.89L100.669 85.4779C100.733 78.713 102.918 72.4188 106.792 67.4935C109.378 63.9094 112.805 61.2351 117.075 59.4708L149.95 46.2467C151.659 45.3605 153.352 46.2784 154.186 48.0904C155.02 49.9023 154.152 51.6984 152.443 52.5845L119.568 65.8087C117.004 67.1379 114.439 68.467 112.717 70.7061L120.768 73.9386L136.024 79.9446L146.194 84.0989C147.891 84.5658 149.588 85.0327 151.289 85.0486C152.99 85.0645 154.695 84.6294 156.401 84.1943L166.646 80.2306L182.012 74.5106L215.303 62.1924ZM121.807 110.952C121.821 110.779 121.836 110.564 121.836 110.421C121.836 108.024 120.199 106.459 117.96 106.459C115.678 106.459 113.999 108.095 113.999 110.378C113.999 112.66 115.664 114.31 118.233 114.31C119.554 114.31 120.63 113.879 121.319 113.061L120.357 111.956C119.812 112.516 119.137 112.789 118.276 112.789C116.941 112.789 116.009 112.071 115.793 110.952H121.807ZM115.779 109.76C115.951 108.641 116.798 107.895 117.96 107.895C119.137 107.895 119.984 108.655 120.128 109.76H115.779ZM131.065 103.56H129.271V107.493C128.668 106.789 127.793 106.459 126.802 106.459C124.578 106.459 122.927 107.995 122.927 110.378C122.927 112.76 124.578 114.31 126.802 114.31C127.85 114.31 128.74 113.951 129.343 113.219V114.21H131.065V103.56ZM129.3 110.378C129.3 111.841 128.309 112.774 127.018 112.774C125.726 112.774 124.736 111.841 124.736 110.378C124.736 108.914 125.726 107.981 127.018 107.981C128.309 107.981 129.3 108.914 129.3 110.378ZM140.832 106.545H139.038V110.421C139.038 111.956 138.191 112.731 136.943 112.731C135.809 112.731 135.149 112.071 135.149 110.679V106.545H133.355V110.923C133.355 113.234 134.689 114.31 136.656 114.31C137.646 114.31 138.55 113.937 139.124 113.234V114.21H140.832V106.545ZM145.205 105.498L146.468 104.436L147.731 105.498H149.209L147.286 103.531H145.65L143.726 105.498H145.205ZM150.357 110.952C150.372 110.779 150.386 110.564 150.386 110.421C150.386 108.024 148.75 106.459 146.511 106.459C144.229 106.459 142.55 108.095 142.55 110.378C142.55 112.66 144.214 114.31 146.784 114.31C148.104 114.31 149.18 113.879 149.869 113.061L148.908 111.956C148.362 112.516 147.688 112.789 146.827 112.789C145.492 112.789 144.559 112.071 144.344 110.952H150.357ZM144.329 109.76C144.502 108.641 145.348 107.895 146.511 107.895C147.688 107.895 148.535 108.655 148.678 109.76H144.329ZM159.716 106.545H158.008V107.564C157.377 106.804 156.429 106.459 155.353 106.459C153.157 106.459 151.478 107.923 151.478 110.148C151.478 112.372 153.157 113.865 155.353 113.865C156.386 113.865 157.29 113.535 157.922 112.846V113.248C157.922 114.798 157.176 115.573 155.482 115.573C154.42 115.573 153.329 115.214 152.655 114.654L151.851 116.004C152.726 116.721 154.147 117.094 155.582 117.094C158.266 117.094 159.716 115.831 159.716 113.047V106.545ZM157.951 110.148C157.951 111.454 156.975 112.344 155.626 112.344C154.262 112.344 153.286 111.454 153.286 110.148C153.286 108.856 154.262 107.981 155.626 107.981C156.975 107.981 157.951 108.856 157.951 110.148ZM168.49 109.717C168.49 107.507 167.213 106.459 165.002 106.459C163.768 106.459 162.577 106.775 161.759 107.407L162.462 108.713C163.036 108.239 163.926 107.952 164.787 107.952C166.064 107.952 166.696 108.569 166.696 109.617V109.732H164.715C162.39 109.732 161.529 110.736 161.529 112.014C161.529 113.348 162.634 114.31 164.385 114.31C165.533 114.31 166.366 113.937 166.796 113.277V114.21H168.49V109.717ZM166.696 111.813C166.395 112.602 165.634 113.004 164.758 113.004C163.84 113.004 163.294 112.588 163.294 111.942C163.294 111.382 163.625 110.923 164.845 110.923H166.696V111.813ZM175.4 113.793L174.897 112.516C174.624 112.731 174.266 112.832 173.893 112.832C173.204 112.832 172.83 112.43 172.83 111.684V108.038H174.883V106.603H172.83V104.852H171.036V106.603H169.773V108.038H171.036V111.727C171.036 113.42 171.998 114.31 173.677 114.31C174.323 114.31 174.969 114.138 175.4 113.793ZM183.799 110.952C183.814 110.779 183.828 110.564 183.828 110.421C183.828 108.024 182.192 106.459 179.953 106.459C177.671 106.459 175.992 108.095 175.992 110.378C175.992 112.66 177.656 114.31 180.225 114.31C181.546 114.31 182.622 113.879 183.311 113.061L182.35 111.956C181.804 112.516 181.13 112.789 180.269 112.789C178.934 112.789 178.001 112.071 177.786 110.952H183.799ZM177.771 109.76C177.943 108.641 178.79 107.895 179.953 107.895C181.13 107.895 181.976 108.655 182.12 109.76H177.771ZM190.192 114.21L191.183 111.884H196.206L197.211 114.21H199.162L194.627 104.163H192.79L188.269 114.21H190.192ZM195.589 110.421H191.814L193.694 106.029L195.589 110.421ZM200.44 104.163V114.21H202.306V104.163H200.44Z" fill="white"/>
</svg>
