<svg width="28" height="28" viewBox="0 0 28 28" fill="none" xmlns="http://www.w3.org/2000/svg">
<path d="M23.8995 4.10052C21.2552 1.45627 17.7395 0 14.0001 0C10.2605 0 6.74477 1.45627 4.10047 4.10052C1.45627 6.74477 0 10.2604 0 13.9999C0 17.7395 1.45627 21.2552 4.10047 23.8995C6.74477 26.5437 10.2605 28 14.0001 28C17.7395 28 21.2552 26.5437 23.8995 23.8995C26.5438 21.2552 28 17.7395 28 13.9999C28 10.2604 26.5437 6.74477 23.8995 4.10052ZM14.0001 26.9062C6.88352 26.9062 1.09375 21.1165 1.09375 13.9999C1.09375 6.88346 6.88352 1.09375 14.0001 1.09375C21.1165 1.09375 26.9062 6.88346 26.9062 13.9999C26.9062 21.1165 21.1165 26.9062 14.0001 26.9062Z" fill="#347629"/>
<path d="M19.6213 9.60792L11.9974 17.2318L8.37892 13.6132C8.16537 13.3997 7.81909 13.3997 7.60548 13.6132C7.39192 13.8268 7.39192 14.1731 7.60548 14.3867L11.6107 18.3919C11.7133 18.4945 11.8523 18.5521 11.9974 18.5521C12.1424 18.5521 12.2815 18.4945 12.3841 18.3919L20.3946 10.3814C20.6082 10.1678 20.6082 9.82153 20.3946 9.60792C20.181 9.39437 19.8349 9.39437 19.6213 9.60792Z" fill="#347629"/>
</svg>
