<svg width="230" height="167" viewBox="0 0 230 167" fill="none" xmlns="http://www.w3.org/2000/svg">
<g clip-path="url(#clip0_48_60)">
<path d="M92.5 154H178.607C193.185 154 205 141.619 205 126.342V31.6579C205 16.3808 193.185 4 178.607 4H30.3934C15.8148 4 4 16.3808 4 31.6579V77.2617" stroke="black" stroke-width="12" stroke-miterlimit="10" stroke-linecap="round"/>
<path d="M42.9541 167C65.3615 167 83.5263 148.8 83.5263 126.348C83.5263 103.897 65.3615 85.6969 42.9541 85.6969C20.5467 85.6969 2.38184 103.897 2.38184 126.348C2.38184 148.8 20.5467 167 42.9541 167Z" fill="black"/>
<path d="M62.4415 123.025H21.25V129.4H62.4415V123.025Z" fill="white"/>
<path d="M84 72.4315C84 66.5379 85.2841 61.2959 87.8522 56.7057C90.4202 52.0588 93.987 48.4603 98.5526 45.9102C103.175 43.3034 108.397 42 114.218 42C121.352 42 127.458 43.8701 132.537 47.6103C137.616 51.3505 141.012 56.4507 142.724 62.911H126.63C125.432 60.4176 123.72 58.5191 121.494 57.2157C119.326 55.9123 116.843 55.2607 114.047 55.2607C109.538 55.2607 105.886 56.8191 103.09 59.9359C100.293 63.0527 98.895 67.2179 98.895 72.4315C98.895 77.6451 100.293 81.8103 103.09 84.9271C105.886 88.0439 109.538 89.6023 114.047 89.6023C116.843 89.6023 119.326 88.9506 121.494 87.6472C123.72 86.3438 125.432 84.4454 126.63 81.9519H142.724C141.012 88.4122 137.616 93.5125 132.537 97.2527C127.458 100.936 121.352 102.778 114.218 102.778C108.397 102.778 103.175 101.503 98.5526 98.9528C93.987 96.346 90.4202 92.7474 87.8522 88.1572C85.2841 83.567 84 78.3251 84 72.4315ZM166.327 62.826C168.039 60.2192 170.179 58.1791 172.747 56.7057C175.315 55.1756 178.169 54.4106 181.308 54.4106V69.7963H177.284C173.632 69.7963 170.893 70.5897 169.066 72.1765C167.24 73.7065 166.327 76.4267 166.327 80.3368V102.353H151.689V54.9206H166.327V62.826Z" fill="black"/>
</g>
<defs>
<clipPath id="clip0_48_60">
<rect width="230" height="167" fill="white"/>
</clipPath>
</defs>
</svg>
