<svg width="25" height="25" viewBox="0 0 25 25" fill="none" xmlns="http://www.w3.org/2000/svg">
<g clip-path="url(#clip0_309_101)">
<path d="M2.87603 12.1528C3.43647 10.1635 4.58335 8.42061 6.19268 7.1127C6.61909 6.76611 7.07539 6.45327 7.54893 6.18276C7.73618 6.07578 7.97485 6.14087 8.08188 6.32822C8.18887 6.51553 8.12373 6.75415 7.93643 6.86113C7.4998 7.11055 7.07886 7.39917 6.6854 7.71895C5.20176 8.92476 4.14453 10.5312 3.62798 12.3646C3.57944 12.5369 3.42271 12.6495 3.2522 12.6495C3.21709 12.6495 3.18149 12.6447 3.14604 12.6347C2.93848 12.5762 2.81753 12.3604 2.87603 12.1528ZM16.181 23.3282C13.7662 24.3811 11.0065 24.3463 8.60942 23.233C8.41357 23.1419 8.18145 23.227 8.09062 23.4227C7.99976 23.6183 8.08467 23.8506 8.28032 23.9415C9.61909 24.5633 11.0621 24.8748 12.5048 24.8748C13.8638 24.8748 15.2226 24.5983 16.4932 24.0443C16.691 23.9581 16.7814 23.7279 16.6952 23.5301C16.6089 23.3324 16.3788 23.242 16.181 23.3282ZM17.0641 6.86064C18.0565 7.42529 18.928 8.16484 19.6545 9.05874C20.4989 10.0978 21.0954 11.2769 21.4273 12.5633C21.4728 12.7395 21.6313 12.8564 21.8053 12.8564C21.8375 12.8564 21.8704 12.8523 21.9031 12.8439C22.112 12.79 22.2377 12.577 22.1838 12.3681C21.8237 10.9721 21.1767 9.69287 20.2608 8.56597C19.473 7.59658 18.5275 6.79438 17.4506 6.18159C17.2631 6.07495 17.0246 6.14043 16.9179 6.32793C16.8111 6.51548 16.8766 6.75395 17.0641 6.86064ZM9.05986 8.2812V5.51099C9.05986 4.74497 9.63774 4.15703 10.6454 3.89805C10.9223 3.82686 11.2012 3.77275 11.4817 3.73413C11.0316 3.33618 10.7371 2.68262 10.7371 1.94468C10.7371 0.839893 11.4291 0.125977 12.5 0.125977C13.5709 0.125977 14.2629 0.839844 14.2629 1.94468C14.2629 2.68433 13.9671 3.33916 13.5153 3.73682C13.7936 3.77515 14.0724 3.82798 14.3514 3.89722C15.3611 4.14766 15.9402 4.73584 15.9402 5.51094V8.28115C15.9402 8.49687 15.7653 8.67178 15.5496 8.67178C15.3338 8.67178 15.1589 8.49687 15.1589 8.28115V5.51094C15.1589 4.98149 14.5352 4.7477 14.1633 4.65547C13.0398 4.37676 11.9216 4.37651 10.8399 4.65464C10.3842 4.77173 9.84111 5.01538 9.84111 5.51094V8.28115C9.84111 8.49687 9.66621 8.67178 9.45049 8.67178C9.23477 8.67178 9.05986 8.49692 9.05986 8.2812ZM11.5184 1.94468C11.5184 2.7106 11.9679 3.35767 12.5 3.35767C13.0321 3.35767 13.4817 2.7106 13.4817 1.94468C13.4817 1.08721 12.9479 0.907227 12.5 0.907227C12.0522 0.907227 11.5184 1.08726 11.5184 1.94468ZM10.4456 6.1478V8.2812C10.4456 8.49692 10.6205 8.67183 10.8362 8.67183C11.0519 8.67183 11.2268 8.49692 11.2268 8.2812V6.1478C11.2268 5.93208 11.0519 5.75718 10.8362 5.75718C10.6205 5.75718 10.4456 5.93208 10.4456 6.1478ZM13.7731 6.1478V8.2812C13.7731 8.49692 13.948 8.67183 14.1638 8.67183C14.3795 8.67183 14.5544 8.49692 14.5544 8.2812V6.1478C14.5544 5.93208 14.3795 5.75718 14.1638 5.75718C13.948 5.75718 13.7731 5.93208 13.7731 6.1478ZM25 19.6787V22.4489C25 22.6646 24.8251 22.8395 24.6094 22.8395C24.3937 22.8395 24.2188 22.6646 24.2188 22.4489V19.6787C24.2188 19.1492 23.595 18.9154 23.2232 18.8232C22.0997 18.5445 20.9815 18.5442 19.8998 18.8224C19.4441 18.9395 18.901 19.1832 18.901 19.6787V22.4489C18.901 22.6646 18.7261 22.8395 18.5104 22.8395C18.2946 22.8395 18.1197 22.6646 18.1197 22.4489V19.6787C18.1197 18.9126 18.6976 18.3248 19.7053 18.0657C19.9821 17.9945 20.2611 17.9404 20.5417 17.9019C20.0915 17.5039 19.797 16.8503 19.797 16.1124C19.797 15.0076 20.489 14.2937 21.5599 14.2937C22.6309 14.2937 23.3228 15.0075 23.3228 16.1124C23.3228 16.852 23.027 17.5068 22.5751 17.9045C22.8534 17.9428 23.1323 17.9957 23.4113 18.0649C24.4209 18.3154 25 18.9036 25 19.6787ZM20.5782 16.1124C20.5782 16.8783 21.0277 17.5253 21.5599 17.5253C22.092 17.5253 22.5415 16.8783 22.5415 16.1124C22.5415 15.2549 22.0077 15.0749 21.5599 15.0749C21.112 15.0749 20.5782 15.2549 20.5782 16.1124ZM19.896 19.9248C19.6803 19.9248 19.5054 20.0997 19.5054 20.3154V22.4488C19.5054 22.6646 19.6803 22.8395 19.896 22.8395C20.1118 22.8395 20.2867 22.6646 20.2867 22.4488V20.3154C20.2867 20.0997 20.1118 19.9248 19.896 19.9248ZM23.2236 19.9248C23.0079 19.9248 22.833 20.0997 22.833 20.3154V22.4488C22.833 22.6646 23.0079 22.8395 23.2236 22.8395C23.4394 22.8395 23.6143 22.6646 23.6143 22.4488V20.3154C23.6143 20.0997 23.4394 19.9248 23.2236 19.9248ZM6.88032 19.6787V22.4489C6.88032 22.6646 6.70542 22.8395 6.4897 22.8395C6.27397 22.8395 6.09907 22.6646 6.09907 22.4489V19.6787C6.09907 19.1492 5.47534 18.9154 5.10352 18.8232C3.97998 18.5445 2.86182 18.5442 1.78013 18.8224C1.32441 18.9395 0.78125 19.1832 0.78125 19.6787V22.4489C0.78125 22.6646 0.606348 22.8395 0.390625 22.8395C0.174902 22.8395 0 22.6646 0 22.4489V19.6787C0 18.9126 0.577881 18.3248 1.58555 18.0657C1.8624 17.9945 2.14136 17.9404 2.42183 17.9018C1.97173 17.5039 1.6772 16.8503 1.6772 16.1124C1.6772 15.0076 2.36919 14.2937 3.44014 14.2937C4.51108 14.2937 5.20303 15.0075 5.20303 16.1124C5.20303 16.852 4.90718 17.5068 4.45537 17.9045C4.73364 17.9428 5.0125 17.9957 5.29155 18.0649C6.30122 18.3154 6.88032 18.9036 6.88032 19.6787ZM2.4585 16.1124C2.4585 16.8783 2.90806 17.5253 3.44019 17.5253C3.97231 17.5253 4.42183 16.8783 4.42183 16.1124C4.42183 15.2549 3.88799 15.0749 3.44019 15.0749C2.99233 15.0749 2.4585 15.2549 2.4585 16.1124ZM1.77632 19.9248C1.5606 19.9248 1.38569 20.0997 1.38569 20.3154V22.4488C1.38569 22.6646 1.5606 22.8395 1.77632 22.8395C1.99204 22.8395 2.16694 22.6646 2.16694 22.4488V20.3154C2.16694 20.0997 1.99209 19.9248 1.77632 19.9248ZM5.10396 19.9248C4.88823 19.9248 4.71333 20.0997 4.71333 20.3154V22.4488C4.71333 22.6646 4.88823 22.8395 5.10396 22.8395C5.31968 22.8395 5.49458 22.6646 5.49458 22.4488V20.3154C5.49458 20.0997 5.31968 19.9248 5.10396 19.9248ZM15.2563 14.8733C15.2563 16.3931 14.0199 17.6296 12.5 17.6296C10.9801 17.6296 9.7436 16.3931 9.7436 14.8733C9.7436 13.3535 10.9801 12.1169 12.5 12.1169C14.0199 12.1169 15.2563 13.3535 15.2563 14.8733ZM14.4751 14.8733C14.4751 13.7842 13.5891 12.8982 12.5 12.8982C11.4109 12.8982 10.5249 13.7842 10.5249 14.8733C10.5249 15.9624 11.4109 16.8484 12.5 16.8484C13.5891 16.8484 14.4751 15.9624 14.4751 14.8733ZM17.5224 14.4104V15.3361C17.5224 15.4978 17.4229 15.6426 17.2721 15.7007L16.6914 15.9242C16.5886 16.3365 16.4261 16.7282 16.2066 17.0934L16.4594 17.6625C16.525 17.8102 16.4929 17.9831 16.3786 18.0973L15.724 18.7519C15.6098 18.8662 15.437 18.8982 15.2893 18.8327L14.7204 18.5801C14.3552 18.7996 13.9634 18.962 13.5508 19.0649L13.3273 19.6454C13.2693 19.7962 13.1244 19.8957 12.9628 19.8957H12.0371C11.8754 19.8957 11.7306 19.7961 11.6725 19.6454L11.449 19.0647C11.0367 18.9619 10.645 18.7994 10.2798 18.5799L9.71064 18.8327C9.56294 18.8982 9.39019 18.8662 9.27588 18.7519L8.62129 18.0973C8.50703 17.9831 8.4749 17.8103 8.54048 17.6625L8.79311 17.0937C8.57363 16.7285 8.41123 16.3367 8.3083 15.9241L7.72783 15.7006C7.577 15.6426 7.47754 15.4977 7.47754 15.3361V14.4104C7.47754 14.2489 7.57705 14.104 7.72783 14.0459L8.3084 13.8224C8.41123 13.4101 8.57373 13.0182 8.79321 12.6531L8.54048 12.084C8.4749 11.9364 8.50698 11.7635 8.62129 11.6493L9.27588 10.9947C9.39009 10.8804 9.56299 10.8483 9.71064 10.9139L10.2798 11.1667C10.645 10.9472 11.0368 10.7848 11.449 10.6819L11.6726 10.1012C11.7306 9.95044 11.8755 9.85093 12.0371 9.85093H12.9628C13.1245 9.85093 13.2693 9.95044 13.3274 10.1012L13.5509 10.6819C13.9632 10.7847 14.3549 10.9472 14.7201 11.1667L15.2893 10.9139C15.437 10.8483 15.6098 10.8804 15.724 10.9946L16.3787 11.6492C16.4929 11.7635 16.525 11.9363 16.4594 12.084L16.2068 12.6529C16.4263 13.0181 16.5887 13.4099 16.6917 13.8225L17.2721 14.0459C17.4229 14.1039 17.5224 14.2488 17.5224 14.4104ZM16.7411 14.6786L16.2157 14.4764C16.0904 14.4281 15.9986 14.3189 15.9727 14.1871C15.8822 13.7264 15.7032 13.2945 15.4405 12.9034C15.3657 12.7919 15.3533 12.6498 15.4079 12.5271L15.6366 12.012L15.3613 11.7367L14.846 11.9656C14.7233 12.0201 14.5813 12.0077 14.4698 11.9329C14.0785 11.6703 13.6467 11.4913 13.1863 11.4008C13.0545 11.375 12.9453 11.2832 12.897 11.1579L12.6947 10.6322H12.3053L12.103 11.1579C12.0547 11.2832 11.9455 11.375 11.8137 11.4008C11.3533 11.4913 10.9215 11.6703 10.5302 11.9329C10.4187 12.0078 10.2767 12.02 10.154 11.9656L9.63867 11.7367L9.36338 12.0121L9.59224 12.5272C9.64673 12.65 9.63438 12.792 9.55952 12.9036C9.29688 13.2947 9.11787 13.7266 9.02744 14.1871C9.00156 14.3189 8.90981 14.4281 8.78447 14.4764L8.25889 14.6787V15.0681L8.78433 15.2703C8.90967 15.3186 9.00142 15.4278 9.02734 15.5596C9.11787 16.0204 9.29692 16.4523 9.55947 16.8433C9.63433 16.9548 9.64668 17.0969 9.59219 17.2196L9.36343 17.7347L9.63872 18.01L10.154 17.7811C10.2767 17.7266 10.4188 17.7389 10.5303 17.8138C10.9215 18.0764 11.3533 18.2554 11.8137 18.3458C11.9455 18.3717 12.0547 18.4635 12.1029 18.5888L12.3053 19.1145H12.6946L12.8969 18.5891C12.9451 18.4637 13.0543 18.372 13.1861 18.346C13.6469 18.2555 14.0788 18.0765 14.4699 17.8139C14.5814 17.7391 14.7235 17.7268 14.8462 17.7812L15.3612 18.01L15.6365 17.7346L15.4077 17.2193C15.3532 17.0966 15.3655 16.9545 15.4403 16.8431C15.703 16.4519 15.882 16.0201 15.9724 15.5596C15.9983 15.4278 16.0901 15.3186 16.2154 15.2704L16.7411 15.068V14.6786H16.7411Z" fill="white" fill-opacity="0.81"/>
</g>
<defs>
<clipPath id="clip0_309_101">
<rect width="25" height="25" fill="white"/>
</clipPath>
</defs>
</svg>
