<svg width="230" height="167" viewBox="0 0 230 167" fill="none" xmlns="http://www.w3.org/2000/svg">
<g clip-path="url(#clip0_48_67)">
<path d="M93.5 153.799H178.398C192.976 153.799 204.791 141.418 204.791 126.141V31.4565C204.791 16.1795 192.976 3.79865 178.398 3.79865H30.1844C15.6058 3.79865 3.79102 16.1795 3.79102 31.4565V77.0603" stroke="black" stroke-width="12" stroke-miterlimit="10" stroke-linecap="round"/>
<path d="M42.9541 167C65.3615 167 83.5263 148.8 83.5263 126.348C83.5263 103.897 65.3615 85.6969 42.9541 85.6969C20.5467 85.6969 2.38184 103.897 2.38184 126.348C2.38184 148.8 20.5467 167 42.9541 167Z" fill="black"/>
<path d="M45.3301 108.229H39.1504V144.62H45.3301V108.229Z" fill="white"/>
<path d="M62.4415 123.025H21.25V129.4H62.4415V123.025Z" fill="white"/>
<path d="M113.846 45C119.993 45 125.365 46.164 129.961 48.492C134.557 50.82 138.102 54.1003 140.594 58.333C143.141 62.5128 144.415 67.354 144.415 72.8565C144.415 78.3062 143.141 83.1473 140.594 87.3801C138.102 91.6128 134.53 94.8931 129.878 97.2211C125.282 99.5491 119.938 100.713 113.846 100.713H92V45H113.846ZM112.933 88.9673C118.304 88.9673 122.485 87.5652 125.476 84.7611C128.466 81.9569 129.961 77.9887 129.961 72.8565C129.961 67.7244 128.466 63.7298 125.476 60.8727C122.485 58.0156 118.304 56.587 112.933 56.587H106.204V88.9673H112.933ZM166.557 63.8091C168.218 61.3753 170.295 59.4706 172.787 58.095C175.279 56.6664 178.048 55.9521 181.093 55.9521V70.3169H177.189C173.645 70.3169 170.987 71.0577 169.215 72.5391C167.443 73.9676 166.557 76.5072 166.557 80.158V100.713H152.353V56.4283H166.557V63.8091Z" fill="black"/>
</g>
<defs>
<clipPath id="clip0_48_67">
<rect width="230" height="167" fill="white"/>
</clipPath>
</defs>
</svg>
