<?xml version="1.0" encoding="utf-8"?>
<!-- Generator: Adobe Illustrator 25.2.1, SVG Export Plug-In . SVG Version: 6.00 Build 0)  -->
<svg version="1.1" id="Layer_1" xmlns="http://www.w3.org/2000/svg" xmlns:xlink="http://www.w3.org/1999/xlink" x="0px" y="0px"
	 viewBox="0 0 232.7 76" style="enable-background:new 0 0 232.7 76;" xml:space="preserve">
<style type="text/css">
	.st0{fill:#045BA7;}
	.st1{opacity:0.5;}
</style>
<path d="M221.7,48.3c-2.6,0-4.9-0.5-6.9-1.6c-2-1.1-3.6-2.6-4.7-4.6c-1.1-1.9-1.7-4.1-1.7-6.6c0-2,0.3-3.8,1-5.4
	c0.6-1.6,1.5-3,2.6-4.2c1.2-1.2,2.5-2.1,4.1-2.8c1.6-0.7,3.3-1,5.2-1c1.6,0,3.2,0.3,4.6,1c1.4,0.6,2.6,1.5,3.6,2.5
	c1.1,1.1,1.9,2.4,2.4,3.9c0.6,1.5,0.8,3.1,0.8,4.8l0,2.1h-20.6l-1.1-3.9h17.4l-0.7,0.8v-1.2c-0.1-1.1-0.4-2-1.1-2.8s-1.4-1.5-2.3-2
	c-0.9-0.5-1.9-0.7-3-0.7c-1.7,0-3.2,0.3-4.4,1c-1.2,0.6-2.1,1.6-2.7,2.9c-0.6,1.2-0.9,2.8-0.9,4.7c0,1.8,0.4,3.3,1.1,4.6
	c0.7,1.3,1.8,2.3,3.1,3c1.3,0.7,2.9,1.1,4.7,1.1c1.2,0,2.4-0.2,3.5-0.6c1.1-0.4,2.3-1.2,3.5-2.3l2.5,3.5c-0.8,0.8-1.7,1.4-2.8,2
	c-1.1,0.6-2.3,1-3.5,1.4C224.1,48.1,222.9,48.3,221.7,48.3z M189.7,27.4v-4.8h16v4.8H189.7z M194.9,47.8V16.2h4.9v31.6H194.9z
	 M172.4,43.7c1.5,0,2.8-0.4,4-1.1c1.2-0.7,2-1.7,2.7-3c0.7-1.3,1-2.8,1-4.5c0-1.6-0.3-3.1-1-4.4c-0.6-1.3-1.5-2.3-2.7-3
	c-1.2-0.7-2.5-1.1-4-1.1c-1.5,0-2.8,0.4-3.9,1.1c-1.1,0.7-2,1.7-2.7,3c-0.6,1.3-1,2.7-1,4.4c0,1.7,0.3,3.2,1,4.5
	c0.7,1.3,1.6,2.3,2.7,3C169.6,43.3,170.9,43.7,172.4,43.7z M171.1,48.3c-2.1,0-4-0.6-5.7-1.7c-1.7-1.2-3.1-2.7-4.1-4.7
	c-1-2-1.5-4.2-1.5-6.7c0-2.5,0.5-4.8,1.5-6.7c1.1-2,2.5-3.5,4.2-4.7c1.8-1.1,3.8-1.7,6-1.7c1.3,0,2.5,0.2,3.6,0.6
	c1.1,0.4,2,0.9,2.8,1.6c0.8,0.7,1.5,1.5,2,2.4c0.5,0.9,0.9,1.9,1,2.9l-1.1-0.4v-6.5h5v25.2h-5v-6l1.2-0.3c-0.2,0.9-0.6,1.7-1.2,2.5
	c-0.6,0.8-1.3,1.5-2.3,2.2c-0.9,0.6-1.9,1.2-3,1.5C173.5,48.1,172.3,48.3,171.1,48.3z M141.7,43.7c1.6,0,3-0.4,4.2-1.1
	s2.2-1.7,2.8-3c0.7-1.3,1-2.8,1-4.4s-0.4-3.1-1.1-4.4c-0.7-1.3-1.6-2.3-2.8-3.1c-1.2-0.7-2.6-1.1-4.1-1.1c-1.5,0-2.9,0.4-4.1,1.2
	c-1.2,0.7-2.1,1.8-2.8,3.1c-0.7,1.3-1,2.7-1,4.4c0,1.6,0.3,3.1,1,4.4c0.7,1.3,1.6,2.3,2.8,3C138.8,43.3,140.2,43.7,141.7,43.7z
	 M141.5,58.8c-1.8,0-3.6-0.3-5.4-0.9c-1.8-0.5-3.2-1.3-4.3-2.2l1.8-3.8c0.6,0.5,1.4,0.9,2.3,1.2c0.9,0.4,1.8,0.7,2.7,0.9
	c1,0.2,1.9,0.3,2.8,0.3c1.8,0,3.2-0.3,4.4-0.9c1.2-0.6,2.1-1.4,2.7-2.5c0.6-1.1,0.9-2.5,0.9-4.2V42l0.5,0.3c-0.2,1-0.7,2-1.6,2.9
	c-0.9,0.9-2,1.6-3.3,2.2c-1.3,0.6-2.7,0.9-4,0.9c-2.4,0-4.5-0.6-6.4-1.7c-1.9-1.2-3.3-2.7-4.4-4.7c-1.1-2-1.6-4.2-1.6-6.8
	c0-2.5,0.5-4.8,1.6-6.7c1.1-2,2.6-3.5,4.4-4.7c1.9-1.2,4-1.7,6.3-1.7c1,0,1.9,0.1,2.8,0.4c0.9,0.2,1.7,0.6,2.5,1
	c0.8,0.4,1.5,0.9,2.1,1.4c0.6,0.5,1.1,1.1,1.5,1.6c0.4,0.6,0.6,1.1,0.7,1.6l-1.1,0.4v-5.9h4.9v23.7c0,2-0.3,3.8-0.9,5.3
	c-0.6,1.6-1.4,2.9-2.5,3.9c-1.1,1.1-2.5,1.9-4.1,2.4C145.4,58.5,143.6,58.8,141.5,58.8z M69.7,48.3c-1.8,0-3.4-0.4-4.7-1.2
	c-1.3-0.8-2.3-2-3.1-3.5c-0.7-1.5-1.1-3.3-1.1-5.4V22.6h4.9v14.2c0,1.5,0.2,2.8,0.7,3.8c0.5,1.1,1.2,1.9,2,2.4
	c0.9,0.6,2,0.9,3.2,0.9c0.9,0,1.8-0.1,2.5-0.4c0.8-0.3,1.4-0.8,2-1.3c0.6-0.5,1-1.2,1.3-2c0.3-0.8,0.5-1.6,0.5-2.5V22.6H83v25.2H78
	v-5.3l0.9-0.6c-0.4,1.2-1,2.3-2,3.2c-0.9,1-2,1.7-3.2,2.3C72.4,48,71.1,48.3,69.7,48.3z M40.8,44c1.5,0,2.8-0.4,4-1.2
	c1.2-0.8,2-1.8,2.7-3.1c0.7-1.3,1-2.9,1-4.6c0-1.7-0.3-3.2-1-4.5c-0.6-1.3-1.5-2.4-2.7-3.2c-1.2-0.8-2.5-1.2-4-1.2s-2.8,0.4-4,1.2
	c-1.2,0.8-2.1,1.8-2.7,3.2c-0.6,1.3-1,2.8-1,4.5c0,1.7,0.3,3.2,1,4.6c0.7,1.3,1.6,2.4,2.7,3.1C38,43.6,39.3,44,40.8,44z M40.2,48.3
	c-2.3,0-4.4-0.6-6.2-1.7c-1.8-1.2-3.2-2.7-4.3-4.7c-1.1-2-1.6-4.2-1.6-6.8c0-2.5,0.5-4.8,1.5-6.7c1.1-2,2.5-3.5,4.3-4.7
	c1.8-1.2,3.8-1.7,6.1-1.7c1.2,0,2.4,0.2,3.6,0.6c1.2,0.4,2.2,0.9,3.2,1.6c0.9,0.7,1.6,1.4,2.2,2.3c0.5,0.8,0.8,1.6,0.8,2.4l-1.4,0.1
	V12.3h4.9v35.5h-4.9v-6h1c0,0.8-0.3,1.5-0.8,2.3c-0.5,0.7-1.2,1.4-2.1,2.1c-0.8,0.6-1.8,1.2-2.9,1.5C42.4,48.1,41.3,48.3,40.2,48.3z
	 M13.3,48.3c-2.6,0-4.9-0.5-6.9-1.6c-2-1.1-3.6-2.6-4.7-4.6C0.6,40.2,0,37.9,0,35.4c0-2,0.3-3.8,1-5.4c0.6-1.6,1.5-3,2.6-4.2
	c1.2-1.2,2.5-2.1,4.1-2.8c1.6-0.7,3.3-1,5.2-1c1.6,0,3.2,0.3,4.6,1c1.4,0.6,2.6,1.5,3.6,2.5c1.1,1.1,1.9,2.4,2.4,3.9
	c0.6,1.5,0.8,3.1,0.8,4.8l0,2.1H3.6l-1.1-3.9H20l-0.7,0.8v-1.2c-0.1-1.1-0.4-2-1.1-2.8s-1.4-1.5-2.3-2c-0.9-0.5-1.9-0.7-3-0.7
	c-1.7,0-3.2,0.3-4.4,1c-1.2,0.6-2.1,1.6-2.7,2.9c-0.6,1.2-0.9,2.8-0.9,4.7c0,1.8,0.4,3.3,1.1,4.6c0.7,1.3,1.8,2.3,3.1,3
	c1.3,0.7,2.9,1.1,4.7,1.1c1.2,0,2.4-0.2,3.5-0.6c1.1-0.4,2.3-1.2,3.5-2.3l2.5,3.5c-0.8,0.8-1.7,1.4-2.8,2c-1.1,0.6-2.3,1-3.5,1.4
	C15.7,48.1,14.5,48.3,13.3,48.3z"/>
<path d="M152.3,72.9c-0.6,0-1.2-0.1-1.7-0.3c-0.5-0.2-0.9-0.5-1.2-1l1-0.8c0.3,0.3,0.6,0.6,0.9,0.7c0.3,0.1,0.7,0.2,1.1,0.2
	c0.2,0,0.3,0,0.5-0.1c0.1,0,0.3-0.1,0.4-0.2c0.1-0.1,0.2-0.2,0.3-0.3c0.1-0.1,0.1-0.3,0.1-0.4c0-0.2-0.1-0.4-0.3-0.6
	c-0.1-0.1-0.2-0.1-0.4-0.2c-0.2-0.1-0.5-0.2-0.8-0.3c-0.5-0.1-1-0.3-1.3-0.5c-0.3-0.2-0.6-0.4-0.8-0.6c-0.1-0.2-0.2-0.4-0.3-0.6
	c-0.1-0.2-0.1-0.4-0.1-0.7c0-0.3,0.1-0.6,0.2-0.8c0.1-0.3,0.3-0.5,0.6-0.7c0.2-0.2,0.5-0.3,0.8-0.4c0.3-0.1,0.7-0.2,1-0.2
	c0.3,0,0.7,0,1,0.1c0.3,0.1,0.7,0.2,1,0.4c0.3,0.2,0.5,0.4,0.7,0.6l-0.8,0.9c-0.2-0.2-0.4-0.3-0.6-0.5c-0.2-0.1-0.4-0.2-0.6-0.3
	s-0.4-0.1-0.6-0.1c-0.2,0-0.4,0-0.5,0.1c-0.2,0-0.3,0.1-0.4,0.2c-0.1,0.1-0.2,0.2-0.2,0.3s-0.1,0.2-0.1,0.4c0,0.1,0,0.2,0.1,0.4
	c0.1,0.1,0.1,0.2,0.2,0.3c0.1,0.1,0.3,0.2,0.5,0.2c0.2,0.1,0.5,0.2,0.8,0.2c0.5,0.1,0.8,0.3,1.1,0.4c0.3,0.1,0.6,0.3,0.7,0.5
	c0.2,0.2,0.3,0.4,0.4,0.6c0.1,0.2,0.1,0.5,0.1,0.8c0,0.4-0.1,0.8-0.4,1.1c-0.2,0.3-0.6,0.6-1,0.8S152.8,72.9,152.3,72.9z
	 M144.5,71.6c0.4,0,0.8-0.1,1.2-0.3c0.3-0.2,0.6-0.5,0.8-0.9c0.2-0.4,0.3-0.8,0.3-1.3c0-0.5-0.1-0.9-0.3-1.3
	c-0.2-0.4-0.5-0.7-0.8-0.9c-0.3-0.2-0.7-0.3-1.2-0.3s-0.8,0.1-1.2,0.3c-0.3,0.2-0.6,0.5-0.8,0.9c-0.2,0.4-0.3,0.8-0.3,1.3
	c0,0.5,0.1,0.9,0.3,1.3c0.2,0.4,0.5,0.7,0.8,0.9C143.7,71.5,144.1,71.6,144.5,71.6z M144.5,72.9c-0.7,0-1.4-0.2-1.9-0.5
	c-0.6-0.3-1-0.8-1.3-1.4c-0.3-0.6-0.5-1.2-0.5-2c0-0.7,0.2-1.4,0.5-2c0.3-0.6,0.8-1,1.3-1.4c0.6-0.3,1.2-0.5,1.9-0.5
	c0.7,0,1.3,0.2,1.9,0.5c0.6,0.3,1,0.8,1.3,1.4c0.3,0.6,0.5,1.2,0.5,2c0,0.7-0.2,1.4-0.5,2c-0.3,0.6-0.8,1-1.3,1.4
	C145.9,72.8,145.3,72.9,144.5,72.9z M129,72.8v-7.4h1.4v1.5l-0.3,0.2c0.1-0.3,0.3-0.6,0.5-0.9c0.3-0.3,0.6-0.5,1-0.7
	c0.4-0.2,0.8-0.3,1.1-0.3c0.6,0,1,0.1,1.4,0.3c0.4,0.2,0.7,0.5,0.8,1c0.2,0.4,0.3,1,0.3,1.7v4.5h-1.4v-4.4c0-0.4-0.1-0.8-0.2-1
	c-0.1-0.3-0.3-0.5-0.5-0.6c-0.2-0.1-0.5-0.2-0.9-0.2c-0.3,0-0.5,0-0.8,0.1c-0.2,0.1-0.4,0.2-0.6,0.4c-0.2,0.2-0.3,0.3-0.4,0.6
	c-0.1,0.2-0.1,0.4-0.1,0.7v4.5h-0.7c-0.1,0-0.2,0-0.4,0S129.1,72.8,129,72.8z M123.7,71.6c0.4,0,0.8-0.1,1.2-0.3
	c0.3-0.2,0.6-0.5,0.8-0.9c0.2-0.4,0.3-0.8,0.3-1.3c0-0.5-0.1-0.9-0.3-1.3c-0.2-0.4-0.5-0.7-0.8-0.9c-0.3-0.2-0.7-0.3-1.2-0.3
	s-0.8,0.1-1.2,0.3c-0.3,0.2-0.6,0.5-0.8,0.9c-0.2,0.4-0.3,0.8-0.3,1.3c0,0.5,0.1,0.9,0.3,1.3c0.2,0.4,0.5,0.7,0.8,0.9
	C122.8,71.5,123.2,71.6,123.7,71.6z M123.7,72.9c-0.7,0-1.4-0.2-1.9-0.5c-0.6-0.3-1-0.8-1.3-1.4c-0.3-0.6-0.5-1.2-0.5-2
	c0-0.7,0.2-1.4,0.5-2c0.3-0.6,0.8-1,1.3-1.4c0.6-0.3,1.2-0.5,1.9-0.5c0.7,0,1.3,0.2,1.9,0.5c0.6,0.3,1,0.8,1.3,1.4
	c0.3,0.6,0.5,1.2,0.5,2c0,0.7-0.2,1.4-0.5,2c-0.3,0.6-0.8,1-1.3,1.4C125,72.8,124.4,72.9,123.7,72.9z M117.4,63.8
	c-0.3,0-0.5-0.1-0.7-0.2c-0.2-0.2-0.3-0.4-0.3-0.7c0-0.3,0.1-0.5,0.3-0.7c0.2-0.2,0.4-0.3,0.7-0.3c0.3,0,0.5,0.1,0.7,0.2
	c0.2,0.2,0.3,0.4,0.3,0.7c0,0.3-0.1,0.5-0.3,0.7C118,63.7,117.7,63.8,117.4,63.8z M116.7,72.8v-7.4h1.4v7.4H116.7z M110.5,66.8v-1.4
	h4.7v1.4H110.5z M112,72.8v-9.2h1.4v9.2H112z M105.5,71.6c0.4,0,0.8-0.1,1.2-0.3c0.3-0.2,0.6-0.5,0.8-0.9c0.2-0.4,0.3-0.8,0.3-1.3
	c0-0.5-0.1-0.9-0.3-1.3c-0.2-0.4-0.4-0.7-0.8-0.9c-0.3-0.2-0.7-0.3-1.2-0.3c-0.4,0-0.8,0.1-1.1,0.3c-0.3,0.2-0.6,0.5-0.8,0.9
	c-0.2,0.4-0.3,0.8-0.3,1.3c0,0.5,0.1,0.9,0.3,1.3c0.2,0.4,0.5,0.7,0.8,0.9C104.6,71.5,105,71.6,105.5,71.6z M105.1,72.9
	c-0.6,0-1.2-0.2-1.7-0.5c-0.5-0.3-0.9-0.8-1.2-1.4c-0.3-0.6-0.4-1.2-0.4-2c0-0.7,0.1-1.4,0.4-2c0.3-0.6,0.7-1,1.2-1.4
	c0.5-0.3,1.1-0.5,1.8-0.5c0.4,0,0.7,0.1,1.1,0.2s0.6,0.3,0.8,0.5c0.2,0.2,0.4,0.4,0.6,0.7c0.2,0.3,0.3,0.5,0.3,0.8l-0.3-0.1v-1.9
	h1.5v7.4h-1.5V71l0.3-0.1c-0.1,0.3-0.2,0.5-0.4,0.7c-0.2,0.2-0.4,0.4-0.7,0.6c-0.3,0.2-0.6,0.3-0.9,0.4
	C105.8,72.9,105.4,72.9,105.1,72.9z M97.9,72.9c-0.7,0-1.3-0.2-1.8-0.5c-0.5-0.3-1-0.8-1.3-1.4c-0.3-0.6-0.5-1.2-0.5-1.9
	c0-0.7,0.2-1.4,0.5-1.9c0.3-0.6,0.7-1,1.3-1.4c0.5-0.3,1.2-0.5,1.8-0.5c0.7,0,1.2,0.1,1.8,0.4c0.5,0.3,1,0.6,1.2,1.1l-0.8,1
	c-0.1-0.2-0.3-0.4-0.6-0.6c-0.2-0.2-0.5-0.3-0.7-0.4c-0.3-0.1-0.5-0.2-0.8-0.2c-0.4,0-0.8,0.1-1.2,0.3c-0.3,0.2-0.6,0.5-0.8,0.9
	s-0.3,0.8-0.3,1.3s0.1,0.9,0.3,1.3c0.2,0.4,0.5,0.7,0.9,0.9s0.7,0.3,1.2,0.3c0.3,0,0.5,0,0.7-0.1c0.2-0.1,0.5-0.2,0.7-0.4
	s0.4-0.4,0.6-0.6l0.8,1c-0.3,0.4-0.7,0.8-1.3,1C99,72.8,98.5,72.9,97.9,72.9z M88.9,72.9c-0.5,0-1-0.1-1.4-0.4
	c-0.4-0.2-0.7-0.6-0.9-1c-0.2-0.4-0.3-1-0.3-1.6v-4.5h1.4v4.1c0,0.4,0.1,0.8,0.2,1.1c0.1,0.3,0.3,0.5,0.6,0.7
	c0.3,0.2,0.6,0.3,0.9,0.3c0.3,0,0.5,0,0.7-0.1c0.2-0.1,0.4-0.2,0.6-0.4c0.2-0.2,0.3-0.4,0.4-0.6s0.1-0.5,0.1-0.7v-4.4h1.4v7.4h-1.4
	v-1.5l0.3-0.2c-0.1,0.3-0.3,0.7-0.6,0.9c-0.3,0.3-0.6,0.5-0.9,0.7C89.7,72.8,89.3,72.9,88.9,72.9z M80.4,71.7c0.4,0,0.8-0.1,1.2-0.3
	s0.6-0.5,0.8-0.9c0.2-0.4,0.3-0.8,0.3-1.3c0-0.5-0.1-0.9-0.3-1.3c-0.2-0.4-0.4-0.7-0.8-0.9s-0.7-0.3-1.2-0.3s-0.8,0.1-1.2,0.3
	s-0.6,0.5-0.8,0.9c-0.2,0.4-0.3,0.8-0.3,1.3c0,0.5,0.1,0.9,0.3,1.3c0.2,0.4,0.5,0.7,0.8,0.9S80,71.7,80.4,71.7z M80.3,72.9
	c-0.7,0-1.3-0.2-1.8-0.5c-0.5-0.3-0.9-0.8-1.2-1.4c-0.3-0.6-0.5-1.2-0.5-2c0-0.7,0.1-1.4,0.4-2c0.3-0.6,0.7-1,1.2-1.4
	c0.5-0.3,1.1-0.5,1.8-0.5c0.4,0,0.7,0.1,1,0.2c0.3,0.1,0.7,0.3,0.9,0.5c0.3,0.2,0.5,0.4,0.6,0.7c0.2,0.2,0.2,0.5,0.2,0.7l-0.4,0
	v-4.9h1.4v10.4h-1.4V71h0.3c0,0.2-0.1,0.4-0.2,0.7c-0.1,0.2-0.3,0.4-0.6,0.6c-0.2,0.2-0.5,0.3-0.9,0.4
	C80.9,72.9,80.6,72.9,80.3,72.9z M72.4,72.9c-0.8,0-1.4-0.2-2-0.5c-0.6-0.3-1-0.8-1.4-1.3c-0.3-0.6-0.5-1.2-0.5-1.9
	c0-0.6,0.1-1.1,0.3-1.6c0.2-0.5,0.4-0.9,0.8-1.2c0.3-0.4,0.7-0.6,1.2-0.8c0.5-0.2,1-0.3,1.5-0.3c0.5,0,0.9,0.1,1.3,0.3
	c0.4,0.2,0.8,0.4,1.1,0.7c0.3,0.3,0.5,0.7,0.7,1.1c0.2,0.4,0.2,0.9,0.2,1.4l0,0.6h-6l-0.3-1.1h5.1l-0.2,0.2v-0.3
	c0-0.3-0.1-0.6-0.3-0.8c-0.2-0.2-0.4-0.4-0.7-0.6c-0.3-0.1-0.6-0.2-0.9-0.2c-0.5,0-0.9,0.1-1.3,0.3c-0.3,0.2-0.6,0.5-0.8,0.8
	c-0.2,0.4-0.3,0.8-0.3,1.4c0,0.5,0.1,1,0.3,1.3c0.2,0.4,0.5,0.7,0.9,0.9c0.4,0.2,0.8,0.3,1.4,0.3c0.4,0,0.7-0.1,1-0.2
	c0.3-0.1,0.7-0.3,1-0.7l0.7,1c-0.2,0.2-0.5,0.4-0.8,0.6c-0.3,0.2-0.7,0.3-1,0.4C73.1,72.9,72.8,72.9,72.4,72.9z M56.7,72.8v-7.4h1.4
	v1.5l-0.3,0.2c0.1-0.3,0.3-0.6,0.5-0.9c0.3-0.3,0.6-0.5,1-0.7c0.4-0.2,0.8-0.3,1.1-0.3c0.6,0,1,0.1,1.4,0.3c0.4,0.2,0.7,0.5,0.8,1
	c0.2,0.4,0.3,1,0.3,1.7v4.5h-1.4v-4.4c0-0.4-0.1-0.8-0.2-1c-0.1-0.3-0.3-0.5-0.5-0.6c-0.2-0.1-0.5-0.2-0.9-0.2c-0.3,0-0.5,0-0.8,0.1
	c-0.2,0.1-0.4,0.2-0.6,0.4c-0.2,0.2-0.3,0.3-0.4,0.6c-0.1,0.2-0.1,0.4-0.1,0.7v4.5h-0.7c-0.1,0-0.2,0-0.4,0S56.9,72.8,56.7,72.8z
	 M51.1,71.6c0.4,0,0.8-0.1,1.2-0.3c0.3-0.2,0.6-0.5,0.8-0.9c0.2-0.4,0.3-0.8,0.3-1.3c0-0.5-0.1-0.9-0.3-1.3
	c-0.2-0.4-0.4-0.7-0.8-0.9c-0.3-0.2-0.7-0.3-1.2-0.3c-0.4,0-0.8,0.1-1.1,0.3c-0.3,0.2-0.6,0.5-0.8,0.9c-0.2,0.4-0.3,0.8-0.3,1.3
	c0,0.5,0.1,0.9,0.3,1.3c0.2,0.4,0.5,0.7,0.8,0.9C50.3,71.5,50.7,71.6,51.1,71.6z M50.7,72.9c-0.6,0-1.2-0.2-1.7-0.5
	c-0.5-0.3-0.9-0.8-1.2-1.4c-0.3-0.6-0.4-1.2-0.4-2c0-0.7,0.1-1.4,0.4-2c0.3-0.6,0.7-1,1.2-1.4c0.5-0.3,1.1-0.5,1.8-0.5
	c0.4,0,0.7,0.1,1.1,0.2s0.6,0.3,0.8,0.5c0.2,0.2,0.4,0.4,0.6,0.7c0.2,0.3,0.3,0.5,0.3,0.8l-0.3-0.1v-1.9h1.5v7.4h-1.5V71l0.3-0.1
	c-0.1,0.3-0.2,0.5-0.4,0.7c-0.2,0.2-0.4,0.4-0.7,0.6c-0.3,0.2-0.6,0.3-0.9,0.4C51.4,72.9,51.1,72.9,50.7,72.9z"/>
<path class="st0" d="M129.7,9.9c0,0.8-0.4,1.4-1.2,1.7l-11.4,4.2l-5.3,2l-3.5,1.4c-0.6,0.1-1.2,0.3-1.7,0.3c-0.6,0-1.2-0.2-1.7-0.3
	l-3.5-1.4l-5.2-2.1l-2.8-1.1c0.6-0.8,1.5-1.2,2.3-1.7L107,8.3c0.6-0.3,0.9-0.9,0.6-1.5c-0.3-0.6-0.9-0.9-1.4-0.6l-11.2,4.5
	c-1.5,0.6-2.6,1.5-3.5,2.7c-1.3,1.7-2.1,3.8-2.1,6.2l0,1.9c0.1,0.5,0.4,1.1,0.6,1.5c0.1,0.5,0.3,1.1,0.4,1.5
	c0.4,2.2,0.7,4.9,0.1,8.3c0,0.3-0.3,0.6-0.4,0.8c-0.3,0.2-0.6,0.3-0.9,0.1l-2.2-0.9l-2.2-0.4c-0.4-0.2-0.7-0.5-0.9-0.8
	c-0.1-0.3,0.7-2.8,0.2-1.1c0.6-0.9,1.2-1.8,1.6-2.9c0.9-1.7,1.6-4,1.7-6.2l0-2c0-2.5,0.8-4.8,2-6.8L85,11.2
	c-0.7-0.3-1.2-0.9-1.1-1.7c0-0.8,0.4-1.4,1.2-1.7l20.2-7.5c0.6-0.1,1.2-0.3,1.7-0.3c0.6,0,1.2,0.2,1.7,0.3l20,7.9
	C129.3,8.4,129.7,9.2,129.7,9.9z"/>
<path class="st0" d="M127.7,31.8c0,0.3,0,0.4,0,0.7s0,0.4,0,0.7H94.4c0.1,1.8,0.6,3.4,1.3,5s1.9,3,3.1,4.1c1.3,1.2,2.8,2.2,4.4,2.8
	c1.6,0.7,3.4,1,5.2,1c1.6,0,3.1-0.3,4.6-0.7c1.5-0.4,2.7-1,3.9-1.9c1.2-0.7,2.1-1.6,2.8-2.7c0.7-1,1.3-2.1,1.8-3.3h4.9
	c-0.6,1.8-1.5,3.6-2.7,5c-1.2,1.6-2.5,3-4.1,4.1c-1.6,1.2-3.3,2.1-5.2,2.7s-3.9,1-5.9,1c-2.5,0-5-0.4-7.3-1.5c-2.4-1-4.3-2.4-6.1-4
	c-1.8-1.8-3.1-3.7-4.1-6.1c-0.9-1.9-1.3-4-1.5-6.2l1.2,0.3c0.3,0.1,0.6,0,0.9-0.1c0.3-0.1,0.4-0.4,0.4-0.7c0.6-3.1,0.3-5.9-0.1-8
	c-0.1-0.4-0.3-1-0.4-1.5c0.9-1.8,2.1-3.3,3.4-4.6c0.1-0.1,0.4-0.4,0.6-0.6l0.1-0.1l4.6,1.6l5.6,2.1c0.7,0.3,1.6,0.4,2.5,0.4
	s1.8-0.1,2.5-0.4l5.6-2.1l4.6-1.6l0.1,0.1c0.3,0.3,0.6,0.4,0.7,0.7c1,1.2,1.9,2.2,2.5,3.4c1,1.8,1.8,3.4,2.2,5.2
	C127.1,28.6,127.7,30.2,127.7,31.8z"/>
<path class="st1" d="M190.8,73.7c1.2,0,2.1-0.5,2.7-1.6c0.6-1.1,1-2.7,1-4.7s-0.3-3.5-1-4.6c-0.6-1.1-1.5-1.7-2.7-1.7
	s-2.1,0.6-2.7,1.7c-0.6,1.1-1,2.6-1,4.6s0.3,3.6,1,4.7C188.7,73.1,189.6,73.7,190.8,73.7z M190.8,76c-1.3,0-2.4-0.4-3.3-1.1
	c-0.9-0.7-1.6-1.7-2.1-3c-0.5-1.3-0.7-2.8-0.7-4.6s0.2-3.3,0.7-4.6c0.5-1.3,1.2-2.3,2.1-3c0.9-0.7,2-1.1,3.3-1.1s2.4,0.4,3.3,1.1
	s1.6,1.7,2.1,3c0.5,1.3,0.7,2.8,0.7,4.6s-0.2,3.3-0.7,4.6c-0.5,1.3-1.2,2.3-2.1,3S192,76,190.8,76z M180.8,76
	c-0.5,0-0.9-0.2-1.2-0.5c-0.3-0.3-0.4-0.8-0.4-1.3c0-0.5,0.2-1,0.5-1.3c0.3-0.3,0.7-0.5,1.2-0.5c0.5,0,0.9,0.2,1.2,0.5
	c0.3,0.3,0.4,0.7,0.4,1.3c0,0.5-0.2,1-0.5,1.3C181.7,75.9,181.3,76,180.8,76z M167.1,75.8l-0.8-2l5.1-5.8c0.3-0.3,0.6-0.6,0.8-1
	c0.3-0.4,0.6-0.8,0.9-1.2c0.3-0.4,0.5-0.8,0.6-1.2c0.2-0.4,0.3-0.8,0.3-1.1c0-0.5-0.1-0.9-0.3-1.3c-0.2-0.4-0.5-0.6-0.9-0.8
	c-0.4-0.2-0.8-0.3-1.3-0.3c-0.5,0-0.9,0.1-1.4,0.4s-0.9,0.7-1.2,1.2c-0.4,0.5-0.7,1.1-0.9,1.7l-2-1.2c0.3-0.9,0.7-1.7,1.2-2.4
	c0.6-0.7,1.2-1.2,2-1.5c0.8-0.4,1.6-0.5,2.5-0.5c0.9,0,1.8,0.2,2.5,0.6c0.7,0.4,1.3,0.9,1.7,1.6c0.4,0.7,0.6,1.5,0.6,2.4
	c0,0.4,0,0.7-0.1,1.1c-0.1,0.4-0.2,0.8-0.4,1.2c-0.2,0.4-0.4,0.8-0.7,1.3c-0.3,0.4-0.6,0.9-1,1.4c-0.4,0.5-0.8,1-1.3,1.5l-3.8,4.2
	l-0.5-0.7h8.3v2.5H167.1z"/>
</svg>
