<svg width="532" height="586" viewBox="0 0 532 586" fill="none" xmlns="http://www.w3.org/2000/svg">
	<defs>
		<linearGradient id="animatedGradient" x1="16.5" y1="249.015" x2="848" y2="557.015" gradientUnits="userSpaceOnUse">
			<stop stop-color="#267AC8" offset="0%">
				<animate attributeName="stop-color" values="#267AC8;#3DCAA8;#267AC8" dur="1.8s" repeatCount="indefinite"
					calcMode="spline" keyTimes="0;0.45;1" keySplines="0.1 0 0.9 1;0.1 0 0.9 1"/>
			</stop>
			<stop stop-color="#3DCAA8" offset="50%">
				<animate attributeName="stop-color" values="#3DCAA8;#267AC8;#3DCAA8" dur="1.8s" repeatCount="indefinite"
					calcMode="spline" keyTimes="0;0.55;1" keySplines="0.1 0 0.9 1;0.1 0 0.9 1"/>
			</stop>
			<animateTransform attributeName="gradientTransform" type="rotate" from="0 265 293" to="360 265 293" dur="3s"
				repeatCount="indefinite" calcMode="spline" keyTimes="0;1" keySplines="0.1 0.9 0.9 0.1"/>
		</linearGradient>
	</defs>

	<!-- Path elements remain unchanged -->
	<path d="M531.716 115.199C531.633 124.105 526.527 131.183 518.095 134.667L386.608 183.318L325.92 205.91L285.456 221.565C278.721 223.283 271.985 225.002 265.266 224.939C258.547 224.876 251.845 223.032 245.142 221.188L204.978 204.781L144.723 181.06L112.924 168.293C119.726 159.449 129.855 154.2 139.983 148.95L269.823 96.7203C276.576 93.2206 280.002 86.1269 276.709 78.9705C273.416 71.8142 266.73 68.1889 259.978 71.6887L130.137 123.918C113.273 130.886 99.7353 141.448 89.5237 155.604C74.2229 175.057 65.5913 199.916 65.3418 226.635L65.1422 248.01C66.772 253.369 70.0649 260.526 71.6948 265.885C73.3246 271.244 74.9379 278.385 76.5677 283.745C81.3741 308.729 84.4342 340.823 77.3492 379.948C77.3159 383.51 73.9232 387.041 72.2268 388.807C68.8506 390.557 65.4744 392.307 62.1315 390.494L36.1564 379.964L10.1922 375.758C5.16953 373.93 1.84331 370.336 0.196827 366.758C-1.44966 363.179 7.94768 333.933 1.993 354.304C8.81184 343.68 15.6307 333.055 20.7864 320.633C31.0479 301.134 39.6963 274.493 39.9292 249.556L40.1455 226.399C40.4116 197.899 49.0598 171.259 62.7142 148.228L15.8474 129.977C7.48188 126.336 2.5091 119.164 2.59227 110.257C2.67545 101.351 7.78131 94.2731 16.2134 90.789L248.851 3.8913C255.587 2.17281 262.323 0.4543 269.042 0.517049C275.761 0.579797 282.463 2.4238 289.166 4.2678L520.14 95.4952C526.843 97.3392 531.799 106.293 531.716 115.199Z" fill="url(#animatedGradient)"/>

	<path d="M509.118 367.725C509.118 371.147 509.118 372.858 509.118 376.28C509.118 379.702 509.118 381.413 509.118 384.835H124.127C125.838 405.368 130.971 424.19 139.526 443.012C148.082 461.834 161.77 477.233 175.459 490.922C190.859 504.61 207.969 516.588 226.791 523.432C245.613 531.988 266.146 535.41 286.679 535.41C305.5 535.41 322.611 531.988 339.722 526.854C356.833 521.721 370.521 514.877 384.21 504.61C397.898 496.055 408.165 485.789 416.72 473.811C425.276 461.834 432.12 449.856 437.253 436.168H493.718C486.874 456.7 476.608 477.233 462.919 494.344C449.231 513.166 433.831 528.565 415.009 542.254C396.187 555.943 377.366 566.209 355.122 573.053C332.878 579.898 310.634 585.031 286.679 585.031C257.59 585.031 228.502 579.898 202.836 567.92C175.459 555.943 153.215 540.543 132.682 521.721C112.149 501.188 96.7497 478.944 84.7721 451.567C74.5057 429.323 69.3725 405.368 67.6614 379.702L81.3499 383.124C84.7721 384.835 88.1942 383.124 91.6163 381.413C95.0385 379.702 96.7496 376.28 96.7496 372.858C103.594 336.925 100.172 304.415 95.0386 280.46C93.3275 275.327 91.6164 268.482 89.9053 263.349C100.172 242.816 113.86 225.706 129.26 210.306C130.971 208.595 134.393 205.173 136.104 203.462L137.815 201.75L190.859 220.572L255.879 244.527C264.435 247.949 274.701 249.661 284.968 249.661C295.234 249.661 305.5 247.949 314.056 244.527L379.077 220.572L432.12 201.75L433.831 203.462C437.253 206.884 440.675 208.595 442.386 212.017C454.364 225.706 464.63 237.683 471.475 251.372C483.452 271.904 492.007 290.726 497.141 311.259C501.895 330.275 509.118 348.903 509.118 367.725Z" fill="url(#animatedGradient)"/>
</svg>