<svg width="20" height="20" viewBox="0 0 20 20" fill="none" xmlns="http://www.w3.org/2000/svg">
<path d="M1.11133 13.9834H7.77734C8.03208 13.9834 8.2392 14.1894 8.23926 14.4443V18.8887C8.23926 19.1437 8.03212 19.3496 7.77734 19.3496H1.11133C0.856556 19.3496 0.650391 19.1437 0.650391 18.8887V14.4443C0.650449 14.1894 0.856593 13.9834 1.11133 13.9834ZM12.2227 10.6504H18.8887C19.1441 10.6504 19.3496 10.8559 19.3496 11.1113V18.8887C19.3496 19.1441 19.1441 19.3496 18.8887 19.3496H12.2227C11.9672 19.3496 11.7607 19.1441 11.7607 18.8887V11.1113C11.7607 10.8559 11.9672 10.6504 12.2227 10.6504ZM1.11133 0.650391H7.77734C8.03212 0.650391 8.23926 0.856292 8.23926 1.11133V10C8.23926 10.255 8.03212 10.4609 7.77734 10.4609H1.11133C0.856557 10.4609 0.650391 10.255 0.650391 10V1.11133C0.650391 0.856292 0.856556 0.650391 1.11133 0.650391ZM12.2227 0.650391H18.8887C19.1441 0.650391 19.3496 0.855868 19.3496 1.11133V6.66699C19.3494 6.9223 19.144 7.12793 18.8887 7.12793H12.2227C11.9673 7.12793 11.7609 6.9223 11.7607 6.66699V1.11133C11.7607 0.855869 11.9672 0.650391 12.2227 0.650391Z" stroke="white" stroke-opacity="0.81" stroke-width="1.3"/>
</svg>
