<svg width="22" height="22" viewBox="0 0 22 22" fill="none" xmlns="http://www.w3.org/2000/svg">
<path d="M14.0638 21.9907H7.92688C2.37295 21.9907 0 19.6178 0 14.0638V7.92688C0 2.37295 2.37295 0 7.92688 0H14.0638C19.6178 0 21.9907 2.37295 21.9907 7.92688V14.0638C21.9907 19.6178 19.6178 21.9907 14.0638 21.9907ZM7.92688 1.53424C3.21167 1.53424 1.53424 3.21167 1.53424 7.92688V14.0638C1.53424 18.779 3.21167 20.4565 7.92688 20.4565H14.0638C18.779 20.4565 20.4565 18.779 20.4565 14.0638V7.92688C20.4565 3.21167 18.779 1.53424 14.0638 1.53424H7.92688Z" fill="white" fill-opacity="0.72"/>
<path d="M7.92677 9.71646C6.37219 9.71646 5.1142 8.45847 5.1142 6.90389C5.1142 5.3493 6.37219 4.09131 7.92677 4.09131C9.48136 4.09131 10.7394 5.3493 10.7394 6.90389C10.7394 8.45847 9.48136 9.71646 7.92677 9.71646ZM7.92677 5.62544C7.22107 5.62544 6.64833 6.19818 6.64833 6.90389C6.64833 7.60959 7.22107 8.18233 7.92677 8.18233C8.63247 8.18233 9.20522 7.60959 9.20522 6.90389C9.20522 6.19818 8.63247 5.62544 7.92677 5.62544Z" fill="white" fill-opacity="0.72"/>
<path d="M1.45318 18.8715C1.2077 18.8715 0.962221 18.7488 0.819026 18.534C0.583777 18.1862 0.675831 17.7055 1.03382 17.4702L6.07634 14.0847C7.18099 13.338 8.705 13.4301 9.70731 14.279L10.0448 14.5756C10.5563 15.0154 11.4257 15.0154 11.9268 14.5756L16.1818 10.9242C17.266 9.99338 18.9741 9.99338 20.0685 10.9242L21.7357 12.3561C22.0528 12.6323 22.0937 13.113 21.8175 13.4403C21.5414 13.7574 21.0607 13.7983 20.7334 13.5221L19.0661 12.0902C18.5547 11.6504 17.6853 11.6504 17.1739 12.0902L12.919 15.7417C11.8348 16.6724 10.1267 16.6724 9.03225 15.7417L8.69477 15.445C8.22427 15.0461 7.44692 15.0052 6.92528 15.3632L1.88276 18.7487C1.7498 18.8306 1.59637 18.8715 1.45318 18.8715Z" fill="white" fill-opacity="0.72"/>
</svg>
