<svg width="22" height="22" viewBox="0 0 22 22" fill="none" xmlns="http://www.w3.org/2000/svg">
<g opacity="0.79">
<path d="M16.8091 21.826H5.04069C2.25612 21.826 0 19.5597 0 16.7751V9.24455C0 7.86239 0.853665 6.12457 1.95124 5.27091L7.42892 1.00258C9.07528 -0.277911 11.7074 -0.338887 13.4147 0.860305L19.6953 5.26075C20.9046 6.10425 21.8498 7.91321 21.8498 9.38683V16.7853C21.8498 19.5597 19.5937 21.826 16.8091 21.826ZM8.36389 2.20178L2.8862 6.47011C2.16465 7.03922 1.5244 8.32988 1.5244 9.24455V16.7751C1.5244 18.7162 3.09962 20.3015 5.04069 20.3015H16.8091C18.7502 20.3015 20.3254 18.7263 20.3254 16.7853V9.38683C20.3254 8.41118 19.6241 7.05954 18.8213 6.51076L12.5408 2.11032C11.3822 1.2973 9.47162 1.33795 8.36389 2.20178Z" fill="white"/>
<path d="M10.9247 17.7607C10.5081 17.7607 10.1625 17.4152 10.1625 16.9985V13.9497C10.1625 13.533 10.5081 13.1875 10.9247 13.1875C11.3414 13.1875 11.6869 13.533 11.6869 13.9497V16.9985C11.6869 17.4152 11.3414 17.7607 10.9247 17.7607Z" fill="white"/>
</g>
</svg>
