<svg width="23" height="24" viewBox="0 0 23 24" fill="none" xmlns="http://www.w3.org/2000/svg">
<path fill-rule="evenodd" clip-rule="evenodd" d="M2.26265 22.1817H15.8385C16.4634 22.1817 16.9699 21.6752 16.9699 21.0503V2.94917C16.9699 2.32436 16.4634 1.81785 15.8385 1.81785H2.26265C1.63783 1.81785 1.13132 2.32436 1.13132 2.94917V21.0503C1.13132 21.6752 1.63783 22.1817 2.26265 22.1817ZM15.8385 23.313H2.26265C1.01302 23.313 0 22.2999 0 21.0503V2.94917C0 1.69954 1.01302 0.686523 2.26265 0.686523H15.8385C17.0881 0.686523 18.1012 1.69954 18.1012 2.94917V21.0503C18.1012 22.2999 17.0881 23.313 15.8385 23.313Z" fill="white" fill-opacity="0.77"/>
<path fill-rule="evenodd" clip-rule="evenodd" d="M7.91882 5.77709C7.91882 5.46467 8.17207 5.21143 8.48448 5.21143H15.2724C15.5848 5.21143 15.8381 5.46467 15.8381 5.77709C15.8381 6.0895 15.5848 6.34275 15.2724 6.34275H8.48448C8.17207 6.34275 7.91882 6.0895 7.91882 5.77709Z" fill="white" fill-opacity="0.77"/>
<path fill-rule="evenodd" clip-rule="evenodd" d="M7.91882 8.03978C7.91882 7.72737 8.17207 7.47412 8.48448 7.47412H15.2724C15.5848 7.47412 15.8381 7.72737 15.8381 8.03978C15.8381 8.3522 15.5848 8.60544 15.2724 8.60544H8.48448C8.17207 8.60544 7.91882 8.3522 7.91882 8.03978Z" fill="white" fill-opacity="0.77"/>
<path fill-rule="evenodd" clip-rule="evenodd" d="M7.91882 12.5647C7.91882 12.2523 8.17207 11.999 8.48448 11.999H15.2724C15.5848 11.999 15.8381 12.2523 15.8381 12.5647C15.8381 12.8771 15.5848 13.1303 15.2724 13.1303H8.48448C8.17207 13.1303 7.91882 12.8771 7.91882 12.5647Z" fill="white" fill-opacity="0.77"/>
<path fill-rule="evenodd" clip-rule="evenodd" d="M7.91882 14.8284C7.91882 14.5159 8.17207 14.2627 8.48448 14.2627H15.2724C15.5848 14.2627 15.8381 14.5159 15.8381 14.8284C15.8381 15.1408 15.5848 15.394 15.2724 15.394H8.48448C8.17207 15.394 7.91882 15.1408 7.91882 14.8284Z" fill="white" fill-opacity="0.77"/>
<path fill-rule="evenodd" clip-rule="evenodd" d="M3.39408 13.1303V14.8273H5.09106V13.1303H3.39408ZM2.82842 11.999H5.65673C5.96914 11.999 6.22239 12.2523 6.22239 12.5647V15.393C6.22239 15.7054 5.96914 15.9587 5.65673 15.9587H2.82842C2.51601 15.9587 2.26276 15.7054 2.26276 15.393V12.5647C2.26276 12.2523 2.51601 11.999 2.82842 11.999Z" fill="white" fill-opacity="0.77"/>
<path fill-rule="evenodd" clip-rule="evenodd" d="M6.62237 5.37709C6.84326 5.59798 6.84326 5.95616 6.62237 6.17705L3.95974 8.83968L2.42843 7.30838C2.20753 7.08749 2.20753 6.72931 2.42843 6.50842C2.64934 6.28753 3.0075 6.28753 3.2284 6.50842L3.95974 7.23976L5.82241 5.37709C6.0433 5.1562 6.40148 5.1562 6.62237 5.37709Z" fill="white" fill-opacity="0.77"/>
<path fill-rule="evenodd" clip-rule="evenodd" d="M21.4953 11.9995H20.3639V20.6729L20.9296 21.4272L21.4953 20.6729V11.9995ZM22.6266 21.0501L20.9296 23.3127L19.2326 21.0501V10.8682H22.6266V21.0501Z" fill="white" fill-opacity="0.77"/>
<path fill-rule="evenodd" clip-rule="evenodd" d="M21.4953 8.04001H20.3639V9.17134H21.4953V8.04001ZM20.3639 6.90869H21.4953C22.1201 6.90869 22.6266 7.41518 22.6266 8.04001V10.3027H19.2326V8.04001C19.2326 7.41518 19.7391 6.90869 20.3639 6.90869Z" fill="white" fill-opacity="0.77"/>
</svg>
