<svg width="28" height="28" viewBox="0 0 28 28" fill="none" xmlns="http://www.w3.org/2000/svg">
<path d="M26.0312 11.0998L15.0932 2.35042C14.4492 1.83417 13.5502 1.83475 12.9068 2.34984L1.96875 11.0998C1.8305 11.2107 1.75 11.3781 1.75 11.5554V24.3888C1.75 24.856 1.932 25.2958 2.26275 25.626C2.58825 25.9521 3.03917 26.1388 3.5 26.1388H24.5C24.9672 26.1388 25.4071 25.9562 25.7372 25.626C26.0674 25.2958 26.25 24.856 26.25 24.3888V11.5554C26.25 11.3781 26.1695 11.2107 26.0312 11.0998ZM10.4131 18.3443L2.91667 24.3415V12.7215L10.4131 18.3443ZM12.9068 17.8438C13.5508 17.3275 14.4497 17.3275 15.0932 17.8438L24.003 24.9721H3.99642L12.9068 17.8438ZM17.5869 18.3437L25.0833 12.7215V24.3409L17.5869 18.3437ZM13.636 3.26042C13.8501 3.08834 14.1493 3.08892 14.364 3.261L24.7141 11.5403L16.646 17.5918L15.8223 16.9326C14.749 16.0745 13.2504 16.0739 12.1777 16.9326L11.3534 17.5918L3.28592 11.5403L13.636 3.26042Z" fill="white"/>
</svg>
