<svg xmlns="http://www.w3.org/2000/svg" width="1832" height="1080" fill="none" xmlns:v="https://vecta.io/nano"><g filter="url(#A)"><path d="M1431.86 400.372c0 175.246-142.07 317.311-317.33 317.311S797.196 575.618 797.196 400.372 939.271 83.06 1114.53 83.06s317.33 142.065 317.33 317.312z" fill="#8134ff" fill-opacity=".9"/><path d="M1250.86 482.85c0 43.653-35.39 79.041-79.05 79.041s-79.05-35.388-79.05-79.041 35.39-79.042 79.05-79.042 79.05 35.388 79.05 79.042z" fill="#d9d9d9"/><path d="M879.68 550.436H1214.2V884.93H879.68V550.436Z" fill="#ff58e4"/><path d="M1532.68-4l312.52 541.262h-625.04L1532.68-4z" fill="#39acff"/><path d="M420 532.731l419.298-262.102 17.354 494.148L420 532.731z" fill="#ffca42"/><path d="M1475.97 333.931l96.32 296.432H1884l-252.18 183.205L1728.15 1110l-252.18-183.205L1223.79 1110l96.32-296.432-252.17-183.205h311.71l96.32-296.432z" fill="#c74fff" fill-opacity=".79"/></g><defs><filter id="A" x=".3" y="-423.7" width="2303.4" height="1953.4" filterUnits="userSpaceOnUse" color-interpolation-filters="sRGB"><feFlood flood-opacity="0"/><feBlend in="SourceGraphic"/><feGaussianBlur stdDeviation="209.85"/></filter></defs></svg>