<svg width="20" height="22" viewBox="0 0 20 22" fill="none" xmlns="http://www.w3.org/2000/svg">
<path d="M14.5 8.35894L5.5 3.16895" stroke="white" stroke-opacity="0.81" stroke-linecap="round" stroke-linejoin="round"/>
<path d="M19 14.9589V6.95889C18.9996 6.60816 18.9071 6.2637 18.7315 5.96005C18.556 5.6564 18.3037 5.40425 18 5.22889L11 1.22889C10.696 1.05335 10.3511 0.960938 10 0.960938C9.64893 0.960938 9.30404 1.05335 9 1.22889L2 5.22889C1.69626 5.40425 1.44398 5.6564 1.26846 5.96005C1.09294 6.2637 1.00036 6.60816 1 6.95889V14.9589C1.00036 15.3096 1.09294 15.6541 1.26846 15.9577C1.44398 16.2614 1.69626 16.5135 2 16.6889L9 20.6889C9.30404 20.8644 9.64893 20.9568 10 20.9568C10.3511 20.9568 10.696 20.8644 11 20.6889L18 16.6889C18.3037 16.5135 18.556 16.2614 18.7315 15.9577C18.9071 15.6541 18.9996 15.3096 19 14.9589Z" stroke="white" stroke-opacity="0.81" stroke-linecap="round" stroke-linejoin="round"/>
<path d="M1.27002 5.91895L10 10.9689L18.73 5.91895" stroke="white" stroke-opacity="0.81" stroke-linecap="round" stroke-linejoin="round"/>
<path d="M10 21.039V10.959" stroke="white" stroke-opacity="0.81" stroke-linecap="round" stroke-linejoin="round"/>
</svg>
