<svg width="22" height="23" viewBox="0 0 22 23" fill="none" xmlns="http://www.w3.org/2000/svg">
<path d="M5.46455 12.2387L5.33544 16.1184L3.91524 15.1227L2.49504 15.948L2.78781 11.7895L0.776611 11.505V20.2226L8.18494 21.0892V12.5493L5.46455 12.2387ZM17.7972 1.11423C17.8736 1.09926 17.9518 1.11423 18.0172 1.15541C18.1282 1.20219 18.2064 1.31449 18.2082 1.44737L18.2718 10.4289L21.525 10.8687C21.6014 10.8537 21.6796 10.8687 21.745 10.9099C21.856 10.9567 21.9342 11.0689 21.936 11.2018L21.9996 20.4079C22.0051 20.5202 21.9505 20.6325 21.8505 20.6943L18.1973 22.9364C18.1464 22.9757 18.0809 23 18.0118 23C17.9954 23 17.9772 22.9981 17.9627 22.9963L8.48316 21.9108C8.45952 21.9089 8.4377 21.9051 8.41588 21.8995L0.292906 20.8253C0.129246 20.8178 0.000136755 20.6774 0.000136755 20.509V11.1457C-0.00350013 11.0203 0.0656006 10.8986 0.183799 10.8462L4.46077 8.90919V2.47858C4.45713 2.35319 4.52623 2.23154 4.64443 2.17914L9.39965 0.0268681C9.44875 0.0044096 9.50512 -0.00494809 9.56331 0.00253806L17.7972 1.11423ZM17.9772 11.0278L15.1186 12.7833L17.9572 13.1557L20.6758 11.3927L17.9772 11.0278ZM4.46077 10.4139V9.60166L1.42761 10.9735L3.16786 11.2018L4.46077 10.4139ZM14.5913 4.08623V12.3697L17.3208 10.6928L17.6536 10.4027L17.5954 2.13796L14.5913 4.08623ZM13.8094 12.5737V4.00576L9.93064 3.47424L9.79789 7.45126L8.37769 6.4556L6.95749 7.28095L7.25026 3.12239L5.0754 2.83605V11.5537L13.8094 12.5737ZM13.3348 1.15166L10.3525 2.89406L14.2312 3.40312L16.9498 1.64013L13.3348 1.15166ZM7.63213 2.53473L10.5234 0.769869L9.57059 0.640733L5.89188 2.30453L7.63213 2.53473ZM18.3173 13.8388V22.1222L21.3814 20.2414L21.3213 11.8905L18.3173 13.8388ZM17.5354 22.3262V13.7583L13.6566 13.2268L13.5239 17.2038L12.1037 16.2082L10.6835 17.0335L10.9762 12.875L8.96505 12.6729V21.3905L17.5354 22.3262Z" fill="white" fill-opacity="0.81"/>
</svg>
