<svg width="34" height="34" viewBox="0 0 34 34" fill="none" xmlns="http://www.w3.org/2000/svg">
<path d="M26.7578 17.8573C26.691 17.5751 26.529 17.325 26.2995 17.15C26.07 16.9749 25.7873 16.8857 25.4998 16.8976H19.8898L19.6688 12.9903C19.6471 12.619 19.4853 12.2702 19.2166 12.0153C18.948 11.7604 18.5927 11.6187 18.2238 11.6194H16.9998V10.1456C16.9998 9.2002 16.6273 8.29355 15.9641 7.62508C15.301 6.9566 14.4016 6.58105 13.4638 6.58105C12.526 6.58105 11.6266 6.9566 10.9635 7.62508C10.3003 8.29355 9.92779 9.2002 9.92779 10.1456V11.6194H8.73779C8.36605 11.6189 8.00845 11.763 7.73933 12.0215C7.47022 12.28 7.31029 12.6331 7.29279 13.0075L6.61279 25.0034C6.62175 25.6504 6.88416 26.2675 7.34277 26.7202C7.80137 27.1729 8.41896 27.4244 9.06079 27.4198H16.9998H17.5098H25.1598C25.7982 27.4142 26.4089 27.1557 26.8598 26.7C27.0148 26.5482 27.1336 26.3629 27.2072 26.158C27.2808 25.9532 27.3073 25.7342 27.2848 25.5175L26.7578 17.8573ZM11.1348 10.1456C11.1848 9.55532 11.4527 9.00547 11.8855 8.60479C12.3184 8.20411 12.8846 7.98178 13.4723 7.98178C14.06 7.98178 14.6262 8.20411 15.0591 8.60479C15.4919 9.00547 15.7598 9.55532 15.8098 10.1456V11.6194H11.1348V10.1456ZM7.83679 24.8492L8.49979 13.076C8.50382 13.0092 8.53198 12.9461 8.57896 12.8988C8.62594 12.8514 8.68848 12.823 8.75479 12.819H9.94479V13.453C9.94479 13.6121 10.0075 13.7647 10.1191 13.8772C10.2306 13.9896 10.382 14.0528 10.5398 14.0528C10.6976 14.0528 10.8489 13.9896 10.9605 13.8772C11.0721 13.7647 11.1348 13.6121 11.1348 13.453V12.819H15.8098V13.453C15.8338 13.5969 15.9076 13.7275 16.0181 13.8216C16.1286 13.9158 16.2686 13.9675 16.4133 13.9675C16.558 13.9675 16.698 13.9158 16.8085 13.8216C16.919 13.7275 16.9928 13.5969 17.0168 13.453V12.819H18.1558C18.2221 12.823 18.2846 12.8514 18.3316 12.8988C18.3786 12.9461 18.4068 13.0092 18.4108 13.076L18.6998 16.8976H17.3398C17.0149 16.862 16.6887 16.9518 16.4269 17.1489C16.1651 17.3461 15.9871 17.6359 15.9288 17.9601L15.2998 25.5175C15.2821 25.7397 15.317 25.9629 15.4018 26.1688H9.06079C8.89337 26.1667 8.7281 26.1305 8.57492 26.0624C8.42174 25.9942 8.28382 25.8956 8.16947 25.7723C8.05511 25.649 7.96669 25.5037 7.90952 25.345C7.85234 25.1864 7.82761 25.0177 7.83679 24.8492ZM26.0608 25.8774C25.942 25.9938 25.8007 26.0843 25.6457 26.1433C25.4907 26.2023 25.3253 26.2284 25.1598 26.2202H18.0878C18.0093 26.204 17.9283 26.204 17.8498 26.2202H17.2038C16.9692 26.1912 16.7494 26.0894 16.5748 25.9288C16.5366 25.8944 16.5062 25.8521 16.4857 25.8048C16.4651 25.7575 16.455 25.7063 16.4558 25.6546L16.9998 18.08H25.4998H25.6528L26.2478 25.6204C26.2383 25.6748 26.2165 25.7263 26.1841 25.7709C26.1516 25.8155 26.1095 25.8519 26.0608 25.8774Z" fill="white" fill-opacity="0.81"/>
<path d="M23.0691 19.1768C22.9113 19.1768 22.76 19.24 22.6484 19.3524C22.5368 19.4649 22.4741 19.6175 22.4741 19.7766V20.9933C22.4193 21.25 22.2789 21.48 22.0763 21.6449C21.8737 21.8099 21.6211 21.8999 21.3606 21.8999C21.1002 21.8999 20.8476 21.8099 20.645 21.6449C20.4423 21.48 20.3019 21.25 20.2471 20.9933V19.7766C20.2471 19.6175 20.1844 19.4649 20.0729 19.3524C19.9613 19.24 19.8099 19.1768 19.6521 19.1768C19.4943 19.1768 19.343 19.24 19.2314 19.3524C19.1198 19.4649 19.0571 19.6175 19.0571 19.7766V20.9933C19.1067 21.5747 19.3709 22.1162 19.7974 22.5108C20.2239 22.9053 20.7817 23.1243 21.3606 23.1243C21.9395 23.1243 22.4974 22.9053 22.9239 22.5108C23.3504 22.1162 23.6145 21.5747 23.6641 20.9933V19.7766C23.6641 19.6175 23.6014 19.4649 23.4899 19.3524C23.3783 19.24 23.2269 19.1768 23.0691 19.1768Z" fill="white" fill-opacity="0.81"/>
</svg>
