<svg width="17" height="14" viewBox="0 0 17 14" fill="none" xmlns="http://www.w3.org/2000/svg">
<path d="M8.09463 14.0004C7.17296 14.003 6.25998 13.8223 5.40876 13.4689C4.55753 13.1155 3.78503 12.5964 3.13617 11.9419C3.08623 11.8918 3.04665 11.8323 3.01968 11.7669C2.99271 11.7015 2.97889 11.6315 2.979 11.5607C2.97912 11.49 2.99316 11.42 3.02034 11.3547C3.04751 11.2893 3.08728 11.23 3.13738 11.1801C3.18748 11.1301 3.24693 11.0906 3.31233 11.0636C3.37772 11.0366 3.44779 11.0228 3.51853 11.0229C3.58927 11.023 3.65929 11.0371 3.72461 11.0642C3.78992 11.0914 3.84924 11.1312 3.89918 11.1813C4.72672 12.0117 5.78207 12.5778 6.93158 12.808C8.08108 13.0382 9.27305 12.9221 10.3565 12.4744C11.44 12.0267 12.3663 11.2676 13.018 10.2931C13.6698 9.31867 14.0177 8.17271 14.0178 7.00038C14.0178 6.85757 14.0745 6.72061 14.1755 6.61963C14.2764 6.51865 14.4134 6.46191 14.5562 6.46191C14.699 6.46191 14.836 6.51865 14.937 6.61963C15.038 6.72061 15.0947 6.85757 15.0947 7.00038C15.0926 8.85627 14.3544 10.6356 13.0421 11.9479C11.7298 13.2602 9.95053 13.9984 8.09463 14.0004Z" fill="white"/>
<path d="M1.63319 7.53887C1.49038 7.53887 1.35342 7.48214 1.25244 7.38116C1.15146 7.28018 1.09473 7.14322 1.09473 7.00041C1.09475 5.61697 1.50471 4.26456 2.27283 3.11395C3.04094 1.96334 4.13278 1.06614 5.41045 0.535628C6.68813 0.00511825 8.09436 -0.134905 9.45156 0.133239C10.8088 0.401383 12.0561 1.06567 13.036 2.04222C13.1371 2.14308 13.194 2.27997 13.1942 2.42279C13.1944 2.5656 13.1378 2.70263 13.037 2.80374C12.9361 2.90485 12.7992 2.96175 12.6564 2.96193C12.5136 2.96211 12.3765 2.90555 12.2754 2.80469C11.4462 1.97849 10.3908 1.41651 9.24243 1.18971C8.09406 0.962906 6.90424 1.08145 5.8232 1.53037C4.74215 1.97928 3.81836 2.73845 3.16846 3.71201C2.51856 4.68556 2.17169 5.82986 2.17166 7.00041C2.17166 7.14322 2.11493 7.28018 2.01394 7.38116C1.91296 7.48214 1.776 7.53887 1.63319 7.53887Z" fill="white"/>
<path d="M1.63319 7.53891C1.56247 7.53901 1.49242 7.52512 1.42709 7.49805C1.36175 7.47097 1.30242 7.43124 1.2525 7.38114L0.175568 6.30421C0.0774818 6.20265 0.0232076 6.06663 0.0244344 5.92545C0.0256613 5.78427 0.0822911 5.64921 0.182127 5.54938C0.281963 5.44954 0.417017 5.39291 0.558201 5.39168C0.699384 5.39046 0.835402 5.44473 0.936958 5.54282L2.01389 6.61975C2.08917 6.69505 2.14044 6.79099 2.1612 6.89542C2.18197 6.99986 2.17131 7.10811 2.13056 7.20649C2.08982 7.30487 2.02082 7.38895 1.93229 7.44812C1.84376 7.50729 1.73968 7.53889 1.63319 7.53891Z" fill="white"/>
<path d="M1.63308 7.53891C1.5266 7.53889 1.42251 7.50729 1.33398 7.44812C1.24545 7.38895 1.17645 7.30487 1.13571 7.20649C1.09496 7.10811 1.0843 6.99986 1.10507 6.89542C1.12583 6.79099 1.1771 6.69505 1.25238 6.61975L2.32931 5.54282C2.43087 5.44473 2.56689 5.39046 2.70807 5.39168C2.84925 5.39291 2.98431 5.44954 3.08414 5.54938C3.18398 5.64921 3.24061 5.78427 3.24184 5.92545C3.24306 6.06663 3.18879 6.20265 3.0907 6.30421L2.01377 7.38114C1.96385 7.43124 1.90452 7.47097 1.83918 7.49805C1.77385 7.52512 1.7038 7.53901 1.63308 7.53891Z" fill="white"/>
<path d="M15.6332 8.34659C15.5625 8.34669 15.4924 8.3328 15.4271 8.30573C15.3618 8.27865 15.3024 8.23892 15.2525 8.18882L14.1756 7.11189C14.0775 7.01033 14.0232 6.87431 14.0244 6.73313C14.0257 6.59194 14.0823 6.45689 14.1821 6.35705C14.282 6.25722 14.417 6.20059 14.5582 6.19936C14.6994 6.19813 14.8354 6.25241 14.937 6.35049L16.0139 7.42743C16.0892 7.50273 16.1404 7.59867 16.1612 7.7031C16.182 7.80754 16.1713 7.91579 16.1306 8.01417C16.0898 8.11254 16.0208 8.19663 15.9323 8.2558C15.8438 8.31497 15.7397 8.34656 15.6332 8.34659Z" fill="white"/>
<path d="M13.4793 8.34659C13.3728 8.34656 13.2687 8.31497 13.1802 8.2558C13.0916 8.19663 13.0226 8.11254 12.9819 8.01417C12.9412 7.91579 12.9305 7.80754 12.9513 7.7031C12.972 7.59867 13.0233 7.50273 13.0986 7.42743L14.1755 6.35049C14.2771 6.25241 14.4131 6.19813 14.5543 6.19936C14.6954 6.20059 14.8305 6.25722 14.9303 6.35705C15.0302 6.45689 15.0868 6.59194 15.088 6.73313C15.0893 6.87431 15.035 7.01033 14.9369 7.11189L13.86 8.18882C13.81 8.23892 13.7507 8.27865 13.6854 8.30573C13.62 8.3328 13.55 8.34669 13.4793 8.34659Z" fill="white"/>
<path d="M8.09467 8.34657C7.56218 8.34657 7.04165 8.18867 6.5989 7.89283C6.15614 7.597 5.81106 7.17651 5.60729 6.68455C5.40351 6.19259 5.35019 5.65126 5.45408 5.129C5.55796 4.60674 5.81438 4.12701 6.19091 3.75048C6.56744 3.37395 7.04717 3.11753 7.56943 3.01365C8.09169 2.90976 8.63302 2.96308 9.12498 3.16686C9.61694 3.37063 10.0374 3.71572 10.3333 4.15847C10.6291 4.60122 10.787 5.12175 10.787 5.65424C10.7862 6.36805 10.5023 7.0524 9.99757 7.55714C9.49283 8.06188 8.80848 8.34579 8.09467 8.34657ZM8.09467 4.03885C7.77518 4.03885 7.46286 4.13359 7.19721 4.31109C6.93156 4.48859 6.72451 4.74088 6.60224 5.03606C6.47998 5.33123 6.44799 5.65604 6.51032 5.96939C6.57265 6.28275 6.7265 6.57058 6.95241 6.7965C7.17833 7.02242 7.46617 7.17627 7.77952 7.2386C8.09288 7.30093 8.41768 7.26894 8.71286 7.14668C9.00803 7.02441 9.26032 6.81736 9.43783 6.55171C9.61533 6.28606 9.71007 5.97374 9.71007 5.65424C9.70964 5.22594 9.53931 4.81531 9.23646 4.51246C8.93361 4.2096 8.52297 4.03927 8.09467 4.03885Z" fill="white"/>
<path d="M11.0563 11.0389C10.9135 11.0389 10.7765 10.9822 10.6756 10.8812C10.5746 10.7802 10.5178 10.6433 10.5178 10.5004V9.42352C10.5178 9.1379 10.4044 8.86397 10.2024 8.66201C10.0005 8.46005 9.72654 8.34658 9.44092 8.34658H6.74859C6.46297 8.34658 6.18905 8.46005 5.98708 8.66201C5.78512 8.86397 5.67166 9.1379 5.67166 9.42352V10.5004C5.67166 10.6433 5.61493 10.7802 5.51394 10.8812C5.41296 10.9822 5.276 11.0389 5.13319 11.0389C4.99038 11.0389 4.85342 10.9822 4.75244 10.8812C4.65146 10.7802 4.59473 10.6433 4.59473 10.5004V9.42352C4.59537 8.85247 4.8225 8.305 5.22629 7.90121C5.63008 7.49742 6.17755 7.27029 6.74859 7.26965H9.44092C10.012 7.27029 10.5594 7.49742 10.9632 7.90121C11.367 8.305 11.5941 8.85247 11.5948 9.42352V10.5004C11.5948 10.6433 11.538 10.7802 11.4371 10.8812C11.3361 10.9822 11.1991 11.0389 11.0563 11.0389Z" fill="white"/>
</svg>
