<svg width="26" height="26" viewBox="0 0 26 26" fill="none" xmlns="http://www.w3.org/2000/svg">
<g opacity="0.82">
<path d="M24.115 20.8648H22.555V4.54984C22.555 4.39469 22.4934 4.2459 22.3836 4.13619C22.2739 4.02648 22.1251 3.96484 21.97 3.96484H17.55C17.3948 3.96484 17.246 4.02648 17.1363 4.13619C17.0266 4.2459 16.965 4.39469 16.965 4.54984V20.8648H15.6975V10.8873C15.6975 10.7322 15.6359 10.5834 15.5261 10.4737C15.4164 10.364 15.2676 10.3023 15.1125 10.3023H10.6795C10.5243 10.3023 10.3755 10.364 10.2658 10.4737C10.1561 10.5834 10.0945 10.7322 10.0945 10.8873V20.8648H8.85299V15.6648C8.8513 15.5102 8.78912 15.3624 8.67978 15.2531C8.57043 15.1437 8.42262 15.0815 8.26799 15.0798H3.82849C3.67386 15.0815 3.52604 15.1437 3.4167 15.2531C3.30735 15.3624 3.24518 15.5102 3.24349 15.6648V20.8648H1.88499C1.72984 20.8648 1.58104 20.9265 1.47133 21.0362C1.36162 21.1459 1.29999 21.2947 1.29999 21.4498C1.29999 21.605 1.36162 21.7538 1.47133 21.8635C1.58104 21.9732 1.72984 22.0348 1.88499 22.0348H24.115C24.2701 22.0348 24.4189 21.9732 24.5286 21.8635C24.6384 21.7538 24.7 21.605 24.7 21.4498C24.7 21.2947 24.6384 21.1459 24.5286 21.0362C24.4189 20.9265 24.2701 20.8648 24.115 20.8648ZM4.41349 20.8648V16.3148H7.66349V20.8648H4.41349ZM11.2645 20.8648V11.4723H14.5145V20.8648H11.2645ZM18.122 20.8648V5.13484H21.372V20.8648H18.122Z" fill="white" fill-opacity="0.81"/>
</g>
</svg>
