<svg width="26" height="18" viewBox="0 0 26 18" fill="none" xmlns="http://www.w3.org/2000/svg">
<path d="M11.926 17.5238C11.8919 17.6598 11.813 17.7805 11.7018 17.8668C11.5905 17.9531 11.4534 18 11.3123 18C11.2604 17.9999 11.2087 17.9935 11.1583 17.9812L7.78362 17.144C7.71346 17.1261 7.6468 17.0968 7.58641 17.0571L5.05539 15.3827C4.98615 15.3369 4.92666 15.2781 4.88034 15.2095C4.83401 15.1409 4.80175 15.064 4.7854 14.983C4.75237 14.8195 4.78614 14.6497 4.87928 14.511C4.97241 14.3722 5.11729 14.2758 5.28204 14.243C5.36361 14.2268 5.44761 14.2267 5.52923 14.2427C5.61085 14.2586 5.6885 14.2904 5.75775 14.3362L8.19702 15.9499L11.4662 16.7609C11.547 16.781 11.6229 16.8166 11.6897 16.8659C11.7565 16.9151 11.8129 16.9769 11.8556 17.0478C11.8983 17.1186 11.9265 17.1971 11.9386 17.2788C11.9507 17.3605 11.9464 17.4438 11.926 17.5238ZM25.9236 7.41462C25.8631 7.59715 25.7667 7.76596 25.6399 7.91128C25.5132 8.0566 25.3587 8.17555 25.1854 8.26124L22.6544 9.51704L16.8215 15.3053C16.7027 15.4227 16.5419 15.4885 16.3743 15.4884C16.3224 15.4883 16.2707 15.482 16.2203 15.4696L9.47096 13.7951C9.39512 13.7756 9.32361 13.7422 9.26004 13.6968L3.3923 9.54007L0.815941 8.26124C0.465808 8.08745 0.199567 7.78277 0.0757666 7.41422C-0.0480339 7.04567 -0.0192576 6.64341 0.155767 6.29591L2.77642 1.09583C2.95156 0.748381 3.25859 0.484182 3.62999 0.36133C4.00139 0.238479 4.40676 0.267035 4.75694 0.440718L7.15719 1.63164L12.8256 0.0242093C12.9393 -0.00806975 13.0599 -0.00806975 13.1736 0.0242093L18.842 1.63164L21.2423 0.440718C21.5925 0.267035 21.9979 0.238479 22.3693 0.36133C22.7407 0.484182 23.0477 0.748381 23.2228 1.09583L25.8435 6.29591C25.9306 6.46789 25.9825 6.6553 25.9963 6.84731C26.0101 7.03932 25.9854 7.23213 25.9236 7.41462ZM1.38226 7.13834L3.4366 8.16287L6.25024 2.58291L4.19063 1.56362C4.14056 1.53894 4.08267 1.535 4.02967 1.55266C3.97667 1.57032 3.93291 1.60814 3.908 1.6578L1.28734 6.85788C1.26282 6.90744 1.25903 6.96462 1.2768 7.01695C1.28504 7.04328 1.29866 7.06765 1.3168 7.08853C1.33494 7.10941 1.35722 7.12637 1.38226 7.13834ZM19.6435 10.7258L16.4028 8.15031C14.3991 9.86448 11.8069 10.1177 9.6745 8.76565C9.48794 8.64792 9.3304 8.49012 9.21352 8.30389C9.09664 8.11766 9.0234 7.90775 8.99921 7.68968C8.97501 7.4716 9.00049 7.25092 9.07374 7.04391C9.147 6.83691 9.26617 6.64888 9.42245 6.49369L14.244 1.8514C14.3142 1.78428 14.399 1.73414 14.4919 1.70489L12.9996 1.28106L7.53579 2.8257L4.52704 8.80124L9.89491 12.6053L16.1803 14.1646L19.6435 10.7258ZM21.5081 8.87554L18.5141 2.93035H14.9432L10.3125 7.38845C10.292 7.40983 10.2765 7.43548 10.2672 7.46354C10.2579 7.4916 10.255 7.52136 10.2587 7.55066C10.262 7.58262 10.2727 7.61341 10.2899 7.64063C10.307 7.66785 10.3303 7.69078 10.3579 7.70764C11.7594 8.59612 13.9582 8.84519 15.9251 6.87881C16.0351 6.76917 16.1821 6.70372 16.3378 6.69503C16.4935 6.68634 16.647 6.73501 16.7687 6.83171L20.5463 9.83727L21.5081 8.87554ZM24.7098 6.85788L22.0912 1.6578C22.0663 1.60814 22.0226 1.57032 21.9696 1.55266C21.9166 1.535 21.8587 1.53894 21.8086 1.56362L19.7543 2.58291L22.5626 8.16287L24.617 7.14357C24.642 7.1316 24.6643 7.11465 24.6824 7.09376C24.7006 7.07288 24.7142 7.04851 24.7224 7.02218C24.732 6.99551 24.7359 6.9672 24.7341 6.93896C24.7323 6.91072 24.7248 6.88313 24.7119 6.85788H24.7098Z" fill="white" fill-opacity="0.81"/>
</svg>
