<svg width="27" height="20" viewBox="0 0 27 20" fill="none" xmlns="http://www.w3.org/2000/svg">
<path d="M12.896 1.17225C13.1496 1.06235 13.4374 1.06235 13.6911 1.17225L24.4693 5.84218C25.2725 6.19021 25.2725 7.3293 24.4693 7.67733L13.6911 12.3472C13.4374 12.4571 13.1496 12.4571 12.896 12.3472L2.11777 7.67733C1.31452 7.3293 1.31452 6.19021 2.11777 5.84218L12.896 1.17225Z" stroke="white" stroke-linecap="round" stroke-linejoin="round"/>
<path d="M6.0318 9.38721L6.04427 15.3198C6.04472 15.5367 6.11477 15.7469 6.26395 15.9043C6.93166 16.609 9.15302 18.5584 13.2931 18.5584C17.4301 18.5584 19.6591 16.6118 20.3315 15.9059C20.4822 15.7476 20.553 15.5356 20.5529 15.3171L20.5516 9.38721" stroke="white" stroke-linecap="round" stroke-linejoin="round"/>
<path d="M2.41302 15.3831L2.44434 7.83691" stroke="white" stroke-linecap="round" stroke-linejoin="round"/>
</svg>
