<svg width="21" height="24" viewBox="0 0 21 24" fill="none" xmlns="http://www.w3.org/2000/svg">
<path d="M17.8 12V5.43596C17.8 5.26887 17.7336 5.10863 17.6155 4.99047L14.3095 1.68453C14.1914 1.56637 14.0311 1.5 13.8641 1.5H1.63C1.28206 1.5 1 1.78206 1 2.13V21.87C1 22.218 1.28206 22.5 1.63 22.5H8.35" stroke="white" stroke-opacity="0.81" stroke-width="1.3" stroke-linecap="round" stroke-linejoin="round"/>
<path d="M5.19971 9.89971H13.5997M5.19971 5.69971H9.39971M5.19971 14.0997H8.34971" stroke="white" stroke-opacity="0.81" stroke-width="1.3" stroke-linecap="round" stroke-linejoin="round"/>
<path d="M18.3252 20.9253L19.9002 22.5003" stroke="white" stroke-opacity="0.81" stroke-width="1.3" stroke-linecap="round" stroke-linejoin="round"/>
<path d="M12.5503 18.2999C12.5503 20.0396 13.9605 21.4499 15.7003 21.4499C16.5717 21.4499 17.3603 21.0961 17.9306 20.5243C18.499 19.9545 18.8503 19.1683 18.8503 18.2999C18.8503 16.5602 17.44 15.1499 15.7003 15.1499C13.9605 15.1499 12.5503 16.5602 12.5503 18.2999Z" stroke="white" stroke-opacity="0.81" stroke-width="1.3" stroke-linecap="round" stroke-linejoin="round"/>
<path d="M13.5996 1.5V5.07C13.5996 5.41794 13.8816 5.7 14.2296 5.7H17.7996" stroke="white" stroke-opacity="0.81" stroke-width="1.3" stroke-linecap="round" stroke-linejoin="round"/>
</svg>
