<svg width="20" height="20" viewBox="0 0 20 20" fill="none" xmlns="http://www.w3.org/2000/svg">
<path d="M10.0002 3.03809C6.16212 3.03809 3.03961 6.1606 3.03961 9.99871C3.03961 13.8368 6.16212 16.9593 10.0002 16.9593C13.8383 16.9593 16.9609 13.8368 16.9609 9.99871C16.9609 6.1606 13.8383 3.03809 10.0002 3.03809ZM7.82506 15.6403V14.4485C7.82506 13.8676 8.05133 13.3214 8.46233 12.9104C8.87281 12.4996 9.41896 12.2734 10.0002 12.2734C11.1996 12.2734 12.1753 13.2491 12.1753 14.4485V15.6404C11.5 15.9016 10.7666 16.0453 10.0002 16.0453C9.23383 16.0453 8.50039 15.9016 7.82506 15.6403ZM7.82516 9.18405C7.82516 7.98471 8.80094 7.00898 10.0003 7.00898C11.1997 7.00898 12.1754 7.98471 12.1754 9.18405C12.1754 10.3834 11.1997 11.3592 10.0003 11.3592C8.80094 11.3592 7.82516 10.3834 7.82516 9.18405ZM13.0894 15.1945V14.4484C13.0894 13.3367 12.4988 12.3604 11.6152 11.8163C12.4989 11.2721 13.0895 10.2959 13.0895 9.18405C13.0895 7.48065 11.7037 6.09488 10.0003 6.09488C8.29688 6.09488 6.91106 7.4807 6.91106 9.18405C6.91106 10.2952 7.50094 11.2708 8.38377 11.8152C8.18002 11.9408 7.98922 12.0906 7.81583 12.2641C7.23234 12.8477 6.91096 13.6234 6.91096 14.4484V15.1945C5.14151 14.1384 3.95371 12.2048 3.95371 9.99871C3.95371 6.66465 6.66618 3.95218 10.0002 3.95218C13.3343 3.95218 16.0468 6.66465 16.0468 9.99871C16.0468 12.2049 14.8589 14.1385 13.0894 15.1945Z" fill="white" fill-opacity="0.81"/>
<path d="M19.8407 8.21171C19.8013 7.9942 19.6119 7.83602 19.3909 7.83602H18.8344C18.6149 6.93438 18.2601 6.07835 17.7761 5.28275L18.1698 4.88911C18.3261 4.73279 18.3481 4.487 18.2221 4.30538C17.5346 3.31464 16.6839 2.46415 15.6938 1.77761C15.5122 1.6517 15.2664 1.67374 15.1101 1.83L14.7166 2.22355C13.9212 1.73931 13.0654 1.3844 12.1638 1.16487V0.608814C12.1638 0.387891 12.0058 0.198576 11.7884 0.159125C10.6199 -0.0530418 9.38053 -0.0530418 8.21212 0.159125C7.99476 0.198576 7.83671 0.387891 7.83671 0.608814V1.16487C6.93536 1.38435 6.07953 1.73912 5.28392 2.22316L4.89028 1.82957C4.73402 1.67326 4.48832 1.65122 4.30666 1.77718C3.31577 2.46434 2.46513 3.31498 1.77831 4.30548C1.65235 4.48709 1.67444 4.73284 1.8307 4.88911L2.22429 5.2827C1.74054 6.07748 1.38558 6.93356 1.16572 7.83602H0.609078C0.388059 7.83602 0.198648 7.9942 0.159342 8.21171C0.0535951 8.79625 0 9.39758 0 9.99906C0 10.6014 0.0537875 11.203 0.159871 11.7872C0.199322 12.0045 0.388636 12.1626 0.60956 12.1626H1.16605C1.38553 13.0642 1.74035 13.9202 2.22439 14.7159L1.83075 15.1095C1.67439 15.2658 1.65235 15.5116 1.77845 15.6932C2.46595 16.684 3.31659 17.5345 4.30675 18.221C4.48832 18.3469 4.73407 18.3249 4.89033 18.1686L5.28388 17.7751C6.07866 18.2588 6.9345 18.6137 7.83676 18.8336V19.3897C7.83676 19.6107 7.9948 19.8 8.21217 19.8394C8.79637 19.9455 9.39799 19.9993 10.0003 19.9993C10.6026 19.9993 11.2042 19.9455 11.7884 19.8394C12.0058 19.8 12.1638 19.6107 12.1638 19.3897V18.8333C13.0659 18.6137 13.9217 18.2589 14.7167 17.775L15.1102 18.1686C15.2665 18.3248 15.5123 18.3469 15.6939 18.2209C16.6843 17.5342 17.535 16.6835 18.2222 15.6926C18.3482 15.511 18.3261 15.2652 18.1699 15.109L17.7762 14.7153C18.2597 13.9204 18.6145 13.0646 18.8344 12.1625H19.3905C19.6115 12.1625 19.8007 12.0045 19.8402 11.7871C19.9463 11.2029 20.0001 10.6013 20.0001 9.99901C20 9.39758 19.9464 8.79625 19.8407 8.21171ZM19.0006 11.2484H18.4677C18.2499 11.2484 18.0624 11.4021 18.0196 11.6156C17.8103 12.6586 17.4045 13.6378 16.8133 14.526C16.6926 14.7073 16.7166 14.9485 16.8705 15.1024L17.2478 15.4797C16.7417 16.1486 16.1496 16.7408 15.4809 17.2466L15.1037 16.8693C14.9497 16.7153 14.7083 16.6913 14.5271 16.8121C13.639 17.4037 12.6598 17.8096 11.617 18.0183C11.4034 18.0611 11.2497 18.2487 11.2497 18.4665V18.9999C10.427 19.1131 9.5735 19.1131 8.75081 18.9999V18.4669C8.75081 18.2491 8.5972 18.0616 8.38363 18.0188C7.34041 17.8095 6.36121 17.4035 5.47333 16.8121C5.29205 16.6913 5.05078 16.7152 4.89678 16.8693L4.5195 17.2466C3.8511 16.741 3.25886 16.1488 2.75274 15.4801L3.12992 15.103C3.28392 14.949 3.30788 14.7078 3.18722 14.5265C2.59532 13.6373 2.18946 12.658 1.98095 11.6159C1.93818 11.4023 1.75064 11.2485 1.5328 11.2485H0.99935C0.942724 10.8371 0.914099 10.4184 0.914099 9.99906C0.914099 9.58021 0.942628 9.1616 0.999158 8.75011H1.53232C1.75011 8.75011 1.93765 8.59645 1.98042 8.38294C2.1897 7.33937 2.5957 6.36008 3.18713 5.47225C3.30788 5.29097 3.28397 5.0497 3.12992 4.89565L2.75264 4.51837C3.25847 3.84973 3.85062 3.25758 4.51955 2.75156L4.89683 3.12884C5.05083 3.28284 5.29201 3.30675 5.47324 3.18609C6.36246 2.59424 7.34161 2.18838 8.38349 1.97982C8.59705 1.93705 8.75081 1.74946 8.75081 1.53167V0.998653C9.5735 0.885401 10.427 0.885401 11.2497 0.998653V1.53162C11.2497 1.74946 11.4034 1.93705 11.617 1.97977C12.6592 2.18838 13.6383 2.59433 14.5271 3.18643C14.7083 3.30719 14.9496 3.28323 15.1037 3.12927L15.4809 2.75199C16.1493 3.25758 16.7416 3.84973 17.2477 4.51846L16.8705 4.89565C16.7166 5.04965 16.6926 5.29083 16.8133 5.47211C17.4052 6.36129 17.811 7.34057 18.0195 8.38279C18.0623 8.5964 18.2498 8.75016 18.4677 8.75016H19.0008C19.0573 9.16165 19.0859 9.58026 19.0859 9.99911C19.0859 10.4184 19.0573 10.8371 19.0006 11.2484Z" fill="white" fill-opacity="0.81"/>
</svg>
