<svg width="31" height="31" viewBox="0 0 31 31" fill="none" xmlns="http://www.w3.org/2000/svg">
<mask id="mask0_390_6127" style="mask-type:luminance" maskUnits="userSpaceOnUse" x="0" y="0" width="31" height="31">
<path d="M0 0H31V31H0V0Z" fill="white"/>
</mask>
<g mask="url(#mask0_390_6127)">
<path fill-rule="evenodd" clip-rule="evenodd" d="M15.4999 2.7127C8.43761 2.7127 2.71245 8.43785 2.71245 15.5002C2.71245 22.5625 8.43761 28.2877 15.4999 28.2877C22.5622 28.2877 28.2874 22.5625 28.2874 15.5002C28.2874 12.4539 27.2237 9.65909 25.4463 7.46259C25.0423 6.96349 25.1196 6.23151 25.6187 5.82764C26.1178 5.42377 26.8499 5.50096 27.2536 6.00006C29.3537 8.59533 30.6124 11.9023 30.6124 15.5002C30.6124 23.8466 23.8464 30.6127 15.4999 30.6127C7.15354 30.6127 0.387451 23.8466 0.387451 15.5002C0.387451 7.15379 7.15354 0.387695 15.4999 0.387695C17.2642 0.387695 18.9601 0.690496 20.5373 1.24793C21.1428 1.46188 21.46 2.12604 21.2459 2.73137C21.032 3.33671 20.3679 3.65398 19.7626 3.44003C18.4309 2.96933 16.9966 2.7127 15.4999 2.7127Z" fill="url(#paint0_linear_390_6127)"/>
<path fill-rule="evenodd" clip-rule="evenodd" d="M15.5 8.91289C13.5739 8.91289 12.0125 10.4743 12.0125 12.4004C12.0125 14.3264 13.5739 15.8879 15.5 15.8879C17.426 15.8879 18.9875 14.3264 18.9875 12.4004C18.9875 10.4743 17.426 8.91289 15.5 8.91289ZM9.6875 12.4004C9.6875 9.19022 12.2898 6.58789 15.5 6.58789C18.7102 6.58789 21.3125 9.19022 21.3125 12.4004C21.3125 15.6106 18.7102 18.2129 15.5 18.2129C12.2898 18.2129 9.6875 15.6106 9.6875 12.4004Z" fill="url(#paint1_linear_390_6127)"/>
<path fill-rule="evenodd" clip-rule="evenodd" d="M15.5 22.0877C12.0504 22.0877 9.0209 23.8899 7.30298 26.6096C6.96011 27.1525 6.24212 27.3147 5.6993 26.9717C5.15649 26.6288 4.99441 25.911 5.33727 25.3681C7.46325 22.0023 11.2197 19.7627 15.5 19.7627C19.7805 19.7627 23.5369 22.0023 25.6629 25.3681C26.0058 25.911 25.8436 26.6288 25.3008 26.9717C24.758 27.3147 24.04 27.1525 23.6972 26.6096C21.9791 23.8899 18.9497 22.0877 15.5 22.0877Z" fill="url(#paint2_linear_390_6127)"/>
</g>
<defs>
<linearGradient id="paint0_linear_390_6127" x1="15.4999" y1="0.387463" x2="15.4999" y2="30.6125" gradientUnits="userSpaceOnUse">
<stop stop-color="#3747D6"/>
<stop offset="1" stop-color="#9545ED"/>
</linearGradient>
<linearGradient id="paint1_linear_390_6127" x1="15.5" y1="0.387652" x2="15.5" y2="30.6127" gradientUnits="userSpaceOnUse">
<stop stop-color="#3747D6"/>
<stop offset="1" stop-color="#9545ED"/>
</linearGradient>
<linearGradient id="paint2_linear_390_6127" x1="15.5" y1="0.387453" x2="15.5" y2="30.6125" gradientUnits="userSpaceOnUse">
<stop stop-color="#3747D6"/>
<stop offset="1" stop-color="#9545ED"/>
</linearGradient>
</defs>
</svg>
