<?xml version="1.0" encoding="utf-8"?>
<!-- Generator: Adobe Illustrator 25.2.1, SVG Export Plug-In . SVG Version: 6.00 Build 0)  -->
<svg version="1.1" id="Layer_1" xmlns="http://www.w3.org/2000/svg" xmlns:xlink="http://www.w3.org/1999/xlink" x="0px" y="0px"
	 viewBox="0 0 50 50" style="enable-background:new 0 0 50 50;" xml:space="preserve">
<style type="text/css">
	.st0{fill:none;stroke:#F8F4FA;stroke-miterlimit:10;}
	.st1{fill:#5E57A6;}
</style>
<path class="st0" d="M18.7,3.5c3.7-2.1,8.2-2.1,11.9,0L40.1,9c3.7,2.1,6,6,6,10.2v11c0,4.2-2.3,8.1-6,10.2L30.6,46
	c-3.7,2.1-8.2,2.1-11.9,0l-9.6-5.5c-3.7-2.1-6-6-6-10.2v-11c0-4.2,2.3-8.1,6-10.2L18.7,3.5z"/>
<path class="st1" d="M24.6,23.4c3.4,0,6.2-2.8,6.2-6.2S28,11,24.6,11s-6.2,2.8-6.2,6.2S21.2,23.4,24.6,23.4z M22.4,25.7
	c-4.8,0-8.6,3.9-8.6,8.6c0,0.8,0.6,1.4,1.4,1.4H34c0.8,0,1.4-0.6,1.4-1.4c0-4.8-3.9-8.6-8.6-8.6H22.4L22.4,25.7z"/>
</svg>
