<svg width="25" height="22" viewBox="0 0 25 22" fill="none" xmlns="http://www.w3.org/2000/svg">
<path d="M22.2183 14.7033V6.27564V5.89257V0.912598H14.8122V5.50949H12.2584V11.1279H11.2369V5.76488H2.80921V11.1279H0V21.0879H24.7722V14.7033H22.2183ZM3.57536 6.53102H10.4707V7.55256H3.57536V6.53102ZM3.57536 8.31871H10.4707V11.1279H3.57536V8.31871ZM7.66149 11.8941V15.4694H5.36304V11.8941H7.66149ZM12.2584 20.3217H0.766149V11.8941H4.59689V16.2356H8.42764V11.8941H12.2584V20.3217ZM15.5784 1.67875H21.4522V5.50949H15.5784V1.67875ZM18.1322 6.27564V10.1064H16.3445V6.27564H18.1322ZM16.3445 20.3217H13.0245V6.27564H15.5784V10.8725H18.8983V6.27564H21.4522V14.7033H16.3445V20.3217ZM24.006 20.3217H17.1107V15.4694H24.006V20.3217Z" fill="white" fill-opacity="0.81"/>
<path d="M9.57671 9.33936H8.55518V10.1055H9.57671V9.33936Z" fill="white" fill-opacity="0.81"/>
<path d="M8.04448 9.33936H7.02295V10.1055H8.04448V9.33936Z" fill="white" fill-opacity="0.81"/>
<path d="M22.8565 16.7456H20.8135V17.5118H22.8565V16.7456Z" fill="white" fill-opacity="0.81"/>
<path d="M22.8566 18.2788H19.2812V19.045H22.8566V18.2788Z" fill="white" fill-opacity="0.81"/>
<path d="M20.3028 3.72119H19.2812V4.48734H20.3028V3.72119Z" fill="white" fill-opacity="0.81"/>
<path d="M18.7706 3.72119H17.749V4.48734H18.7706V3.72119Z" fill="white" fill-opacity="0.81"/>
</svg>
