<svg viewBox="674.873 394.9762 180.2542 19.8047" width="216" height="23.732124965742823" xmlns="http://www.w3.org/2000/svg" xmlns:xlink="http://www.w3.org/1999/xlink" preserveAspectRatio="none"><g opacity="1" transform="rotate(0 674.873 394.9762)">
<svg width="180.2542" height="19.8047" x="674.873" y="394.9762" version="1.1" preserveAspectRatio="none" viewBox="0.48 -28.32 269.4 29.6">
  <g transform="matrix(1 0 0 1 0 0)" class="text927e9f1c-2f52-4ca9-b7c9-96136d282910"><path id="id-927e9f1c-2f52-4ca9-b7c9-96136d2829106izo4zJp15" d="M18.72-27.92L18.72-27.92L27.68-27.92Q26.68-26.92 24.20-26.40Q21.72-25.88 18.60-25.58Q15.48-25.28 14.52-25.08L14.52-25.08Q10.24-24.08 10.24-19.96L10.24-19.96Q9-21.24 9-22.72L9-22.72Q9-27.92 18.72-27.92ZM29.72-27.92L29.72-27.92L32.60-27.92Q30.76-26.16 28.86-18.30Q26.96-10.44 26.96-6.16L26.96-6.16Q26.96-3.12 28.08-1.96L28.08-1.96Q28.56-1.44 29.28-1.44Q30-1.44 30.80-1.96L30.80-1.96L31.04-1.60Q30.48-0.80 29.04-0.22Q27.60 0.36 26.20 0.36L26.20 0.36Q24.12 0.36 23.36-1.12Q22.60-2.60 22.48-5.08L22.48-5.08Q22.48-7.12 23-10.36L23-10.36L13.84-10.36Q7.88-4.04 4.48 0L4.48 0L0.48 0Q4.24-3.44 12.16-11.28L12.16-11.28Q22.36-21.44 25.56-25.36L25.56-25.36Q26.36-26.32 26.76-26.70Q27.16-27.08 27.98-27.50Q28.80-27.92 29.72-27.92ZM25.60-22.28L25.60-22.28Q21.04-18 15.60-12.36L15.60-12.36L23.28-12.36Q24-16.32 25.60-22.28Z M52.72-8.04L52.72-8.04Q51.24-5.56 50.02-3.90Q48.80-2.24 47.24-1Q45.68 0.24 44.40 0.24L44.40 0.24Q42.04 0.24 42.04-2.36Q42.04-4.96 45.04-12.80L45.04-12.80Q45.20-13.16 45.20-13.56L45.20-13.56Q45.20-14.40 44.14-14.40Q43.08-14.40 42.06-13.74Q41.04-13.08 40.20-11.86Q39.36-10.64 38.68-9.38Q38-8.12 37.42-6.48Q36.84-4.84 36.50-3.74Q36.16-2.64 35.82-1.38Q35.48-0.12 35.44 0L35.44 0L31.56 0Q31.56-0.84 35.08-9.64L35.08-9.64Q36.52-13.76 36.52-15.40L36.52-15.40Q36.52-15.80 36.40-16L36.40-16L38.08-16Q39.48-16 39.88-15.72Q40.28-15.44 40.28-14.96Q40.28-14.48 39.84-13L39.84-13Q43.20-16.20 46.60-16.20L46.60-16.20Q48.88-16.20 48.88-14.12L48.88-14.12Q48.88-13.44 48.68-12.76Q48.48-12.08 47.68-10.04L47.68-10.04Q45.92-5.56 45.92-4.04L45.92-4.04Q45.92-3.08 46.64-3.08L46.64-3.08Q47.16-3.08 48.10-3.80Q49.04-4.52 49.66-5.30Q50.28-6.08 51.02-7.26Q51.76-8.44 52.28-9.32Q52.80-10.20 52.88-10.20L52.88-10.20Q53.12-10.20 53.12-9.46Q53.12-8.72 52.72-8.04Z M71.56-27.92L79.48-27.92L83.84-28.12Q85.08-28.12 85.22-27.62Q85.36-27.12 85.36-26.88L85.36-26.88Q85.36-25.48 84.38-23.34Q83.40-21.20 82.98-21.20Q82.56-21.20 82.56-21.52L82.56-21.52L82.88-23.92Q82.88-25.16 81.88-25.88Q80.88-26.60 79.48-26.60Q78.08-26.60 77.40-26.40Q76.72-26.20 76.32-25.56L76.32-25.56Q73.40-21.20 71-15.64L71-15.64L81.44-15.64L81.48-15.60Q81.48-15.32 80.92-14.50Q80.36-13.68 80-13.68L80-13.68L70.12-13.68Q69.04-11.04 68-7.76Q66.96-4.48 66.96-3.42Q66.96-2.36 67.60-1.86Q68.24-1.36 69.76-1.36L69.76-1.36Q81.44-1.36 83.60-5.92L83.60-5.92Q83.68-6.04 83.90-6.04Q84.12-6.04 84.12-5.80Q84.12-5.56 84.04-5.16L84.04-5.16Q82.92-1.68 80.72-0.76L80.72-0.76Q79.56-0.28 78.54-0.14Q77.52 0 75.92 0L75.92 0L63.84 0Q62.60 0 62.60-1.88L62.60-1.88Q62.60-5.12 66.16-13.68L66.16-13.68L63.96-13.68Q63.64-13.68 63.64-13.88L63.64-13.88Q63.64-14.28 64.40-14.96Q65.16-15.64 65.64-15.64L65.64-15.64L67-15.64Q70.68-24.48 72.32-26.40L72.32-26.40Q68.56-25.92 65.46-24.80Q62.36-23.68 61.40-22.04L61.40-22.04Q61.36-21.92 61.20-21.92Q61.04-21.92 61.04-22.14Q61.04-22.36 61.08-22.44L61.08-22.44Q62.60-26.60 66.64-27.52L66.64-27.52Q68.48-27.92 71.56-27.92L71.56-27.92Z M108.68-26.16L108.68-26.16Q107.36-25.20 105.22-20.78Q103.08-16.36 101.44-11.46Q99.80-6.56 99.80-4.36L99.80-4.36Q99.80-3.08 100.48-3.08Q101.16-3.08 102.18-3.96Q103.20-4.84 103.64-5.44Q104.08-6.04 104.82-7.26Q105.56-8.48 106.10-9.38Q106.64-10.28 106.72-10.28L106.72-10.28Q107-10.28 107-9.52L107-9.52Q106.96-8.12 103.68-3.68L103.68-3.68Q102.60-2.24 101.08-1Q99.56 0.24 98.32 0.24L98.32 0.24Q96.20 0.24 96.20-2.92L96.20-2.92Q96.20-5.24 97.36-8.88L97.36-8.88Q95.52-5.24 93.16-2.56Q90.80 0.12 88.44 0.12L88.44 0.12Q85.76 0.12 85.76-3.56L85.76-3.56Q85.76-6.36 86.98-9.24Q88.20-12.12 90.48-14.14Q92.76-16.16 95.42-16.16Q98.08-16.16 99.08-14.40L99.08-14.40Q100.20-16.60 101.38-19.48Q102.56-22.36 102.94-23.22Q103.32-24.08 103.50-24.48Q103.68-24.88 103.96-25.24L103.96-25.24Q104.40-25.80 105.02-25.94Q105.64-26.08 107.02-26.10Q108.40-26.12 108.68-26.16ZM98.88-13.92L98.88-13.92Q98.40-14.64 97.28-14.64L97.28-14.64Q95.48-14.64 93.66-12.82Q91.84-11 90.74-8.62Q89.64-6.24 89.64-4.44L89.64-4.44Q89.64-3.20 90.60-3.20L90.60-3.20Q93.84-3.20 98.88-13.92Z M120.32-16.12L120.32-16.12L122.24-16.08Q122.84-16.08 123-16.12L123-16.12Q121.88-15.36 119.78-10.82Q117.68-6.28 117.68-4.28L117.68-4.28Q117.68-3.08 118.48-3.08L118.48-3.08Q119-3.08 119.90-3.76Q120.80-4.44 121.44-5.26Q122.08-6.08 122.82-7.28Q123.56-8.48 124.10-9.36Q124.64-10.24 124.72-10.24L124.72-10.24Q124.96-10.24 124.96-9.48Q124.96-8.72 124.52-8.04L124.52-8.04Q119.56 0.24 116.24 0.24L116.24 0.24Q114 0.24 114-3.08L114-3.08Q114-4.12 114.16-5.08L114.16-5.08Q110.40 0.24 107 0.24L107 0.24Q106 0.24 105.38-0.60Q104.76-1.44 104.76-3.08Q104.76-4.72 105.92-8.50Q107.08-12.28 108.76-14.72L108.76-14.72Q109.16-15.32 109.62-15.46Q110.08-15.60 111.36-15.60L111.36-15.60L113.28-15.60Q112.28-14.24 111.12-11.92L111.12-11.92Q108.48-6.44 108.48-3.88L108.48-3.88Q108.48-2.36 109.58-2.36Q110.68-2.36 112.20-4.48Q113.72-6.60 115.46-9.98Q117.20-13.36 117.48-13.80L117.48-13.80Q118.96-16.12 120.32-16.12Z M139-10.24L139-10.24Q139.24-10.24 139.24-9.48Q139.24-8.72 138.58-7.60Q137.92-6.48 137.54-5.90Q137.16-5.32 136.24-4.04Q135.32-2.76 134.64-2.20Q133.96-1.64 132.92-0.88L132.92-0.88Q131.16 0.40 128.34 0.40Q125.52 0.40 124.26-1.02Q123.00-2.44 123.00-4.72L123.00-4.72Q123.00-8.92 125.98-12.42Q128.96-15.92 133-15.92L133-15.92Q134.80-15.92 135.88-14.98Q136.96-14.04 136.96-12.74Q136.96-11.44 136.24-10.48Q135.52-9.52 134.60-9.52L134.60-9.52Q132.80-9.52 132.80-11L132.80-11Q132.80-11.48 133.80-11.92L133.80-11.92Q134.20-12.08 134.52-12.52Q134.84-12.96 134.84-13.68L134.84-13.68Q134.84-14.72 133.72-14.72L133.72-14.72Q131.32-14.72 128.96-11.24Q126.60-7.76 126.60-4.50Q126.60-1.24 129.44-1.24L129.44-1.24Q133.40-1.24 137.16-7.36L137.16-7.36Q137.92-8.56 138.42-9.40Q138.92-10.24 139-10.24Z M153.76-16L153.76-16L155.76-15.96L156.16-15.96Q154.84-14.88 152.92-10.50Q151-6.12 151-4.12L151-4.12Q151-3.08 151.72-3.08L151.72-3.08Q154.04-3.08 157.64-9.92L157.64-9.92Q157.80-10.20 157.92-10.20L157.92-10.20Q158.16-10.20 158.16-9.46Q158.16-8.72 157.76-8.04L157.76-8.04Q152.84 0.24 149.52 0.24L149.52 0.24Q147.36 0.24 147.36-3.08L147.36-3.08Q147.36-5.56 148.20-7.96L148.20-7.96Q143.64 0.12 139.76 0.12L139.76 0.12Q137.08 0.12 137.08-3.56L137.08-3.56Q137.08-6.36 138.30-9.24Q139.52-12.12 141.80-14.14Q144.08-16.16 146.80-16.16L146.80-16.16Q148.08-16.16 149.20-15.58Q150.32-15 150.68-13.72L150.68-13.72Q151.12-14.64 152.04-15.32Q152.96-16 153.76-16ZM150.44-13.36L150.44-13.36Q150.04-14.64 148.56-14.64L148.56-14.64Q145.92-14.64 143.44-10.98Q140.96-7.32 140.96-4.44L140.96-4.44Q140.96-3.20 141.92-3.20L141.92-3.20Q142.96-3.20 144.36-4.50Q145.76-5.80 146.88-7.56L146.88-7.56Q149.36-11.48 150.44-13.36Z M168.72-22.92L168.72-22.92Q166.76-21.56 164.32-15.96L164.32-15.96L168.36-15.96L168.40-15.92Q168.40-15.72 167.96-15.22Q167.52-14.72 167.20-14.72L167.20-14.72L163.76-14.72Q160.60-6.88 160.60-4.64L160.60-4.64Q160.60-3.12 161.56-3.12L161.56-3.12Q162.96-3.12 164.84-5.52L164.84-5.52Q165.28-6.04 166-7.28L166-7.28Q167.84-10.24 167.92-10.24L167.92-10.24Q168.16-10.24 168.16-9.60L168.16-9.60Q168.12-8.08 164.84-3.68L164.84-3.68Q163.76-2.24 162.24-1Q160.72 0.24 159.48 0.24L159.48 0.24Q157.20 0.24 157.20-2.96L157.20-2.96Q157.20-5.64 158.48-9.12L158.48-9.12L158.48-9.16Q157.72-7.76 157.18-7.08Q156.64-6.40 156.56-6.40L156.56-6.40Q156.40-6.40 156.40-6.90Q156.40-7.40 156.94-8.52Q157.48-9.64 158.42-11.44Q159.36-13.24 159.96-14.72L159.96-14.72L157.28-14.72Q157.16-14.72 157.16-14.90Q157.16-15.08 157.46-15.52Q157.76-15.96 157.92-15.96L157.92-15.96L160.96-15.96Q163.84-22.88 166.80-22.88L166.80-22.88Q168.52-22.88 168.72-22.92Z M177.72-21.28L177.72-21.28L177.56-21.28Q176.76-21.28 176.02-20.60Q175.28-19.92 174.96-19.20L174.96-19.20Q173.92-19.60 173.92-20.64Q173.92-21.68 174.88-22.74Q175.84-23.80 176.72-23.80Q177.60-23.80 178.04-23.40Q178.48-23 178.48-22.38Q178.48-21.76 177.72-21.28ZM172.28-16L172.28-16L174.28-15.96L174.68-15.96Q174.04-15.48 172.98-13.36Q171.92-11.24 171.40-10.16Q170.88-9.08 170.22-7.24Q169.56-5.40 169.56-4.24Q169.56-3.08 170.32-3.08L170.32-3.08Q170.84-3.08 171.78-3.78Q172.72-4.48 173.32-5.26Q173.92-6.04 174.66-7.24Q175.40-8.44 175.94-9.32Q176.48-10.20 176.56-10.20L176.56-10.20Q176.80-10.20 176.80-9.46Q176.80-8.72 176.40-8.04L176.40-8.04Q174.92-5.56 173.70-3.90Q172.48-2.24 170.92-1Q169.36 0.24 168.08 0.24L168.08 0.24Q165.84 0.24 165.84-2.88L165.84-2.88Q165.84-7.72 169.16-13.60L169.16-13.60Q170.56-16 172.28-16Z M194.20-9.84L194.20-9.84Q194.32-10.08 194.44-10.08L194.44-10.08Q194.68-10.08 194.68-9.48L194.68-9.48Q194.68-7.56 193.14-6.30Q191.60-5.04 190.26-5.04Q188.92-5.04 187.96-5.80L187.96-5.80Q186.52-2.96 184.54-1.32Q182.56 0.32 179.44 0.32L179.44 0.32Q177.44 0.32 176.18-0.90Q174.92-2.12 174.92-4.62Q174.92-7.12 176.06-9.78Q177.20-12.44 179.50-14.36Q181.80-16.28 184.64-16.28L184.64-16.28Q189.40-16.28 189.40-11.24L189.40-11.24Q189.40-9.32 188.56-7.20L188.56-7.20Q189.16-6.36 190.28-6.36L190.28-6.36Q192.36-6.36 194.20-9.84ZM187.28-12.32L187.52-12.32Q187.36-14.44 185.60-14.44L185.60-14.44Q182.84-14.44 180.20-9.08L180.20-9.08Q178.76-6.12 178.76-3.72Q178.76-1.32 180.84-1.20L180.84-1.20Q182.56-1.20 184.02-3.02Q185.48-4.84 186.48-7.04L186.48-7.04Q185.12-8.20 185.12-9.96L185.12-9.96Q185.12-11.04 185.70-11.68Q186.28-12.32 187.28-12.32L187.28-12.32Z M211.80-8.04L211.80-8.04Q210.32-5.56 209.10-3.90Q207.88-2.24 206.32-1Q204.76 0.24 203.48 0.24L203.48 0.24Q201.12 0.24 201.12-2.36Q201.12-4.96 204.12-12.80L204.12-12.80Q204.28-13.16 204.28-13.56L204.28-13.56Q204.28-14.40 203.22-14.40Q202.16-14.40 201.14-13.74Q200.12-13.08 199.28-11.86Q198.44-10.64 197.76-9.38Q197.08-8.12 196.50-6.48Q195.92-4.84 195.58-3.74Q195.24-2.64 194.90-1.38Q194.56-0.12 194.52 0L194.52 0L190.64 0Q190.64-0.84 194.16-9.64L194.16-9.64Q195.60-13.76 195.60-15.40L195.60-15.40Q195.60-15.80 195.48-16L195.48-16L197.16-16Q198.56-16 198.96-15.72Q199.36-15.44 199.36-14.96Q199.36-14.48 198.92-13L198.92-13Q202.28-16.20 205.68-16.20L205.68-16.20Q207.96-16.20 207.96-14.12L207.96-14.12Q207.96-13.44 207.76-12.76Q207.56-12.08 206.76-10.04L206.76-10.04Q205.00-5.56 205.00-4.04L205.00-4.04Q205.00-3.08 205.72-3.08L205.72-3.08Q206.24-3.08 207.18-3.80Q208.12-4.52 208.74-5.30Q209.36-6.08 210.10-7.26Q210.84-8.44 211.36-9.32Q211.88-10.20 211.96-10.20L211.96-10.20Q212.20-10.20 212.20-9.46Q212.20-8.72 211.80-8.04Z M252.04-12.12L252.04-12.12Q249.40-6.12 244.50-2.42Q239.60 1.28 233.36 1.28L233.36 1.28Q223.44 1.28 223.44-7.48L223.44-7.48Q223.44-11.44 225.10-15.26Q226.76-19.08 229.48-21.94Q232.20-24.80 235.92-26.56Q239.64-28.32 243.52-28.32L243.52-28.32Q248.60-28.32 251.14-25.82Q253.68-23.32 253.68-19.58Q253.68-15.84 252.04-12.12ZM250.36-19.96L250.36-19.96Q250.36-26.48 244.52-26.48L244.52-26.48Q240.28-26.48 236.42-23.56Q232.56-20.64 230.34-16.24Q228.12-11.84 228.12-7.44L228.12-7.44Q228.12-4.28 229.52-2.32Q230.92-0.36 233.98-0.36Q237.04-0.36 240.12-2.20Q243.20-4.04 245.40-6.90Q247.60-9.76 248.98-13.26Q250.36-16.76 250.36-19.96Z M269.48-8.12L269.48-8.12Q266.48-3.12 264.04-1.16Q261.60 0.80 257.72 0.80L257.72 0.80Q255.48 0.80 253.96-0.06Q252.44-0.92 252.44-2.60L252.44-2.60Q252.44-3.56 253.00-4.36Q253.56-5.16 254.54-5.16Q255.52-5.16 255.80-4.44L255.80-4.44Q255.04-3.68 255.04-2.68L255.04-2.68Q255.04-0.68 257.28-0.68L257.28-0.68Q258.60-0.68 259.58-1.60Q260.56-2.52 260.56-3.62Q260.56-4.72 260.08-5.56Q259.60-6.40 258.92-7.04Q258.24-7.68 257.56-8.32L257.56-8.32Q255.92-9.88 255.92-11.90Q255.92-13.92 257.46-15.30Q259-16.68 261.68-16.68L261.68-16.68Q263.36-16.68 264.52-16.08Q265.68-15.48 265.68-14.22Q265.68-12.96 264.92-12.04Q264.16-11.12 262.86-11.12Q261.56-11.12 261.56-12.32L261.56-12.32Q261.56-12.60 262.48-13.16Q263.40-13.72 263.40-14.32Q263.40-14.92 262.90-15.22Q262.40-15.52 261.48-15.52Q260.56-15.52 259.70-14.88Q258.84-14.24 258.84-13.20Q258.84-12.16 259.72-11.24Q260.60-10.32 261.64-9.68Q262.68-9.04 263.56-7.90Q264.44-6.76 264.44-5.50Q264.44-4.24 263.86-3.24Q263.28-2.24 262.48-1.64L262.48-1.64Q264.72-2.60 267.24-6.44L267.24-6.44Q267.48-6.76 268.08-7.76L268.08-7.76Q269.48-10.28 269.64-10.28L269.64-10.28Q269.88-10.28 269.88-9.54Q269.88-8.80 269.48-8.12Z"></path></g>
</svg>
</g></svg>