<svg viewBox="734.9341 347.4104 60.1318 44.1026" width="114.53000956859685" height="84" xmlns="http://www.w3.org/2000/svg" xmlns:xlink="http://www.w3.org/1999/xlink" preserveAspectRatio="none"><g opacity="1" transform="rotate(0 734.9341 347.4104)">
<svg width="60.1318" height="44.1026" x="734.9341" y="347.4104" version="1.1" preserveAspectRatio="none" viewBox="5.012125015258789 17.049999237060547 89.98787689208984 66">
  <g transform="matrix(1 0 0 1 0 0)" class="aLgOaV3zRcolors-0927e9f1c-2f52-4ca9-b7c9-96136d282910"><title>Eduacation</title><desc>Created with Sketch.</desc><g><g><path d="M75.9,69.7l-25.5,9.8l0,0l-24.6-9.8l0,0l0-21.7c0-0.6-0.3-1.2-0.9-1.5L7.5,36.9    l-0.1,3l43.7-19.7l-1.4,0l41.9,19.2l0,0l0,28.7c0,0.9,0.7,1.7,1.7,1.7c0.9,0,1.7-0.7,1.7-1.7V38.4c0-0.7-0.4-1.2-1-1.5L51.1,17.2    c-0.4-0.2-0.9-0.2-1.4,0L6,36.9c-1.3,0.6-1.3,2.3-0.1,3l17.5,9.6L22.5,48l0,22.8c0,0.7,0.4,1.3,1.1,1.6l26.3,10.5    c0.4,0.2,0.8,0.2,1.2,0l27.1-10.5c0.6-0.2,1.1-0.9,1.1-1.6V48c0-1.2-1.2-2-2.3-1.6L50.5,56.8l0,0l-13.8-5.9    c-0.8-0.4-1.8,0-2.2,0.9s0,1.8,0.9,2.2l14.4,6.1c0.4,0.2,0.9,0.2,1.3,0l24.9-9.2"></path></g></g></g>
</svg>
</g></svg>