<svg viewBox="575 291.5373 380 45.9729" width="216" height="26.131964210526316" xmlns="http://www.w3.org/2000/svg" xmlns:xlink="http://www.w3.org/1999/xlink" preserveAspectRatio="none"><g opacity="1" transform="rotate(0 575 291.5373)">
<svg width="380" height="45.9729" x="575" y="291.5373" version="1.1" preserveAspectRatio="none" viewBox="1.8 -31.2 261.2 31.6">
  <g transform="matrix(1 0 0 1 0 0)" class="companyName927e9f1c-2f52-4ca9-b7c9-96136d282910"><path id="id-927e9f1c-2f52-4ca9-b7c9-96136d282910D6z1nYkh8" d="M10.40-28.40L10.40-16.92Q12.56-16.92 14.02-17.18Q15.48-17.44 16.34-18Q17.20-18.56 17.58-19.44Q17.96-20.32 17.96-21.52L17.96-21.52L19.36-21.52L19.36-10.60L17.96-10.60Q17.96-11.80 17.62-12.68Q17.28-13.56 16.42-14.14Q15.56-14.72 14.10-15.02Q12.64-15.32 10.40-15.32L10.40-15.32L10.40-6.28Q10.40-4.96 10.72-4.10Q11.04-3.24 11.82-2.70Q12.60-2.16 13.88-1.94Q15.16-1.72 17.04-1.72L17.04-1.72Q19.16-1.72 20.64-2.02Q22.12-2.32 23.12-3.04Q24.12-3.76 24.72-4.94Q25.32-6.12 25.72-7.88L25.72-7.88L27.24-7.88L26.64 0L1.80 0L1.80-1.52Q3.20-1.56 4.06-1.76Q4.92-1.96 5.40-2.44Q5.88-2.92 6.04-3.80Q6.20-4.68 6.20-6.08L6.20-6.08L6.20-24.72Q6.20-26.12 6.06-26.98Q5.92-27.84 5.50-28.34Q5.08-28.84 4.28-29.02Q3.48-29.20 2.20-29.28L2.20-29.28L2.20-30.80L25.32-30.80L25.68-23.76L24.28-23.76Q24.04-25.36 23.50-26.38Q22.96-27.40 22.02-28Q21.08-28.60 19.64-28.84Q18.20-29.08 16.16-29.08L16.16-29.08L11.08-29.08Q10.40-29.08 10.40-28.40L10.40-28.40Z M48.20 0L32.56 0L32.56-1.52Q34.08-1.56 35.02-1.74Q35.96-1.92 36.48-2.42Q37-2.92 37.18-3.78Q37.36-4.64 37.36-6.08L37.36-6.08L37.36-24.72Q37.36-26.12 37.22-26.98Q37.08-27.84 36.66-28.34Q36.24-28.84 35.44-29.02Q34.64-29.20 33.36-29.28L33.36-29.28L33.36-30.80L47.40-30.80Q51-30.80 54.06-29.60Q57.12-28.40 59.34-26.28Q61.56-24.16 62.80-21.24Q64.04-18.32 64.04-14.88L64.04-14.88Q64.04-11.60 62.88-8.86Q61.72-6.12 59.62-4.16Q57.52-2.20 54.60-1.10Q51.68 0 48.20 0L48.20 0ZM47.32-28.84L42.24-28.84Q41.56-28.84 41.56-28.16L41.56-28.16L41.56-6.52Q41.56-1.96 47.52-1.96L47.52-1.96Q53-1.96 55.92-5.22Q58.84-8.48 58.84-14.80L58.84-14.80Q58.84-18.12 58.04-20.72Q57.24-23.32 55.74-25.12Q54.24-26.92 52.12-27.88Q50-28.84 47.32-28.84L47.32-28.84Z M96.80-20.48L96.80-12.40Q96.80-9.24 96.18-6.84Q95.56-4.44 94.18-2.84Q92.80-1.24 90.60-0.42Q88.40 0.40 85.28 0.40L85.28 0.40Q82.32 0.40 80.12-0.18Q77.92-0.76 76.44-2.10Q74.96-3.44 74.24-5.60Q73.52-7.76 73.52-10.92L73.52-10.92L73.52-21.48Q73.52-24.44 73.38-26.04Q73.24-27.64 72.56-28.40L72.56-28.40Q72.08-28.92 71.26-29.10Q70.44-29.28 69.08-29.28L69.08-29.28L69.08-30.80L82.72-30.80L82.72-29.28Q81.36-29.28 80.52-29.12Q79.68-28.96 79.20-28.32L79.20-28.32Q78.64-27.60 78.48-26.02Q78.32-24.44 78.32-21.48L78.32-21.48L78.32-10.60Q78.32-8.56 78.74-6.98Q79.16-5.40 80.12-4.30Q81.08-3.20 82.62-2.64Q84.16-2.08 86.40-2.08L86.40-2.08Q90.40-2.08 92.40-4.30Q94.40-6.52 94.40-10.84L94.40-10.84L94.40-20.48Q94.40-24.04 94.12-25.88Q93.84-27.72 93.08-28.48L93.08-28.48Q92.52-29 91.68-29.14Q90.84-29.28 89.60-29.28L89.60-29.28L89.60-30.80L101.20-30.80L101.20-29.28Q99.92-29.28 99.10-29.08Q98.28-28.88 97.80-28.20L97.80-28.20Q97.20-27.36 97-25.58Q96.80-23.80 96.80-20.48L96.80-20.48Z M114.76-28.40L114.76-16.92Q116.92-16.92 118.38-17.18Q119.84-17.44 120.70-18Q121.56-18.56 121.94-19.44Q122.32-20.32 122.32-21.52L122.32-21.52L123.72-21.52L123.72-10.60L122.32-10.60Q122.32-11.80 121.98-12.68Q121.64-13.56 120.78-14.14Q119.92-14.72 118.46-15.02Q117-15.32 114.76-15.32L114.76-15.32L114.76-6.28Q114.76-4.96 115.08-4.10Q115.40-3.24 116.18-2.70Q116.96-2.16 118.24-1.94Q119.52-1.72 121.40-1.72L121.40-1.72Q123.52-1.72 125-2.02Q126.48-2.32 127.48-3.04Q128.48-3.76 129.08-4.94Q129.68-6.12 130.08-7.88L130.08-7.88L131.60-7.88L131 0L106.16 0L106.16-1.52Q107.56-1.56 108.42-1.76Q109.28-1.96 109.76-2.44Q110.24-2.92 110.40-3.80Q110.56-4.68 110.56-6.08L110.56-6.08L110.56-24.72Q110.56-26.12 110.42-26.98Q110.28-27.84 109.86-28.34Q109.44-28.84 108.64-29.02Q107.84-29.20 106.56-29.28L106.56-29.28L106.56-30.80L129.68-30.80L130.04-23.76L128.64-23.76Q128.40-25.36 127.86-26.38Q127.32-27.40 126.38-28Q125.44-28.60 124-28.84Q122.56-29.08 120.52-29.08L120.52-29.08L115.44-29.08Q114.76-29.08 114.76-28.40L114.76-28.40Z M152.52 0.40L152.52 0.40Q149.12 0.40 146.40-0.68Q143.68-1.76 141.76-3.74Q139.84-5.72 138.82-8.56Q137.80-11.40 137.80-14.88L137.80-14.88Q137.80-18.52 138.92-21.52Q140.04-24.52 142.06-26.68Q144.08-28.84 146.90-30.02Q149.72-31.20 153.12-31.20L153.12-31.20Q155.52-31.20 157.64-30.52Q159.76-29.84 162.24-28.32L162.24-28.32L163.08-30.80L164.48-30.80L163.96-21.60L162.04-21.60Q162.04-23.56 161.30-24.98Q160.56-26.40 159.36-27.32Q158.16-28.24 156.62-28.68Q155.08-29.12 153.48-29.12L153.48-29.12Q151.04-29.12 149.12-28.16Q147.20-27.20 145.88-25.40Q144.56-23.60 143.86-21Q143.16-18.40 143.16-15.12L143.16-15.12Q143.16-8.68 145.84-5.22Q148.52-1.76 153.60-1.76L153.60-1.76Q155.52-1.76 157.04-2.22Q158.56-2.68 159.62-3.46Q160.68-4.24 161.22-5.26Q161.76-6.28 161.76-7.40L161.76-7.40Q161.76-9.72 160.82-10.54Q159.88-11.36 157.76-11.36L157.76-11.36L157.76-12.88L169.12-12.88L169.12-11.36Q168.16-11.36 167.52-11.20Q166.88-11.04 166.50-10.62Q166.12-10.20 165.98-9.52Q165.84-8.84 165.84-7.80L165.84-7.80L165.84-3.32Q165.08-3.32 164.46-3.26Q163.84-3.20 163.16-2.98Q162.48-2.76 161.66-2.38Q160.84-2 159.72-1.36L159.72-1.36Q158.32-0.56 156.50-0.08Q154.68 0.40 152.52 0.40Z M192.84-6.84L191.20-11.16L180.52-11.16Q179.84-9.52 179.36-8.26Q178.88-7 178.58-6.08Q178.28-5.16 178.16-4.52Q178.04-3.88 178.04-3.48L178.04-3.48Q178.04-2.36 178.76-1.94Q179.48-1.52 181.16-1.52L181.16-1.52L181.16 0L171.44 0L171.44-1.52Q172.36-1.64 173.02-1.84Q173.68-2.04 174.18-2.40Q174.68-2.76 175.06-3.34Q175.44-3.92 175.80-4.76L175.80-4.76L186.20-30.80L187.92-30.80L197-8.24Q197.92-6 198.60-4.66Q199.28-3.32 199.92-2.64Q200.56-1.96 201.30-1.76Q202.04-1.56 203.08-1.56L203.08-1.56L203.08 0L190.04 0L190.04-1.56Q192.16-1.56 192.96-1.96Q193.76-2.36 193.76-3.28L193.76-3.28Q193.76-3.68 193.72-4.02Q193.68-4.36 193.58-4.76Q193.48-5.16 193.30-5.66Q193.12-6.16 192.84-6.84L192.84-6.84ZM186-24.96L181.32-13.16L190.44-13.16L186-24.96Z M232.68-30.80L233.08-23.16L231.44-23.16Q231.32-24.88 230.88-26.04Q230.44-27.20 229.62-27.86Q228.80-28.52 227.56-28.80Q226.32-29.08 224.60-29.08L224.60-29.08Q223.12-29.08 222.22-29.02Q221.32-28.96 220.84-28.80Q220.36-28.64 220.22-28.42Q220.08-28.20 220.08-27.84L220.08-27.84L220.08-6.44Q220.08-5.16 220.26-4.24Q220.44-3.32 220.98-2.74Q221.52-2.16 222.54-1.86Q223.56-1.56 225.24-1.52L225.24-1.52L225.24 0L210.12 0L210.12-1.52Q211.80-1.56 212.84-1.86Q213.88-2.16 214.42-2.74Q214.96-3.32 215.14-4.24Q215.32-5.16 215.32-6.44L215.32-6.44L215.32-27.84Q215.32-28.20 215.18-28.42Q215.04-28.64 214.62-28.80Q214.20-28.96 213.44-29.02Q212.68-29.08 211.40-29.08L211.40-29.08Q209.84-29.08 208.50-28.96Q207.16-28.84 206.18-28.26Q205.20-27.68 204.60-26.48Q204.00-25.28 203.96-23.16L203.96-23.16L202.48-23.16L202.48-30.80L232.68-30.80Z M246.16-28.40L246.16-16.92Q248.32-16.92 249.78-17.18Q251.24-17.44 252.10-18Q252.96-18.56 253.34-19.44Q253.72-20.32 253.72-21.52L253.72-21.52L255.12-21.52L255.12-10.60L253.72-10.60Q253.72-11.80 253.38-12.68Q253.04-13.56 252.18-14.14Q251.32-14.72 249.86-15.02Q248.40-15.32 246.16-15.32L246.16-15.32L246.16-6.28Q246.16-4.96 246.48-4.10Q246.80-3.24 247.58-2.70Q248.36-2.16 249.64-1.94Q250.92-1.72 252.80-1.72L252.80-1.72Q254.92-1.72 256.40-2.02Q257.88-2.32 258.88-3.04Q259.88-3.76 260.48-4.94Q261.08-6.12 261.48-7.88L261.48-7.88L263-7.88L262.40 0L237.56 0L237.56-1.52Q238.96-1.56 239.82-1.76Q240.68-1.96 241.16-2.44Q241.64-2.92 241.80-3.80Q241.96-4.68 241.96-6.08L241.96-6.08L241.96-24.72Q241.96-26.12 241.82-26.98Q241.68-27.84 241.26-28.34Q240.84-28.84 240.04-29.02Q239.24-29.20 237.96-29.28L237.96-29.28L237.96-30.80L261.08-30.80L261.44-23.76L260.04-23.76Q259.80-25.36 259.26-26.38Q258.72-27.40 257.78-28Q256.84-28.60 255.40-28.84Q253.96-29.08 251.92-29.08L251.92-29.08L246.84-29.08Q246.16-29.08 246.16-28.40L246.16-28.40Z"></path></g>
</svg>
</g></svg>