<svg width="2464" height="2114" viewBox="0 0 2464 2114" fill="none" xmlns="http://www.w3.org/2000/svg">
    <g filter="url(#filter0_f_218_26)">
    <path d="M1511.86 904.372C1511.86 1079.62 1369.79 1221.68 1194.53 1221.68C1019.27 1221.68 877.196 1079.62 877.196 904.372C877.196 729.125 1019.27 587.06 1194.53 587.06C1369.79 587.06 1511.86 729.125 1511.86 904.372Z" fill="#8134FF" fill-opacity="0.9"/>
    <path d="M1330.86 986.85C1330.86 1030.5 1295.47 1065.89 1251.81 1065.89C1208.15 1065.89 1172.76 1030.5 1172.76 986.85C1172.76 943.196 1208.15 907.808 1251.81 907.808C1295.47 907.808 1330.86 943.196 1330.86 986.85Z" fill="#D9D9D9"/>
    <path d="M959.68 1054.44H1294.2V1388.93H959.68V1054.44Z" fill="#FF58E4"/>
    <path d="M1612.68 500L1925.2 1041.26H1300.16L1612.68 500Z" fill="#39ACFF"/>
    <path d="M500 1036.73L919.298 774.629L936.652 1268.78L500 1036.73Z" fill="#FFCA42"/>
    <path d="M1555.97 837.931L1652.29 1134.36H1964L1711.82 1317.57L1808.15 1614L1555.97 1430.79L1303.79 1614L1400.11 1317.57L1147.94 1134.36H1459.64L1555.97 837.931Z" fill="#C74FFF" fill-opacity="0.79"/>
    </g>
    <defs>
    <filter id="filter0_f_218_26" x="0" y="0" width="2464" height="2114" filterUnits="userSpaceOnUse" color-interpolation-filters="sRGB">
    <feFlood flood-opacity="0" result="BackgroundImageFix"/>
    <feBlend mode="normal" in="SourceGraphic" in2="BackgroundImageFix" result="shape"/>
    <feGaussianBlur stdDeviation="250" result="effect1_foregroundBlur_218_26"/>
    </filter>
    </defs>
    </svg>
    