<!-- icon666.com - MILLIONS vector ICONS FREE --><svg clip-rule="evenodd" fill-rule="evenodd" image-rendering="optimizeQuality" shape-rendering="geometricPrecision" text-rendering="geometricPrecision" viewBox="0 0 700 700" xmlns="http://www.w3.org/2000/svg"><g id="Layer_x0020_1"><path d="m211 529c-21-47-42-83-72-123-9-11-7-27 4-38 5-6 13-9 21-9s16 3 21 9l33 32v-180c0-17 13-31 30-31s30 14 30 31v72c5-2 10-4 16-4 9 0 17 4 23 11 5-7 13-11 22-11s18 4 23 11c6-7 14-11 23-11 17 0 30 14 30 31v99c0 66-7 80-29 116-7-9-19-15-31-15h-118c-10 0-19 4-26 10z" fill="#000000" style="fill: rgb(4, 91, 167);"></path><path d="m355 606h-118c-14 0-26-12-26-27v-19c0-15 12-27 26-27h118c15 0 26 12 26 27v19c0 15-11 27-26 27z" fill="#000000" style="fill: rgb(4, 91, 167);"></path><path d="m504 273h-212v-53c0-3 0-5 0-8 4-7 7-16 7-25 0-29-23-51-52-51-28 0-51 22-51 51 0 9 3 19 8 27v6 43c-18-11-30-31-30-53v-53c0-35 29-63 63-63h267c34 0 63 28 63 63v53c0 35-29 63-63 63zm-221-81c-8-10-21-17-35-17-15 0-28 8-36 19 0-3-1-5-1-7 0-20 16-36 36-36s36 16 36 36zm-71 2s-1 1-1 2c0-1 1-2 1-2zm-1 2s-1 0-1 1c0-1 1-1 1-1zm-2 2v1s0 0 0-1zm0 1c-1 1-1 1-1 1s0 0 1-1zm-1 1v1s0 0 0-1zm0 1c0 1-1 1-1 1s1 0 1-1zm-2 3v1s0 0 0-1zm0 1v1s0 0 0-1zm287 27c-4 0-7-4-7-8v-35l-29-42c-3-4-2-8 1-11 4-2 9-1 11 2l24 35 25-35c2-3 7-4 10-2 4 3 4 7 2 11l-29 42v35c0 4-4 8-8 8zm-174 0c-4 0-7-3-7-7v-83c0-4 3-7 7-7h26c17 0 30 14 30 31s-13 30-30 30h-18v29c0 4-3 7-8 7zm8-51h18c8 0 15-7 15-15 0-9-7-16-15-16h-18zm121 51c-4 0-7-3-7-7v-35h-39v35c0 4-3 7-7 7s-8-3-8-7v-57c0-19 15-33 35-33 19 0 34 14 34 33v57c0 4-3 7-8 7zm-46-57h39v-7c0-10-9-18-19-18-11 0-20 8-20 18z" fill="#000000" style="fill: rgb(4, 91, 167);"></path></g></svg>