<?xml version="1.0" encoding="utf-8"?>
<!-- Generator: Adobe Illustrator 25.2.1, SVG Export Plug-In . SVG Version: 6.00 Build 0)  -->
<svg version="1.1" id="Layer_1" xmlns="http://www.w3.org/2000/svg" xmlns:xlink="http://www.w3.org/1999/xlink" x="0px" y="0px"
	 viewBox="0 0 505.5 596.9" style="enable-background:new 0 0 505.5 596.9;" xml:space="preserve">
<style type="text/css">
	.st0{fill:#9F616A;}
	.st1{fill:#3F3D56;}
	.st2{fill:#FFFFFF;}
	.st3{fill:#F9A826;}
	.st4{fill:#E5E5E5;}
	.st5{opacity:0.2;enable-background:new    ;}
	.st6{fill:#263238;}
</style>
<path class="st0" d="M359.5,500.9l5,96c0,0-211.5-201.3-237.8-260.2s23.2-204.6,23.2-204.6l110,60.4L359.5,500.9z"/>
<path class="st0" d="M35.2,91.9L2.6,95c0,0-17,37.2,35.6,40.3L35.2,91.9z"/>
<path class="st0" d="M35.2,149.2l-32.5,3.1c0,0-17,37.2,35.6,40.3L35.2,149.2z"/>
<path class="st0" d="M35.2,211.2l-32.5,3.1c0,0-17,37.2,35.6,40.3L35.2,211.2z"/>
<path class="st0" d="M44.5,273.2l-32.5,3.1c0,0-17,37.2,35.6,40.3L44.5,273.2z"/>
<path class="st1" d="M19.3,106.8h2.5V39.2C21.8,17.5,39.3,0,61,0l0,0h143.3c21.6,0,39.2,17.5,39.2,39.2c0,0,0,0,0,0v371.2
	c0,21.6-17.5,39.2-39.2,39.2l0,0H61c-21.6,0-39.2-17.5-39.2-39.2l0,0V155h-2.5V106.8z"/>
<path class="st2" d="M59.4,10.2h18.7c-2.9,7.1,0.5,15.2,7.6,18.1c1.7,0.7,3.4,1,5.2,1h82.1c7.7,0,13.9-6.2,13.9-13.9
	c0-1.8-0.3-3.6-1-5.2h17.5c16.1,0,29.2,13.1,29.2,29.2l0,0V410c0,16.2-13.1,29.2-29.2,29.2h-144c-16.1,0-29.2-13.1-29.2-29.2l0,0
	V39.4C30.1,23.3,43.2,10.2,59.4,10.2C59.4,10.2,59.4,10.2,59.4,10.2z"/>
<rect x="100.5" y="114" class="st3" width="61.7" height="14.9"/>
<rect x="97.6" y="178" class="st4" width="67.6" height="14.9"/>
<rect x="56" y="210" class="st4" width="150.9" height="14.9"/>
<rect x="56" y="242" class="st4" width="150.9" height="14.9"/>
<path class="st0" d="M505.5,550.9L332,353l-6.2-127.1l-65.1-108.5l-18.6-46.5c0,0-43.4,4.6-7.7,93l14.7,47.3l0,0
	c-13.3,28.6-20.1,59.7-20.1,91.2v108.3c0,25.5,121.5,164.4,135.7,185.7l0,0L505.5,550.9z"/>
<polygon class="st5" points="247.2,126.6 260.1,120.3 259.7,119.4 247.7,125.3 229.7,77.9 228.8,78.3 "/>
<rect x="11.7" y="88.3" transform="matrix(0.3457 -0.9384 0.9384 0.3457 -84.4327 75.9155)" class="st5" width="1" height="20.4"/>
<rect x="11.7" y="146.3" transform="matrix(0.3457 -0.9384 0.9384 0.3457 -138.8575 113.8673)" class="st5" width="1" height="20.4"/>
<rect x="11.7" y="208.3" transform="matrix(0.3457 -0.9384 0.9384 0.3457 -197.0358 154.4364)" class="st5" width="1" height="20.4"/>
<rect x="16.8" y="274" transform="matrix(0.4327 -0.9015 0.9015 0.4327 -241.9023 173.9899)" class="st5" width="1" height="10.4"/>
<ellipse transform="matrix(7.088901e-02 -0.9975 0.9975 7.088901e-02 -219.1635 449.0589)" class="st3" cx="131.5" cy="342.2" rx="43.2" ry="43.2"/>
<circle class="st2" cx="130.9" cy="368" r="9"/>
<path class="st2" d="M128.6,357c-2.4-0.9-4-3.1-4.2-5.6l-2.3-34.9c-0.3-4.7,3.3-8.7,7.9-9c4.7-0.3,8.7,3.3,9,7.9c0,0.3,0,0.7,0,1
	l-1.9,35c-0.2,3.5-3.2,6.2-6.8,6C129.8,357.3,129.2,357.2,128.6,357L128.6,357z"/>
<g>
	<path class="st6" d="M64.8,61.3v4.9c0,6.1-3.1,9.4-8.9,9.4H53V90h-6.1V51.7h8.9C61.7,51.9,64.8,55.2,64.8,61.3z M53,57.3v12.9h2.8
		c1.9,0,3.1-0.9,3.1-3.5v-5.6c0-2.8-0.9-3.5-3.1-3.5H53V57.3z"/>
	<path class="st6" d="M86.4,90.2h-6.1l-0.9-7.1h-7.3l-0.9,7.1h-5.4l6.1-38.3h8.7L86.4,90.2z M72.5,78h5.9l-2.8-19.3l0,0L72.5,78z"/>
	<path class="st6" d="M92,77.5l-7.5-25.6h6.4l4.5,17.4l0,0l4.5-17.4h5.6l-7.5,25.6v12.7h-6.1V77.5H92z"/>
	<path class="st6" d="M120.7,79.2L120.7,79.2l4.2-27.3h8.5v38.3h-5.6V62.7l0,0l-4,27.5h-5.6l-4.5-27l0,0v27h-5.2V51.9h8.5
		L120.7,79.2z"/>
	<path class="st6" d="M143.8,68.1h8.2v5.4h-8.2v11.3h10.3v5.4h-16.5V51.9h16.5v5.4h-10.3V68.1z"/>
	<path class="st6" d="M163.3,62.5L163.3,62.5v27.8h-5.4V51.9h7.5l6.1,22.8l0,0V51.9h5.4v38.3h-6.1L163.3,62.5z"/>
	<path class="st6" d="M179.5,51.9h18.6v5.4h-6.4v32.9h-6.1V57.3h-6.4v-5.4H179.5z"/>
	<path class="st6" d="M208.7,51.4c5.9,0,8.9,3.5,8.9,9.6v1.2H212v-1.6c0-2.8-1.2-3.8-3.1-3.8c-1.9,0-3.1,0.9-3.1,3.8
		s1.2,4.9,5.2,8.2c4.9,4.5,6.6,7.5,6.6,12c0,6.1-3.1,9.6-8.9,9.6c-5.9,0-8.9-3.5-8.9-9.6v-2.4h5.6v2.8c0,2.8,1.2,3.8,3.1,3.8
		s3.1-0.9,3.1-3.8c0-2.8-1.2-4.9-5.2-8.2c-4.9-4.5-6.6-7.5-6.6-12C200,55,202.8,51.4,208.7,51.4z"/>
</g>
</svg>
