<svg width="608" height="440" viewBox="0 0 608 440" fill="none" xmlns="http://www.w3.org/2000/svg">
<rect opacity="0.12" width="608" height="440" rx="48" transform="matrix(-1 8.31508e-08 9.19143e-08 1 608 0)" fill="url(#paint0_linear_4515_36684)"/>
<mask id="mask0_4515_36684" style="mask-type:alpha" maskUnits="userSpaceOnUse" x="0" y="0" width="608" height="440">
<rect width="608" height="440" rx="48" transform="matrix(-1 8.31508e-08 9.19143e-08 1 608 0)" fill="#5FB1FC"/>
</mask>
<g mask="url(#mask0_4515_36684)">
<path opacity="0.2" d="M292.659 759.378C338.965 789.477 400.903 776.339 431.002 730.033L619.061 440.715C649.16 394.41 636.022 332.471 589.716 302.372L259.166 87.5123C212.86 57.4131 150.922 70.5513 120.822 116.857L-67.236 406.175C-97.3351 452.48 -84.197 514.419 -37.8912 544.518L292.659 759.378Z" fill="#A5D3FF"/>
</g>
<defs>
<linearGradient id="paint0_linear_4515_36684" x1="404.998" y1="418.631" x2="250.489" y2="99.7653" gradientUnits="userSpaceOnUse">
<stop offset="0.239583" stop-color="#0067C5"/>
<stop offset="1" stop-color="#C6A3FD"/>
</linearGradient>
</defs>
</svg>
