<?xml version="1.0" encoding="utf-8"?>
<!-- Generator: Adobe Illustrator 25.2.1, SVG Export Plug-In . SVG Version: 6.00 Build 0)  -->
<svg version="1.1" id="Layer_1" xmlns="http://www.w3.org/2000/svg" xmlns:xlink="http://www.w3.org/1999/xlink" x="0px" y="0px"
	 viewBox="0 0 50 50" style="enable-background:new 0 0 50 50;" xml:space="preserve">
<style type="text/css">
	.st0{fill:#F0F5FC;stroke:#27AAE1;stroke-miterlimit:10;}
	.st1{fill:#487BBE;}
</style>
<path class="st0" d="M18.4,3.4c3.7-2.1,8.2-2.1,11.9,0l9.6,5.5c3.7,2.1,6,6,6,10.2v11c0,4.2-2.3,8.1-6,10.2l-9.6,5.5
	c-3.7,2.1-8.2,2.1-11.9,0l-9.6-5.5c-3.7-2.1-6-6-6-10.2v-11c0-4.2,2.3-8.1,6-10.2L18.4,3.4z"/>
<path class="st1" d="M30,12.9H20c-1.2,0-2.1,1.1-2.1,2.3c0,0.3,0,0.5,0,0.8h-4.7c-0.6,0-1.1,0.5-1.1,1.2c0,4.5,1.5,7.6,3.5,9.7
	c2,2.1,4.4,3.1,6.2,3.7c1,0.3,1.8,1.3,1.8,2.2c0,1-0.8,1.8-1.7,1.8h-1.2c-0.8,0-1.4,0.7-1.4,1.5s0.6,1.5,1.4,1.5h8.6
	c0.8,0,1.4-0.7,1.4-1.5s-0.6-1.5-1.4-1.5h-1.2c-0.9,0-1.7-0.8-1.7-1.8c0-0.9,0.7-1.9,1.8-2.2c1.8-0.5,4.2-1.6,6.2-3.7
	c2-2.1,3.5-5.2,3.5-9.7c0-0.6-0.5-1.2-1.1-1.2h-4.7c0-0.3,0-0.5,0-0.8C32.1,13.9,31.2,12.9,30,12.9z M14.3,18.3h3.8
	c0.4,4.4,1.3,7.3,2.3,9.2c-1.1-0.5-2.3-1.3-3.3-2.3C15.7,23.7,14.6,21.5,14.3,18.3L14.3,18.3z M32.9,25.2c-1,1.1-2.2,1.8-3.3,2.3
	c1-1.9,1.9-4.9,2.3-9.2h3.8C35.4,21.5,34.3,23.7,32.9,25.2L32.9,25.2z"/>
</svg>
