<?xml version="1.0" encoding="utf-8"?>
<!-- Generator: Adobe Illustrator 25.2.1, SVG Export Plug-In . SVG Version: 6.00 Build 0)  -->
<svg version="1.1" id="Layer_1" xmlns="http://www.w3.org/2000/svg" xmlns:xlink="http://www.w3.org/1999/xlink" x="0px" y="0px"
	 viewBox="0 0 50 50" style="enable-background:new 0 0 50 50;" xml:space="preserve">
<style type="text/css">
	.st0{fill:none;stroke:#D1BFDD;stroke-width:2;stroke-miterlimit:10;}
	.st1{fill:#487BBE;}
</style>
<path class="st0" d="M18.7,3.5c3.7-2.1,8.2-2.1,11.9,0L40.1,9c3.7,2.1,6,6,6,10.2v11c0,4.2-2.3,8.1-6,10.2L30.6,46
	c-3.7,2.1-8.2,2.1-11.9,0l-9.6-5.5c-3.7-2.1-6-6-6-10.2v-11c0-4.2,2.3-8.1,6-10.2L18.7,3.5z"/>
<path class="st1" d="M25,11c-2,0-3.7,1.3-4.4,3.1h-1.8c-1.7,0-3.1,1.4-3.1,3.1v15.5c0,1.7,1.4,3.1,3.1,3.1h12.4
	c1.7,0,3.1-1.4,3.1-3.1V17.2c0-1.7-1.4-3.1-3.1-3.1h-1.8C28.7,12.3,27,11,25,11z M25,14.1c0.9,0,1.5,0.7,1.5,1.5
	c0,0.9-0.7,1.5-1.5,1.5s-1.5-0.7-1.5-1.5C23.5,14.8,24.1,14.1,25,14.1z M21.1,20.3h7.7c0.4,0,0.8,0.3,0.8,0.8s-0.3,0.8-0.8,0.8h-7.7
	c-0.4,0-0.8-0.3-0.8-0.8S20.7,20.3,21.1,20.3z"/>
</svg>
