<?xml version="1.0" encoding="utf-8"?>
<!-- Generator: Adobe Illustrator 28.3.0, SVG Export Plug-In . SVG Version: 6.00 Build 0)  -->
<svg version="1.1" id="Ñëîé_1" xmlns="http://www.w3.org/2000/svg" xmlns:xlink="http://www.w3.org/1999/xlink" x="0px" y="0px"
	 viewBox="0 0 600 450" style="enable-background:new 0 0 600 450;" xml:space="preserve">
<style type="text/css">
	.st0{opacity:0.5;fill:#173D7A;}
	.st1{fill:#567DA8;}
	.st2{fill:#0064D1;}
	.st3{fill:#0081D1;}
	.st4{fill:#74ABE2;}
	.st5{fill:#2E92FF;}
	.st6{fill:#FFFFFF;}
	.st7{fill:#4C739B;}
	.st8{fill:#173D7A;}
	.st9{fill:#396CAA;}
	.st10{fill:#274F89;}
	.st11{fill:#D4ECFF;}
	.st12{fill:#5793CE;}
	.st13{fill:#FF2C9C;}
	.st14{opacity:0.5;fill:#D4ECFF;}
	.st15{fill:#1875AD;}
	.st16{fill:#73B7F9;}
	.st17{fill:#D3008D;}
	.st18{fill:#3F79A8;}
	.st19{fill:#2EB4FF;}
	.st20{fill:#3D74C4;}
	.st21{fill:#983BE9;}
	.st22{fill:#494949;}
	.st23{fill:#BA3535;}
	.st24{fill:#FFC2B0;}
	.st25{fill:#EA9C92;}
	.st26{fill:#E25050;}
	.st27{fill:#D35E5E;}
	.st28{fill:#EAA332;}
	.st29{fill:#FFD348;}
	.st30{fill:#6B9BA0;}
	.st31{fill:#5CD0D6;}
</style>
<path class="st0" d="M199.9,372.9l129.3-74.7c2.9-1.7,2.9-5.9,0-7.5l-122.9-71L68.7,299.1c-2.9,1.7-2.9,5.9,0,7.5l114.7,66.2
	C188.5,375.8,194.8,375.8,199.9,372.9z"/>
<g>
	<g>
		<path class="st1" d="M203.6,180c0-8.2,5.8-11.6,12.9-7.5l120.9,69.7c2,1.1,3.5,3.9,3.5,6.1c0,2.3-1.6,3.2-3.5,2l-120.9-69.7
			c-3.2-1.8-5.8-0.3-5.8,3.4l0,13.5c-2.3-0.1-4.7-0.1-7.1-0.1L203.6,180z"/>
		<path class="st2" d="M337.5,274.7l-120.9-44.1c-7.1-4.1-12.9-14.1-12.9-22.3l0-10.8c2.4,0,4.7,0,7.1,0.1l0,14.8
			c0,3.7,2.6,8.2,5.8,10.1l120.9,44.1c2,1.1,3.5,3.9,3.5,6.1C341,274.9,339.4,275.8,337.5,274.7z"/>
	</g>
	<polygon class="st3" points="340.1,274.9 193,360 68.5,285.7 58.6,271 59.6,276.2 62.3,262.5 293.4,271.3 334.2,268.7 	"/>
	<polygon class="st4" points="335.2,249.2 335.3,267.3 193.1,349.5 189.2,332.3 	"/>
	<polygon class="st5" points="60.4,256.7 207.3,171.7 339.7,248.7 340,250.6 192.9,335.7 	"/>
	<g>
		<path class="st6" d="M107.2,300.3l-34.5-20.5c-2.9-2-5.2-6.2-5.2-9.6l0-2.7c0-2.2,0.9-3.6,2.3-4l68,37.8l55.4,29.9l-0.1,18.3
			L107.2,300.3z"/>
	</g>
	<path class="st2" d="M188.2,332.9l145.9-84.4l3.1-1.8l2.8-1.6c0.6,1.1,0.9,2.2,0.9,3.3c0,1.1-0.4,1.9-1,2.3l0,0l0,0l0,0
		l-147.1,85.1L188.2,332.9z"/>
	<polygon class="st6" points="194.8,358.9 193,360 192.7,359.4 193.8,358.5 	"/>
	<polygon class="st6" points="194.8,334.6 192.9,335.7 193.4,334.7 	"/>
	<g>
		<path class="st7" d="M190.3,327.3L69.4,257.6c-7.1-4.1-12.9-0.8-12.9,7.5l0,2.7c0,8.2,5.8,18.2,12.9,22.3l120.9,69.7
			c2,1.1,3.5,0.2,3.5-2c0-2.3-1.6-5-3.5-6.1L69.5,282c-3.2-1.8-5.8-6.4-5.8-10.1l0-2.7c0-3.7,2.6-5.2,5.8-3.4l120.9,69.7
			c2,1.1,3.5,0.2,3.5-2C193.9,331.2,192.3,328.4,190.3,327.3z"/>
	</g>
	<g>
		<path class="st6" d="M193.9,357.8c0-2.3-1.6-5-3.5-6.1L69.5,282c-3.2-1.8-5.8-6.4-5.8-10.1l0-2.7c0-2.4,1.1-3.9,2.8-4.1
			c-0.5,0.7-0.9,1.7-0.9,3l0,2.7c0,3.7,2.6,8.2,5.8,10.1l120.9,69.7c2,1.1,3.5,3.9,3.5,6.1c0,1.7-0.9,2.6-2.2,2.5
			C193.8,358.8,193.9,358.3,193.9,357.8z"/>
		<path class="st6" d="M193.9,333.4c0-2.3-1.6-5-3.5-6.1L69.4,257.6c-3.1-1.8-5.9-2.1-8.1-1.4c2.4-2,6-2.1,10,0.2l120.9,69.7
			c2,1.1,3.5,3.9,3.5,6.1c0,1.7-0.9,2.6-2.2,2.5C193.8,334.4,193.9,334,193.9,333.4z"/>
	</g>
</g>
<g>
	<path class="st8" d="M55.5,131.9l130.5-75.3c1.5-0.9,3.1-1,4.4-0.5l0,0l0.2,0.1c0,0,0,0,0.1,0l4.7,1.8l-4.2,2.1
		c0,0.1,0,0.2,0.1,0.2l21.3,96.7c1.1,4.8-1.1,10.5-4.8,12.6L80.4,243.1l0.5,5.4l-5.2-2c-1.7-0.8-3.1-2.6-3.7-5.2l-21.3-96.7
		C49.7,139.6,51.8,134,55.5,131.9z"/>
	<path class="st9" d="M55.5,131.9l130.5-75.3c1.5-0.9,3.1-1,4.4-0.5l0,0l0.2,0.1c0,0,0,0,0.1,0l4.7,1.8l-4.2,2.1
		c0,0.1,0,0.2,0.1,0.2l14,63.8l-63.8,49.7l-90-36.6C52.2,134.8,53.7,132.9,55.5,131.9z"/>
	<path class="st10" d="M60.4,146.7l-9.9-4.2c-0.2-3.8,1.4-7.8,4-9.9l15.7,6.6L60.4,146.7z"/>
	<path class="st11" d="M85.3,248l130.5-75.3c3.7-2.1,5.8-7.8,4.8-12.6l-21.3-96.7c-1.1-4.8-4.9-7-8.6-4.9L60.2,133.7
		c-3.7,2.1-5.8,7.8-4.8,12.6L76.7,243C77.8,247.9,81.7,250.1,85.3,248z"/>
	<path class="st6" d="M59,133.2l130.5-75.3c1.8-1,3.6-1,5.1-0.2c-1.2-0.3-2.6-0.1-3.9,0.7L60.2,133.7c-3.7,2.1-5.8,7.8-4.8,12.6
		L76.7,243c0.5,2.5,1.8,4.3,3.5,5.1c-2.2-0.5-4-2.5-4.7-5.6l-21.3-96.7C53.2,141,55.3,135.4,59,133.2z"/>
	<path class="st6" d="M88.2,240.8l122.7-70.8c3.4-1.9,5.3-7.1,4.4-11.6l-19.4-88.5c-1-4.4-4.5-6.4-7.9-4.5L65.2,136.2
		c-3.4,1.9-5.3,7.1-4.4,11.6l19.4,88.5C81.3,240.7,84.8,242.7,88.2,240.8z"/>
	<path class="st8" d="M88.2,240.8l122.7-70.8c3.4-1.9,5.3-7.1,4.4-11.6l-19.4-88.5c-1-4.4-4.5-6.4-7.9-4.5L65.2,136.2
		c-3.4,1.9-5.3,7.1-4.4,11.6l19.4,88.5C81.3,240.7,84.8,242.7,88.2,240.8z"/>
	<path class="st12" d="M87.1,240.3l122.7-70.8c3.4-1.9,5.3-7.1,4.4-11.6l-19.4-88.5c-0.5-2.2-1.6-3.9-3.1-4.7
		c1.9,0.5,3.6,2.3,4.2,5.1l19.4,88.5c1,4.4-1,9.6-4.4,11.6L88.2,240.8c-1.7,1-3.4,1-4.8,0.2C84.5,241.2,85.8,241.1,87.1,240.3z"/>
	<path class="st8" d="M83.5,251.2l17.8-2.4l115.1-66.5c3.7-2.1,10.1-1.9,14.4,0.6l81.6,47.1l10.8-1.4v6.1l0,0
		c0.1,1.4-0.7,2.8-2.5,3.8l-130.5,75.3c-3.7,2.1-10.1,1.9-14.4-0.6L87.1,262c-2.4-1.4-3.6-3.2-3.5-4.8l0,0V251.2z"/>
	<path class="st9" d="M170,209.2l8.2-4.7h89.9l44.3,25.6l10.8-1.4v6.1l0,0c0.1,1.4-0.7,2.8-2.5,3.8l-130.5,75.3
		c-2,1.1-4.7,1.6-7.4,1.4L170,209.2z"/>
	<path class="st12" d="M318.5,229.3l4.8-0.6v6.1l0,0c0.1,1.4-0.7,2.8-2.5,3.8l-2.3,1.3V229.3z"/>
	<path class="st10" d="M189,314.5c-3.5,1.3-8.5,1-12.2-0.8v-13.6H189V314.5z"/>
	<path class="st11" d="M190.3,307.8l130.5-75.3c3.7-2.1,3.2-5.9-1-8.3l-88.8-51.3c-4.3-2.5-10.7-2.7-14.4-0.6L86,247.6
		c-3.7,2.1-3.2,5.9,1,8.3l88.8,51.3C180.2,309.6,186.6,309.9,190.3,307.8z"/>
	<path class="st6" d="M87.1,253.7l88.8,51.3c4.3,2.5,10.7,2.7,14.4,0.6l130.5-75.3c1.2-0.7,2-1.6,2.3-2.5c0.6,1.7-0.2,3.5-2.3,4.7
		l-130.5,75.3c-3.7,2.1-10.1,1.9-14.4-0.6l-88.8-51.3c-2.9-1.7-4-3.9-3.3-5.8C84.2,251.4,85.3,252.6,87.1,253.7z"/>
	<g>
		<path class="st12" d="M265.3,207.5l5.9-3.4c0.5-0.3,0.4-0.8-0.1-1.1l-7-4c-0.5-0.3-1.4-0.4-1.8-0.1l-5.9,3.4
			c-0.5,0.3-0.4,0.8,0.1,1.1l7,4C264,207.8,264.8,207.8,265.3,207.5z"/>
		<path class="st12" d="M256.2,212.8l5.9-3.4c0.5-0.3,0.4-0.8-0.1-1.1l-7-4c-0.5-0.3-1.4-0.4-1.8-0.1l-5.9,3.4
			c-0.5,0.3-0.4,0.8,0.1,1.1l7,4C254.9,213,255.7,213.1,256.2,212.8z"/>
		<path class="st12" d="M247.1,218l5.9-3.4c0.5-0.3,0.4-0.8-0.1-1.1l-7-4c-0.5-0.3-1.4-0.4-1.8-0.1l-5.9,3.4
			c-0.5,0.3-0.4,0.8,0.1,1.1l7,4C245.8,218.3,246.6,218.3,247.1,218z"/>
		<path class="st12" d="M234.4,213.7l5.9-3.4c0.5-0.3,0.4-0.8-0.1-1.1l-5.8-3.4c-0.5-0.3-1.4-0.4-1.8-0.1l-5.9,3.4
			c-0.5,0.3-0.4,0.8,0.1,1.1l5.8,3.4C233.1,213.9,234,214,234.4,213.7z"/>
		<path class="st12" d="M225.3,219l5.9-3.4c0.5-0.3,0.4-0.8-0.1-1.1l-5.8-3.4c-0.5-0.3-1.4-0.4-1.8-0.1l-5.9,3.4
			c-0.5,0.3-0.4,0.8,0.1,1.1l5.8,3.4C224,219.2,224.9,219.2,225.3,219z"/>
		<path class="st12" d="M216.2,224.2l5.9-3.4c0.5-0.3,0.4-0.8-0.1-1.1l-5.8-3.4c-0.5-0.3-1.4-0.4-1.8-0.1l-5.9,3.4
			c-0.5,0.3-0.4,0.8,0.1,1.1l5.8,3.4C214.9,224.5,215.7,224.5,216.2,224.2z"/>
		<path class="st12" d="M207.1,229.5l5.9-3.4c0.5-0.3,0.4-0.8-0.1-1.1l-5.8-3.4c-0.5-0.3-1.4-0.4-1.8-0.1l-5.9,3.4
			c-0.5,0.3-0.4,0.8,0.1,1.1l5.8,3.4C205.8,229.7,206.6,229.8,207.1,229.5z"/>
		<path class="st12" d="M198,234.7l5.9-3.4c0.5-0.3,0.4-0.8-0.1-1.1l-5.8-3.4c-0.5-0.3-1.4-0.4-1.8-0.1l-5.9,3.4
			c-0.5,0.3-0.4,0.8,0.1,1.1l5.8,3.4C196.7,235,197.5,235,198,234.7z"/>
		<path class="st12" d="M188.9,240l5.9-3.4c0.5-0.3,0.4-0.8-0.1-1.1l-5.8-3.4c-0.5-0.3-1.4-0.4-1.8-0.1l-5.9,3.4
			c-0.5,0.3-0.4,0.8,0.1,1.1l5.8,3.4C187.6,240.3,188.4,240.3,188.9,240z"/>
		<path class="st12" d="M179.7,245.3l5.9-3.4c0.5-0.3,0.4-0.8-0.1-1.1l-5.8-3.4c-0.5-0.3-1.4-0.4-1.8-0.1l-5.9,3.4
			c-0.5,0.3-0.4,0.8,0.1,1.1l5.8,3.4C178.4,245.5,179.3,245.6,179.7,245.3z"/>
		<path class="st12" d="M170.6,250.5l5.9-3.4c0.5-0.3,0.4-0.8-0.1-1.1l-5.8-3.4c-0.5-0.3-1.4-0.4-1.8-0.1l-5.9,3.4
			c-0.5,0.3-0.4,0.8,0.1,1.1l5.8,3.4C169.3,250.8,170.2,250.8,170.6,250.5z"/>
		<path class="st12" d="M161.5,255.8l5.9-3.4c0.5-0.3,0.4-0.8-0.1-1.1l-5.8-3.4c-0.5-0.3-1.4-0.4-1.8-0.1l-5.9,3.4
			c-0.5,0.3-0.4,0.8,0.1,1.1l5.8,3.4C160.2,256,161,256.1,161.5,255.8z"/>
		<path class="st12" d="M152.4,261.1l5.9-3.4c0.5-0.3,0.4-0.8-0.1-1.1l-5.8-3.4c-0.5-0.3-1.4-0.4-1.8-0.1l-5.9,3.4
			c-0.5,0.3-0.4,0.8,0.1,1.1l5.8,3.4C151.1,261.3,151.9,261.3,152.4,261.1z"/>
		<path class="st12" d="M221,211.2l5.9-3.4c0.5-0.3,0.4-0.8-0.1-1.1l-5.8-3.4c-0.5-0.3-1.4-0.4-1.8-0.1l-5.9,3.4
			c-0.5,0.3-0.4,0.8,0.1,1.1l5.8,3.4C219.7,211.4,220.5,211.5,221,211.2z"/>
		<path class="st12" d="M230.3,205.9l5.9-3.4c0.5-0.3,0.4-0.8-0.1-1.1l-5.8-3.4c-0.5-0.3-1.4-0.4-1.8-0.1l-5.9,3.4
			c-0.5,0.3-0.4,0.8,0.1,1.1l5.8,3.4C229,206.1,229.8,206.1,230.3,205.9z"/>
		<path class="st12" d="M239.5,200.5l12.7-7.3c0.5-0.3,0.4-0.8-0.1-1.1l-5.8-3.4c-0.5-0.3-1.4-0.4-1.8-0.1l-12.7,7.3
			c-0.5,0.3-0.4,0.8,0.1,1.1l5.8,3.4C238.2,200.8,239.1,200.8,239.5,200.5z"/>
		<path class="st12" d="M233.1,194l10.3-6c0.5-0.3,0.4-0.8-0.1-1.1l-5.8-3.4c-0.5-0.3-1.4-0.4-1.8-0.1l-10.3,6
			c-0.5,0.3-0.4,0.8,0.1,1.1l5.8,3.4C231.8,194.2,232.6,194.3,233.1,194z"/>
		<path class="st12" d="M211.9,216.5l5.9-3.4c0.5-0.3,0.4-0.8-0.1-1.1l-5.8-3.4c-0.5-0.3-1.4-0.4-1.8-0.1l-5.9,3.4
			c-0.5,0.3-0.4,0.8,0.1,1.1l5.8,3.4C210.6,216.7,211.4,216.7,211.9,216.5z"/>
		<path class="st12" d="M202.8,221.7l5.9-3.4c0.5-0.3,0.4-0.8-0.1-1.1l-5.8-3.4c-0.5-0.3-1.4-0.4-1.8-0.1l-5.9,3.4
			c-0.5,0.3-0.4,0.8,0.1,1.1l5.8,3.4C201.5,222,202.3,222,202.8,221.7z"/>
		<path class="st12" d="M193.7,227l5.9-3.4c0.5-0.3,0.4-0.8-0.1-1.1l-5.8-3.4c-0.5-0.3-1.4-0.4-1.8-0.1l-5.9,3.4
			c-0.5,0.3-0.4,0.8,0.1,1.1l5.8,3.4C192.4,227.2,193.2,227.3,193.7,227z"/>
		<path class="st12" d="M184.5,232.3l5.9-3.4c0.5-0.3,0.4-0.8-0.1-1.1l-5.8-3.4c-0.5-0.3-1.4-0.4-1.8-0.1l-5.9,3.4
			c-0.5,0.3-0.4,0.8,0.1,1.1l5.8,3.4C183.2,232.5,184.1,232.5,184.5,232.3z"/>
		<path class="st12" d="M175.4,237.5l5.9-3.4c0.5-0.3,0.4-0.8-0.1-1.1l-5.8-3.4c-0.5-0.3-1.4-0.4-1.8-0.1l-5.9,3.4
			c-0.5,0.3-0.4,0.8,0.1,1.1l5.8,3.4C174.1,237.8,175,237.8,175.4,237.5z"/>
		<path class="st12" d="M166.3,242.8l5.9-3.4c0.5-0.3,0.4-0.8-0.1-1.1l-5.8-3.4c-0.5-0.3-1.4-0.4-1.8-0.1l-5.9,3.4
			c-0.5,0.3-0.4,0.8,0.1,1.1l5.8,3.4C165,243,165.8,243.1,166.3,242.8z"/>
		<path class="st12" d="M157.2,248l5.9-3.4c0.5-0.3,0.4-0.8-0.1-1.1l-5.8-3.4c-0.5-0.3-1.4-0.4-1.8-0.1l-5.9,3.4
			c-0.5,0.3-0.4,0.8,0.1,1.1l5.8,3.4C155.9,248.3,156.7,248.3,157.2,248z"/>
		<path class="st12" d="M148.1,253.3l5.9-3.4c0.5-0.3,0.4-0.8-0.1-1.1l-5.8-3.4c-0.5-0.3-1.4-0.4-1.8-0.1l-5.9,3.4
			c-0.5,0.3-0.4,0.8,0.1,1.1l5.8,3.4C146.8,253.6,147.6,253.6,148.1,253.3z"/>
		<path class="st12" d="M139,258.6l5.9-3.4c0.5-0.3,0.4-0.8-0.1-1.1l-5.8-3.4c-0.5-0.3-1.4-0.4-1.8-0.1l-5.9,3.4
			c-0.5,0.3-0.4,0.8,0.1,1.1l5.8,3.4C137.7,258.8,138.5,258.8,139,258.6z"/>
		<path class="st12" d="M122.8,267.9l12.9-7.4c0.5-0.3,0.4-0.8-0.1-1.1l-5.8-3.4c-0.5-0.3-1.4-0.4-1.8-0.1l-12.9,7.4
			c-0.5,0.3-0.4,0.8,0.1,1.1l5.8,3.4C121.5,268.2,122.3,268.2,122.8,267.9z"/>
		<path class="st12" d="M105,257.7l10.9-6.3c0.5-0.3,0.4-0.8-0.1-1.1l-5.8-3.4c-0.5-0.3-1.4-0.4-1.8-0.1l-10.9,6.3
			c-0.5,0.3-0.4,0.8,0.1,1.1l5.8,3.4C103.7,257.9,104.5,258,105,257.7z"/>
		<path class="st12" d="M195.9,215.4l5.9-3.4c0.5-0.3,0.4-0.8-0.1-1.1l-5.8-3.4c-0.5-0.3-1.4-0.4-1.8-0.1l-5.9,3.4
			c-0.5,0.3-0.4,0.8,0.1,1.1l5.8,3.4C194.6,215.7,195.5,215.7,195.9,215.4z"/>
		<path class="st12" d="M205.3,210l5.9-3.4c0.5-0.3,0.4-0.8-0.1-1.1l-5.8-3.4c-0.5-0.3-1.4-0.4-1.8-0.1l-5.9,3.4
			c-0.5,0.3-0.4,0.8,0.1,1.1l5.8,3.4C204,210.3,204.8,210.3,205.3,210z"/>
		<path class="st12" d="M214.6,204.6l5.9-3.4c0.5-0.3,0.4-0.8-0.1-1.1l-5.8-3.4c-0.5-0.3-1.4-0.4-1.8-0.1l-5.9,3.4
			c-0.5,0.3-0.4,0.8,0.1,1.1l5.8,3.4C213.3,204.9,214.1,204.9,214.6,204.6z"/>
		<path class="st12" d="M224,199.3l5.9-3.4c0.5-0.3,0.4-0.8-0.1-1.1l-5.8-3.4c-0.5-0.3-1.4-0.4-1.8-0.1l-5.9,3.4
			c-0.5,0.3-0.4,0.8,0.1,1.1l5.8,3.4C222.7,199.5,223.5,199.5,224,199.3z"/>
		<path class="st12" d="M186.8,220.7l5.9-3.4c0.5-0.3,0.4-0.8-0.1-1.1l-5.8-3.4c-0.5-0.3-1.4-0.4-1.8-0.1l-5.9,3.4
			c-0.5,0.3-0.4,0.8,0.1,1.1l5.8,3.4C185.5,220.9,186.3,221,186.8,220.7z"/>
		<path class="st12" d="M177.7,226l5.9-3.4c0.5-0.3,0.4-0.8-0.1-1.1l-5.8-3.4c-0.5-0.3-1.4-0.4-1.8-0.1l-5.9,3.4
			c-0.5,0.3-0.4,0.8,0.1,1.1l5.8,3.4C176.4,226.2,177.2,226.2,177.7,226z"/>
		<path class="st12" d="M168.6,231.2l5.9-3.4c0.5-0.3,0.4-0.8-0.1-1.1l-5.8-3.4c-0.5-0.3-1.4-0.4-1.8-0.1l-5.9,3.4
			c-0.5,0.3-0.4,0.8,0.1,1.1l5.8,3.4C167.3,231.5,168.1,231.5,168.6,231.2z"/>
		<path class="st12" d="M159.5,236.5l5.9-3.4c0.5-0.3,0.4-0.8-0.1-1.1l-5.8-3.4c-0.5-0.3-1.4-0.4-1.8-0.1l-5.9,3.4
			c-0.5,0.3-0.4,0.8,0.1,1.1l5.8,3.4C158.2,236.7,159,236.8,159.5,236.5z"/>
		<path class="st12" d="M150.3,241.8l5.9-3.4c0.5-0.3,0.4-0.8-0.1-1.1l-5.8-3.4c-0.5-0.3-1.4-0.4-1.8-0.1l-5.9,3.4
			c-0.5,0.3-0.4,0.8,0.1,1.1l5.8,3.4C149,242,149.9,242,150.3,241.8z"/>
		<path class="st12" d="M141.2,247l5.9-3.4c0.5-0.3,0.4-0.8-0.1-1.1l-5.8-3.4c-0.5-0.3-1.4-0.4-1.8-0.1l-5.9,3.4
			c-0.5,0.3-0.4,0.8,0.1,1.1l5.8,3.4C139.9,247.3,140.8,247.3,141.2,247z"/>
		<path class="st12" d="M132.1,252.3l5.9-3.4c0.5-0.3,0.4-0.8-0.1-1.1l-5.8-3.4c-0.5-0.3-1.4-0.4-1.8-0.1l-5.9,3.4
			c-0.5,0.3-0.4,0.8,0.1,1.1l5.8,3.4C130.8,252.5,131.6,252.6,132.1,252.3z"/>
		<path class="st12" d="M123,257.5l5.9-3.4c0.5-0.3,0.4-0.8-0.1-1.1l-5.8-3.4c-0.5-0.3-1.4-0.4-1.8-0.1l-5.9,3.4
			c-0.5,0.3-0.4,0.8,0.1,1.1l5.8,3.4C121.7,257.8,122.5,257.8,123,257.5z"/>
		<path class="st12" d="M113.9,262.8l5.9-3.4c0.5-0.3,0.4-0.8-0.1-1.1l-5.8-3.4c-0.5-0.3-1.4-0.4-1.8-0.1l-5.9,3.4
			c-0.5,0.3-0.4,0.8,0.1,1.1l5.8,3.4C112.6,263,113.4,263.1,113.9,262.8z"/>
		<path class="st12" d="M200.7,202.4l5.9-3.4c0.5-0.3,0.4-0.8-0.1-1.1l-5.8-3.4c-0.5-0.3-1.4-0.4-1.8-0.1l-5.9,3.4
			c-0.5,0.3-0.4,0.8,0.1,1.1l5.8,3.4C199.4,202.7,200.3,202.7,200.7,202.4z"/>
		<path class="st12" d="M209.8,197.2l5.9-3.4c0.5-0.3,0.4-0.8-0.1-1.1l-5.8-3.4c-0.5-0.3-1.4-0.4-1.8-0.1l-5.9,3.4
			c-0.5,0.3-0.4,0.8,0.1,1.1l5.8,3.4C208.5,197.4,209.3,197.5,209.8,197.2z"/>
		<path class="st12" d="M218.9,191.9l5.9-3.4c0.5-0.3,0.4-0.8-0.1-1.1l-5.8-3.4c-0.5-0.3-1.4-0.4-1.8-0.1l-5.9,3.4
			c-0.5,0.3-0.4,0.8,0.1,1.1l5.8,3.4C217.6,192.2,218.4,192.2,218.9,191.9z"/>
		<path class="st12" d="M227.9,186.7l5.9-3.4c0.5-0.3,0.4-0.8-0.1-1.1l-5.8-3.4c-0.5-0.3-1.4-0.4-1.8-0.1l-5.9,3.4
			c-0.5,0.3-0.4,0.8,0.1,1.1l5.8,3.4C226.6,186.9,227.5,187,227.9,186.7z"/>
		<path class="st12" d="M218.6,181.3l5.9-3.4c0.5-0.3,0.4-0.8-0.1-1.1l-1.9-1.1c-0.5-0.3-1.4-0.4-1.8-0.1l-5.9,3.4
			c-0.5,0.3-0.4,0.8,0.1,1.1l1.9,1.1C217.3,181.6,218.1,181.6,218.6,181.3z"/>
		<path class="st12" d="M206.8,188.2l5.9-3.4c0.5-0.3,0.4-0.8-0.1-1.1l-1.9-1.1c-0.5-0.3-1.4-0.4-1.8-0.1l-5.9,3.4
			c-0.5,0.3-0.4,0.8,0.1,1.1l1.9,1.1C205.5,188.4,206.3,188.4,206.8,188.2z"/>
		<path class="st12" d="M197.7,193.4l5.9-3.4c0.5-0.3,0.4-0.8-0.1-1.1l-1.9-1.1c-0.5-0.3-1.4-0.4-1.8-0.1l-5.9,3.4
			c-0.5,0.3-0.4,0.8,0.1,1.1l1.9,1.1C196.4,193.6,197.3,193.6,197.7,193.4z"/>
		<path class="st12" d="M188.7,198.6l5.9-3.4c0.5-0.3,0.4-0.8-0.1-1.1l-1.9-1.1c-0.5-0.3-1.4-0.4-1.8-0.1l-5.9,3.4
			c-0.5,0.3-0.4,0.8,0.1,1.1l1.9,1.1C187.4,198.8,188.2,198.9,188.7,198.6z"/>
		<path class="st12" d="M179.7,203.8l5.9-3.4c0.5-0.3,0.4-0.8-0.1-1.1l-1.9-1.1c-0.5-0.3-1.4-0.4-1.8-0.1l-5.9,3.4
			c-0.5,0.3-0.4,0.8,0.1,1.1l1.9,1.1C178.4,204,179.2,204.1,179.7,203.8z"/>
		<path class="st12" d="M129.2,232.9l5.9-3.4c0.5-0.3,0.4-0.8-0.1-1.1l-1.9-1.1c-0.5-0.3-1.4-0.4-1.8-0.1l-5.9,3.4
			c-0.5,0.3-0.4,0.8,0.1,1.1l1.9,1.1C127.9,233.2,128.8,233.2,129.2,232.9z"/>
		<path class="st12" d="M120.2,238.1l5.9-3.4c0.5-0.3,0.4-0.8-0.1-1.1l-1.9-1.1c-0.5-0.3-1.4-0.4-1.8-0.1l-5.9,3.4
			c-0.5,0.3-0.4,0.8,0.1,1.1l1.9,1.1C118.9,238.4,119.7,238.4,120.2,238.1z"/>
		<path class="st12" d="M111.2,243.4l5.9-3.4c0.5-0.3,0.4-0.8-0.1-1.1l-1.9-1.1c-0.5-0.3-1.4-0.4-1.8-0.1l-5.9,3.4
			c-0.5,0.3-0.4,0.8,0.1,1.1l1.9,1.1C109.9,243.6,110.7,243.6,111.2,243.4z"/>
		<path class="st12" d="M102.1,248.6l5.9-3.4c0.5-0.3,0.4-0.8-0.1-1.1L106,243c-0.5-0.3-1.4-0.4-1.8-0.1l-5.9,3.4
			c-0.5,0.3-0.4,0.8,0.1,1.1l1.9,1.1C100.8,248.8,101.7,248.8,102.1,248.6z"/>
		<path class="st12" d="M191.6,207.7l5.9-3.4c0.5-0.3,0.4-0.8-0.1-1.1l-5.8-3.4c-0.5-0.3-1.4-0.4-1.8-0.1l-5.9,3.4
			c-0.5,0.3-0.4,0.8,0.1,1.1l5.8,3.4C190.3,207.9,191.1,208,191.6,207.7z"/>
		<path class="st12" d="M182.5,212.9l5.9-3.4c0.5-0.3,0.4-0.8-0.1-1.1l-5.8-3.4c-0.5-0.3-1.4-0.4-1.8-0.1l-5.9,3.4
			c-0.5,0.3-0.4,0.8,0.1,1.1l5.8,3.4C181.2,213.2,182,213.2,182.5,212.9z"/>
		<path class="st12" d="M173.4,218.2l5.9-3.4c0.5-0.3,0.4-0.8-0.1-1.1l-5.8-3.4c-0.5-0.3-1.4-0.4-1.8-0.1l-5.9,3.4
			c-0.5,0.3-0.4,0.8,0.1,1.1l5.8,3.4C172.1,218.4,172.9,218.5,173.4,218.2z"/>
		<path class="st12" d="M164.3,223.5l5.9-3.4c0.5-0.3,0.4-0.8-0.1-1.1l-5.8-3.4c-0.5-0.3-1.4-0.4-1.8-0.1l-5.9,3.4
			c-0.5,0.3-0.4,0.8,0.1,1.1l5.8,3.4C163,223.7,163.8,223.7,164.3,223.5z"/>
		<path class="st12" d="M155.1,228.7l5.9-3.4c0.5-0.3,0.4-0.8-0.1-1.1l-5.8-3.4c-0.5-0.3-1.4-0.4-1.8-0.1l-5.9,3.4
			c-0.5,0.3-0.4,0.8,0.1,1.1l5.8,3.4C153.8,229,154.7,229,155.1,228.7z"/>
		<path class="st12" d="M146,234l5.9-3.4c0.5-0.3,0.4-0.8-0.1-1.1l-5.8-3.4c-0.5-0.3-1.4-0.4-1.8-0.1l-5.9,3.4
			c-0.5,0.3-0.4,0.8,0.1,1.1l5.8,3.4C144.7,234.2,145.6,234.3,146,234z"/>
		<path class="st12" d="M136.9,239.3l5.9-3.4c0.5-0.3,0.4-0.8-0.1-1.1l-5.8-3.4c-0.5-0.3-1.4-0.4-1.8-0.1l-5.9,3.4
			c-0.5,0.3-0.4,0.8,0.1,1.1l5.8,3.4C135.6,239.5,136.4,239.5,136.9,239.3z"/>
		<path class="st12" d="M127.8,244.5l5.9-3.4c0.5-0.3,0.4-0.8-0.1-1.1l-5.8-3.4c-0.5-0.3-1.4-0.4-1.8-0.1L120,240
			c-0.5,0.3-0.4,0.8,0.1,1.1l5.8,3.4C126.5,244.8,127.3,244.8,127.8,244.5z"/>
		<path class="st12" d="M118.7,249.8l5.9-3.4c0.5-0.3,0.4-0.8-0.1-1.1l-5.8-3.4c-0.5-0.3-1.4-0.4-1.8-0.1l-5.9,3.4
			c-0.5,0.3-0.4,0.8,0.1,1.1l5.8,3.4C117.4,250,118.2,250.1,118.7,249.8z"/>
		<path class="st12" d="M243.7,208.3l17.4-10c0.5-0.3,0.4-0.8-0.1-1.1l-5.8-3.4c-0.5-0.3-1.4-0.4-1.8-0.1l-17.4,10
			c-0.5,0.3-0.4,0.8,0.1,1.1l5.8,3.4C242.4,208.6,243.3,208.6,243.7,208.3z"/>
		<path class="st12" d="M131.7,273l17.4-10c0.5-0.3,0.4-0.8-0.1-1.1l-5.8-3.4c-0.5-0.3-1.4-0.4-1.8-0.1l-17.4,10
			c-0.5,0.3-0.4,0.8,0.1,1.1l5.8,3.4C130.4,273.2,131.3,273.3,131.7,273z"/>
		<path class="st12" d="M168.2,263.6l5.9-3.4c0.5-0.3,0.4-0.8-0.1-1.1l-7-4c-0.5-0.3-1.4-0.4-1.8-0.1l-5.9,3.4
			c-0.5,0.3-0.4,0.8,0.1,1.1l7,4C166.9,263.8,167.7,263.8,168.2,263.6z"/>
		<path class="st12" d="M234.4,225.3l9.4-5.5c0.5-0.3,0.4-0.8-0.1-1.1l-7-4c-0.5-0.3-1.4-0.4-1.8-0.1l-9.4,5.5
			c-0.5,0.3-0.4,0.8,0.1,1.1l7,4C233.1,225.6,233.9,225.6,234.4,225.3z"/>
		<path class="st12" d="M177,258.5l9.4-5.5c0.5-0.3,0.4-0.8-0.1-1.1l-7-4c-0.5-0.3-1.4-0.4-1.8-0.1l-9.4,5.5
			c-0.5,0.3-0.4,0.8,0.1,1.1l7,4C175.7,258.7,176.5,258.8,177,258.5z"/>
		<path class="st12" d="M221.2,232.9l9.4-5.5c0.5-0.3,0.4-0.8-0.1-1.1l-7-4c-0.5-0.3-1.4-0.4-1.8-0.1l-9.4,5.5
			c-0.5,0.3-0.4,0.8,0.1,1.1l7,4C219.9,233.2,220.8,233.2,221.2,232.9z"/>
		<path class="st12" d="M221.7,222.4l-41,23.7c-0.5,0.3-0.5,0.8,0,1.1l7.1,4.1c0.5,0.3,1.3,0.3,1.8,0l41-23.7L221.7,222.4z"/>
		<path class="st12" d="M142.7,273.1l-6.6,3.8c-0.4,0.2-0.3,0.6,0.1,0.9l2.9,1.6c0.4,0.3,1.1,0.3,1.5,0.1l6.6-3.8
			c0.4-0.2,0.3-0.6-0.1-0.9l-2.9-1.6C143.8,272.9,143.1,272.9,142.7,273.1z"/>
		<path class="st12" d="M151.9,267.8l-6.6,3.8c-0.4,0.2-0.3,0.6,0.1,0.9l2.9,1.6c0.4,0.3,1.1,0.3,1.5,0.1l6.6-3.8
			c0.4-0.2,0.3-0.6-0.1-0.9l-2.9-1.6C153,267.6,152.3,267.6,151.9,267.8z"/>
		<path class="st12" d="M161,262.5l-6.6,3.8c-0.4,0.2-0.3,0.6,0.1,0.9l2.9,1.6c0.4,0.3,1.1,0.3,1.5,0.1l6.6-3.8
			c0.4-0.2,0.3-0.6-0.1-0.9l-2.9-1.6C162.1,262.3,161.4,262.3,161,262.5z"/>
		<path class="st12" d="M146.9,264.9l-6.6,3.8c-0.4,0.2-0.3,0.6,0.1,0.9l2.9,1.6c0.4,0.3,1.1,0.3,1.5,0.1l6.6-3.8
			c0.4-0.2,0.3-0.6-0.1-0.9l-2.9-1.6C147.9,264.7,147.3,264.7,146.9,264.9z"/>
	</g>
	<g>
		<polygon class="st11" points="110.9,162.2 160,133.8 159.3,130.7 110.2,159 		"/>
		<polygon class="st11" points="128.4,167.6 162.7,147.8 162.1,144.6 127.8,164.4 		"/>
		<polygon class="st6" points="131.7,157.9 161.3,140.8 160.7,137.6 131.1,154.7 		"/>
		<polygon class="st13" points="112.2,169.2 127.1,160.6 126.4,157.4 111.6,166 		"/>
		<polygon class="st11" points="165.2,106 180,97.4 179.4,94.2 164.6,102.8 		"/>
		<polygon class="st6" points="166.8,113.4 181.6,104.9 181,101.7 166.2,110.2 		"/>
		<polygon class="st11" points="94,216.3 108.9,207.8 108.2,204.6 93.4,213.1 		"/>
		<polygon class="st11" points="170,128.3 184.9,119.7 184.2,116.5 169.4,125.1 		"/>
	</g>
	<g>
		<path class="st13" d="M138,130.5c0.5,1,1.7,1.4,2.7,0.8c1-0.6,1.4-1.9,1-2.9c-0.5-1-1.7-1.4-2.7-0.8
			C137.9,128.2,137.5,129.5,138,130.5z"/>
		<path class="st6" d="M131.6,134.2c0.5,1,1.7,1.4,2.7,0.8c1-0.6,1.4-1.9,1-2.9c-0.5-1-1.7-1.4-2.7-0.8
			C131.6,131.9,131.1,133.2,131.6,134.2z"/>
		<path class="st11" d="M125.2,137.9c0.5,1,1.7,1.4,2.7,0.8c1-0.6,1.4-1.9,1-2.9s-1.7-1.4-2.7-0.8
			C125.2,135.6,124.7,136.9,125.2,137.9z"/>
		<path class="st13" d="M118.8,141.6c0.5,1,1.7,1.4,2.7,0.8c1-0.6,1.4-1.9,1-2.9c-0.5-1-1.7-1.4-2.7-0.8
			C118.8,139.3,118.4,140.6,118.8,141.6z"/>
	</g>
</g>
<g>
	<path class="st0" d="M54.3,345.4c2-1.1,5.2-1.1,7.2,0l92.7,53.6c2,1.1,2,3,0,4.2c-2,1.1-5.2,1.1-7.2,0l-92.7-53.6
		C52.4,348.4,52.4,346.5,54.3,345.4z"/>
	<g>
		<g>
			<path class="st11" d="M38.5,316.4L38.5,316.4c0.1-0.2,0.3-0.2,0.4-0.2l5.6,1.2l-2.2,3.8l-3.8-4.3
				C38.4,316.7,38.4,316.5,38.5,316.4z"/>
			<g>
				<path class="st12" d="M40.7,319.1c0-0.8,0.6-1.8,1.3-2.2c0.3-0.2,0.6-0.2,0.8-0.1c6.5-0.1,12.9,1.7,18.4,4.9l0.4,0.2l-7,11.9
					l-2.1-1.4c-4.4-2.9-8-6.7-10.8-11.1l-0.9-1.4C40.8,319.8,40.7,319.5,40.7,319.1z"/>
				<path class="st11" d="M53.3,330.7c0-3.1,2.2-6.9,4.9-8.4c2.7-1.5,4.9-0.3,4.8,2.8c0,3.1-2.2,6.9-4.9,8.4
					C55.5,335.1,53.3,333.8,53.3,330.7z"/>
				<polygon class="st11" points="96.1,359.6 54.7,333.9 61.7,322 104.3,345.6 				"/>
				<path class="st11" d="M94.4,355.9c0-3.7,2.6-8.1,5.8-9.9c3.2-1.8,5.7-0.3,5.7,3.4c0,3.7-2.6,8.1-5.8,9.9
					C97,361.1,94.4,359.6,94.4,355.9z"/>
			</g>
			<g>
				<path class="st11" d="M96.8,357.3c0-3.7,2.6-8.1,5.8-9.9c3.2-1.8,5.7-0.3,5.7,3.4c0,3.7-2.6,8.1-5.8,9.9
					C99.3,362.5,96.8,361,96.8,357.3z"/>
				
					<rect x="121.8" y="338.4" transform="matrix(0.5067 -0.8621 0.8621 0.5067 -254.9814 294.5499)" class="st11" width="16.2" height="63.5"/>
				<path class="st11" d="M151.5,389.4c0-3.7,2.6-8.1,5.8-9.9c3.2-1.8,5.7-0.3,5.7,3.4c0,3.7-2.6,8.1-5.8,9.9
					C154,394.6,151.5,393.1,151.5,389.4z"/>
				<path class="st9" d="M153.6,388.3c0.1-2.2,1.9-4.9,3.9-6c2-1.2,3.6-0.3,3.5,1.8c-0.1,2.2-1.9,4.9-3.9,6
					C155,391.3,153.4,390.4,153.6,388.3z"/>
			</g>
			<g>
				<path class="st6" d="M94,355.7c0-3.7,2.6-8.1,5.8-9.9c1.3-0.7,2.5-0.9,3.4-0.6c-1-1.1-2.7-1.2-4.7-0.1c-3.2,1.8-5.8,6.2-5.8,9.9
					c0,2.2,0.9,3.6,2.3,4C94.4,358.2,94,357.1,94,355.7z"/>
				<path class="st12" d="M94,355.7c0-3.7,2.6-8.1,5.8-9.9c1.6-0.9,3-1,4.1-0.4l3.1,1.8l-1.5,2.5c-0.3,3.3-2.5,7.1-5.3,9l-1.5,2.5
					l-3.1-1.8l0,0C94.6,358.8,94,357.5,94,355.7z"/>
				<path class="st11" d="M97.1,357.5c0-3.7,2.6-8.1,5.8-9.9c3.2-1.8,5.7-0.3,5.7,3.4c0,3.7-2.6,8.1-5.8,9.9
					C99.6,362.6,97.1,361.1,97.1,357.5z"/>
			</g>
			<g>
				<path class="st13" d="M156.1,389.9l3.6-6l11.6,6.8c1.7,1,2.2,3.1,1.2,4.8l0,0c-1,1.7-3.1,2.2-4.8,1.2L156.1,389.9z"/>
				<path class="st13" d="M155.4,388.3c0-1.6,1.1-3.5,2.5-4.3c1.4-0.8,2.5-0.1,2.5,1.5c0,1.6-1.1,3.5-2.5,4.3
					C156.5,390.5,155.4,389.9,155.4,388.3z"/>
			</g>
			<g>
				<path class="st12" d="M142.5,367l1.7-1c1-0.6,2.3-0.4,3.7,0.4l6,3.5c1.1,0.7,2,2.3,2,3.6l0,3c0,0.5,0.2,1.1,0.6,1.5l-0.2,1.4
					l1.5-0.9l0,0c0.2-0.1,0.4-0.4,0.4-0.7l0-3c0-2.7-1.9-6.1-4.2-7.4l-6-3.5c-2-1.2-3.9-1.4-5.3-0.6l-1.7,1c-1,0.6-2.3,0.4-3.7-0.4
					l-24-14.1c-0.3-0.2-0.6-0.2-0.8-0.1l0,0l-1.5,0.8l1.3,0.5c0.2,0.5,0.5,1.1,1,1.3l24,14.1C139.2,367.6,141.1,367.8,142.5,367z"/>
				<path class="st12" d="M142.8,366.8c1-0.6,2.3-0.4,3.7,0.4l6,3.5c1.1,0.7,2,2.3,2,3.6l0,3c0,0.7,0.5,1.6,1.1,1.9
					c0.6,0.4,1.1,0.1,1.1-0.6l0-3c0-2.7-1.9-6.1-4.2-7.4l-6-3.5c-2-1.2-3.9-1.4-5.3-0.6l-1.7,1c-1,0.6-2.3,0.4-3.7-0.4l-24-14.1
					c-0.6-0.4-1.1-0.1-1.1,0.6c0,0.7,0.5,1.6,1.1,1.9l24,14.1c2,1.2,3.9,1.4,5.3,0.6L142.8,366.8z"/>
				<g>
					<path class="st6" d="M154.5,374.8l0,3c0,0,0,0,0,0.1c-0.1-0.2-0.1-0.4-0.1-0.6l0-3c0-0.1,0-0.2,0-0.3
						C154.5,374.3,154.5,374.6,154.5,374.8z"/>
				</g>
			</g>
		</g>
	</g>
</g>
<g>
	<path class="st0" d="M374.7,336.3c-0.3,1-0.8,2.1-1.4,3.1c7.6,6.4,6.5,15.2-3.4,20.9c-11.1,6.4-29.2,6.4-40.3,0
		c-8.2-4.7-10.4-11.7-6.5-17.5c-1.1-1-2-2-2.8-3c-7.1,6.9-6.3,15.7,2.4,22.2l-9.2,5.4c-3.5-1.2-7.8-1.2-10.4,0.4l-33.6,19.4
		c-3.2,1.8-2.8,5,0.9,7.2c3.7,2.1,9.2,2.3,12.4,0.5l33.6-19.4c2.4-1.4,2.8-3.6,1.2-5.5l9.3-5.5c13.5,7.1,34.2,6.9,47.2-0.6
		C387.1,356.3,387.4,344.1,374.7,336.3z"/>
	<g>
		<g>
			<path class="st14" d="M371,318.8c-12.1-7-31.8-7-44,0c-5,2.9-8,6.6-8.8,10.3c0.8,3.3,3.1,6.6,7.1,9.3c1-0.8,2.1-1.6,3.4-2.3
				c12.1-7,31.8-7,44,0c0.6,0.3,1.2,0.7,1.7,1.1c3-2.4,4.8-5.2,5.4-8C378.9,325.4,376,321.8,371,318.8z"/>
			<path class="st15" d="M317.4,334.8l4.7-6.2l14.4-6.7l12.4-1.1l14.5,1.8l10.1,5.2l6.4,4.1l1.2-6.7l-2.2-7.7c0,0-5.5-3.6-5.8-4
				c-0.3-0.3-12.9-4.8-12.9-4.8l-12.5-0.8l-10.1,1.3l-10.3,3l-6.8,4.7l-5.1,6.4l-0.6,8L317.4,334.8z"/>
			<polygon class="st16" points="384.7,326.8 384.7,339.9 381.2,334.2 			"/>
			<path class="st17" d="M327,327.5c12.1-7,31.8-7,44,0c3.8,2.2,6.4,4.8,7.9,7.6c1.1-1,2.4-1.7,3-3c-1.7-2.4-4.3-4.6-7.6-6.5
				c-13.9-8-36.5-8-50.5,0c-3.1,1.8-5.4,3.8-7.1,5.9c0.6,1.3,1.4,2.6,2.5,3.6C320.6,332.4,323.2,329.7,327,327.5z"/>
			<path class="st14" d="M371,318.8c-12.1-7-31.8-7-44,0c-5,2.9-8,6.6-8.8,10.3c0.9,3.8,3.8,7.4,8.8,10.3c12.1,7,31.8,7,44,0
				c5-2.9,8-6.6,8.8-10.3C378.9,325.4,376,321.8,371,318.8z"/>
			<path class="st18" d="M381.8,332.2c-0.2,0.5-0.6,1-1.1,1.4l0-0.1l-3.2,1.9l-4,3.7l-5.5,2.4l-7.6,2.7l-6.7,1.6l-9.3,0.4l-6-0.6
				l-11.9-3.1l-7.7-6.8c0.1-0.1,0.1-0.3,0.2-0.4c-1.1-1-2-2.3-2.5-3.6c-0.2,0.3-0.4,0.5-0.6,0.8l-2.7-5.6v13.5l0,0
				c0,5.3,3.5,10.6,10.4,14.6c13.9,8,36.5,8,50.5,0C384.8,348.7,387.4,339.7,381.8,332.2z"/>
			<path class="st19" d="M321.8,338l-2.8-2.5c0.1-0.1,0.1-0.3,0.2-0.4c-1.1-1-2-2.3-2.5-3.6c-0.2,0.3-0.4,0.5-0.6,0.8l-2.7-5.6v13.5
				l0,0c0,4.7,2.8,9.5,8.5,13.3V338z"/>
			<path class="st20" d="M374.2,312.3c-13.9-8-36.5-8-50.5,0c-13.9,8-13.9,21.1,0,29.1c13.9,8,36.5,8,50.5,0
				C388.2,333.4,388.2,320.3,374.2,312.3z M371,339.5c-12.1,7-31.8,7-44,0c-12.1-7-12.1-18.4,0-25.4c12.1-7,31.8-7,44,0
				C383.1,321.2,383.1,332.5,371,339.5z"/>
			<g>
				<g>
					<polygon class="st11" points="300.4,356.2 320.2,344.7 322.8,348.9 302.9,360.5 					"/>
					<path class="st21" d="M303.5,359.4c0,1.1-0.8,1.6-1.8,1c-1-0.6-1.8-1.9-1.8-3.1c0-1.1,0.8-1.6,1.8-1
						C302.7,356.9,303.5,358.2,303.5,359.4z"/>
					<path class="st21" d="M303.5,359.4c0,1.1-0.8,1.6-1.8,1c-1-0.6-1.8-1.9-1.8-3.1c0-1.1,0.8-1.6,1.8-1
						C302.7,356.9,303.5,358.2,303.5,359.4z"/>
					<path class="st11" d="M323.2,347.9c0,1.1-0.8,1.6-1.8,1s-1.8-1.9-1.8-3.1c0-1.1,0.8-1.6,1.8-1S323.2,346.7,323.2,347.9z"/>
				</g>
				<path class="st12" d="M313.2,360.2c0-4.9-3.4-10.8-7.6-13.2c-2.2-1.2-4.1-1.3-5.5-0.5l0,0l-41.8,24.3l10.9,18.6l41.4-24.1
					c0.3-0.1,0.6-0.3,0.8-0.5l0,0l0,0C312.5,364,313.2,362.4,313.2,360.2z"/>
				<path class="st11" d="M261.3,376l46.8-27c-0.8-0.8-1.6-1.4-2.5-2c-2.2-1.2-4.1-1.3-5.5-0.5l0,0l-41.8,24.3L261.3,376z"/>
				<g>
					<path class="st11" d="M271.3,384.5c0,4.9-3.4,6.8-7.6,4.4c-4.2-2.4-7.6-8.3-7.6-13.2c0-4.9,3.4-6.8,7.6-4.4
						S271.3,379.7,271.3,384.5z"/>
					<path class="st12" d="M265.1,382.3c0,2.7-2.2,5-5,5c-2.7,0-5-2.2-5-5c0-2.7,2.2-5,5-5C262.9,377.3,265.1,379.5,265.1,382.3z"/>
					<circle class="st6" cx="257.8" cy="380.4" r="1.5"/>
				</g>
				<path class="st6" d="M264.3,371c-2.3-1.3-4.3-1.3-5.7-0.3c1.4-0.6,3.1-0.5,5.1,0.7c4.2,2.4,7.6,8.3,7.6,13.2
					c0,2.3-0.7,3.9-2,4.7c1.5-0.7,2.5-2.5,2.5-5.1C271.9,379.3,268.5,373.4,264.3,371z"/>
			</g>
			<g>
				<path class="st6" d="M371,314.2c-12.1-7-31.8-7-44,0c-6.3,3.6-9.3,8.5-9.1,13.3c0.2-4.4,3.3-8.8,9.1-12.1c12.1-7,31.8-7,44,0
					c5.8,3.4,8.8,7.7,9.1,12.1C380.3,322.6,377.3,317.8,371,314.2z"/>
				<path class="st6" d="M374.2,341.4c-13.9,8-36.5,8-50.5,0c-6.7-3.9-10.2-8.9-10.4-14c-0.3,5.5,3.2,11,10.4,15.1
					c13.9,8,36.5,8,50.5,0c7.2-4.2,10.7-9.7,10.4-15.1C384.4,332.5,380.9,337.5,374.2,341.4z"/>
			</g>
		</g>
	</g>
</g>
<g>
	<g>
		<g>
			<path class="st22" d="M255.5,314.3c0,0,3.7-1.9,6.1,0.9c2.3,2.8,5.6,9.5,5.7,14c0.1,4.5-3.6,4.2-5.7,3.1
				c-2.2-1.1-8.5-10.3-8.9-12.1c-0.4-1.8,0.5-4.2,1.1-4.7C254.3,315,255.5,314.3,255.5,314.3z"/>
			<path class="st11" d="M254.6,313.4l-0.2,3.9c0,0.8,0.4,1.6,1.1,2c0.7,0.4,1.6,0.7,2.9,0.4c2.8-0.5,3.1-1.3,3.3-5.1
				C261.9,310.7,254.6,313.4,254.6,313.4z"/>
			<g>
				<path class="st22" d="M269.2,306.8c0,0,3.7-1.9,6.1,0.9c2.3,2.8,5.6,9.5,5.7,14c0.1,4.5-3.6,4.2-5.7,3.1s-8.5-10.3-8.9-12.1
					c-0.4-1.8,0.5-4.2,1.1-4.7C268,307.6,269.2,306.8,269.2,306.8z"/>
				<path class="st11" d="M268.4,305.9l-0.2,3.9c0,0.8,0.4,1.6,1.1,2c0.7,0.4,1.6,0.7,2.9,0.4c2.8-0.5,3.1-1.3,3.3-5.1
					C275.7,303.3,268.4,305.9,268.4,305.9z"/>
				<path class="st8" d="M234.9,234.6c1.1-18.1,19.6,2.7,19.6,2.7l12.6,12.4l11.4,12.5c2.2,2.4,3.3,5.7,2.8,9l-4.6,35
					c-0.2,1.7-1.7,3-3.5,3c-0.5,0-1.1,0-1.7-0.1c-4.1-0.6-3.8-4.5-3.8-4.5l0.8-32.8l-23.9-14.4C244.7,257.3,233.8,252.7,234.9,234.6
					z"/>
			</g>
			<path class="st8" d="M221.2,241.5c1.1-18.1,19.6,2.7,19.6,2.7l12.6,12.4l11.4,12.5c2.2,2.4,3.3,5.7,2.8,9l-4.6,35
				c-0.2,1.7-1.7,3-3.5,3c-0.5,0-1.1,0-1.7-0.1c-4.1-0.6-3.8-4.5-3.8-4.5l0.8-31.8L231,264.2C231,264.2,220.1,259.6,221.2,241.5z"/>
			<path class="st23" d="M232.1,183.5c-14,5.8-13.7,14.1-13.7,14.1s2.7,30.3,1.8,50.5c-0.4,8.5,45,9.1,38.2-13.5
				c-8-26.6-5-48.2-8.7-51.4C245.9,180,235.7,182,232.1,183.5z"/>
			<path class="st24" d="M227.6,190.9c0.7,2.8,4.5,4.3,8.3,3.3c3.9-1,6.4-4.1,5.7-6.9c-0.7-2.8-4.5-4.3-8.3-3.3
				C229.4,184.9,226.9,188,227.6,190.9z"/>
			<path class="st6" d="M233.2,194.3l2.6,2.8c0.3,0.4,0.5,0.9,0.4,1.3l-1.8,15.3c0,0.4,0.1,0.9,0.3,1.2l5.5,7.2
				c0.2,0.3,0.8,0.2,0.9-0.2l3-9.5c0.1-0.4,0.1-0.7,0-1.1l-5.3-13.9c-0.1-0.3-0.1-0.6-0.1-1l0.8-3.7L233.2,194.3z"/>
			<path class="st6" d="M230.3,194.6c-1.8-0.7-3-2-3.4-3.6c-0.8-3.2,1.9-6.7,6.1-7.8c4.2-1.1,8.3,0.6,9.1,3.8c0.4,1.6,0,3.3-1.2,4.8
				c-1.2,1.4-2.9,2.5-4.9,3c-0.9,0.2-1.7,0.3-2.6,0.3C232.4,195.2,231.3,195,230.3,194.6z M233.4,184.6c-3.5,0.9-5.8,3.6-5.2,6.1
				l0,0c0.3,1.2,1.2,2.1,2.6,2.7c1.4,0.6,3.2,0.7,4.9,0.2c1.7-0.4,3.2-1.4,4.2-2.6c0.9-1.1,1.3-2.4,1-3.6c-0.5-1.9-2.7-3.1-5.3-3.1
				C234.9,184.3,234.2,184.4,233.4,184.6z"/>
			<path class="st24" d="M237.7,182.9c0,0-0.1,0.6,0.1,5c0.1,1.4-4.8,2.7-6.1,1.4c-1.3-1.3-0.8-2.6-1.1-7.3
				C230.4,177.3,237.7,182.9,237.7,182.9z"/>
			<path class="st25" d="M230.7,182c0,0,1.2,4.4,7.1,6.1l-0.1-4L230.7,182z"/>
			
				<ellipse transform="matrix(0.9685 -0.2488 0.2488 0.9685 -35.7143 64.5229)" class="st24" cx="237.4" cy="173.5" rx="10.8" ry="10.8"/>
			<path class="st25" d="M234.9,173.9c0,0,5.9,2.5,10,2.6c4.1,0,3.2-3.4,3.2-3.4l-12.2-1.8L234.9,173.9z"/>
			<path class="st11" d="M246.2,174.6c0,0-5.2-2.2-9.7-1.3c-1.1,0.2-2.1,0.8-2.7,1.6c-0.2,0.3-0.5,0.5-0.8,0.6
				c-0.8,0.2-2.1-3.2-3.7-3.2c-1.6-0.1-2.6,1-1.3,3.1c1.3,2,0.8,4.3,0.3,4.7c-0.6,0.3-7.9-4.8-2.4-15.7c5.5-10.9,20.6-4.7,22.7-2.5
				c0,0,2.3,2,4.2,0.2C252.7,162.1,254.8,177.8,246.2,174.6z"/>
			<path class="st24" d="M226.2,219.7v8.2c0,0.9,0.4,1.8,1.1,2.5l16.8,15.3l-1.9,2.9l-23.2-15.2c-1-0.8-1.7-1.9-1.8-3.2l-1.6-15.2
				L226.2,219.7z"/>
			<path class="st23" d="M219.6,193.5c0,0-5.1,7.7-7,27.9c0,0,8.7,2.8,13.7,1.2C231.2,221,219.6,193.5,219.6,193.5z"/>
			<path class="st26" d="M227.2,203.2c0,0,2,10.7,2.1,15.7c0,1.4-0.8,2.6-2.1,3.1l0,0V203.2z"/>
		</g>
		<g>
			<path class="st12" d="M231.5,256.4l3.7-0.5l24-13.9c0.8-0.4,2.1-0.4,3,0.1l17,9.8l2.2-0.3v2.2l0,0c0,0.3-0.2,0.6-0.5,0.8
				l-27.2,15.7c-0.8,0.4-2.1,0.4-3-0.1l-18.5-10.7c-0.5-0.3-0.7-0.7-0.7-1l0,0V256.4z"/>
			<path class="st9" d="M249.6,247.6l1.7-1H270l9.2,5.3l2.2-0.3v2.2l0,0c0,0.3-0.2,0.6-0.5,0.8l-27.2,15.7c-0.4,0.2-1,0.3-1.5,0.3
				L249.6,247.6z"/>
			<path class="st12" d="M280.5,251.8l1-0.1v2.2l0,0c0,0.3-0.2,0.6-0.5,0.8l-0.5,0.3V251.8z"/>
			<path class="st12" d="M253.5,270.5c-0.7,0.3-1.8,0.2-2.6-0.2v-3.8h2.6V270.5z"/>
			<path class="st6" d="M253.8,268.2l27.2-15.7c0.8-0.4,0.7-1.2-0.2-1.7L262.3,240c-0.9-0.5-2.2-0.6-3-0.1l-27.2,15.7
				c-0.8,0.4-0.7,1.2,0.2,1.7l18.5,10.7C251.7,268.6,253,268.6,253.8,268.2z"/>
			<path class="st11" d="M254.3,265.8l22.6-13.1c0.6-0.4,0.6-1-0.2-1.4l-9.9-5.6c-0.7-0.4-1.9-0.5-2.5-0.1l-22.6,13.1
				c-0.6,0.4-0.6,1,0.2,1.4l9.9,5.6C252.5,266.1,253.6,266.2,254.3,265.8z"/>
		</g>
		<path class="st24" d="M261.2,239.5l0.3,1.9c0.2,1.6,0.2,3.2-0.1,4.8l-0.3,1.7c-0.2,0.9-0.9,1.7-1.9,1.8l0,0
			c-0.7,0.1-1.4-0.4-1.5-1.1l-0.4-4c0,0-1,1.3-1.5,1.3c-0.5,0,0.6-4,1.7-6.3C258.5,237.3,261.2,239.5,261.2,239.5z"/>
		<path class="st24" d="M252,209.7l2.9,5.8c0.7,1.4,1.1,2.9,1.2,4.4l1.3,19.8l3.8-0.1l1.7-22.2c0.1-0.7,0-1.4-0.1-2.1l-2-11.3
			L252,209.7z"/>
		<g>
			<path class="st8" d="M254.7,269.7l2.3-3l24-13.9c0.8-0.4,1.4-1.6,1.4-2.7l0-19.6l1.4-1.8l-1.3-0.8l0,0c-0.2-0.2-0.6-0.2-0.9,0.1
				l-27.2,15.7c-0.8,0.4-1.4,1.6-1.4,2.7l0,21.4c0,0.6,0.2,1,0.5,1.1l0,0L254.7,269.7z"/>
			<path class="st9" d="M271.3,258.4l1.7-1l9.4-16.2l0-10.7l1.4-1.8l-1.3-0.8l0,0c-0.2-0.2-0.6-0.2-0.9,0.1l-27.2,15.7
				c-0.4,0.2-0.8,0.7-1,1.2L271.3,258.4z"/>
			<path class="st12" d="M283.1,229.5l0.6-0.8l-1.3-0.8l0,0c-0.2-0.2-0.6-0.2-0.9,0.1l-0.5,0.3L283.1,229.5z"/>
			<path class="st10" d="M254.1,243.9c-0.6,0.5-1.1,1.4-1.1,2.3l2.7,1.5l1.3-2.2L254.1,243.9z"/>
			<path class="st12" d="M255.6,244.5l27.2-15.7c0.8-0.4,1.4,0,1.4,1.1l0,21.4c0,1-0.6,2.2-1.4,2.7l-27.2,15.7
				c-0.8,0.4-1.4,0-1.4-1.1l0-21.4C254.2,246.1,254.8,244.9,255.6,244.5z"/>
		</g>
		<path class="st24" d="M242.2,248.6l0.4,0.9c0.5,1,1.3,1.9,2.3,2.5l2.7,1.7c0.8,0.5,1.9,0.6,2.8,0.1c0,0,0.1,0,0.1-0.1
			c0.9-0.5,0.9-1.8,0.2-2.5l-2.8-2.9c0,0,1.6,1.2,2,0.7c0.3-0.4-1.5-2.1-3-2.2c-1.4-0.1-2.8-1.2-2.8-1.2L242.2,248.6z"/>
		<path class="st23" d="M249.4,183.2c0,0,10.3,11.3,14.5,21.6c0,0-3.5,6.4-12.2,8.9C243.1,216.2,249.4,183.2,249.4,183.2z"/>
		<path class="st27" d="M253.7,213l-1.7-16.2l4,15.2C255.2,212.3,254.5,212.7,253.7,213z"/>
		<path class="st6" d="M241.6,180.9l2.8-0.8c0,0-1.3,2.1-3.3,2.6c-1.9,0.5-2.2-1.1-2.2-1.1L241.6,180.9z"/>
	</g>
	<circle class="st6" cx="228.4" cy="176.5" r="1.5"/>
</g>
<g>
	<g>
		<path class="st0" d="M378.2,280.6c8.8,5.1,23.2,5.1,32,0c8.9-5.1,8.9-13.4,0-18.5c-8.8-5.1-23.2-5.1-32,0
			C369.4,267.2,369.4,275.5,378.2,280.6z"/>
		<path class="st28" d="M368.4,260.2v-7.2h1.4c1.2-2.1,3.3-4.1,6.2-5.8c10.1-5.8,26.4-5.8,36.5,0c2.9,1.7,5,3.7,6.2,5.8h1.4v7.2h0
			c0,3.8-2.5,7.6-7.5,10.6c-10.1,5.8-26.4,5.8-36.5,0C371,267.8,368.4,264,368.4,260.2z"/>
		<path class="st29" d="M376,263.5c10.1,5.8,26.4,5.8,36.5,0c10.1-5.8,10.1-15.2,0-21.1c-10.1-5.8-26.4-5.8-36.5,0
			C365.9,248.2,365.9,257.7,376,263.5z"/>
		<path class="st6" d="M376,263.5c10.1,5.8,26.4,5.8,36.5,0c4.8-2.8,7.3-6.4,7.5-10.1c0.2,4-2.3,8-7.5,11c-10.1,5.8-26.4,5.8-36.5,0
			c-5.2-3-7.7-7-7.5-11C368.7,257.1,371.2,260.7,376,263.5z"/>
	</g>
	<g>
		<path class="st6" d="M406.7,257.9c0.4-0.3,0.7-0.6,0.7-0.9l0-9.7c0-0.7-1-1.3-2.3-1.3c-1.3,0-2.3,0.6-2.3,1.3l0,8l-23.3-2.9
			c-1.3-0.2-2.5,0.3-2.8,1c-0.3,0.7,0.5,1.4,1.8,1.6l26.1,3.2c0.7,0.1,1.4,0,1.9-0.3C406.5,257.9,406.6,257.9,406.7,257.9z"/>
	</g>
</g>
<g>
	<g>
		<path class="st30" d="M226,108.7l38.5-22.2c0.8-0.4,1.5-0.5,2.2-0.2c0,0,0,0,0,0l4.6,2.2c0,0-1.7,0.6-2.7,1l5.6,28
			c0.5,2.3-0.6,4.9-2.3,5.9L235,144.6l0.7,3.3l-4.6-2.2l0,0c-0.8-0.4-1.4-1.2-1.7-2.5l-5.7-28.6C223.2,112.4,224.3,109.7,226,108.7z
			"/>
		<path class="st31" d="M238,147.8l38.5-22.2c1.7-1,2.7-3.6,2.3-5.9L273,91.1c-0.5-2.3-2.2-3.3-3.9-2.3l-38.5,22.2
			c-1.7,1-2.7,3.6-2.3,5.9l5.7,28.6C234.5,147.7,236.2,148.8,238,147.8z"/>
		<path class="st6" d="M229.8,110.6l38.5-22.2c0.9-0.5,1.8-0.5,2.5,0c-0.5-0.1-1.1,0-1.7,0.3l-38.5,22.2c-1.7,1-2.7,3.6-2.3,5.9
			l5.7,28.6c0.2,1.1,0.7,1.9,1.4,2.3c-1.1-0.2-2-1.1-2.3-2.7l-5.7-28.6C227,114.2,228.1,111.6,229.8,110.6z"/>
	</g>
	<g>
		<path class="st6" d="M260.1,115.7c0.3,1.7,1.8,2.3,3.2,1.5c1.4-0.8,2.3-2.8,2-4.5c-0.3-1.7-1.8-2.3-3.2-1.5
			C260.6,112.1,259.7,114.1,260.1,115.7z"/>
		<path class="st6" d="M252.2,120.3c0.3,1.7,1.8,2.3,3.2,1.5c1.4-0.8,2.3-2.8,2-4.5c-0.3-1.7-1.8-2.3-3.2-1.5
			C252.8,116.6,251.9,118.6,252.2,120.3z"/>
		<path class="st6" d="M244.3,124.8c0.3,1.7,1.8,2.3,3.2,1.5c1.4-0.8,2.3-2.8,2-4.5c-0.3-1.7-1.8-2.3-3.2-1.5
			C244.9,121.1,244,123.2,244.3,124.8z"/>
	</g>
</g>
<g>
	<g>
		<path class="st12" d="M75.9,61.5l38.5-22.2c0.8-0.4,1.5-0.5,2.2-0.2c0,0,0,0,0,0l4.6,2.2c0,0-1.7,0.6-2.7,1l5.6,28
			c0.5,2.3-0.6,4.9-2.3,5.9L84.9,97.4l0.7,3.3l-4.6-2.2l0,0c-0.8-0.4-1.4-1.2-1.7-2.5l-5.7-28.6C73.2,65.2,74.2,62.5,75.9,61.5z"/>
		<path class="st11" d="M87.9,100.6l38.5-22.2c1.7-1,2.7-3.6,2.3-5.9L123,43.9c-0.5-2.3-2.2-3.3-3.9-2.3L80.6,63.7
			c-1.7,1-2.7,3.6-2.3,5.9L84,98.2C84.4,100.5,86.2,101.6,87.9,100.6z"/>
		<path class="st6" d="M79.7,63.4l38.5-22.2c0.9-0.5,1.8-0.5,2.5,0c-0.5-0.1-1.1,0-1.7,0.3L80.6,63.7c-1.7,1-2.7,3.6-2.3,5.9
			L84,98.2c0.2,1.1,0.7,1.9,1.4,2.3c-1.1-0.2-2-1.1-2.3-2.7l-5.7-28.6C77,67,78,64.4,79.7,63.4z"/>
	</g>
	<g>
		<path class="st6" d="M110,68.5c0.3,1.7,1.8,2.3,3.2,1.5c1.4-0.8,2.3-2.8,2-4.5c-0.3-1.7-1.8-2.3-3.2-1.5
			C110.5,64.9,109.7,66.9,110,68.5z"/>
		<path class="st6" d="M102.1,73.1c0.3,1.7,1.8,2.3,3.2,1.5c1.4-0.8,2.3-2.8,2-4.5c-0.3-1.7-1.8-2.3-3.2-1.5
			C102.7,69.4,101.8,71.4,102.1,73.1z"/>
		<path class="st6" d="M94.2,77.6c0.3,1.7,1.8,2.3,3.2,1.5c1.4-0.8,2.3-2.8,2-4.5c-0.3-1.7-1.8-2.3-3.2-1.5
			C94.8,73.9,93.9,75.9,94.2,77.6z"/>
	</g>
</g>
</svg>
