<svg width="15" height="15" viewBox="0 0 15 15" fill="none" xmlns="http://www.w3.org/2000/svg">
<path d="M7.5 0C6.01664 0 4.56659 0.439867 3.33323 1.26398C2.09986 2.08809 1.13856 3.25943 0.570907 4.62987C0.0032497 6.00032 -0.145275 7.50832 0.144114 8.96317C0.433503 10.418 1.14781 11.7544 2.1967 12.8033C3.2456 13.8522 4.58197 14.5665 6.03682 14.8559C7.49168 15.1453 8.99968 14.9967 10.3701 14.4291C11.7406 13.8614 12.9119 12.9001 13.736 11.6668C14.5601 10.4334 15 8.98336 15 7.5C15 5.51087 14.2098 3.60322 12.8033 2.1967C11.3968 0.790176 9.48913 0 7.5 0ZM7.5 14C6.21442 14 4.95772 13.6188 3.8888 12.9045C2.81988 12.1903 1.98676 11.1752 1.49479 9.98744C1.00282 8.79972 0.874095 7.49279 1.1249 6.23191C1.3757 4.97104 1.99477 3.81285 2.90381 2.90381C3.81285 1.99476 4.97104 1.3757 6.23191 1.1249C7.49279 0.874092 8.79972 1.00281 9.98744 1.49478C11.1752 1.98675 12.1903 2.81987 12.9046 3.88879C13.6188 4.95771 14 6.21442 14 7.5C14 9.2239 13.3152 10.8772 12.0962 12.0962C10.8772 13.3152 9.22391 14 7.5 14Z" fill="#515151"/>
<path d="M10.6247 4.66501L6.52971 9.25001L4.37472 6.83501C4.28653 6.73555 4.16245 6.6752 4.02977 6.66723C3.89709 6.65926 3.76667 6.70432 3.66722 6.79251C3.56776 6.88069 3.50741 7.00477 3.49944 7.13746C3.49147 7.27014 3.53653 7.40055 3.62472 7.50001L6.15971 10.335C6.20661 10.3874 6.26403 10.4293 6.32821 10.458C6.3924 10.4866 6.46191 10.5015 6.53221 10.5015C6.60252 10.5015 6.67203 10.4866 6.73622 10.458C6.8004 10.4293 6.85782 10.3874 6.90471 10.335L11.3747 5.33501C11.4636 5.23555 11.5093 5.10487 11.5018 4.97172C11.4943 4.83857 11.4342 4.71386 11.3347 4.62501C11.2353 4.53616 11.1046 4.49046 10.9714 4.49796C10.8383 4.50546 10.7136 4.56555 10.6247 4.66501Z" fill="#515151"/>
</svg>
