<svg width="53" height="53" viewBox="0 0 53 53" fill="none" xmlns="http://www.w3.org/2000/svg">
<circle cx="26.5" cy="26.5" r="26.5" fill="#D5C95D"/>
<path d="M22.5254 30.7563L22.0457 32.5174H23.0051L22.5254 30.7563Z" fill="white"/>
<path d="M30.8637 18.8809C30.4588 18.8809 30.1306 18.5527 30.1306 18.1478V13H19.3172C18.0395 13 17 14.0395 17 15.3172V35.7113C17 36.989 18.0395 38.0284 19.3172 38.0284H33.6828C34.9605 38.0284 36 36.9889 36 35.7113V18.8809H30.8637ZM20.7623 20.6812H26.3772C26.7821 20.6812 27.1103 21.0095 27.1103 21.4143C27.1103 21.8192 26.7821 22.1474 26.3772 22.1474H20.7623C20.3575 22.1474 20.0292 21.8192 20.0292 21.4143C20.0292 21.0095 20.3575 20.6812 20.7623 20.6812ZM24.2242 34.1931C24.0818 34.2764 23.934 34.318 23.7807 34.318C23.5923 34.318 23.4805 34.2545 23.4455 34.1274L23.2221 33.306H21.8355L21.6121 34.1274C21.577 34.2546 21.4653 34.318 21.277 34.318C21.1236 34.318 20.9757 34.2764 20.8335 34.1931C20.6911 34.1099 20.6199 34.0114 20.6199 33.8974C20.6199 33.8842 20.6242 33.8602 20.633 33.8251L21.8553 29.8166C21.8903 29.7071 21.9703 29.6228 22.0952 29.5636C22.22 29.5045 22.3634 29.4749 22.5256 29.4749C22.6876 29.4749 22.8312 29.5045 22.956 29.5636C23.0808 29.6228 23.1607 29.7072 23.1958 29.8166L24.4247 33.8251C24.4334 33.8602 24.4378 33.8842 24.4378 33.8974C24.4378 34.0113 24.3665 34.1099 24.2242 34.1931ZM27.2273 33.0431C27.1637 33.1176 27.0903 33.1548 27.0071 33.1548H26.3763V33.8233C26.3763 33.9198 26.3379 33.9978 26.2613 34.0576C26.1846 34.1173 26.085 34.1471 25.9623 34.1471C25.844 34.1471 25.7443 34.1173 25.6633 34.0576C25.5821 33.9978 25.5417 33.9198 25.5417 33.8233V33.1548H24.9043C24.8123 33.1548 24.7378 33.1187 24.6809 33.0461C24.6239 32.9736 24.5955 32.8795 24.5955 32.7636C24.5955 32.6518 24.6239 32.5577 24.6809 32.4811C24.7378 32.4045 24.8123 32.3662 24.9043 32.3662H25.5417V31.7046C25.5417 31.6173 25.5833 31.5405 25.6666 31.4738C25.7498 31.4073 25.8483 31.3739 25.9623 31.3739C26.0806 31.3739 26.1792 31.4073 26.258 31.4738C26.3369 31.5405 26.3763 31.6173 26.3763 31.7046V32.3662H27.0071C27.0903 32.3662 27.1637 32.4055 27.2272 32.4842C27.2907 32.5628 27.3225 32.656 27.3225 32.7636C27.3225 32.8754 27.2907 32.9685 27.2273 33.0431ZM29.6389 27.3801H20.7623C20.3575 27.3801 20.0292 27.0519 20.0292 26.647C20.0292 26.2422 20.3575 25.9139 20.7623 25.9139H29.6389C30.0438 25.9139 30.3721 26.2422 30.3721 26.647C30.3721 27.0519 30.0439 27.3801 29.6389 27.3801ZM32.2377 24.7811H20.7623C20.3575 24.7811 20.0292 24.4528 20.0292 24.048C20.0292 23.6431 20.3575 23.3149 20.7623 23.3149H32.2377C32.6425 23.3149 32.9708 23.6431 32.9708 24.048C32.9708 24.4528 32.6425 24.7811 32.2377 24.7811Z" fill="white"/>
<path d="M35.3204 17.1491L31.8456 13.6779C31.7671 13.5995 31.6838 13.5277 31.5967 13.4622V17.4147H35.5492C35.4802 17.3214 35.4039 17.2326 35.3204 17.1491Z" fill="white"/>
</svg>
