<svg width="53" height="53" viewBox="0 0 53 53" fill="none" xmlns="http://www.w3.org/2000/svg">
<circle cx="26.5" cy="26.5" r="26.5" fill="#52BD70"/>
<path fill-rule="evenodd" clip-rule="evenodd" d="M33.6279 21.3408C33.6273 21.1634 33.5539 20.9935 33.4238 20.8684C33.2937 20.7434 33.1175 20.6733 32.9339 20.6738H21.0659C20.9745 20.673 20.8839 20.6897 20.7992 20.723C20.7146 20.7563 20.6376 20.8054 20.5726 20.8676C20.5077 20.9298 20.4562 21.0038 20.4211 21.0853C20.3859 21.1668 20.3678 21.2543 20.3678 21.3426C20.3678 21.4309 20.3859 21.5183 20.4211 21.5999C20.4562 21.6814 20.5077 21.7554 20.5726 21.8176C20.6376 21.8797 20.7146 21.9289 20.7992 21.9621C20.8839 21.9954 20.9745 22.0122 21.0659 22.0114H32.9338C33.025 22.0115 33.1153 21.9942 33.1996 21.9605C33.2838 21.9269 33.3604 21.8774 33.4248 21.8151C33.4893 21.7528 33.5404 21.6788 33.5752 21.5974C33.6101 21.5159 33.628 21.4289 33.6279 21.3408ZM33.6279 25.741C33.628 25.6528 33.6102 25.5655 33.5754 25.4841C33.5406 25.4026 33.4895 25.3286 33.425 25.2662C33.3605 25.2039 33.2839 25.1545 33.1997 25.1208C33.1154 25.0871 33.025 25.0698 32.9338 25.0699H21.0659C20.8818 25.0699 20.7053 25.1406 20.5751 25.2664C20.4449 25.3922 20.3718 25.5628 20.3718 25.7407C20.3718 25.9186 20.4449 26.0892 20.5751 26.215C20.7053 26.3408 20.8818 26.4115 21.0659 26.4115H32.9338C33.025 26.4116 33.1153 26.3943 33.1996 26.3607C33.2838 26.327 33.3604 26.2776 33.4248 26.2153C33.4893 26.153 33.5404 26.079 33.5752 25.9975C33.6101 25.9161 33.628 25.8291 33.6279 25.741ZM33.6279 30.1412C33.6281 30.053 33.6103 29.9657 33.5755 29.8842C33.5407 29.8027 33.4896 29.7287 33.4251 29.6663C33.3606 29.6039 33.284 29.5545 33.1997 29.5208C33.1154 29.4871 33.0251 29.4698 32.9338 29.4699H21.0659C20.8828 29.4714 20.7078 29.5428 20.5789 29.6684C20.45 29.7941 20.3777 29.9638 20.3777 30.1407C20.3777 30.3176 20.45 30.4874 20.5789 30.613C20.7078 30.7387 20.8828 30.81 21.0659 30.8115H32.9338C33.025 30.8116 33.1153 30.7944 33.1996 30.7607C33.2838 30.727 33.3604 30.6776 33.4248 30.6153C33.4893 30.553 33.5404 30.479 33.5752 30.3975C33.6101 30.3161 33.628 30.2293 33.6279 30.1412ZM33.6279 34.5372C33.6276 34.3593 33.5544 34.1889 33.4243 34.063C33.2942 33.9372 33.1179 33.8664 32.9338 33.8659H21.0659C20.8828 33.8674 20.7078 33.9388 20.5789 34.0644C20.45 34.19 20.3777 34.3598 20.3777 34.5367C20.3777 34.7136 20.45 34.8834 20.5789 35.009C20.7078 35.1347 20.8828 35.206 21.0659 35.2075H32.9338C33.025 35.2076 33.1153 35.1903 33.1996 35.1567C33.2838 35.123 33.3604 35.0736 33.4248 35.0113C33.4893 34.9489 33.5404 34.8749 33.5752 34.7935C33.6101 34.7121 33.628 34.6253 33.6279 34.5372ZM37 38.4854H17V19.7557H22.4312C22.8451 19.7549 23.2418 19.5956 23.5344 19.3127C23.8271 19.0298 23.9918 18.6464 23.9924 18.2464V17.6156H32.9338C33.1169 17.6141 33.2919 17.5427 33.4208 17.4171C33.5497 17.2915 33.622 17.1217 33.622 16.9448C33.622 16.7679 33.5497 16.5981 33.4208 16.4725C33.2919 16.3469 33.1169 16.2755 32.9338 16.274H23.9924V13H37V38.4854ZM22.6044 13.9187L17.8388 18.4141H22.6044V13.9187Z" fill="white"/>
</svg>
