<!-- icon666.com - MILLIONS vector ICONS FREE --><svg id="Layer_1" viewBox="0 0 64 64" xmlns="http://www.w3.org/2000/svg" xmlns:xlink="http://www.w3.org/1999/xlink" data-name="Layer 1"><linearGradient id="linear-gradient" gradientUnits="userSpaceOnUse" x1="21.953" x2="34.652" y1="74.383" y2="14.359"><stop offset="0" stop-color="#bccbe2"></stop><stop offset="1" stop-color="#e4e9f4"></stop></linearGradient><linearGradient id="linear-gradient-2" gradientUnits="userSpaceOnUse" x1="36" x2="36" y1="10" y2="24.001"><stop offset="0" stop-color="#fc6383"></stop><stop offset="1" stop-color="#df3d63"></stop></linearGradient><linearGradient id="linear-gradient-3" x1="45" x2="45" xlink:href="#linear-gradient-2" y1="7" y2="17"></linearGradient><path d="m57 51-12 12h-36a2 2 0 0 1 -2-2v-58a2 2 0 0 1 2-2h46a2 2 0 0 1 2 2z" fill="url(#linear-gradient)"></path><g fill="#7f7f99"><path d="m49 32h-26a1 1 0 0 1 0-2h26a1 1 0 0 1 0 2z"></path><path d="m49 40h-34a1 1 0 0 1 0-2h34a1 1 0 0 1 0 2z"></path><path d="m49 48h-34a1 1 0 0 1 0-2h34a1 1 0 0 1 0 2z"></path><path d="m37 56h-22a1 1 0 0 1 0-2h22a1 1 0 0 1 0 2z"></path><path d="m23 24h-8a1 1 0 0 1 0-2h8a1 1 0 0 1 0 2z"></path></g><path d="m45 63v-12h12z" fill="#93a7c9"></path><path d="m41.949 22.684-4-12a1 1 0 0 0 -.949-.684h-2a1 1 0 0 0 -.949.684l-4 12a1 1 0 1 0 1.9.632l1.77-5.316h4.558l1.772 5.316a1 1 0 1 0 1.9-.632zm-7.562-6.684 1.334-4h.558l1.334 4z" fill="url(#linear-gradient-2)"></path><path d="m49 11h-3v-3a1 1 0 0 0 -2 0v3h-3a1 1 0 0 0 0 2h3v3a1 1 0 0 0 2 0v-3h3a1 1 0 0 0 0-2z" fill="url(#linear-gradient-3)"></path></svg>