<svg width="16" height="16" viewBox="0 0 16 16" fill="none" xmlns="http://www.w3.org/2000/svg">
<path d="M8 0C3.58181 0 0 3.58181 0 8C0 12.4182 3.58181 16 8 16C12.4182 16 16 12.4182 16 8C16 3.58181 12.4182 0 8 0ZM8 14.6667C4.31819 14.6667 1.33334 11.6818 1.33334 8C1.33334 4.31819 4.31819 1.33334 8 1.33334C11.6818 1.33334 14.6667 4.31819 14.6667 8C14.6667 11.6818 11.6818 14.6667 8 14.6667Z" fill="#515151"/>
<path d="M7.99982 2.66665C7.63163 2.66665 7.33316 2.96512 7.33316 3.33331V7.33331H5.33316C4.96497 7.33331 4.6665 7.63178 4.6665 7.99997C4.6665 8.36815 4.96497 8.66662 5.33316 8.66662H7.99982C8.368 8.66662 8.66647 8.36815 8.66647 7.99997V3.33334C8.66647 2.96515 8.368 2.66665 7.99982 2.66665Z" fill="#515151"/>
</svg>
