<svg width="20" height="24" viewBox="0 0 20 24" fill="none" xmlns="http://www.w3.org/2000/svg">
<path d="M0.913262 20.5601C0.913216 21.4462 1.51662 22.1886 2.33162 22.4119C2.53454 23.26 3.2915 23.8844 4.19672 23.8844H17.2873C18.3488 23.8844 19.2122 23.0209 19.2122 21.9594V4.13624C19.2122 3.26077 18.6145 2.51115 17.7994 2.28637C17.5959 1.4419 16.8352 0.812066 15.9287 0.812066H2.83822C1.7767 0.812066 0.913262 1.6755 0.913262 2.73703V20.5601ZM17.8537 20.5602V3.27019C18.1367 3.4559 18.3232 3.77739 18.3232 4.13624V21.9593C18.3232 22.5304 17.8583 22.9953 17.2872 22.9953H4.19672C3.8165 22.9953 3.4834 22.7915 3.30367 22.4851H15.9288C16.9903 22.4851 17.8537 21.6217 17.8537 20.5602ZM1.8023 2.73707C1.8023 2.16598 2.26713 1.70115 2.83822 1.70115H15.9288C16.4999 1.70115 16.9647 2.16598 16.9647 2.73707V20.5602C16.9647 21.1313 16.4999 21.5961 15.9288 21.5961H2.83822C2.26713 21.5961 1.8023 21.1313 1.8023 20.5602V2.73707Z" fill="#363636" stroke="#363636" stroke-width="0.173476"/>
<path d="M4.40077 4.72773H14.3679C14.6135 4.72773 14.8125 4.5287 14.8125 4.28319C14.8125 4.03767 14.6135 3.83865 14.3679 3.83865H4.40077C4.15526 3.83865 3.95623 4.03767 3.95623 4.28319C3.95623 4.5287 4.15526 4.72773 4.40077 4.72773Z" fill="#363636" stroke="#363636" stroke-width="0.173476"/>
<path d="M4.40077 7.56913H14.3679C14.6135 7.56913 14.8125 7.3701 14.8125 7.12459C14.8125 6.87907 14.6135 6.68005 14.3679 6.68005H4.40077C4.15526 6.68005 3.95623 6.87907 3.95623 7.12459C3.95623 7.3701 4.15526 7.56913 4.40077 7.56913Z" fill="#363636" stroke="#363636" stroke-width="0.173476"/>
<path d="M4.40077 10.4104H14.3679C14.6135 10.4104 14.8125 10.2114 14.8125 9.96588C14.8125 9.72037 14.6135 9.52134 14.3679 9.52134H4.40077C4.15526 9.52134 3.95623 9.72037 3.95623 9.96588C3.95623 10.2114 4.15526 10.4104 4.40077 10.4104Z" fill="#363636" stroke="#363636" stroke-width="0.173476"/>
<path d="M4.40077 13.2517H14.3679C14.6135 13.2517 14.8125 13.0526 14.8125 12.8071C14.8125 12.5616 14.6135 12.3626 14.3679 12.3626H4.40077C4.15526 12.3626 3.95623 12.5616 3.95623 12.8071C3.95623 13.0526 4.15526 13.2517 4.40077 13.2517Z" fill="#363636" stroke="#363636" stroke-width="0.173476"/>
<path d="M4.40077 16.0931H14.3679C14.6135 16.0931 14.8125 15.8941 14.8125 15.6486C14.8125 15.403 14.6135 15.204 14.3679 15.204H4.40077C4.15526 15.204 3.95623 15.403 3.95623 15.6486C3.95623 15.894 4.15525 16.0931 4.40077 16.0931Z" fill="#363636" stroke="#363636" stroke-width="0.173476"/>
<path d="M4.40077 18.9344H14.3679C14.6135 18.9344 14.8125 18.7354 14.8125 18.4899C14.8125 18.2444 14.6135 18.0453 14.3679 18.0453H4.40077C4.15526 18.0453 3.95623 18.2444 3.95623 18.4899C3.95623 18.7354 4.15526 18.9344 4.40077 18.9344Z" fill="#363636" stroke="#363636" stroke-width="0.173476"/>
</svg>
