<svg width="312" height="168" viewBox="0 0 312 168" fill="none" xmlns="http://www.w3.org/2000/svg">
<path d="M97.2953 120.663C91.2688 117.939 84.5874 116.42 77.5506 116.42C65.7205 116.42 54.8867 120.698 46.5123 127.783C42.7152 126.341 38.5976 125.533 34.292 125.533C15.3485 125.533 0 140.888 0 159.832C0 162.159 0.229915 164.43 0.675808 166.632H288.732C301.583 166.632 312 156.214 312 143.364V12.5C303.005 12.932 294.54 10.0535 287.037 14.0317C277.353 5.30892 264.54 0 250.481 0C227.106 0 207.173 14.6866 199.363 35.3231C193.81 33.6231 187.909 32.7035 181.792 32.7035C148.685 32.7035 121.854 59.5407 121.854 92.6483C121.854 95.6302 122.077 98.5773 122.502 101.448C112.414 105.426 103.705 112.128 97.2953 120.663Z" fill="#B0F6FF" fill-opacity="0.44"/>
<path d="M69.6169 158.829H74.9676V157.38H46.2075C44.2985 157.38 42.7449 159.63 42.7449 162.396C42.7449 165.162 44.2985 167.413 46.2075 167.413H74.9676V165.963H69.6169C68.2374 165.963 67.1157 164.368 67.1157 162.396C67.1157 160.425 68.2374 158.829 69.6169 158.829Z" fill="#FFB02C"/>
<path d="M74.0272 158.913V158.829H45.9638C44.5843 158.829 43.4626 160.425 43.4626 162.396C43.4626 164.368 44.5843 165.963 45.9638 165.963H74.0272V165.866C72.9055 165.518 72.0556 164.103 72.0556 162.396C72.0556 160.689 72.8986 159.261 74.0272 158.913Z" fill="#FFF1CD"/>
<path d="M58.4418 158.69V157.387H30.2878C28.3789 157.387 26.8252 159.637 26.8252 162.403C26.8252 165.169 28.3789 167.42 30.2878 167.42H58.4418V166.117C57.0275 166.117 54.9095 164.452 54.9095 162.403C54.9095 160.355 57.0275 158.69 58.4418 158.69Z" fill="#FF9837"/>
<path d="M58.1143 158.829H30.4201C29.0406 158.829 27.9189 160.425 27.9189 162.396C27.9189 164.368 29.0406 165.963 30.4201 165.963H58.1143C56.7348 165.963 55.6131 164.368 55.6131 162.396C55.6131 160.425 56.7348 158.829 58.1143 158.829Z" fill="white"/>
<path d="M55.4806 164.312H28.8802C28.9499 164.424 29.0266 164.528 29.1102 164.626H55.613C55.5712 164.521 55.5294 164.417 55.4875 164.312H55.4806Z" fill="#FFF1CD"/>
<path d="M55.1882 162.954H28.4067C28.4207 163.065 28.4485 163.163 28.4694 163.267H55.223C55.2091 163.163 55.1952 163.058 55.1882 162.954Z" fill="#FFF1CD"/>
<path d="M55.2856 163.629H28.5598C28.5946 163.741 28.6365 163.845 28.6783 163.943H55.3622C55.3343 163.838 55.3065 163.734 55.2856 163.629Z" fill="#FFF1CD"/>
<path d="M30.4131 159.484C30.0368 159.484 29.6955 159.637 29.3889 159.888H55.7384C55.8081 159.749 55.8847 159.609 55.9753 159.484H30.4131Z" fill="#FFF1CD"/>
<path d="M55.7803 164.988H29.4866C29.7653 165.19 30.0788 165.315 30.4132 165.315H55.9754C55.9057 165.211 55.843 165.099 55.7803 164.988Z" fill="#FFF1CD"/>
<path d="M28.6504 160.926C28.6086 161.031 28.5668 161.128 28.532 161.24H55.2717C55.2926 161.135 55.3204 161.031 55.3483 160.926H28.6574H28.6504Z" fill="#FFF1CD"/>
<path d="M28.3718 162.278C28.3718 162.32 28.3649 162.361 28.3649 162.403C28.3649 162.473 28.3788 162.529 28.3788 162.598H55.1672C55.1672 162.536 55.1672 162.473 55.1672 162.403C55.1672 162.361 55.1672 162.32 55.1672 162.278H28.3788H28.3718Z" fill="#FFF1CD"/>
<path d="M29.0404 160.25C28.9638 160.348 28.8941 160.452 28.8314 160.564H55.4526C55.4875 160.452 55.5293 160.348 55.5711 160.25H29.0404Z" fill="#FFF1CD"/>
<path d="M28.4486 161.602C28.4277 161.707 28.4068 161.811 28.3928 161.916H55.1743C55.1813 161.811 55.1952 161.707 55.2091 161.602H28.4486Z" fill="#FFF1CD"/>
<path d="M65.7849 148.678H71.1356V147.229H42.3755C40.4665 147.229 38.9128 149.479 38.9128 152.245C38.9128 155.011 40.4665 157.262 42.3755 157.262H71.1356V155.812H65.7849C64.4054 155.812 63.2837 154.217 63.2837 152.245C63.2837 150.274 64.4054 148.678 65.7849 148.678Z" fill="#C64D5F"/>
<path d="M70.1951 148.762V148.678H42.1317C40.7452 148.678 39.6305 150.274 39.6305 152.245C39.6305 154.217 40.7522 155.812 42.1317 155.812H70.1951V155.715C69.0734 155.366 68.2234 153.952 68.2234 152.238C68.2234 150.524 69.0664 149.103 70.1951 148.755V148.762Z" fill="#FFF1CD"/>
<path d="M54.6166 148.539V147.236H26.4626C24.5537 147.236 23 149.486 23 152.252C23 155.018 24.5537 157.269 26.4626 157.269H54.6166V155.966C53.2023 155.966 51.0704 154.301 51.0704 152.252C51.0704 150.204 53.2023 148.539 54.6166 148.539Z" fill="#DA6773"/>
<path d="M54.2824 148.678H26.5882C25.2087 148.678 24.087 150.274 24.087 152.245C24.087 154.217 25.2087 155.812 26.5882 155.812H54.2824C52.9029 155.812 51.7812 154.217 51.7812 152.245C51.7812 150.274 52.9029 148.678 54.2824 148.678Z" fill="white"/>
<path d="M51.6487 154.161H25.0483C25.118 154.273 25.1946 154.377 25.2783 154.475H51.7811C51.7393 154.37 51.6974 154.266 51.6556 154.161H51.6487Z" fill="#FFF1CD"/>
<path d="M51.3559 152.803H24.5745C24.5884 152.914 24.6163 153.012 24.6372 153.116H51.3908C51.3768 153.012 51.3629 152.907 51.3559 152.803Z" fill="#FFF1CD"/>
<path d="M51.4536 153.478H24.7279C24.7627 153.59 24.8045 153.694 24.8463 153.792H51.5303C51.5024 153.687 51.4745 153.583 51.4536 153.478Z" fill="#FFF1CD"/>
<path d="M26.5812 149.333C26.2049 149.333 25.8636 149.486 25.557 149.737H51.9065C51.9762 149.598 52.0528 149.458 52.1434 149.333H26.5812Z" fill="#FFF1CD"/>
<path d="M51.9483 154.837H25.6545C25.9332 155.039 26.2467 155.164 26.5812 155.164H52.1434C52.0737 155.06 52.011 154.948 51.9483 154.837Z" fill="#FFF1CD"/>
<path d="M24.8253 150.775C24.7835 150.88 24.7417 150.977 24.7069 151.089H51.4466C51.4675 150.984 51.4953 150.88 51.5232 150.775H24.8323H24.8253Z" fill="#FFF1CD"/>
<path d="M24.5397 152.127C24.5397 152.169 24.5327 152.21 24.5327 152.252C24.5327 152.322 24.5466 152.378 24.5466 152.447H51.3351C51.3351 152.385 51.3351 152.322 51.3351 152.252C51.3351 152.21 51.3351 152.169 51.3351 152.127H24.5466H24.5397Z" fill="#FFF1CD"/>
<path d="M25.2085 150.092C25.1319 150.19 25.0622 150.294 24.9995 150.406H51.6207C51.6556 150.294 51.6974 150.19 51.7392 150.092H25.2085Z" fill="#FFF1CD"/>
<path d="M24.6163 151.451C24.5954 151.555 24.5745 151.66 24.5605 151.764H51.342C51.349 151.66 51.3629 151.555 51.3769 151.451H24.6163Z" fill="#FFF1CD"/>
<path d="M72.1948 138.743H77.5455V137.294H48.7854C46.8764 137.294 45.3228 139.544 45.3228 142.31C45.3228 145.076 46.8764 147.326 48.7854 147.326H77.5455V145.877H72.1948C70.8153 145.877 69.6936 144.282 69.6936 142.31C69.6936 140.338 70.8153 138.743 72.1948 138.743Z" fill="#6654CD"/>
<path d="M76.5979 138.827V138.743H48.5345C47.155 138.743 46.0333 140.338 46.0333 142.31C46.0333 144.282 47.155 145.877 48.5345 145.877H76.5979V145.78C75.4762 145.431 74.6262 144.017 74.6262 142.31C74.6262 140.603 75.4693 139.175 76.5979 138.827Z" fill="#FFF1CD"/>
<path d="M61.0195 138.597V137.294H32.8655C30.9565 137.294 29.4028 139.544 29.4028 142.31C29.4028 145.076 30.9565 147.326 32.8655 147.326H61.0195V146.024C59.6051 146.024 57.2851 144.358 57.2851 142.31C57.2851 140.262 59.6051 138.597 61.0195 138.597Z" fill="#593DB1"/>
<path d="M60.685 138.743H32.9908C31.6113 138.743 30.4896 140.338 30.4896 142.31C30.4896 144.282 31.6113 145.877 32.9908 145.877H60.685C59.2985 145.877 58.1838 144.282 58.1838 142.31C58.1838 140.338 59.3055 138.743 60.685 138.743Z" fill="white"/>
<path d="M58.0515 144.219H31.4512C31.5208 144.331 31.5975 144.435 31.6811 144.533H58.1839C58.1421 144.428 58.1003 144.324 58.0585 144.219H58.0515Z" fill="#FFF1CD"/>
<path d="M57.7588 142.868H30.9773C30.9912 142.979 31.0191 143.077 31.04 143.181H57.7936C57.7797 143.077 57.7657 142.972 57.7588 142.868Z" fill="#FFF1CD"/>
<path d="M57.8634 143.543H31.1377C31.1725 143.655 31.2143 143.759 31.2561 143.857H57.9401C57.9122 143.752 57.8843 143.648 57.8634 143.543Z" fill="#FFF1CD"/>
<path d="M32.9907 139.391C32.6145 139.391 32.2731 139.544 31.9666 139.795H58.3161C58.3857 139.656 58.4624 139.516 58.553 139.391H32.9907Z" fill="#FFF1CD"/>
<path d="M58.3509 144.895H32.0571C32.3358 145.097 32.6493 145.222 32.9838 145.222H58.546C58.4763 145.118 58.4136 145.006 58.3509 144.895Z" fill="#FFF1CD"/>
<path d="M31.2279 140.833C31.1861 140.938 31.1443 141.035 31.1095 141.147H57.8492C57.8701 141.042 57.8979 140.938 57.9258 140.833H31.2349H31.2279Z" fill="#FFF1CD"/>
<path d="M30.9425 142.185C30.9425 142.227 30.9355 142.268 30.9355 142.31C30.9355 142.38 30.9495 142.436 30.9495 142.505H57.7379C57.7379 142.443 57.7379 142.38 57.7379 142.31C57.7379 142.268 57.7379 142.227 57.7379 142.185H30.9495H30.9425Z" fill="#FFF1CD"/>
<path d="M31.6183 140.157C31.5417 140.255 31.472 140.359 31.4093 140.471H58.0305C58.0654 140.359 58.1072 140.255 58.149 140.157H31.6183Z" fill="#FFF1CD"/>
<path d="M31.0261 141.509C31.0052 141.613 30.9843 141.718 30.9703 141.822H57.7518C57.7588 141.718 57.7727 141.613 57.7866 141.509H31.0261Z" fill="#FFF1CD"/>
<path d="M84.8079 130.837L83.9421 130.983L84.7196 135.614L85.5853 135.468L84.8079 130.837Z" fill="#333245"/>
<path d="M85.5778 132.489L83.7433 132.797L86.5497 149.514L88.3843 149.206L85.5778 132.489Z" fill="#3831A0"/>
<path d="M85.8641 133.211L83.2932 133.643L84.1502 138.757L84.5334 138.687L83.8924 134.862L86.08 134.5L85.8641 133.211Z" fill="#333245"/>
<path d="M89.0206 128L88.1456 128.071L88.523 132.751L89.3981 132.681L89.0206 128Z" fill="#333245"/>
<path d="M89.6639 129.701L87.8097 129.851L89.1721 146.747L91.0263 146.597L89.6639 129.701Z" fill="#9ECDEF"/>
<path d="M89.8773 130.452L87.2786 130.661L87.6896 135.831L88.0798 135.796L87.7732 131.929L89.9818 131.755L89.8773 130.452Z" fill="#333245"/>
<path d="M100.884 129.397L100.22 134.045L101.089 134.169L101.753 129.521L100.884 129.397Z" fill="#333245"/>
<path d="M100.16 131.058L97.7659 147.839L99.6074 148.102L102.002 131.321L100.16 131.058Z" fill="#DA6773"/>
<path d="M101.742 137.294L102.474 132.159L99.8888 131.797L99.7076 133.086L101.902 133.399L101.352 137.238L101.742 137.294Z" fill="#333245"/>
<path d="M96.0599 135.676L93.2637 152.034L94.9668 152.325L97.763 135.967L96.0599 135.676Z" fill="white"/>
<path d="M96.4787 135.747L93.6825 152.106L94.5478 152.254L97.344 135.895L96.4787 135.747Z" fill="#3831A0"/>
<path d="M96.0568 135.677L97.7637 135.97L97.3805 133.093L96.0568 135.677Z" fill="#CA9543"/>
<path d="M96.7743 134.27L97.5546 134.402L97.3804 133.093L96.7743 134.27Z" fill="#333245"/>
<path d="M93.5264 133.965L90.7302 150.324L92.4334 150.615L95.2295 134.257L93.5264 133.965Z" fill="white"/>
<path d="M93.9451 134.037L91.1489 150.395L92.0142 150.543L94.8104 134.185L93.9451 134.037Z" fill="#DA6773"/>
<path d="M93.5281 133.971L95.235 134.263L94.8449 131.386L93.5281 133.971Z" fill="#CA9543"/>
<path d="M94.2457 132.563L95.0191 132.696L94.8449 131.386L94.2457 132.563Z" fill="#333245"/>
<path d="M101.317 143.613H84.9025L86.4631 167.134H99.7632L101.317 143.613Z" fill="#4F42B6"/>
<path d="M100.983 148.713H85.2439L85.3554 150.392L100.732 152.51L100.983 148.713Z" fill="#3831A0"/>
<path d="M102.606 143.613H83.6136L84.0665 149.5H102.16L102.606 143.613Z" fill="#6654CD"/>
<path d="M217.471 166.132C218.042 164.48 219.86 158.879 219.324 155.967C219.122 154.845 218.467 153.228 216.523 151.898C208.971 146.714 186.188 149.689 180.503 150.769C171.495 152.476 168.311 160.774 167.886 164.926L173.508 165.518C173.543 165.198 174.484 157.666 181.562 156.329C191.595 154.427 208.964 153.57 213.332 156.566C213.674 156.796 213.764 156.963 213.771 156.991C213.924 157.896 213.165 161.31 212.134 164.292L217.478 166.138L217.471 166.132Z" fill="#333245"/>
<path d="M284.828 107.901C281.185 95.7291 252.731 92.998 244.21 102.759C234.373 114.025 215.708 166.543 215.708 166.543H268.881C268.881 166.543 288.472 120.079 284.828 107.901Z" fill="#5493CD"/>
<path d="M268.881 166.536C268.881 166.536 288.472 120.072 284.828 107.894C282.076 98.704 265.202 94.9 253.421 97.7774C262.659 98.4462 271.612 102.201 273.556 108.597C277.199 120.622 257.608 166.529 257.608 166.529H268.881V166.536Z" fill="#427EB6"/>
<path d="M207.591 161.84C211.785 157.646 220.181 114.923 221.226 110.304C222.229 105.838 225.274 102.139 225.274 102.139C225.274 102.139 213.722 105.797 210.657 113.467C207.584 121.131 195.684 150.755 194.681 151.758C193.678 152.762 179.974 154.169 179.974 154.169C179.974 154.169 181.151 157.2 181.088 158.955C181.026 160.711 180.538 163.01 180.538 163.01C180.538 163.01 203.397 166.041 207.598 161.84H207.591Z" fill="#DA6773"/>
<g style="mix-blend-mode:multiply" opacity="0.5">
<path d="M220.536 113.537C219.839 111.356 219.017 110.207 218.076 110.485C212.092 112.29 204.839 151.612 199.662 156.789C196.604 159.847 187.811 160.391 180.949 160.481C180.782 161.805 180.531 162.996 180.531 162.996C180.531 162.996 203.39 166.027 207.591 161.826C211.277 158.14 218.202 124.726 220.536 113.53V113.537Z" fill="#DA6773"/>
</g>
<path d="M163.942 161.84C165.775 161.84 168.645 158.872 168.645 158.872C168.645 158.872 169.92 160.864 173.585 160.864C177.249 160.864 181.081 159.826 181.081 159.826L179.967 154.162C179.967 154.162 171.355 150.971 167.447 151.933C163.538 152.894 155.644 160.704 157.637 161.422C158.557 161.756 159.657 161.248 160.584 160.614C161.162 159.812 162.5 158.948 162.5 158.948C162.5 158.948 161.664 159.875 160.584 160.614C160.236 161.094 160.166 161.547 160.828 161.77C161.727 162.077 163.183 161.206 164.367 160.314C165.134 159.582 166.116 158.837 166.248 158.712C166.269 158.691 166.269 158.698 166.248 158.712C166.13 158.823 165.343 159.575 164.367 160.314C163.566 161.08 163.009 161.833 163.942 161.833V161.84Z" fill="#E6C0C0"/>
<path d="M252.201 165.414C252.201 165.414 269.215 109.057 253.476 103.031C245.025 99.7909 235.271 99.0663 228.429 100.947C220.884 103.031 215.115 108.967 214.063 116.136C212.175 128.955 209.514 138.876 206.866 146.345C206.866 146.345 203.717 158.064 198.095 166.125L252.201 165.414Z" fill="white"/>
<g style="mix-blend-mode:multiply" opacity="0.5">
<path d="M252.25 165.261C252.25 165.261 252.25 165.254 252.25 165.247C252.264 165.198 252.278 165.142 252.299 165.079C252.299 165.066 252.306 165.052 252.313 165.038C252.327 164.982 252.348 164.919 252.369 164.857C252.376 164.822 252.39 164.787 252.397 164.752C252.417 164.682 252.438 164.613 252.459 164.536C252.473 164.501 252.48 164.466 252.487 164.425C252.522 164.306 252.557 164.174 252.599 164.041C252.606 164.007 252.62 163.965 252.633 163.93C252.661 163.825 252.689 163.721 252.724 163.609C252.745 163.54 252.766 163.47 252.787 163.393C252.815 163.303 252.842 163.205 252.863 163.108C252.891 163.017 252.912 162.927 252.94 162.829C252.961 162.752 252.982 162.669 253.01 162.592C253.044 162.474 253.072 162.355 253.107 162.237C253.128 162.16 253.149 162.084 253.17 162.014C253.205 161.882 253.24 161.756 253.281 161.617C253.295 161.554 253.316 161.491 253.33 161.429C253.469 160.913 253.623 160.349 253.783 159.75C253.797 159.687 253.818 159.624 253.832 159.555C253.881 159.366 253.929 159.178 253.978 158.99C253.999 158.921 254.013 158.844 254.034 158.774C254.083 158.572 254.138 158.37 254.194 158.168C254.208 158.105 254.229 158.043 254.243 157.98C254.299 157.757 254.354 157.534 254.417 157.304C254.424 157.276 254.431 157.242 254.438 157.214C254.71 156.155 254.988 155.012 255.281 153.807C255.288 153.772 255.295 153.737 255.309 153.702C255.378 153.417 255.448 153.131 255.511 152.838C255.518 152.803 255.532 152.762 255.539 152.727C255.608 152.427 255.678 152.121 255.748 151.814C255.748 151.8 255.748 151.786 255.755 151.772C256.131 150.128 256.521 148.393 256.89 146.589C256.89 146.575 256.89 146.561 256.897 146.547C256.974 146.192 257.044 145.836 257.113 145.481C257.113 145.467 257.113 145.453 257.12 145.439C257.566 143.231 257.998 140.939 258.388 138.612C258.388 138.612 258.388 138.598 258.388 138.591C258.778 136.257 259.127 133.888 259.405 131.533C259.405 131.533 259.405 131.526 259.405 131.519C259.454 131.129 259.496 130.739 259.538 130.356C259.538 130.356 259.538 130.342 259.538 130.335C259.754 128.377 259.914 126.447 260.019 124.559C260.039 124.197 260.053 123.834 260.067 123.472C260.067 123.444 260.067 123.416 260.067 123.388C260.081 123.033 260.095 122.678 260.102 122.322C260.102 122.316 260.102 122.309 260.102 122.302C260.151 120.49 260.13 118.734 260.026 117.069C260.026 117.027 260.026 116.993 260.026 116.951C260.005 116.644 259.984 116.345 259.963 116.052C259.963 116.01 259.956 115.962 259.949 115.92C259.921 115.62 259.893 115.321 259.865 115.021C259.865 115.014 259.865 115.007 259.865 114.993C259.726 113.746 259.538 112.562 259.287 111.461C259.28 111.419 259.266 111.377 259.259 111.335C259.203 111.099 259.148 110.862 259.085 110.632C259.071 110.569 259.05 110.513 259.036 110.451C258.973 110.228 258.911 110.005 258.841 109.789C258.827 109.74 258.806 109.684 258.792 109.635C258.723 109.412 258.646 109.183 258.569 108.967C252.473 110.235 248.188 111.886 248.188 111.886C248.188 111.886 246.029 108.702 243.541 120.114C241.054 131.533 242.378 137.044 236.003 139.468C229.628 141.893 224.452 144.589 226.263 146.401C228.074 148.212 233.864 148.547 228.026 151.988C222.912 155.005 211.124 154.782 206.33 148.115C205.271 151.542 202.589 159.353 198.562 165.428H252.188C252.188 165.428 252.201 165.372 252.236 165.268L252.25 165.261Z" fill="#CEE7FD"/>
</g>
<path d="M162.507 158.948C162.507 158.948 161.169 159.812 160.591 160.614C161.671 159.875 162.507 158.948 162.507 158.948Z" fill="#E6C0C0"/>
<path d="M164.367 160.321C165.343 159.582 166.13 158.83 166.248 158.718C166.116 158.844 165.134 159.589 164.367 160.321Z" fill="#E6C0C0"/>
<path d="M238.546 107.197C241.772 103.971 243.799 101.707 244.726 100.634C238.832 99.6028 232.986 99.6933 228.43 100.947C228.43 100.947 222.494 104.724 224.814 108.632C227.127 112.548 233.92 111.823 238.546 107.197Z" fill="#DA6773"/>
<path d="M206.706 160.321C207.682 159.582 208.469 158.83 208.587 158.718C208.455 158.844 207.473 159.589 206.706 160.321Z" fill="#E6C0C0"/>
<path d="M204.846 158.948C204.846 158.948 203.509 159.812 202.93 160.614C204.01 159.875 204.846 158.948 204.846 158.948Z" fill="#E6C0C0"/>
<path d="M206.281 161.84C208.114 161.84 210.984 158.872 210.984 158.872C210.984 158.872 212.259 160.864 215.924 160.864C219.589 160.864 223.42 159.826 223.42 159.826L222.306 154.162C222.306 154.162 213.694 150.971 209.786 151.933C205.877 152.887 197.984 160.704 199.976 161.422C200.896 161.756 202.004 161.248 202.923 160.614C203.502 159.812 204.839 158.948 204.839 158.948C204.839 158.948 204.003 159.875 202.923 160.614C202.575 161.094 202.505 161.547 203.167 161.77C204.066 162.077 205.522 161.206 206.706 160.314C207.473 159.582 208.455 158.837 208.588 158.712C208.608 158.691 208.608 158.698 208.588 158.712C208.469 158.823 207.682 159.575 206.706 160.314C205.905 161.08 205.348 161.833 206.281 161.833V161.84Z" fill="#E6C0C0"/>
<path d="M221.539 153.173C221.539 154.678 220.222 161.275 222.939 161.77C226.507 162.425 255.385 170.869 260.158 157.813C264.93 144.756 262.617 111.635 260.701 108.235C258.911 105.051 253.476 103.024 253.476 103.024C253.476 103.024 245.137 104.967 245.137 113.251C245.137 121.535 248.801 147.745 246.92 149.633C245.039 151.522 221.539 151.661 221.539 153.166V153.173Z" fill="#DA6773"/>
<g style="mix-blend-mode:multiply" opacity="0.5">
<path d="M253.804 156.796C246.85 161.129 229.516 159.541 221.239 158.475C221.323 160.126 221.727 161.554 222.939 161.777C226.506 162.432 255.385 170.876 260.158 157.82C264.93 144.763 262.617 111.642 260.701 108.242C259.301 105.755 255.685 103.978 254.173 103.316C255.803 112.778 261.962 151.71 253.804 156.796Z" fill="#DA6773"/>
</g>
<path d="M228.708 109.433C234.958 110.451 243.276 100.662 243.276 100.662L240.322 89.3682L225.273 90.3436C231.439 96.5094 229.064 100.871 229.064 100.871C229.064 100.871 222.048 108.346 228.708 109.433Z" fill="#E6C0C0"/>
<path d="M229.064 100.871C229.064 100.871 228.98 100.961 228.841 101.122C232.847 99.9372 237.954 97.3594 240.935 91.7161L240.322 89.3682L225.273 90.3436C231.439 96.5094 229.064 100.871 229.064 100.871Z" fill="#D6AEB7"/>
<path d="M242.113 87.7518C247.777 78.1512 249.735 62.3289 239.243 58.4691C231.76 55.7171 223.016 56.5532 217.505 64.4469C215.819 66.8645 214.858 69.7001 214.53 72.6263C213.868 78.5413 213.179 90.8382 218.09 95.75C225.211 102.87 236.449 97.3524 242.113 87.7518Z" fill="#E6C0C0"/>
<path d="M224.089 86.4559C224.263 85.5293 222.34 80.499 222.34 80.499C222.34 80.499 221.302 79.9835 220.849 80.7568C220.39 81.5371 218.69 86.2747 219.31 86.8948C219.93 87.5149 223.915 87.3825 224.089 86.4489V86.4559Z" fill="#D6AEB7"/>
<path d="M213.597 75.5942C214.036 75.3573 214.886 75.0299 216 75.1762C217.679 75.3922 218.418 75.5942 218.418 74.9602C218.418 74.3262 217.373 73.7061 215.833 73.8315C214.593 73.936 213.381 74.6049 213.193 75.3086C213.137 75.5245 213.381 75.7057 213.59 75.5942H213.597Z" fill="#333245"/>
<path d="M230.311 76.709C232.039 77.7052 231.781 76.1725 230.513 75.1553C229.245 74.1381 226.151 73.8664 225.134 74.3053C225.134 74.3053 224.082 74.6397 224.8 75.5036C225.517 76.3676 227.642 75.1762 230.311 76.709Z" fill="#333245"/>
<path d="M241.437 84.6514C239.926 85.2227 239.591 89.2149 240.525 90.1415C241.458 91.0751 249.359 86.5325 250.655 73.2184C251.561 63.9313 245.548 62.4891 245.548 62.4891C245.548 62.4891 241.702 54.3237 230.966 55.8425L220.237 57.3614C220.237 57.3614 216.37 53.7942 213.123 57.0478C209.877 60.3015 207.361 66.8645 213.054 69.491C220.515 72.9398 236.797 67.394 236.797 67.394C236.797 67.394 234.582 70.8914 237.027 74.2774C239.48 77.6634 237.376 80.3458 239.591 80.3458C239.591 80.3458 240.385 75.4618 243.27 76.2631C246.154 77.0643 245.228 83.2301 241.43 84.6584L241.437 84.6514Z" fill="#333245"/>
<path d="M218.076 81.0076C218.076 80.2482 217.456 79.6281 216.697 79.6281C215.937 79.6281 215.317 80.2482 215.317 81.0076C215.317 81.767 215.937 82.3871 216.697 82.3871C217.456 82.3871 218.076 81.767 218.076 81.0076Z" fill="#333245"/>
<path d="M226.953 81.0076C226.953 80.2482 226.333 79.6281 225.573 79.6281C224.814 79.6281 224.194 80.2482 224.194 81.0076C224.194 81.767 224.814 82.3871 225.573 82.3871C226.333 82.3871 226.953 81.767 226.953 81.0076Z" fill="#333245"/>
<path opacity="0.48" d="M227.113 85.383C229.364 85.383 231.189 83.4241 231.189 81.0077C231.189 78.5912 229.364 76.6323 227.113 76.6323C224.862 76.6323 223.037 78.5912 223.037 81.0077C223.037 83.4241 224.862 85.383 227.113 85.383Z" fill="white"/>
<path opacity="0.48" d="M216.077 84.8883C218.328 84.8883 220.153 82.9294 220.153 80.513C220.153 78.0966 218.328 76.1377 216.077 76.1377C213.826 76.1377 212.001 78.0966 212.001 80.513C212.001 82.9294 213.826 84.8883 216.077 84.8883Z" fill="white"/>
<path d="M220.466 80.722C220.877 80.5339 221.992 80.1507 222.71 81.1261C222.772 83.6691 224.716 85.7174 227.106 85.7174C229.496 85.7174 231.37 83.7458 231.495 81.2724L239.465 79.3007L239.305 78.6598L231.481 80.5966C231.279 78.193 229.391 76.3049 227.099 76.3049C224.807 76.3049 223.1 78.0188 222.758 80.2552C222.013 79.6979 221.093 79.7884 220.445 80.0253C220.208 77.6635 218.334 75.8172 216.063 75.8172C213.631 75.8172 211.66 77.9282 211.66 80.527C211.66 83.1257 213.638 85.2367 216.063 85.2367C218.488 85.2367 220.355 83.2371 220.459 80.736L220.466 80.722ZM227.113 76.9598C229.175 76.9598 230.854 78.7782 230.854 81.0077C230.854 83.2372 229.175 85.0556 227.113 85.0556C225.051 85.0556 223.371 83.2372 223.371 81.0077C223.371 78.7782 225.051 76.9598 227.113 76.9598ZM212.329 80.513C212.329 78.2835 214.008 76.4651 216.07 76.4651C218.132 76.4651 219.811 78.2835 219.811 80.513C219.811 82.7425 218.132 84.5609 216.07 84.5609C214.008 84.5609 212.329 82.7425 212.329 80.513Z" fill="#333245"/>
<path d="M226.716 88.8038L221.219 89.9185C221.219 89.9185 221.435 92.782 223.957 92.6566C226.284 92.5451 226.716 88.7968 226.716 88.7968V88.8038Z" fill="#BC566F"/>
<path d="M226.528 89.7443C226.667 89.2079 226.716 88.8038 226.716 88.8038L221.769 89.8071C221.832 90.0927 221.957 90.4411 222.222 90.5038C222.591 90.5943 225.434 89.9812 226.521 89.7374L226.528 89.7443Z" fill="white"/>
<path d="M226.277 90.5107C225.218 90.5247 223.176 90.7337 222.222 92.0992C222.619 92.4546 223.176 92.7054 223.957 92.6636C225.197 92.6009 225.893 91.514 226.277 90.5107Z" fill="#D48394"/>
<path d="M240.782 81.4605C240.782 81.4605 240.051 82.6867 241.416 82.6867C242.782 82.6867 244.335 79.3007 243.109 78.4368C241.883 77.5729 241.117 79.5306 241.117 80.1298C241.117 80.729 242.176 79.7954 242.176 80.7568C242.176 81.7183 240.782 81.4535 240.782 81.4535V81.4605Z" fill="#D6AEB7"/>
<path d="M280.495 166.132C281.066 164.48 282.884 158.879 282.348 155.967C282.146 154.845 281.491 153.228 279.547 151.898C271.995 146.714 249.213 149.689 243.527 150.769C234.519 152.476 231.335 160.774 230.91 164.926L236.532 165.518C236.567 165.198 237.508 157.666 244.586 156.329C254.619 154.427 271.988 153.57 276.356 156.566C276.698 156.796 276.788 156.963 276.795 156.991C276.949 157.896 276.189 161.31 275.158 164.292L280.502 166.138L280.495 166.132Z" fill="#333245"/>
<path d="M182.292 164.687H121.476V167.021H182.292V164.687Z" fill="#83BDE2"/>
<path d="M228.762 164.687H182.292V167.021H228.762V164.687Z" fill="#9ECDEF"/>
<path d="M117.261 167.028H179.505C181.274 167.028 182.591 165.404 182.236 163.677L173.68 122.222C173.416 120.927 172.273 120 170.949 120H108.705C106.936 120 105.619 121.623 105.974 123.351L114.53 164.805C114.795 166.101 115.937 167.028 117.261 167.028Z" fill="#9ECDEF"/>
<path d="M115.345 167.028H177.589C179.358 167.028 180.675 165.404 180.32 163.677L171.764 122.223C171.5 120.927 170.357 120 169.033 120H106.789C105.02 120 103.703 121.623 104.058 123.351L112.614 164.805C112.879 166.101 114.021 167.028 115.345 167.028Z" fill="#83BDE2"/>
<path d="M141.632 147.193C144.258 146.565 145.812 143.625 145.094 140.623C144.377 137.62 141.667 135.704 139.033 136.331C136.406 136.958 134.853 139.898 135.57 142.901C136.288 145.904 138.998 147.82 141.632 147.193Z" fill="white"/>
<path d="M245.039 156.029H251.066V154.636H218.697C216.544 154.636 214.795 156.803 214.795 159.464C214.795 162.125 216.544 164.292 218.697 164.292H251.066V162.899H245.039C243.486 162.899 242.218 161.359 242.218 159.464C242.218 157.569 243.479 156.029 245.039 156.029Z" fill="#3ED3FF"/>
<path d="M250 156.106V156.022H218.411C216.858 156.022 215.59 157.562 215.59 159.457C215.59 161.352 216.851 162.892 218.411 162.892H250V162.801C248.732 162.467 247.784 161.101 247.784 159.457C247.784 157.813 248.732 156.44 250 156.099V156.106Z" fill="#DBD29A"/>
<path d="M232.464 155.89V154.636H200.77C198.618 154.636 196.869 156.803 196.869 159.464C196.869 162.125 198.618 164.292 200.77 164.292H232.464V163.038C230.875 163.038 228.486 161.436 228.486 159.464C228.486 157.492 230.868 155.89 232.464 155.89Z" fill="#24AFFF"/>
<path d="M232.088 156.029H200.91C199.356 156.029 198.088 157.569 198.088 159.464C198.088 161.359 199.349 162.899 200.91 162.899H232.088C230.534 162.899 229.266 161.359 229.266 159.464C229.266 157.569 230.527 156.029 232.088 156.029Z" fill="white"/>
<path d="M229.127 161.303H199.182C199.259 161.415 199.349 161.512 199.44 161.61H229.266C229.217 161.512 229.168 161.408 229.127 161.303Z" fill="#DBD29A"/>
<path d="M228.792 160H198.646C198.66 160.105 198.695 160.202 198.715 160.307H228.834C228.82 160.209 228.806 160.105 228.792 160Z" fill="#DBD29A"/>
<path d="M228.904 160.648H198.82C198.862 160.753 198.903 160.857 198.959 160.955H228.994C228.959 160.857 228.932 160.753 228.904 160.648Z" fill="#DBD29A"/>
<path d="M200.91 156.656C200.492 156.656 200.102 156.803 199.76 157.046H229.419C229.503 156.914 229.587 156.782 229.684 156.656H200.91Z" fill="#DBD29A"/>
<path d="M229.461 161.958H199.865C200.179 162.153 200.534 162.279 200.91 162.279H229.684C229.608 162.181 229.531 162.07 229.461 161.958Z" fill="#DBD29A"/>
<path d="M198.931 158.043C198.883 158.14 198.834 158.238 198.792 158.349H228.89C228.911 158.245 228.946 158.147 228.973 158.043H198.931Z" fill="#DBD29A"/>
<path d="M198.611 159.346C198.611 159.387 198.604 159.422 198.604 159.464C198.604 159.527 198.618 159.589 198.618 159.652H228.771C228.771 159.589 228.764 159.527 228.764 159.464C228.764 159.422 228.764 159.387 228.764 159.346H198.611Z" fill="#DBD29A"/>
<path d="M199.37 157.395C199.287 157.485 199.21 157.59 199.133 157.701H229.099C229.141 157.597 229.182 157.499 229.231 157.395H199.363H199.37Z" fill="#DBD29A"/>
<path d="M198.701 158.698C198.681 158.795 198.653 158.9 198.639 159.004H228.785C228.792 158.9 228.806 158.802 228.82 158.698H198.701Z" fill="#DBD29A"/>
<path d="M204.198 160H202.199C202.199 160 201.216 161.199 201.53 163.435L202.436 162.272L203.181 163.435C203.181 163.435 202.868 160.648 204.198 160Z" fill="#9ECDEF"/>
<path d="M238.4 41.7412L239.138 41.8108L239.877 41.7412C245.652 38.2089 252.508 37.0384 258.075 39.1912C258.597 31.1024 259.141 22.5538 259.726 13.5106C253.49 10.8909 245.513 12.1032 239.138 16.6039C232.763 12.1032 224.786 10.8909 218.551 13.5106C219.129 22.5538 219.679 31.1024 220.202 39.1912C225.768 37.0454 232.624 38.2158 238.4 41.7412Z" fill="#9ECDEF"/>
<path d="M239.145 40.5428V15.106C233.014 10.5634 225.343 9.33724 219.352 11.9847C219.909 21.1116 220.445 29.7369 220.947 37.8953C226.465 35.6589 233.509 36.697 239.145 40.5358V40.5428Z" fill="white"/>
<path d="M239.145 40.5428V15.106C233.014 10.5634 225.343 9.33724 219.352 11.9847C219.909 21.1116 220.445 29.7369 220.947 37.8953C226.465 35.6589 233.509 36.697 239.145 40.5358V40.5428Z" fill="white"/>
<path d="M237.675 16.9941C237.675 16.8617 237.675 16.7293 237.675 16.59C232.373 13.2667 226.165 12.2913 220.961 13.9634C220.968 14.1027 220.975 14.2351 220.982 14.3744C226.186 12.7023 232.38 13.6777 237.675 16.9941Z" fill="#9ECDEF"/>
<path d="M237.689 20.2059C237.689 20.0735 237.689 19.9411 237.689 19.8088C232.443 16.5551 226.298 15.5937 221.142 17.2379C221.149 17.3703 221.156 17.5027 221.163 17.635C226.312 15.9978 232.443 16.9523 237.689 20.1989V20.2059Z" fill="#9ECDEF"/>
<path d="M237.696 21.8849C237.696 21.7526 237.696 21.6272 237.696 21.4948C232.477 18.276 226.367 17.3285 221.24 18.9518C221.246 19.0842 221.253 19.2166 221.26 19.3489C226.381 17.7256 232.484 18.6731 237.696 21.8849Z" fill="#9ECDEF"/>
<path d="M237.703 23.5362C237.703 23.4108 237.703 23.2784 237.703 23.153C232.513 19.969 226.437 19.0285 221.337 20.6379C221.344 20.7702 221.351 20.9026 221.358 21.028C226.451 19.4256 232.52 20.3592 237.703 23.5362Z" fill="#9ECDEF"/>
<path d="M237.71 25.1804C237.71 25.055 237.71 24.9296 237.71 24.7972C232.547 21.6481 226.507 20.7145 221.428 22.3099C221.435 22.4423 221.442 22.5677 221.449 22.7001C226.521 21.1116 232.547 22.0382 237.71 25.1804Z" fill="#9ECDEF"/>
<path d="M237.717 26.8037C237.717 26.6783 237.717 26.5529 237.717 26.4275C232.582 23.3132 226.57 22.3936 221.525 23.9681C221.532 24.0935 221.539 24.2259 221.546 24.3513C226.59 22.7837 232.589 23.6964 237.717 26.8107V26.8037Z" fill="#9ECDEF"/>
<path d="M237.724 28.4061C237.724 28.2807 237.724 28.1553 237.724 28.0299C232.617 24.9435 226.639 24.0378 221.616 25.5914C221.623 25.7168 221.63 25.8422 221.637 25.9676C226.653 24.414 232.624 25.3197 237.724 28.3992V28.4061Z" fill="#9ECDEF"/>
<path d="M237.738 29.9947C237.738 29.8693 237.738 29.7508 237.738 29.6254C232.652 26.5738 226.709 25.6751 221.714 27.2148C221.721 27.3402 221.728 27.4656 221.735 27.591C226.723 26.0513 232.659 26.95 237.738 29.9947Z" fill="#9ECDEF"/>
<path d="M237.745 31.5692C237.745 31.4508 237.745 31.3254 237.745 31.2C232.687 28.1762 226.778 27.2914 221.804 28.8102C221.811 28.9357 221.818 29.0611 221.825 29.1795C226.792 27.6607 232.694 28.5455 237.745 31.5622V31.5692Z" fill="#9ECDEF"/>
<path d="M237.752 33.1229C237.752 33.0044 237.752 32.879 237.752 32.7606C232.722 29.7717 226.841 28.8869 221.895 30.3987C221.895 30.5242 221.909 30.6426 221.916 30.768C226.855 29.2631 232.728 30.141 237.752 33.1229Z" fill="#9ECDEF"/>
<path d="M237.759 34.6626C237.759 34.5442 237.759 34.4257 237.759 34.3073C232.756 31.3463 226.904 30.4754 221.985 31.9663C221.985 32.0848 221.999 32.2102 222.006 32.3286C226.918 30.8377 232.763 31.7086 237.766 34.6626H237.759Z" fill="#9ECDEF"/>
<path d="M237.766 36.1884C237.766 36.07 237.766 35.9515 237.766 35.8331C232.784 32.9069 226.967 32.043 222.069 33.52C222.069 33.6385 222.083 33.7569 222.09 33.8823C226.981 32.4053 232.791 33.2692 237.766 36.1884Z" fill="#9ECDEF"/>
<path d="M258.932 11.9847C252.94 9.3442 245.269 10.5634 239.138 15.106V40.5428C244.774 36.697 251.818 35.6658 257.336 37.9023C257.838 29.7438 258.367 21.1186 258.932 11.9917V11.9847Z" fill="white"/>
<path d="M257.329 13.9703C252.118 12.2913 245.917 13.2736 240.615 16.5969C240.615 16.7293 240.615 16.8617 240.615 17.001C245.91 13.6917 252.104 12.7093 257.308 14.3814C257.315 14.2421 257.322 14.1097 257.329 13.9703Z" fill="#9ECDEF"/>
<path d="M257.141 17.2449C251.985 15.6006 245.847 16.5621 240.594 19.8157C240.594 19.9481 240.594 20.0805 240.594 20.2128C245.84 16.9662 251.965 16.0117 257.12 17.649C257.127 17.5166 257.134 17.3842 257.141 17.2518V17.2449Z" fill="#9ECDEF"/>
<path d="M257.044 18.9518C251.916 17.3285 245.806 18.276 240.587 21.4948C240.587 21.6272 240.587 21.7526 240.587 21.8849C245.799 18.6731 251.902 17.7256 257.023 19.3489C257.03 19.2166 257.037 19.0842 257.044 18.9518Z" fill="#9ECDEF"/>
<path d="M256.953 20.6379C251.853 19.0285 245.778 19.969 240.587 23.153C240.587 23.2784 240.587 23.4108 240.587 23.5362C245.771 20.3592 251.839 19.4256 256.932 21.028C256.939 20.8956 256.946 20.7702 256.953 20.6379Z" fill="#9ECDEF"/>
<path d="M256.855 22.31C251.783 20.7215 245.743 21.6481 240.573 24.7972C240.573 24.9226 240.573 25.055 240.573 25.1804C245.729 22.0382 251.762 21.1116 256.835 22.7001C256.842 22.5677 256.848 22.4423 256.855 22.31Z" fill="#9ECDEF"/>
<path d="M256.765 23.9612C251.714 22.3866 245.708 23.3063 240.573 26.4205C240.573 26.5459 240.573 26.6714 240.573 26.7968C245.701 23.6894 251.707 22.7698 256.744 24.3374C256.751 24.212 256.758 24.0796 256.765 23.9542V23.9612Z" fill="#9ECDEF"/>
<path d="M256.667 25.5984C251.644 24.0378 245.666 24.9505 240.559 28.0369C240.559 28.1623 240.559 28.2877 240.559 28.4131C245.666 25.3337 251.63 24.4279 256.646 25.9816C256.653 25.8562 256.66 25.7308 256.667 25.6054V25.5984Z" fill="#9ECDEF"/>
<path d="M256.577 27.2148C251.581 25.6751 245.638 26.5738 240.552 29.6254C240.552 29.7508 240.552 29.8693 240.552 29.9947C245.631 26.95 251.567 26.0513 256.556 27.591C256.563 27.4656 256.57 27.3402 256.577 27.2148Z" fill="#9ECDEF"/>
<path d="M256.486 28.8172C251.519 27.2914 245.604 28.1832 240.546 31.2069C240.546 31.3323 240.546 31.4508 240.546 31.5762C245.597 28.5664 251.505 27.6746 256.465 29.1934C256.472 29.068 256.479 28.9426 256.486 28.8242V28.8172Z" fill="#9ECDEF"/>
<path d="M256.396 30.3987C251.449 28.8869 245.569 29.7717 240.539 32.7606C240.539 32.879 240.539 33.0044 240.539 33.1229C245.562 30.141 251.435 29.2631 256.375 30.768C256.375 30.6426 256.389 30.5242 256.396 30.3987Z" fill="#9ECDEF"/>
<path d="M256.305 31.9733C251.386 30.4823 245.534 31.3532 240.531 34.3142C240.531 34.4327 240.531 34.5511 240.531 34.6695C245.527 31.7155 251.372 30.8446 256.291 32.3356C256.291 32.2171 256.305 32.0917 256.312 31.9733H256.305Z" fill="#9ECDEF"/>
<path d="M256.221 33.52C251.324 32.043 245.506 32.9069 240.525 35.8331C240.525 35.9515 240.525 36.07 240.525 36.1884C245.499 33.2692 251.31 32.4053 256.2 33.8823C256.2 33.7639 256.214 33.6454 256.221 33.52Z" fill="#9ECDEF"/>
<path d="M185.199 76.918H122.969V110.952H185.199V76.918Z" fill="white"/>
<path d="M185.199 76.918H122.969V83.1814H185.199V76.918Z" fill="#6654CD"/>
<path d="M128.787 85.6895H143.201C144.637 85.6895 145.8 86.853 145.8 88.2883V105.065C145.8 106.5 144.637 107.664 143.201 107.664H128.787C127.351 107.664 126.188 106.5 126.188 105.065V88.2883C126.188 86.853 127.351 85.6895 128.787 85.6895Z" fill="#CEE7FD"/>
<path d="M181.493 85.4039H150.559V86.01H181.493V85.4039Z" fill="#9ECDEF"/>
<path d="M181.493 91.514H150.559V92.1201H181.493V91.514Z" fill="#9ECDEF"/>
<path d="M181.493 94.1545H150.559V94.7607H181.493V94.1545Z" fill="#9ECDEF"/>
<path d="M181.493 96.7881H150.559V97.3942H181.493V96.7881Z" fill="#9ECDEF"/>
<path d="M181.493 99.4286H150.559V100.035H181.493V99.4286Z" fill="#9ECDEF"/>
<path d="M181.493 102.069H150.559V102.675H181.493V102.069Z" fill="#9ECDEF"/>
<path d="M181.493 104.703H150.559V105.309H181.493V104.703Z" fill="#9ECDEF"/>
<path d="M181.493 107.343H150.559V107.949H181.493V107.343Z" fill="#9ECDEF"/>
<path d="M175.731 80.0462C175.731 79.5585 175.334 79.1683 174.853 79.1683C174.372 79.1683 173.975 79.5655 173.975 80.0462C173.975 80.5269 174.372 80.9241 174.853 80.9241C175.334 80.9241 175.731 80.5269 175.731 80.0462Z" fill="white"/>
<path d="M178.427 80.0462C178.427 79.5585 178.03 79.1683 177.549 79.1683C177.069 79.1683 176.672 79.5655 176.672 80.0462C176.672 80.5269 177.069 80.9241 177.549 80.9241C178.03 80.9241 178.427 80.5269 178.427 80.0462Z" fill="white"/>
<path d="M181.123 80.0462C181.123 79.5585 180.726 79.1683 180.245 79.1683C179.765 79.1683 179.367 79.5655 179.367 80.0462C179.367 80.5269 179.765 80.9241 180.245 80.9241C180.726 80.9241 181.123 80.5269 181.123 80.0462Z" fill="white"/>
<path d="M169.92 80.9241C170.408 80.9241 170.798 80.5269 170.798 80.0462C170.798 79.5655 170.401 79.1683 169.92 79.1683H125.944C125.456 79.1683 125.066 79.5655 125.066 80.0462C125.066 80.5269 125.463 80.9241 125.944 80.9241H169.92Z" fill="white"/>
<path d="M173.933 68.5645L178.016 73.1976V68.5645H178.957C180.74 68.5645 182.189 67.1153 182.189 65.3317V56.5253C182.189 54.7418 180.74 53.2926 178.957 53.2926H159.456C157.672 53.2926 156.223 54.7418 156.223 56.5253V65.3317C156.223 67.1153 157.672 68.5645 159.456 68.5645H173.933Z" fill="#9ECDEF"/>
<path d="M164.799 60.5105C164.799 58.9081 163.503 57.6122 161.901 57.6122C160.299 57.6122 159.003 58.9081 159.003 60.5105C159.003 62.113 160.299 63.4088 161.901 63.4088C163.503 63.4088 164.799 62.113 164.799 60.5105Z" fill="white"/>
<path d="M172.101 60.5105C172.101 58.9081 170.805 57.6122 169.203 57.6122C167.6 57.6122 166.304 58.9081 166.304 60.5105C166.304 62.113 167.6 63.4088 169.203 63.4088C170.805 63.4088 172.101 62.113 172.101 60.5105Z" fill="white"/>
<path d="M179.402 60.5105C179.402 58.9081 178.106 57.6122 176.504 57.6122C174.902 57.6122 173.606 58.9081 173.606 60.5105C173.606 62.113 174.902 63.4088 176.504 63.4088C178.106 63.4088 179.402 62.113 179.402 60.5105Z" fill="white"/>
<path d="M190.675 56.8179H205.153C206.936 56.8179 208.386 55.3688 208.386 53.5852V44.7788C208.386 42.9952 206.936 41.5461 205.153 41.5461H185.652C183.868 41.5461 182.419 42.9952 182.419 44.7788V53.5852C182.419 55.3688 183.868 56.8179 185.652 56.8179H186.592V61.451L190.675 56.8179Z" fill="#DA6773"/>
<path d="M205.599 48.7709C205.599 47.1685 204.303 45.8726 202.701 45.8726C201.098 45.8726 199.802 47.1685 199.802 48.7709C199.802 50.3733 201.098 51.6692 202.701 51.6692C204.303 51.6692 205.599 50.3733 205.599 48.7709Z" fill="white"/>
<path d="M198.297 48.7709C198.297 47.1685 197.001 45.8726 195.399 45.8726C193.796 45.8726 192.5 47.1685 192.5 48.7709C192.5 50.3733 193.796 51.6692 195.399 51.6692C197.001 51.6692 198.297 50.3733 198.297 48.7709Z" fill="white"/>
<path d="M190.996 48.7709C190.996 47.1685 189.7 45.8726 188.097 45.8726C186.495 45.8726 185.199 47.1685 185.199 48.7709C185.199 50.3733 186.495 51.6692 188.097 51.6692C189.7 51.6692 190.996 50.3733 190.996 48.7709Z" fill="white"/>
<path d="M303.145 65.5198H281.623V94.8513H299.884L303.145 91.4444V65.5198Z" fill="white"/>
<path d="M303.145 65.5198H281.623V67.2755H303.145V65.5198Z" fill="#9ECDEF"/>
<path d="M301.884 69.4562H282.884V69.9369H301.884V69.4562Z" fill="#8CC0DF"/>
<path d="M301.884 73.518H282.884V73.9988H301.884V73.518Z" fill="#8CC0DF"/>
<path d="M301.884 75.9147H282.884V76.3955H301.884V75.9147Z" fill="#8CC0DF"/>
<path d="M301.884 78.3114H282.884V78.7921H301.884V78.3114Z" fill="#8CC0DF"/>
<path d="M301.884 80.7081H282.884V81.1888H301.884V80.7081Z" fill="#8CC0DF"/>
<path d="M301.884 83.1047H282.884V83.5855H301.884V83.1047Z" fill="#8CC0DF"/>
<path d="M301.884 85.5014H282.884V85.9822H301.884V85.5014Z" fill="#8CC0DF"/>
<path d="M301.884 87.8981H282.884V88.3788H301.884V87.8981Z" fill="#8CC0DF"/>
<path d="M301.884 90.2948H282.884V90.7755H301.884V90.2948Z" fill="#8CC0DF"/>
<path d="M299.884 94.8513L303.145 91.4444H299.884V94.8513Z" fill="#9ECDEF"/>
<path d="M278.598 62.1074C285.147 59.3772 288.243 51.8549 285.513 45.3058C282.782 38.7567 275.26 35.6609 268.711 38.391C262.162 41.1212 259.066 48.6435 261.796 55.1926C264.526 61.7416 272.049 64.8375 278.598 62.1074Z" fill="#FF9837"/>
<path d="M271.779 55.1388H275.535C276.217 55.1388 276.768 54.5884 276.768 53.9057V53.5225C276.768 52.0803 277.276 50.6799 278.217 49.5861C279.116 48.5341 279.666 47.1755 279.666 45.6845C279.666 42.1383 276.594 39.3096 272.964 39.7137C270.247 40.0203 268.031 42.201 267.697 44.9181C267.481 46.6808 268.024 48.3111 269.048 49.5303C269.989 50.659 270.546 52.0594 270.546 53.5295V53.9126C270.546 54.5954 271.096 55.1458 271.779 55.1458V55.1388ZM269.41 49.2168C268.414 48.0324 267.975 46.5206 268.17 44.9669C268.477 42.4727 270.518 40.4522 273.019 40.1735C273.235 40.1526 273.451 40.1387 273.66 40.1387C276.712 40.1387 279.199 42.619 279.199 45.6775C279.199 46.9943 278.725 48.2763 277.862 49.2726C276.858 50.443 276.301 51.9479 276.301 53.5155V53.8987C276.301 54.3167 275.96 54.6651 275.535 54.6651H271.779C271.361 54.6651 271.013 54.3237 271.013 53.8987V53.5155C271.013 51.9828 270.442 50.457 269.403 49.2168H269.41Z" fill="white"/>
<path d="M271.725 48.074L271.329 48.1504L272.722 55.3886L273.119 55.3122L271.725 48.074Z" fill="white"/>
<path d="M272.106 48.2136C272.148 47.8791 271.911 47.5726 271.577 47.5308C271.243 47.489 270.936 47.7259 270.894 48.0603C270.852 48.3947 271.089 48.7012 271.424 48.743C271.758 48.7849 272.065 48.548 272.106 48.2136Z" fill="white"/>
<path d="M275.601 48.1066L274.207 55.3448L274.604 55.4212L275.998 48.183L275.601 48.1066Z" fill="white"/>
<path d="M276.419 48.0603C276.378 47.7259 276.071 47.489 275.737 47.5308C275.402 47.5726 275.165 47.8791 275.207 48.2136C275.249 48.548 275.555 48.7849 275.89 48.743C276.224 48.7012 276.461 48.3947 276.419 48.0603Z" fill="white"/>
<path d="M273.653 60.7683C274.301 60.7683 274.831 60.2388 274.831 59.5908V59.4097C275.534 59.2703 276.064 58.6503 276.064 57.9048V55.0204H271.243V57.9048C271.243 58.6503 271.772 59.2703 272.476 59.4097V59.5908C272.476 60.2388 273.005 60.7683 273.653 60.7683Z" fill="white"/>
<path d="M280.363 24.9435C280.363 22.3309 278.245 20.2059 275.625 20.2059C273.005 20.2059 270.887 22.3239 270.887 24.9435C270.887 27.5632 273.005 29.6812 275.625 29.6812C278.245 29.6812 280.363 27.5632 280.363 24.9435ZM272.218 24.9435C272.218 23.0624 273.744 21.5366 275.625 21.5366C277.506 21.5366 279.032 23.0624 279.032 24.9435C279.032 26.8247 277.506 28.3504 275.625 28.3504C273.744 28.3504 272.218 26.8247 272.218 24.9435Z" fill="white"/>
<path d="M249.038 52.3729C249.038 51.1815 248.077 50.2201 246.886 50.2201C245.694 50.2201 244.733 51.1815 244.733 52.3729C244.733 53.5643 245.694 54.5257 246.886 54.5257C248.077 54.5257 249.038 53.5643 249.038 52.3729Z" fill="#CEE7FD"/>
<path d="M265.606 76.8552C265.606 75.009 264.115 73.518 262.269 73.518C260.423 73.518 258.932 75.009 258.932 76.8552C258.932 78.7015 260.423 80.1925 262.269 80.1925C264.115 80.1925 265.606 78.7015 265.606 76.8552ZM260.262 76.8552C260.262 75.7475 261.161 74.8487 262.269 74.8487C263.377 74.8487 264.275 75.7475 264.275 76.8552C264.275 77.963 263.377 78.8618 262.269 78.8618C261.161 78.8618 260.262 77.963 260.262 76.8552Z" fill="white"/>
<path d="M295.272 38.9752C298.31 39.651 300.908 36.6413 299.48 33.5548C299.16 32.8581 298.588 32.2938 297.899 31.9733C294.812 30.5451 291.802 33.1438 292.478 36.1814C292.785 37.5609 293.9 38.6757 295.279 38.9822L295.272 38.9752ZM296.136 32.8999C297.474 32.8999 298.561 33.9868 298.561 35.3245C298.561 36.6622 297.474 37.749 296.136 37.749C294.798 37.749 293.711 36.6622 293.711 35.3245C293.711 33.9868 294.798 32.8999 296.136 32.8999Z" fill="white"/>
<path d="M308.447 141.447C308.447 138.047 305.688 135.288 302.288 135.288C298.888 135.288 296.129 138.047 296.129 141.447C296.129 144.847 298.888 147.606 302.288 147.606C305.688 147.606 308.447 144.847 308.447 141.447ZM297.46 141.447C297.46 138.786 299.626 136.619 302.288 136.619C304.949 136.619 307.116 138.786 307.116 141.447C307.116 144.109 304.949 146.275 302.288 146.275C299.626 146.275 297.46 144.109 297.46 141.447Z" fill="white"/>
</svg>
