<svg width="26" height="25" viewBox="0 0 26 25" fill="none" xmlns="http://www.w3.org/2000/svg">
<path d="M19.3079 2.21053V2.06053H19.1579H7.05263H6.90263V2.21053V3.42105V3.57105H7.05263H19.1579H19.3079V3.42105V2.21053ZM22.6395 3.42105V3.57105H22.7895C23.3752 3.57105 23.85 4.04587 23.85 4.63158V21.5789C23.85 22.1647 23.3752 22.6395 22.7895 22.6395H3.42105C2.83534 22.6395 2.36053 22.1647 2.36053 21.5789V4.63158C2.36053 4.04587 2.83535 3.57105 3.42105 3.57105H3.57105V3.42105V2.21053V2.06053H3.42105C2.0011 2.06053 0.85 3.21162 0.85 4.63158V21.5789C0.85 22.9989 2.0011 24.15 3.42105 24.15H22.7895C24.2095 24.15 25.3605 22.9989 25.3605 21.5789V4.63158C25.3605 3.21163 24.2095 2.06053 22.7895 2.06053H22.6395V2.21053V3.42105Z" fill="#408EBA" stroke="#408EBA" stroke-width="0.3"/>
<path d="M20.9744 0.85C20.5573 0.85 20.2191 1.18814 20.2191 1.60526V4.02632C20.2191 4.44344 20.5573 4.78158 20.9744 4.78158C21.3915 4.78158 21.7297 4.44344 21.7297 4.02632V1.60526C21.7297 1.18814 21.3915 0.85 20.9744 0.85Z" fill="#408EBA" stroke="#408EBA" stroke-width="0.3"/>
<path d="M5.23612 0.85C4.81901 0.85 4.48086 1.18815 4.48086 1.60526V4.02632C4.48086 4.44343 4.81901 4.78158 5.23612 4.78158C5.65324 4.78158 5.99139 4.44343 5.99139 4.02632V1.60526C5.99139 1.18815 5.65324 0.85 5.23612 0.85Z" fill="#408EBA" stroke="#408EBA" stroke-width="0.3"/>
<path d="M24.0004 8.41315H24.1504V8.26315V7.05263V6.90263H24.0004H2.21094H2.06094V7.05263V8.26315V8.41315H2.21094H24.0004Z" fill="#408EBA" stroke="#408EBA" stroke-width="0.3"/>
<path d="M4.7824 12.9553V12.0447H6.90345V12.9553H4.7824ZM4.6324 10.5342C3.88101 10.5342 3.27187 11.1433 3.27187 11.8947V13.1053C3.27187 13.8567 3.88101 14.4658 4.6324 14.4658H7.05345C7.80484 14.4658 8.41398 13.8567 8.41398 13.1053V11.8947C8.41398 11.1433 7.80484 10.5342 7.05345 10.5342H4.6324Z" fill="#408EBA" stroke="#408EBA" stroke-width="0.3"/>
<path d="M12.0461 12.9553V12.0447H14.1671V12.9553H12.0461ZM11.8961 10.5342C11.1447 10.5342 10.5355 11.1433 10.5355 11.8947V13.1053C10.5355 13.8567 11.1447 14.4658 11.8961 14.4658H14.3171C15.0685 14.4658 15.6777 13.8567 15.6777 13.1053V11.8947C15.6777 11.1433 15.0685 10.5342 14.3171 10.5342H11.8961Z" fill="#408EBA" stroke="#408EBA" stroke-width="0.3"/>
<path d="M19.3078 12.9553V12.0447H21.4288V12.9553H19.3078ZM19.1578 10.5342C18.4064 10.5342 17.7973 11.1433 17.7973 11.8947V13.1053C17.7973 13.8567 18.4064 14.4658 19.1578 14.4658H21.5788C22.3303 14.4658 22.9394 13.8567 22.9394 13.1053V11.8947C22.9394 11.1433 22.3303 10.5342 21.5788 10.5342H19.1578Z" fill="#408EBA" stroke="#408EBA" stroke-width="0.3"/>
<path d="M4.7824 19.0079V18.0974H6.90345V19.0079H4.7824ZM4.6324 16.5869C3.88101 16.5869 3.27187 17.196 3.27187 17.9474V19.1579C3.27187 19.9093 3.88101 20.5184 4.6324 20.5184H7.05345C7.80484 20.5184 8.41398 19.9093 8.41398 19.1579V17.9474C8.41398 17.196 7.80484 16.5869 7.05345 16.5869H4.6324Z" fill="#408EBA" stroke="#408EBA" stroke-width="0.3"/>
<path d="M12.0461 19.0079V18.0974H14.1671V19.0079H12.0461ZM11.8961 16.5869C11.1447 16.5869 10.5355 17.196 10.5355 17.9474V19.1579C10.5355 19.9093 11.1447 20.5184 11.8961 20.5184H14.3171C15.0685 20.5184 15.6777 19.9093 15.6777 19.1579V17.9474C15.6777 17.196 15.0685 16.5869 14.3171 16.5869H11.8961Z" fill="#408EBA" stroke="#408EBA" stroke-width="0.3"/>
<path d="M19.3078 19.0079V18.0974H21.4288V19.0079H19.3078ZM19.1578 16.5869C18.4064 16.5869 17.7973 17.196 17.7973 17.9474V19.1579C17.7973 19.9093 18.4064 20.5184 19.1578 20.5184H21.5788C22.3303 20.5184 22.9394 19.9093 22.9394 19.1579V17.9474C22.9394 17.196 22.3303 16.5869 21.5788 16.5869H19.1578Z" fill="#408EBA" stroke="#408EBA" stroke-width="0.3"/>
</svg>
