<svg width="25" height="25" viewBox="0 0 25 25" fill="none" xmlns="http://www.w3.org/2000/svg">
<rect x="1" y="1" width="22.557" height="22.8988" rx="1.38781" stroke="#363636" stroke-width="1.38781"/>
<path d="M5.08411 11.5554L3.68688 10.9341L3.68687 10.9341C3.43107 10.8204 3.26293 10.5784 3.25416 10.3013C3.24538 10.024 3.39795 9.77232 3.64652 9.64355L3.64675 9.64343C3.65708 9.6381 3.66746 9.6332 3.67791 9.62866L3.67804 9.6286L7.80567 7.84128C8.19128 7.64851 8.64694 7.64851 9.03255 7.84128L13.1602 9.6286L13.1603 9.62866L5.08411 11.5554ZM5.08411 11.5554V13.5763C5.08411 13.8347 5.24495 14.0613 5.487 14.156L5.53756 14.0268L5.48701 14.156L5.977 14.3477C6.76446 14.6557 7.59181 14.8097 8.41942 14.8097C9.24786 14.8097 10.0764 14.6553 10.8645 14.3466L11.3514 14.1559L11.3514 14.1559C11.5933 14.0611 11.7541 13.8346 11.7541 13.5763V11.5554L13.1513 10.9341C13.4072 10.8203 13.5752 10.5784 13.584 10.3013C13.584 10.3012 13.584 10.3012 13.584 10.3012L13.4453 10.2968M5.08411 11.5554L13.1278 9.76677M13.4453 10.2968C13.4524 10.075 13.3307 9.87193 13.1278 9.76677M13.4453 10.2968C13.4383 10.5187 13.304 10.7143 13.0949 10.8073L11.6153 11.4652L13.4453 10.2968ZM13.1278 9.76677L13.1917 9.64359C13.1917 9.64358 13.1917 9.64357 13.1917 9.64356L13.1278 9.76677ZM8.56426 11.9097L8.56429 11.9096L12.2234 10.2825L8.6145 8.71979L8.61436 8.71973L8.56426 11.9097ZM8.56426 11.9097C8.47222 11.9506 8.36627 11.9506 8.27402 11.9096C8.27402 11.9096 8.27401 11.9096 8.274 11.9096L4.61496 10.2825M8.56426 11.9097L4.61496 10.2825M4.61496 10.2825L8.22381 8.71979L8.22395 8.71973C8.23437 8.7152 8.24484 8.71026 8.25532 8.70482L4.61496 10.2825ZM8.97726 12.7904L8.97726 12.7904L10.76 11.9976V13.3441L10.4936 13.4485C10.4936 13.4485 10.4936 13.4485 10.4936 13.4485C9.15687 13.972 7.68471 13.9724 6.34768 13.4494L6.07829 13.344V11.9976L7.86104 12.7904C7.86104 12.7904 7.86104 12.7904 7.86105 12.7904C8.03848 12.8693 8.22888 12.9087 8.41913 12.9087C8.60944 12.9087 8.79979 12.8693 8.97726 12.7904ZM8.25538 8.7048C8.35785 8.6517 8.48046 8.6517 8.58293 8.7048H8.25538Z" fill="#363636" stroke="#363636" stroke-width="0.277561"/>
<path d="M16.0508 7.33947H21.0234C21.2197 7.33947 21.3788 7.14446 21.3788 6.90391C21.3788 6.66337 21.2197 6.46835 21.0234 6.46835H16.0508C15.8545 6.46835 15.6953 6.66337 15.6953 6.90391C15.6953 7.14446 15.8545 7.33947 16.0508 7.33947Z" fill="#363636"/>
<path d="M16.0508 7.33947H21.0234C21.2197 7.33947 21.3788 7.14446 21.3788 6.90391C21.3788 6.66337 21.2197 6.46835 21.0234 6.46835H16.0508C15.8545 6.46835 15.6953 6.66337 15.6953 6.90391C15.6953 7.14446 15.8545 7.33947 16.0508 7.33947Z" stroke="#363636"/>
<path d="M16.0508 9.39016H21.0234C21.2197 9.39016 21.3788 9.19515 21.3788 8.9546C21.3788 8.71406 21.2197 8.51904 21.0234 8.51904H16.0508C15.8545 8.51904 15.6953 8.71406 15.6953 8.9546C15.6953 9.19515 15.8545 9.39016 16.0508 9.39016Z" fill="#363636"/>
<path d="M16.0508 9.39016H21.0234C21.2197 9.39016 21.3788 9.19515 21.3788 8.9546C21.3788 8.71406 21.2197 8.51904 21.0234 8.51904H16.0508C15.8545 8.51904 15.6953 8.71406 15.6953 8.9546C15.6953 9.19515 15.8545 9.39016 16.0508 9.39016Z" stroke="#363636"/>
<path d="M16.0508 11.4408H21.0234C21.2197 11.4408 21.3788 11.2458 21.3788 11.0052C21.3788 10.7647 21.2197 10.5697 21.0234 10.5697H16.0508C15.8545 10.5697 15.6953 10.7647 15.6953 11.0052C15.6953 11.2458 15.8545 11.4408 16.0508 11.4408Z" fill="#363636"/>
<path d="M16.0508 11.4408H21.0234C21.2197 11.4408 21.3788 11.2458 21.3788 11.0052C21.3788 10.7647 21.2197 10.5697 21.0234 10.5697H16.0508C15.8545 10.5697 15.6953 10.7647 15.6953 11.0052C15.6953 11.2458 15.8545 11.4408 16.0508 11.4408Z" stroke="#363636"/>
<path d="M16.0508 13.4914H21.0234C21.2197 13.4914 21.3788 13.2964 21.3788 13.0559C21.3788 12.8153 21.2197 12.6203 21.0234 12.6203H16.0508C15.8545 12.6203 15.6953 12.8153 15.6953 13.0559C15.6953 13.2964 15.8545 13.4914 16.0508 13.4914Z" fill="#363636"/>
<path d="M16.0508 13.4914H21.0234C21.2197 13.4914 21.3788 13.2964 21.3788 13.0559C21.3788 12.8153 21.2197 12.6203 21.0234 12.6203H16.0508C15.8545 12.6203 15.6953 12.8153 15.6953 13.0559C15.6953 13.2964 15.8545 13.4914 16.0508 13.4914Z" stroke="#363636"/>
<path d="M16.0508 15.5421H21.0234C21.2197 15.5421 21.3788 15.347 21.3788 15.1065C21.3788 14.8659 21.2197 14.6709 21.0234 14.6709H16.0508C15.8545 14.6709 15.6953 14.8659 15.6953 15.1065C15.6953 15.347 15.8545 15.5421 16.0508 15.5421Z" fill="#363636"/>
<path d="M16.0508 15.5421H21.0234C21.2197 15.5421 21.3788 15.347 21.3788 15.1065C21.3788 14.8659 21.2197 14.6709 21.0234 14.6709H16.0508C15.8545 14.6709 15.6953 14.8659 15.6953 15.1065C15.6953 15.347 15.8545 15.5421 16.0508 15.5421Z" stroke="#363636"/>
<path d="M3.39258 17.7469H21.5066" stroke="#363636" stroke-width="0.867379" stroke-linecap="round"/>
<path d="M3.39258 19.4557H21.5066" stroke="#363636" stroke-width="0.867379" stroke-linecap="round"/>
<path d="M3.39258 21.1646H21.5066" stroke="#363636" stroke-width="0.867379" stroke-linecap="round"/>
<path d="M14.8427 7.49367C15.1259 7.49367 15.3554 7.26415 15.3554 6.98101C15.3554 6.69788 15.1259 6.46835 14.8427 6.46835C14.5596 6.46835 14.3301 6.69788 14.3301 6.98101C14.3301 7.26415 14.5596 7.49367 14.8427 7.49367Z" fill="#363636"/>
<path d="M14.8427 7.49367C15.1259 7.49367 15.3554 7.26415 15.3554 6.98101C15.3554 6.69788 15.1259 6.46835 14.8427 6.46835C14.5596 6.46835 14.3301 6.69788 14.3301 6.98101C14.3301 7.26415 14.5596 7.49367 14.8427 7.49367Z" stroke="#363636"/>
<path d="M14.8427 9.54436C15.1259 9.54436 15.3554 9.31484 15.3554 9.0317C15.3554 8.74857 15.1259 8.51904 14.8427 8.51904C14.5596 8.51904 14.3301 8.74857 14.3301 9.0317C14.3301 9.31484 14.5596 9.54436 14.8427 9.54436Z" fill="#363636"/>
<path d="M14.8427 9.54436C15.1259 9.54436 15.3554 9.31484 15.3554 9.0317C15.3554 8.74857 15.1259 8.51904 14.8427 8.51904C14.5596 8.51904 14.3301 8.74857 14.3301 9.0317C14.3301 9.31484 14.5596 9.54436 14.8427 9.54436Z" stroke="#363636"/>
<path d="M14.8427 11.595C15.1259 11.595 15.3554 11.3655 15.3554 11.0823C15.3554 10.7992 15.1259 10.5697 14.8427 10.5697C14.5596 10.5697 14.3301 10.7992 14.3301 11.0823C14.3301 11.3655 14.5596 11.595 14.8427 11.595Z" fill="#363636"/>
<path d="M14.8427 11.595C15.1259 11.595 15.3554 11.3655 15.3554 11.0823C15.3554 10.7992 15.1259 10.5697 14.8427 10.5697C14.5596 10.5697 14.3301 10.7992 14.3301 11.0823C14.3301 11.3655 14.5596 11.595 14.8427 11.595Z" stroke="#363636"/>
<path d="M14.8427 13.6456C15.1259 13.6456 15.3554 13.4161 15.3554 13.133C15.3554 12.8498 15.1259 12.6203 14.8427 12.6203C14.5596 12.6203 14.3301 12.8498 14.3301 13.133C14.3301 13.4161 14.5596 13.6456 14.8427 13.6456Z" fill="#363636"/>
<path d="M14.8427 13.6456C15.1259 13.6456 15.3554 13.4161 15.3554 13.133C15.3554 12.8498 15.1259 12.6203 14.8427 12.6203C14.5596 12.6203 14.3301 12.8498 14.3301 13.133C14.3301 13.4161 14.5596 13.6456 14.8427 13.6456Z" stroke="#363636"/>
<path d="M14.8427 15.6962C15.1259 15.6962 15.3554 15.4667 15.3554 15.1836C15.3554 14.9005 15.1259 14.6709 14.8427 14.6709C14.5596 14.6709 14.3301 14.9005 14.3301 15.1836C14.3301 15.4667 14.5596 15.6962 14.8427 15.6962Z" fill="#363636"/>
<path d="M14.8427 15.6962C15.1259 15.6962 15.3554 15.4667 15.3554 15.1836C15.3554 14.9005 15.1259 14.6709 14.8427 14.6709C14.5596 14.6709 14.3301 14.9005 14.3301 15.1836C14.3301 15.4667 14.5596 15.6962 14.8427 15.6962Z" stroke="#363636"/>
</svg>
