<svg width="19" height="24" viewBox="0 0 19 24" fill="none" xmlns="http://www.w3.org/2000/svg">
<path fill-rule="evenodd" clip-rule="evenodd" d="M18.8578 0.797607V18.3085H16.1639V22.3494H18.1843V23.6964H3.36747C2.38417 23.6964 1.44128 23.2654 0.806849 22.5111C0.282872 21.8915 0 21.1237 0 20.3289V4.16508C0 2.30623 1.50863 0.797607 3.36747 0.797607H18.8578ZM14.8169 18.3085H3.51563C2.45152 18.3085 1.53422 19.0224 1.37393 19.9787C1.35912 20.0865 1.34699 20.1942 1.34699 20.302V20.329C1.34699 20.8139 1.50863 21.2584 1.8319 21.6355C2.22253 22.0935 2.7748 22.3494 3.36747 22.3494H14.8169V21.0024H2.86909V19.6554H14.8169V18.3085ZM17.5109 2.14459H3.36747C2.26159 2.14459 1.34699 3.04707 1.34699 4.16508V17.6754C1.95314 17.2309 2.7061 16.9615 3.51563 16.9615H17.5109L17.5109 2.14459ZM14.143 11.5735V12.9205H4.71405V11.5735H14.143V11.5735ZM14.8165 4.83859V10.2265H4.04058V4.83858H14.8165L14.8165 4.83859ZM13.4695 6.18557H5.38755V8.87955H13.4695V6.18557Z" fill="#363636"/>
</svg>
