<svg width="23" height="23" viewBox="0 0 23 23" fill="none" xmlns="http://www.w3.org/2000/svg">
<path d="M8.29061 17.1163C7.8475 17.1163 7.48828 17.4755 7.48828 17.9186C7.48828 18.3617 7.8475 18.721 8.29061 18.721H14.7092C15.1523 18.721 15.5115 18.3617 15.5115 17.9186C15.5115 17.4755 15.1523 17.1163 14.7092 17.1163H8.29061Z" fill="#363636"/>
<path fill-rule="evenodd" clip-rule="evenodd" d="M11.5 0C10.7425 0 10.0542 0.21697 9.30757 0.580071C8.58579 0.931072 7.75198 1.44856 6.7105 2.09495L4.49974 3.46701C3.51428 4.07861 2.72517 4.56834 2.11696 5.03412C1.48714 5.51646 1.00339 6.0077 0.65396 6.64607C0.305258 7.2831 0.148238 7.96093 0.0729477 8.76214C-1.04651e-05 9.53858 -1.04432e-05 10.4881 2.54455e-07 11.6789V13.4041C-1.04432e-05 15.4407 -2.12012e-05 17.0485 0.163354 18.3054C0.330954 19.5949 0.683111 20.6359 1.4788 21.4589C2.27816 22.2858 3.29538 22.6552 4.55465 22.8303C5.77513 23 7.33385 23 9.29826 23H13.7017C15.6661 23 17.2249 23 18.4454 22.8303C19.7046 22.6552 20.7218 22.2858 21.5212 21.4589C22.3168 20.6359 22.669 19.5949 22.8366 18.3054C23 17.0485 23 15.4408 23 13.4041V11.6789C23 10.4881 23 9.53858 22.927 8.76214C22.8517 7.96093 22.6947 7.2831 22.3461 6.64607C21.9967 6.0077 21.5129 5.51646 20.883 5.03412C20.2749 4.56834 19.4857 4.07862 18.5002 3.46702L16.2895 2.09494C15.248 1.44856 14.4142 0.931061 13.6924 0.580071C12.9458 0.21697 12.2575 0 11.5 0ZM7.51996 3.48115C8.60659 2.80676 9.37063 2.33373 10.0093 2.02314C10.6316 1.72054 11.0723 1.60465 11.5 1.60465C11.9277 1.60465 12.3684 1.72054 12.9907 2.02313C13.6294 2.33373 14.3934 2.80676 15.4801 3.48115L17.6196 4.809C18.6474 5.44692 19.3691 5.89586 19.9074 6.3081C20.4312 6.7092 20.7324 7.0402 20.9385 7.41654C21.1452 7.79421 21.2659 8.23577 21.3295 8.91228C21.3945 9.60501 21.3953 10.4792 21.3953 11.7181V13.3453C21.3953 15.4538 21.3937 16.9571 21.2454 18.0986C21.0997 19.2198 20.8252 19.8703 20.3675 20.3437C19.9136 20.8132 19.2955 21.092 18.2243 21.241C17.1272 21.3935 15.6801 21.3953 13.6395 21.3953H9.36047C7.31985 21.3953 5.87284 21.3935 4.77568 21.241C3.70445 21.092 3.08643 20.8132 2.63247 20.3437C2.17485 19.8703 1.90036 19.2198 1.75462 18.0986C1.60625 16.9571 1.60465 15.4538 1.60465 13.3453V11.7181C1.60465 10.4792 1.60546 9.60501 1.67056 8.91228C1.73413 8.23577 1.85482 7.79421 2.06154 7.41654C2.26753 7.0402 2.56887 6.7092 3.09261 6.3081C3.6309 5.89586 4.35255 5.44692 5.38043 4.809L7.51996 3.48115Z" fill="#363636"/>
</svg>
