<svg width="992" height="978" viewBox="0 0 992 978" fill="none" xmlns="http://www.w3.org/2000/svg">
<rect width="960" height="978" fill="#246285"/>
<path d="M301.5 727.5C301.5 862.258 192.48 971.5 58 971.5C-76.4804 971.5 -185.5 862.258 -185.5 727.5C-185.5 592.742 -76.4804 483.5 58 483.5C192.48 483.5 301.5 592.742 301.5 727.5ZM258.618 727.5C258.618 838.527 168.797 928.53 58 928.53C-52.7972 928.53 -142.618 838.527 -142.618 727.5C-142.618 616.473 -52.7972 526.47 58 526.47C168.797 526.47 258.618 616.473 258.618 727.5ZM58 929.53C169.351 929.53 259.618 839.077 259.618 727.5C259.618 615.923 169.351 525.47 58 525.47C-53.3514 525.47 -143.618 615.923 -143.618 727.5C-143.618 839.077 -53.3514 929.53 58 929.53ZM211.447 727.5C211.447 812.422 142.746 881.263 58 881.263C-26.7456 881.263 -95.4473 812.422 -95.4473 727.5C-95.4473 642.578 -26.7456 573.737 58 573.737C142.746 573.737 211.447 642.578 211.447 727.5ZM58 882.263C143.3 882.263 212.447 812.972 212.447 727.5C212.447 642.028 143.3 572.737 58 572.737C-27.2998 572.737 -96.4473 642.028 -96.4473 727.5C-96.4473 812.972 -27.2998 882.263 58 882.263ZM170.28 727.5C170.28 789.639 120.01 840.011 58 840.011C-4.00975 840.011 -54.2803 789.639 -54.2803 727.5C-54.2803 665.361 -4.00975 614.989 58 614.989C120.01 614.989 170.28 665.361 170.28 727.5ZM58 841.011C120.564 841.011 171.28 790.19 171.28 727.5C171.28 664.81 120.564 613.989 58 613.989C-4.56395 613.989 -55.2803 664.81 -55.2803 727.5C-55.2803 790.19 -4.56395 841.011 58 841.011ZM129.971 727.5C129.971 767.331 97.7475 799.62 58 799.62C18.2525 799.62 -13.971 767.331 -13.971 727.5C-13.971 687.669 18.2525 655.38 58 655.38C97.7475 655.38 129.971 687.669 129.971 727.5ZM58 800.62C98.3017 800.62 130.971 767.882 130.971 727.5C130.971 687.118 98.3017 654.38 58 654.38C17.6983 654.38 -14.971 687.118 -14.971 727.5C-14.971 767.882 17.6983 800.62 58 800.62ZM94.8076 727.93C94.8076 748.538 78.1353 765.243 57.5712 765.243C37.007 765.243 20.3348 748.538 20.3348 727.93C20.3348 707.321 37.007 690.616 57.5712 690.616C78.1353 690.616 94.8076 707.321 94.8076 727.93ZM57.5712 766.243C78.6895 766.243 95.8076 749.089 95.8076 727.93C95.8076 706.771 78.6895 689.616 57.5712 689.616C36.4529 689.616 19.3348 706.771 19.3348 727.93C19.3348 749.089 36.4529 766.243 57.5712 766.243Z" stroke="white" stroke-opacity="0.1"/>
<path d="M959.5 1065C959.5 1266.86 795.86 1430.5 594 1430.5C392.14 1430.5 228.5 1266.86 228.5 1065C228.5 863.14 392.14 699.5 594 699.5C795.86 699.5 959.5 863.14 959.5 1065ZM895.177 1065C895.177 1231.34 760.335 1366.18 594 1366.18C427.665 1366.18 292.823 1231.34 292.823 1065C292.823 898.665 427.665 763.823 594 763.823C760.335 763.823 895.177 898.665 895.177 1065ZM594 1367.18C760.888 1367.18 896.177 1231.89 896.177 1065C896.177 898.112 760.888 762.823 594 762.823C427.112 762.823 291.823 898.112 291.823 1065C291.823 1231.89 427.112 1367.18 594 1367.18ZM824.421 1065C824.421 1192.26 721.258 1295.42 594 1295.42C466.742 1295.42 363.579 1192.26 363.579 1065C363.579 937.742 466.742 834.579 594 834.579C721.258 834.579 824.421 937.742 824.421 1065ZM594 1296.42C721.81 1296.42 825.421 1192.81 825.421 1065C825.421 937.19 721.81 833.579 594 833.579C466.19 833.579 362.579 937.19 362.579 1065C362.579 1192.81 466.19 1296.42 594 1296.42ZM762.67 1065C762.67 1158.15 687.154 1233.67 594 1233.67C500.846 1233.67 425.33 1158.15 425.33 1065C425.33 971.846 500.846 896.33 594 896.33C687.154 896.33 762.67 971.846 762.67 1065ZM594 1234.67C687.706 1234.67 763.67 1158.71 763.67 1065C763.67 971.294 687.706 895.33 594 895.33C500.294 895.33 424.33 971.294 424.33 1065C424.33 1158.71 500.294 1234.67 594 1234.67ZM702.206 1065C702.206 1124.76 653.761 1173.21 594 1173.21C534.239 1173.21 485.793 1124.76 485.793 1065C485.793 1005.24 534.239 956.793 594 956.793C653.761 956.793 702.206 1005.24 702.206 1065ZM594 1174.21C654.313 1174.21 703.206 1125.31 703.206 1065C703.206 1004.69 654.313 955.793 594 955.793C533.687 955.793 484.793 1004.69 484.793 1065C484.793 1125.31 533.687 1174.21 594 1174.21ZM649.461 1065.64C649.461 1096.63 624.342 1121.75 593.357 1121.75C562.371 1121.75 537.252 1096.63 537.252 1065.64C537.252 1034.66 562.371 1009.54 593.357 1009.54C624.342 1009.54 649.461 1034.66 649.461 1065.64ZM593.357 1122.75C624.895 1122.75 650.461 1097.18 650.461 1065.64C650.461 1034.11 624.895 1008.54 593.357 1008.54C561.819 1008.54 536.252 1034.11 536.252 1065.64C536.252 1097.18 561.819 1122.75 593.357 1122.75Z" stroke="white" stroke-opacity="0.1"/>
<path d="M485.5 159.5C485.5 337.888 340.888 482.5 162.5 482.5C-15.888 482.5 -160.5 337.888 -160.5 159.5C-160.5 -18.888 -15.888 -163.5 162.5 -163.5C340.888 -163.5 485.5 -18.888 485.5 159.5ZM428.646 159.5C428.646 306.488 309.488 425.646 162.5 425.646C15.5117 425.646 -103.646 306.488 -103.646 159.5C-103.646 12.5117 15.5117 -106.646 162.5 -106.646C309.488 -106.646 428.646 12.5117 428.646 159.5ZM162.5 426.646C310.041 426.646 429.646 307.041 429.646 159.5C429.646 11.9594 310.041 -107.646 162.5 -107.646C14.9594 -107.646 -104.646 11.9594 -104.646 159.5C-104.646 307.041 14.9594 426.646 162.5 426.646ZM366.106 159.5C366.106 271.949 274.949 363.106 162.5 363.106C50.0513 363.106 -41.1063 271.949 -41.1063 159.5C-41.1063 47.0513 50.0513 -44.1063 162.5 -44.1063C274.949 -44.1063 366.106 47.0513 366.106 159.5ZM162.5 364.106C275.501 364.106 367.106 272.501 367.106 159.5C367.106 46.4991 275.501 -45.1063 162.5 -45.1063C49.4991 -45.1063 -42.1063 46.4991 -42.1063 159.5C-42.1063 272.501 49.4991 364.106 162.5 364.106ZM311.526 159.5C311.526 241.805 244.805 308.526 162.5 308.526C80.195 308.526 13.4736 241.805 13.4736 159.5C13.4736 77.195 80.195 10.4736 162.5 10.4736C244.805 10.4736 311.526 77.195 311.526 159.5ZM162.5 309.526C245.357 309.526 312.526 242.357 312.526 159.5C312.526 76.6427 245.357 9.47363 162.5 9.47363C79.6427 9.47363 12.4736 76.6427 12.4736 159.5C12.4736 242.357 79.6427 309.526 162.5 309.526ZM258.083 159.5C258.083 212.289 215.289 255.083 162.5 255.083C109.711 255.083 66.9165 212.289 66.9165 159.5C66.9165 106.711 109.711 63.9165 162.5 63.9165C215.289 63.9165 258.083 106.711 258.083 159.5ZM162.5 256.083C215.842 256.083 259.083 212.842 259.083 159.5C259.083 106.158 215.842 62.9165 162.5 62.9165C109.158 62.9165 65.9165 106.158 65.9165 159.5C65.9165 212.842 109.158 256.083 162.5 256.083ZM211.463 160.069C211.463 187.424 189.287 209.6 161.931 209.6C134.576 209.6 112.4 187.424 112.4 160.069C112.4 132.713 134.576 110.537 161.931 110.537C189.287 110.537 211.463 132.713 211.463 160.069ZM161.931 210.6C189.839 210.6 212.463 187.976 212.463 160.069C212.463 132.161 189.839 109.537 161.931 109.537C134.024 109.537 111.4 132.161 111.4 160.069C111.4 187.976 134.024 210.6 161.931 210.6Z" stroke="white" stroke-opacity="0.1"/>
<path d="M991.5 500.5C991.5 678.888 846.888 823.5 668.5 823.5C490.112 823.5 345.5 678.888 345.5 500.5C345.5 322.112 490.112 177.5 668.5 177.5C846.888 177.5 991.5 322.112 991.5 500.5ZM934.646 500.5C934.646 647.488 815.488 766.646 668.5 766.646C521.512 766.646 402.354 647.488 402.354 500.5C402.354 353.512 521.512 234.354 668.5 234.354C815.488 234.354 934.646 353.512 934.646 500.5ZM668.5 767.646C816.041 767.646 935.646 648.041 935.646 500.5C935.646 352.959 816.041 233.354 668.5 233.354C520.959 233.354 401.354 352.959 401.354 500.5C401.354 648.041 520.959 767.646 668.5 767.646ZM872.106 500.5C872.106 612.949 780.949 704.106 668.5 704.106C556.051 704.106 464.894 612.949 464.894 500.5C464.894 388.051 556.051 296.894 668.5 296.894C780.949 296.894 872.106 388.051 872.106 500.5ZM668.5 705.106C781.501 705.106 873.106 613.501 873.106 500.5C873.106 387.499 781.501 295.894 668.5 295.894C555.499 295.894 463.894 387.499 463.894 500.5C463.894 613.501 555.499 705.106 668.5 705.106ZM817.526 500.5C817.526 582.805 750.805 649.526 668.5 649.526C586.195 649.526 519.474 582.805 519.474 500.5C519.474 418.195 586.195 351.474 668.5 351.474C750.805 351.474 817.526 418.195 817.526 500.5ZM668.5 650.526C751.357 650.526 818.526 583.357 818.526 500.5C818.526 417.643 751.357 350.474 668.5 350.474C585.643 350.474 518.474 417.643 518.474 500.5C518.474 583.357 585.643 650.526 668.5 650.526ZM764.083 500.5C764.083 553.289 721.289 596.083 668.5 596.083C615.711 596.083 572.917 553.289 572.917 500.5C572.917 447.711 615.711 404.917 668.5 404.917C721.289 404.917 764.083 447.711 764.083 500.5ZM668.5 597.083C721.842 597.083 765.083 553.842 765.083 500.5C765.083 447.158 721.842 403.917 668.5 403.917C615.158 403.917 571.917 447.158 571.917 500.5C571.917 553.842 615.158 597.083 668.5 597.083ZM717.463 501.069C717.463 528.424 695.287 550.6 667.931 550.6C640.576 550.6 618.4 528.424 618.4 501.069C618.4 473.713 640.576 451.537 667.931 451.537C695.287 451.537 717.463 473.713 717.463 501.069ZM667.931 551.6C695.839 551.6 718.463 528.976 718.463 501.069C718.463 473.161 695.839 450.537 667.931 450.537C640.024 450.537 617.4 473.161 617.4 501.069C617.4 528.976 640.024 551.6 667.931 551.6Z" stroke="white" stroke-opacity="0.1"/>
<path d="M959.5 -29.5C959.5 94.2118 859.212 194.5 735.5 194.5C611.788 194.5 511.5 94.2118 511.5 -29.5C511.5 -153.212 611.788 -253.5 735.5 -253.5C859.212 -253.5 959.5 -153.212 959.5 -29.5ZM920.045 -29.5C920.045 72.4213 837.421 155.045 735.5 155.045C633.579 155.045 550.955 72.4213 550.955 -29.5C550.955 -131.421 633.579 -214.045 735.5 -214.045C837.421 -214.045 920.045 -131.421 920.045 -29.5ZM735.5 156.045C837.974 156.045 921.045 72.9736 921.045 -29.5C921.045 -131.974 837.974 -215.045 735.5 -215.045C633.026 -215.045 549.955 -131.974 549.955 -29.5C549.955 72.9736 633.026 156.045 735.5 156.045ZM876.644 -29.5C876.644 48.4517 813.452 111.644 735.5 111.644C657.548 111.644 594.356 48.4517 594.356 -29.5C594.356 -107.452 657.548 -170.644 735.5 -170.644C813.452 -170.644 876.644 -107.452 876.644 -29.5ZM735.5 112.644C814.004 112.644 877.644 49.004 877.644 -29.5C877.644 -108.004 814.004 -171.644 735.5 -171.644C656.996 -171.644 593.356 -108.004 593.356 -29.5C593.356 49.004 656.996 112.644 735.5 112.644ZM838.767 -29.5C838.767 27.5328 792.533 73.7671 735.5 73.7671C678.467 73.7671 632.233 27.5328 632.233 -29.5C632.233 -86.5329 678.467 -132.767 735.5 -132.767C792.533 -132.767 838.767 -86.5329 838.767 -29.5ZM735.5 74.7671C793.085 74.7671 839.767 28.0851 839.767 -29.5C839.767 -87.0851 793.085 -133.767 735.5 -133.767C677.915 -133.767 631.233 -87.0851 631.233 -29.5C631.233 28.0851 677.915 74.7671 735.5 74.7671ZM801.679 -29.5C801.679 7.04977 772.05 36.6793 735.5 36.6793C698.95 36.6793 669.321 7.04977 669.321 -29.5C669.321 -66.0498 698.95 -95.6793 735.5 -95.6793C772.05 -95.6793 801.679 -66.0498 801.679 -29.5ZM735.5 37.6793C772.602 37.6793 802.679 7.60208 802.679 -29.5C802.679 -66.6021 772.602 -96.6793 735.5 -96.6793C698.398 -96.6793 668.321 -66.6021 668.321 -29.5C668.321 7.60208 698.398 37.6793 735.5 37.6793ZM769.326 -29.1055C769.326 -10.2059 754.005 5.11511 735.105 5.11511C716.206 5.11511 700.885 -10.2059 700.885 -29.1055C700.885 -48.0049 716.206 -63.326 735.105 -63.326C754.005 -63.326 769.326 -48.0049 769.326 -29.1055ZM735.105 6.11511C754.557 6.11511 770.326 -9.65367 770.326 -29.1055C770.326 -48.5572 754.557 -64.326 735.105 -64.326C715.654 -64.326 699.885 -48.5572 699.885 -29.1055C699.885 -9.65367 715.654 6.11511 735.105 6.11511Z" stroke="white" stroke-opacity="0.1"/>
<path d="M580.956 841.903C580.306 833.118 587.151 825.582 595.957 825.387L681.942 823.482C767.183 821.594 813.26 922.655 755.934 985.767C698.608 1048.88 593.595 1012.7 587.303 927.674L580.956 841.903Z" fill="#408EBA"/>
<path d="M927.636 190.886C934.373 190.225 940.289 195.345 940.601 202.108L943.644 268.135C946.662 333.59 869.864 370.848 820.321 327.964C770.779 285.081 796.643 203.735 861.855 197.338L927.636 190.886Z" fill="#5DC5C5"/>
<circle cx="879.5" cy="928.5" r="80.5" fill="#5DC5C5"/>
<circle cx="69.5" cy="940.5" r="72.5" fill="#408EBA"/>
<path d="M338 827C338 850.113 333.448 872.999 324.603 894.352C315.758 915.706 302.794 935.108 286.451 951.451C270.108 967.794 250.706 980.758 229.352 989.603C207.999 998.448 185.113 1003 162 1003L162 827H338Z" fill="#5DC5C5"/>
<path d="M635.407 774.815C622.353 774.815 609.427 772.244 597.366 767.248C585.305 762.252 574.347 754.93 565.116 745.699C555.885 736.468 548.563 725.51 543.567 713.449C538.571 701.388 536 688.462 536 675.407C536 662.353 538.571 649.427 543.567 637.366C548.563 625.305 555.885 614.347 565.116 605.116C574.347 595.885 585.305 588.563 597.366 583.567C609.427 578.571 622.353 576 635.408 576L635.407 675.407L635.407 774.815Z" fill="#5DC5C5"/>
<path d="M960 177C936.887 177 914.001 172.448 892.648 163.603C871.294 154.758 851.892 141.794 835.549 125.451C819.206 109.108 806.242 89.7056 797.397 68.3523C788.552 46.999 784 24.1126 784 0.999969L960 0.999992L960 177Z" fill="#408EBA"/>
<path d="M176 366C176 389.113 171.448 411.999 162.603 433.352C153.758 454.706 140.794 474.108 124.451 490.451C108.108 506.794 88.7056 519.758 67.3523 528.603C45.999 537.448 23.1126 542 -1.52588e-05 542L0 366H176Z" fill="#5DC5C5"/>
<path d="M118 353C118 329.887 113.448 307.001 104.603 285.648C95.758 264.294 82.7939 244.892 66.4508 228.549C50.1077 212.206 30.7056 199.242 9.35228 190.397C-12.001 181.552 -34.8874 177 -58 177L-58 353H118Z" fill="#408EBA"/>
</svg>
