<svg width="23" height="22" viewBox="0 0 23 22" fill="none" xmlns="http://www.w3.org/2000/svg">
<path d="M9.39513 1.56652C9.8277 1.56652 10.1784 1.21583 10.1784 0.783262C10.1784 0.350676 9.8277 0 9.39513 0H3.39414C1.51959 0 0 1.5196 0 3.39413V18.6059C0 20.4804 1.51959 22 3.39411 22H9.39513C9.8277 22 10.1784 21.6493 10.1784 21.2167C10.1784 20.7841 9.8277 20.4335 9.39513 20.4335H3.39411C2.38478 20.4335 1.56651 19.6152 1.56651 18.6059L1.56653 3.39413C1.56653 2.38477 2.38478 1.56652 3.39414 1.56652H9.39513Z" fill="#A01B1B"/>
<path d="M16.8791 4.95384C16.5732 4.64795 16.0772 4.64795 15.7714 4.95384C15.4655 5.25973 15.4655 5.75564 15.7714 6.06153L19.6486 9.93877H5.38482C4.95225 9.93877 4.60156 10.2894 4.60156 10.722C4.60156 11.1546 4.95225 11.5053 5.38482 11.5053H19.5945L15.7715 15.3283C15.4656 15.6342 15.4656 16.1301 15.7715 16.436C16.0774 16.7419 16.5733 16.7419 16.8792 16.436L22.0292 11.2861C22.1822 11.1331 22.2586 10.9325 22.2586 10.732L22.2586 10.722C22.2586 10.7104 22.2584 10.6987 22.2579 10.6872C22.2658 10.477 22.1895 10.2642 22.029 10.1038L16.8791 4.95384Z" fill="#A01B1B"/>
</svg>
