<svg width="22" height="26" viewBox="0 0 22 26" fill="none" xmlns="http://www.w3.org/2000/svg">
<path d="M21.1764 19.1938C20.95 18.7895 20.6751 18.3851 20.3678 17.9566C19.6366 17.0435 19.1298 15.9717 18.888 14.8272L18.5484 10.0563C18.3462 6.36086 16.1872 2.625 11.8934 2.625H10.0982C5.80444 2.625 3.62923 6.36086 3.4109 10.0482L3.07128 14.8272C2.83055 15.9818 2.32387 17.0644 1.59149 17.9889C1.31656 18.4094 1.04162 18.7975 0.85564 19.1614C0.656037 19.4293 0.535149 19.7476 0.506578 20.0805C0.478007 20.4133 0.542885 20.7475 0.693915 21.0455C0.870123 21.3585 1.12971 21.6164 1.44379 21.7905C1.75787 21.9647 2.11412 22.0483 2.47289 22.032H8.71549C8.5825 22.3985 8.53977 22.7915 8.59091 23.178C8.64205 23.5644 8.78556 23.9328 9.00928 24.252C9.23301 24.5712 9.53036 24.8318 9.87616 25.0117C10.222 25.1916 10.606 25.2856 10.9958 25.2856C11.3856 25.2856 11.7697 25.1916 12.1155 25.0117C12.4613 24.8318 12.7586 24.5712 12.9824 24.252C13.2061 23.9328 13.3496 23.5644 13.4007 23.178C13.4519 22.7915 13.4091 22.3985 13.2761 22.032H19.5187C19.8808 22.0452 20.2394 21.9567 20.5538 21.7767C20.8682 21.5966 21.1259 21.3321 21.2977 21.0132C21.4489 20.7287 21.5176 20.4076 21.4962 20.0862C21.4747 19.7648 21.364 19.4557 21.1764 19.1938ZM11.8044 22.8407C11.8044 23.0006 11.757 23.1569 11.6682 23.2899C11.5793 23.4229 11.453 23.5265 11.3053 23.5877C11.1575 23.6489 10.9949 23.665 10.8381 23.6338C10.6812 23.6026 10.5371 23.5255 10.424 23.4125C10.3109 23.2994 10.2339 23.1553 10.2027 22.9984C10.1715 22.8416 10.1875 22.679 10.2487 22.5312C10.3099 22.3835 10.4136 22.2572 10.5466 22.1683C10.6795 22.0795 10.8359 22.032 10.9958 22.032C11.2103 22.032 11.416 22.1172 11.5676 22.2689C11.7193 22.4205 11.8044 22.6262 11.8044 22.8407ZM19.8907 20.2773C19.8907 20.342 19.7533 20.4148 19.5511 20.4148H2.47289C2.27074 20.4148 2.16562 20.342 2.13327 20.2773C2.10093 20.2126 2.13327 20.1237 2.21413 19.9943C2.43246 19.6223 2.68314 19.2342 2.9419 18.8461C3.75052 17.6816 4.55915 16.3555 4.68044 14.9404L5.02815 10.1614C5.19797 7.42824 6.62924 4.24225 10.0982 4.24225H11.8934C15.3624 4.24225 16.7937 7.42824 16.9635 10.1695L17.3112 14.9404C17.4082 16.3717 18.2735 17.6816 19.0821 18.8461C19.3409 19.2342 19.5915 19.6547 19.8503 20.0671C19.876 20.0948 19.8935 20.1292 19.9006 20.1664C19.9078 20.2036 19.9043 20.242 19.8907 20.2773Z" fill="#696969"/>
<circle cx="16.25" cy="4.375" r="3.5" fill="#B43A3A"/>
</svg>
