<svg width="17" height="16" viewBox="0 0 17 16" fill="none" xmlns="http://www.w3.org/2000/svg">
<g clip-path="url(#clip0_539_1413)">
<path d="M15.5212 13.9974L14.1734 12.7289M8.44514 13.3632C9.28589 13.3632 10.1184 13.2073 10.8951 12.9045C11.6719 12.6017 12.3777 12.1578 12.9722 11.5983C13.5667 11.0388 14.0382 10.3745 14.36 9.64347C14.6817 8.91242 14.8473 8.12888 14.8473 7.33759C14.8473 6.5463 14.6817 5.76276 14.36 5.0317C14.0382 4.30064 13.5667 3.63639 12.9722 3.07686C12.3777 2.51734 11.6719 2.07349 10.8951 1.77068C10.1184 1.46787 9.28589 1.31201 8.44514 1.31201C6.74718 1.31201 5.11876 1.94685 3.91812 3.07686C2.71748 4.20688 2.04297 5.7395 2.04297 7.33759C2.04297 8.93567 2.71748 10.4683 3.91812 11.5983C5.11876 12.7283 6.74718 13.3632 8.44514 13.3632V13.3632Z" stroke="black" stroke-opacity="0.57" stroke-width="0.782609" stroke-linecap="round" stroke-linejoin="round"/>
</g>
<defs>
<clipPath id="clip0_539_1413">
<rect width="16.1739" height="15.2225" fill="white" transform="translate(0.695312 0.043457)"/>
</clipPath>
</defs>
</svg>
