<svg width="26" height="22" viewBox="0 0 26 22" fill="none" xmlns="http://www.w3.org/2000/svg">
<path d="M25.0546 10.6069L19.1577 0.393124C19.0887 0.273602 18.9894 0.17435 18.8699 0.105342C18.7504 0.0363348 18.6148 3.50605e-06 18.4768 0H6.68309C6.54507 3.50605e-06 6.4095 0.0363348 6.28997 0.105342C6.17045 0.17435 6.0712 0.273602 6.0022 0.393124L0.105337 10.6069C0.0363296 10.7264 0 10.862 0 11C0 11.138 0.0363296 11.2736 0.105337 11.3931L6.0022 21.6069C6.0712 21.7264 6.17045 21.8257 6.28997 21.8947C6.4095 21.9637 6.54507 22 6.68309 22H18.4768C18.6148 22 18.7504 21.9637 18.8699 21.8947C18.9894 21.8257 19.0887 21.7264 19.1577 21.6069L25.0546 11.3931C25.1236 11.2736 25.1599 11.138 25.1599 11C25.1599 10.862 25.1236 10.7264 25.0546 10.6069ZM18.0229 20.4274H7.13695L1.69415 11L7.137 1.57259H18.0229L23.4657 11L18.0229 20.4274ZM12.5799 4.91665C11.3767 4.91665 10.2005 5.27346 9.20006 5.94194C8.19961 6.61043 7.41986 7.56057 6.95941 8.67221C6.49897 9.78386 6.37851 11.0071 6.61327 12.1872C6.84802 13.3673 7.42745 14.4513 8.27828 15.3021C9.12911 16.1529 10.2131 16.7323 11.3932 16.967C12.5734 17.2017 13.7966 17.0812 14.9082 16.6207C16.0198 16.1602 16.9699 15.3804 17.6384 14.3799C18.3068 13.3795 18.6636 12.2032 18.6635 11C18.6617 9.38711 18.0202 7.84081 16.8797 6.70035C15.7392 5.55989 14.1928 4.91841 12.5799 4.91665ZM12.5799 15.5109C11.6877 15.5109 10.8155 15.2463 10.0737 14.7506C9.33184 14.2549 8.75364 13.5503 8.41221 12.726C8.07078 11.9017 7.98146 10.9947 8.15555 10.1196C8.32963 9.24452 8.75929 8.44072 9.39021 7.80984C10.0211 7.17896 10.8249 6.74934 11.7 6.57531C12.5751 6.40127 13.4821 6.49064 14.3064 6.83211C15.1307 7.17359 15.8352 7.75182 16.3309 8.4937C16.8266 9.23558 17.0911 10.1078 17.091 11C17.0897 12.196 16.614 13.3427 15.7683 14.1884C14.9226 15.0341 13.776 15.5098 12.5799 15.5111V15.5109Z" fill="#363636"/>
</svg>
