<svg width="20" height="20" viewBox="0 0 20 20" fill="none" xmlns="http://www.w3.org/2000/svg">
<path d="M18.5352 8.47656H9.94141C9.13367 8.47656 8.47656 9.13367 8.47656 9.94141V18.5352C8.47656 19.3429 9.13367 20 9.94141 20H18.5352C19.3429 20 20 19.3429 20 18.5352V9.94141C20 9.13367 19.3429 8.47656 18.5352 8.47656ZM16.9536 17.5123C16.331 18.0459 15.5089 18.3398 14.6387 18.3398C12.8079 18.3398 11.3184 17.0256 11.3184 15.4102C11.3184 14.3606 11.9475 13.4386 12.8901 12.9212C12.6327 12.6255 12.4903 12.2662 12.4903 11.8945C12.4903 11.3998 12.7425 10.927 13.1823 10.5971C13.5782 10.3002 14.0954 10.1367 14.6387 10.1367C14.9623 10.1367 15.2246 10.3991 15.2246 10.7227C15.2246 11.0463 14.9623 11.3086 14.6387 11.3086C14.0798 11.3086 13.6621 11.6179 13.6621 11.8945C13.6621 12.1711 14.0798 12.4805 14.6387 12.4805C14.9259 12.4805 15.2005 12.3981 15.392 12.2544C15.6509 12.0603 16.0181 12.1127 16.2123 12.3716C16.4065 12.6305 16.354 12.9977 16.0951 13.1919C15.6992 13.4888 15.182 13.6523 14.6387 13.6523C13.4541 13.6523 12.4903 14.4409 12.4903 15.4102C12.4903 16.3794 13.4541 17.168 14.6387 17.168C15.2293 17.168 15.7805 16.9743 16.1909 16.6225C16.4366 16.412 16.8065 16.4404 17.0171 16.6861C17.2277 16.9318 17.1993 17.3017 16.9536 17.5123Z" fill="white"/>
<path d="M9.94141 7.30469H11.5234V1.46484C11.5234 0.657109 10.8663 0 10.0586 0H1.46484C0.657109 0 0 0.657109 0 1.46484V10.0586C0 10.8663 0.657109 11.5234 1.46484 11.5234H7.30469V9.94141C7.30469 9.53043 7.39934 9.14113 7.56777 8.79406L7.24469 7.93797H4.28277L3.84203 9.09523C3.72684 9.39766 3.38832 9.54941 3.08594 9.43426C2.78352 9.31906 2.63176 8.98055 2.74691 8.67816L5.09375 2.51621C5.09684 2.50809 5.10016 2.50008 5.10352 2.49195C5.21367 2.22512 5.47355 2.05078 5.76219 2.05078C6.0552 2.05078 6.32449 2.22141 6.44063 2.49043C6.44453 2.49945 6.44816 2.50848 6.45164 2.51762L8.43684 7.77797C8.86387 7.48004 9.38242 7.30469 9.94141 7.30469Z" fill="white"/>
<path d="M4.729 6.76636H6.80236L5.77045 4.03198L4.729 6.76636Z" fill="white"/>
</svg>
