<svg width="18" height="20" viewBox="0 0 18 20" fill="none" xmlns="http://www.w3.org/2000/svg">
<path d="M16.0547 0H15.9766C15.7422 0.507812 14.8438 1.99219 14.8438 2.77344C14.8438 3.42066 15.3684 3.94531 16.0156 3.94531C16.6629 3.94531 17.1875 3.42066 17.1875 2.77344C17.1875 1.99219 16.2891 0.507812 16.0547 0Z" fill="white"/>
<path d="M16.0156 3.94531C15.3684 3.94531 14.8438 4.46996 14.8438 5.11719V7.07031H17.1875V5.11719C17.1875 4.46996 16.6629 3.94531 16.0156 3.94531Z" fill="white"/>
<path d="M14.8438 8.24219V10C14.8438 15.5229 15.3684 20 16.0156 20C16.6629 20 17.1875 15.5229 17.1875 10V8.24219H14.8438Z" fill="white"/>
<path d="M9.17969 1.79688C6.69871 1.79688 4.6875 3.80809 4.6875 6.28906C4.6875 6.93629 4.16285 7.46094 3.51562 7.46094C2.8684 7.46094 2.34375 6.93629 2.34375 6.28906C2.34375 5.64184 1.8191 5.11719 1.17188 5.11719C0.524648 5.11719 0 5.64184 0 6.28906C0 13.5437 5.87035 19.4141 13.125 19.4141C13.427 19.4141 13.6719 19.1692 13.6719 18.8672V6.28906C13.6719 3.80809 11.6607 1.79688 9.17969 1.79688ZM5.27344 11.1719C4.62621 11.1719 4.10156 10.6472 4.10156 10C4.10156 9.35277 4.62621 8.82812 5.27344 8.82812C5.92066 8.82812 6.44531 9.35277 6.44531 10C6.44531 10.6472 5.92066 11.1719 5.27344 11.1719Z" fill="white"/>
</svg>
