<svg width="19" height="20" viewBox="0 0 19 20" fill="none" xmlns="http://www.w3.org/2000/svg">
<path d="M17.278 15.6957V15.3097H18.5526V14.7986H0V15.3097H0.010488V19.4895H0V20H18.5526V19.4895H17.278V19.2609H1.30541V19.0945H1.28374V18.9959H17.278V18.7812H1.29143V18.7029H1.28374V18.6036H1.29143V18.5715H17.278V18.275H1.26346V18.2205H1.25367V18.1226H1.26346V18.0632H17.278V17.7954H1.24948V17.5835H17.278V17.3304H1.24948V17.1178H17.278V16.8521H1.27744V16.6403H17.278V16.3725H1.26346V16.1613H17.278V15.9075H1.26346V15.6957H17.278Z" fill="white"/>
<path d="M16.2027 14.182H16.1957V11.5516H16.2027V11.23H8.70029H1.86768V11.5516H2.85215V11.7803H15.3602V11.9914H2.85215V12.2445H15.3602V12.4557H2.85215V12.7242H15.3329V12.8395H15.3511V12.9353H2.85215V13.2024H15.3476V13.2912H15.3511V13.387H15.3476V13.415H2.85215V13.6674H15.3476V13.773H15.3511V13.8695H15.3476V13.8793H2.85215V14.182H1.86768V14.5036H16.2027V14.182Z" fill="white"/>
<path d="M9.24012 11.0775V10.7202L9.68481 10.8565L9.57993 10.5356C9.8652 10.6328 10.2903 10.7272 10.8595 10.7272C12.6278 10.7272 15.1736 8.81415 15.2092 5.95581C15.2449 3.89386 14.3988 2.27451 12.4697 1.95008C10.9895 1.70116 9.76802 2.37939 9.27787 2.70871C9.29815 2.2773 9.32053 1.80115 9.33171 1.52426C9.3464 1.15089 10.0029 0.954412 10.3197 0.651657C10.5071 0.47406 10.3134 0 10.3134 0C10.3134 0 8.67446 0.726472 8.71851 1.42917C8.74019 1.77178 8.74368 2.25143 8.74298 2.65348C8.28291 2.34722 7.31172 1.8459 5.94268 1.91092C4.05133 2.00042 2.81165 3.38974 2.84591 5.45099C2.88087 8.30863 5.41758 10.7223 7.18656 10.7223C7.62146 10.7223 7.97806 10.667 8.25424 10.5985L8.22138 10.8041L8.54651 10.6363L8.69963 11.2299L8.9031 10.7202L9.24012 11.0775ZM5.45323 7.9821C4.73795 7.06614 4.954 5.76493 4.954 5.76493C4.954 5.76493 5.43226 6.97035 5.9245 7.7171C6.41674 8.46315 7.25928 9.05887 7.25928 9.05887C7.25928 9.05887 6.16992 8.89876 5.45323 7.9821Z" fill="white"/>
</svg>
