<svg width="24" height="20" viewBox="0 0 24 20" fill="none" xmlns="http://www.w3.org/2000/svg">
<path d="M21.9354 12.4421H1.66705L0 20H23.6009L21.9354 12.4421ZM9.47097 18.9596L9.81084 17.4195H13.7916L14.13 18.9596H9.47097Z" fill="white"/>
<path d="M21.8822 11.9646V7.32641V0H14.2774H9.32547H1.7207V7.32641V11.9631H21.8822V11.9646ZM20.4473 10.7689H3.15477V1.43406H9.63074H13.9714H20.4473V10.7689Z" fill="white"/>
<path d="M13.1158 3.20343L12.3907 2.78666C12.4192 2.67748 12.4207 2.56367 12.3907 2.45218C12.3454 2.28147 12.2354 2.13845 12.0816 2.05079C11.9817 1.99312 11.8671 1.96313 11.7525 1.96313C11.5149 1.96313 11.295 2.09078 11.1774 2.29531C11.1189 2.39681 11.0935 2.50754 11.092 2.61673L10.3377 3.04503C10.227 2.96583 10.0947 2.92046 9.95014 2.91892C9.75176 2.91892 9.53184 3.03349 9.45341 3.1496C9.39882 3.22342 9.23273 3.36337 9.28578 3.71554C9.33884 4.06848 9.60105 4.15921 9.74176 4.20612L9.7556 5.02273C9.75176 5.0235 9.74868 5.02503 9.74484 5.02734L9.77483 5.03195C9.61412 5.0804 9.47494 5.18805 9.39036 5.33568C9.33192 5.43641 9.30654 5.54791 9.30578 5.65787L8.52531 6.09924C8.41766 6.0285 8.29078 5.98697 8.15852 5.98697C8.03857 5.98697 7.92092 6.01927 7.81712 6.08155C7.50339 6.27148 7.40189 6.67978 7.59028 6.99197C7.67256 7.12961 7.80405 7.23034 7.95399 7.27955L7.96783 8.11C7.82788 8.1646 7.70716 8.26379 7.63103 8.39758C7.54261 8.55137 7.51954 8.72976 7.56568 8.90047C7.61181 9.07194 7.72177 9.21496 7.87556 9.30262C7.97552 9.36029 8.09009 9.39105 8.20543 9.39105C8.34999 9.39105 8.48763 9.34337 8.60066 9.25956L9.35729 9.69478C9.35422 9.76398 9.35806 9.83319 9.37652 9.90162C9.42265 10.0731 9.53261 10.2153 9.68563 10.303C9.78636 10.3614 9.90016 10.3914 10.0155 10.3914C10.2523 10.3914 10.473 10.2638 10.5907 10.0593C10.6653 9.9293 10.6883 9.78321 10.6699 9.64403L11.3942 9.23726C11.5095 9.33953 11.6587 9.40566 11.824 9.40796H11.834C11.9747 9.40796 12.1055 9.36106 12.2131 9.28493L13.0197 9.74783C13.0159 9.81704 13.0197 9.88701 13.0382 9.95622C13.0843 10.1269 13.1943 10.2699 13.3465 10.3568C13.4473 10.4153 13.5626 10.4453 13.6772 10.4453C13.9148 10.4453 14.1347 10.3176 14.2523 10.1123C14.3277 9.98159 14.35 9.83626 14.3323 9.69631L15.0559 9.29032C15.1743 9.39643 15.325 9.45871 15.4872 9.46025H15.4965C15.8571 9.46025 16.1531 9.16729 16.1585 8.80666C16.1616 8.54445 16.0101 8.31685 15.7864 8.20689L15.7771 7.32338C15.994 7.21573 16.1478 6.99658 16.1516 6.73899C16.1531 6.56214 16.087 6.39451 15.9632 6.26763C15.8402 6.13999 15.6741 6.06925 15.4888 6.06694C15.2904 6.06694 15.1135 6.15691 14.9921 6.29762L14.2677 5.88086C14.2946 5.77167 14.2969 5.65787 14.2662 5.54714C14.2346 5.42642 14.1685 5.32107 14.0801 5.23803C14.0832 5.23803 14.0862 5.23957 14.0901 5.24034C14.0386 5.18882 13.9794 5.14499 13.9132 5.11192L13.9017 4.22919C14.1193 4.1223 14.2723 3.90162 14.2769 3.64403C14.2785 3.46717 14.2124 3.29954 14.0893 3.17267C13.9655 3.04503 13.7994 2.97428 13.6149 2.97198C13.4142 2.97275 13.2373 3.06271 13.1158 3.20343ZM11.4872 2.47448C11.5411 2.38067 11.6433 2.32146 11.7518 2.32146C11.804 2.32146 11.8563 2.3353 11.9025 2.36221C11.9732 2.40297 12.024 2.46833 12.0455 2.54676C12.0663 2.62519 12.0555 2.70746 12.0147 2.77821C11.934 2.91815 11.7402 2.97121 11.5987 2.89047C11.4542 2.80589 11.4042 2.61981 11.4872 2.47448ZM10.613 3.59097C10.6145 3.49947 10.5968 3.41104 10.563 3.32953L11.1904 2.97352C11.2466 3.06425 11.3219 3.14422 11.4203 3.20035C11.5211 3.25802 11.6356 3.28878 11.751 3.28878C11.9263 3.28878 12.0924 3.21804 12.2147 3.09808L12.9628 3.52869C12.9567 3.56098 12.9513 3.59251 12.9505 3.62711C12.9467 3.97082 13.2074 4.25456 13.5426 4.2907L13.5564 5.06117H13.558C13.3481 5.08347 13.1574 5.2042 13.052 5.38951C12.9921 5.49101 12.9682 5.60097 12.9667 5.71092L12.2124 6.13845C12.1024 6.05848 11.9709 6.01389 11.8256 6.01235C11.6272 6.01235 11.4503 6.10308 11.3288 6.24303L10.6053 5.8278C10.6322 5.71861 10.6353 5.60481 10.6045 5.49332C10.5653 5.34953 10.4792 5.22726 10.3615 5.13961L10.3769 5.14268C10.3377 5.11116 10.2962 5.0827 10.25 5.06041L10.24 4.1769C10.4561 4.06925 10.6091 3.84856 10.613 3.59097ZM12.1293 6.68055C12.127 6.84587 11.9909 6.98044 11.8248 6.98044V7.14883L11.821 6.98044C11.6533 6.9789 11.518 6.83972 11.5211 6.67209C11.5226 6.50677 11.6595 6.37221 11.8287 6.37221C11.9102 6.37298 11.9863 6.40527 12.0432 6.46448C12.0993 6.52138 12.1308 6.59904 12.1293 6.68055ZM9.64564 3.57713C9.64795 3.41181 9.78482 3.27725 9.95399 3.27725C10.0355 3.27801 10.1116 3.31108 10.1685 3.36952C10.2247 3.42719 10.2554 3.50408 10.2546 3.58636C10.2523 3.75168 10.1162 3.88624 9.95091 3.88624H9.9463C9.77867 3.88393 9.64411 3.74553 9.64564 3.57713ZM9.6987 5.51485C9.7533 5.42104 9.85403 5.36183 9.96398 5.36183C10.0163 5.36183 10.0686 5.37644 10.1147 5.40258C10.1854 5.44257 10.2362 5.50869 10.2569 5.58713C10.2777 5.66633 10.2677 5.74706 10.227 5.81781C10.1462 5.95852 9.95322 6.01158 9.81097 5.93007C9.66564 5.84703 9.61489 5.66094 9.6987 5.51485ZM7.89709 6.80743C7.8102 6.66364 7.85787 6.47678 8.00089 6.38989C8.04857 6.36144 8.10239 6.34607 8.15776 6.34607C8.26618 6.34607 8.36383 6.40066 8.41919 6.4937C8.46072 6.56367 8.47302 6.64518 8.45303 6.72438C8.4338 6.80358 8.38459 6.86971 8.31462 6.912C8.1739 6.99658 7.98013 6.94737 7.89709 6.80743ZM8.4684 8.87971C8.38767 9.01965 8.1939 9.07271 8.05241 8.99197C7.98167 8.95199 7.93169 8.88586 7.91016 8.80743C7.88863 8.72899 7.89939 8.64672 7.94015 8.57598C7.99397 8.48217 8.09547 8.42373 8.20466 8.42373C8.25772 8.42373 8.30924 8.43834 8.35614 8.46448C8.50147 8.54753 8.55222 8.73438 8.4684 8.87971ZM10.2785 9.88086C10.1985 10.0208 10.0055 10.0739 9.86248 9.99313C9.79174 9.9516 9.74099 9.88701 9.72023 9.80781C9.6987 9.72938 9.70947 9.6471 9.74945 9.57636C9.80405 9.48178 9.90554 9.42334 10.014 9.42334C10.067 9.42334 10.1193 9.43718 10.1647 9.4641C10.3115 9.54868 10.3631 9.73476 10.2785 9.88086ZM11.1689 8.73515C11.1681 8.80512 11.1804 8.87125 11.2004 8.9343L10.5276 9.31185C10.4776 9.24956 10.4169 9.19574 10.3446 9.15345C10.2446 9.09655 10.1301 9.06579 10.0147 9.06579C9.79866 9.06579 9.59643 9.17421 9.47263 9.34876L8.81673 8.97198C8.93592 8.67056 8.82212 8.31992 8.53376 8.15383C8.46917 8.11692 8.39689 8.09155 8.32461 8.07848L8.31154 7.29416C8.3769 7.27878 8.43995 7.25418 8.49916 7.21881C8.65064 7.1273 8.75829 6.98351 8.80058 6.81127C8.83749 6.66517 8.81981 6.51523 8.75906 6.37913L9.40266 6.01389C9.45879 6.10539 9.53415 6.18459 9.63257 6.24149C9.7333 6.29916 9.84711 6.32992 9.96321 6.32992C10.1385 6.32992 10.3039 6.25918 10.4269 6.13999L11.1735 6.56906C11.1689 6.60135 11.1628 6.63365 11.1628 6.66671C11.1589 6.96198 11.3504 7.21189 11.6157 7.30108L11.6287 8.11769C11.3665 8.20304 11.1727 8.44603 11.1689 8.73515ZM11.8325 9.04887V9.22803L11.8279 9.04887C11.6603 9.04657 11.5249 8.90816 11.5272 8.74053C11.5295 8.57521 11.6656 8.43988 11.8356 8.43988C12.004 8.44295 12.1385 8.58059 12.1362 8.74822C12.1339 8.91431 11.9978 9.04887 11.8325 9.04887ZM13.9409 9.93392C13.8609 10.0731 13.6687 10.1277 13.5249 10.0462C13.4549 10.0062 13.4042 9.94007 13.3827 9.86164C13.3619 9.7832 13.3719 9.7017 13.4127 9.63096C13.4665 9.53561 13.5688 9.47794 13.6772 9.47794C13.7295 9.47794 13.7825 9.49178 13.8287 9.51869C13.9747 9.60174 14.024 9.78859 13.9409 9.93392ZM15.7987 8.80204C15.7971 8.96736 15.661 9.10193 15.4957 9.10193V9.28109L15.4896 9.10193C15.4096 9.10193 15.3335 9.06887 15.2766 9.01043C15.2204 8.95199 15.1889 8.87509 15.1904 8.79359C15.192 8.62826 15.3296 8.49293 15.4988 8.49293C15.6664 8.49601 15.801 8.63442 15.7987 8.80204ZM15.4911 6.42373C15.5718 6.42527 15.6487 6.45833 15.7049 6.516C15.7618 6.57444 15.7925 6.65133 15.791 6.73284C15.7894 6.89816 15.6526 7.03349 15.4865 7.03349V7.20189L15.4834 7.03349C15.315 7.03119 15.1804 6.89201 15.182 6.72438C15.1858 6.55906 15.3219 6.42373 15.4911 6.42373ZM14.0893 6.19305L14.836 6.62288C14.8313 6.65441 14.8244 6.6867 14.8244 6.72054C14.8213 7.06425 15.0812 7.34799 15.4173 7.38413L15.4265 8.14153C15.0974 8.17536 14.836 8.45141 14.8329 8.78897C14.8321 8.85664 14.8444 8.92354 14.8644 8.98736L14.1916 9.3649C14.1431 9.30339 14.0809 9.24879 14.0094 9.20727C13.9086 9.1496 13.7948 9.11885 13.6787 9.11885C13.4626 9.11885 13.2604 9.2265 13.1374 9.40181L12.443 9.00274C12.4761 8.92431 12.4945 8.84126 12.4961 8.75206C12.4992 8.48986 12.3485 8.26225 12.1239 8.15229L12.1132 7.26879C12.3315 7.16191 12.4846 6.94122 12.4892 6.68363C12.4899 6.59289 12.473 6.50447 12.4392 6.42296L13.0666 6.06694C13.1228 6.15768 13.1989 6.23765 13.2973 6.29455C13.398 6.35222 13.5119 6.38221 13.628 6.38221C13.801 6.38297 13.9671 6.31223 14.0893 6.19305ZM13.9194 5.64095C13.9409 5.71938 13.9309 5.80089 13.8894 5.87163C13.8094 6.01158 13.6164 6.06463 13.4734 5.9839C13.3288 5.90085 13.2781 5.714 13.3611 5.56867C13.4142 5.47332 13.5172 5.41565 13.6264 5.41565C13.6779 5.41565 13.7302 5.43026 13.7771 5.45641C13.8479 5.49639 13.8986 5.56175 13.9194 5.64095ZM13.6172 3.3303C13.6979 3.33107 13.7748 3.36413 13.8302 3.42257C13.8871 3.48101 13.9186 3.55791 13.9171 3.63941C13.914 3.80473 13.7787 3.94007 13.6126 3.94007H13.6087C13.4403 3.93776 13.305 3.79858 13.3065 3.63172C13.3112 3.46487 13.4473 3.3303 13.6172 3.3303Z" fill="white"/>
</svg>
