<svg width="20" height="20" viewBox="0 0 20 20" fill="none" xmlns="http://www.w3.org/2000/svg">
<path d="M4.32957 0H1.66292V2.70749C1.55379 2.68091 1.44192 2.6672 1.32959 2.66666C0.77738 2.66666 0.32959 2.96515 0.32959 3.33332C0.32959 3.70148 0.77738 3.99998 1.32959 3.99998C1.88179 3.99998 2.32958 3.70148 2.32958 3.33332V1.33333H4.32957V0Z" fill="white"/>
<path d="M10.4935 5.0063C10.6566 4.77743 10.783 4.26622 10.4737 4.07239C10.1647 3.87822 9.68765 4.11276 9.52465 4.3416L5.97154 7.99666H5.663V7.897C6.54958 7.61333 7.03837 6.66463 6.7547 5.77805C6.47104 4.89147 5.52233 4.40268 4.63575 4.68634C3.93346 4.91105 3.45876 5.56613 3.46392 6.30346C3.45917 7.05083 3.94734 7.71204 4.663 7.92754V7.99662H3.71088C3.35222 7.96662 2.9998 8.10408 2.75618 8.369L0.182937 12.3354C-0.0609789 12.6208 -0.0609789 13.0413 0.182937 13.3267C0.408686 13.593 0.807559 13.6258 1.07381 13.4001C1.10022 13.3777 1.12477 13.3531 1.14714 13.3267L3.0778 10.3523V13.6576L1.96268 19.149C1.8918 19.4964 2.11405 19.836 2.4608 19.9102L2.56455 19.9287C2.91422 19.976 3.23601 19.731 3.2833 19.3813C3.28342 19.3805 3.28351 19.3796 3.28363 19.3787L4.36392 14.3182H5.97154L6.9407 19.6274C7.02841 19.9873 7.5972 20.0581 7.90982 19.9598C8.22186 19.8617 8.3099 19.3055 8.22265 18.9456L7.25795 13.6576V8.69924L10.4935 5.0063Z" fill="white"/>
<path d="M19.8269 5.00606C19.9904 4.77718 20.1164 4.26602 19.8074 4.07214C19.4981 3.87798 19.0213 4.11252 18.8579 4.34131L15.3049 7.99642H14.8298V7.93738C15.6964 7.65267 16.168 6.71943 15.8834 5.85285C15.5987 4.98631 14.6654 4.51464 13.7988 4.79931C12.9323 5.08402 12.4606 6.01726 12.7453 6.88384C12.9127 7.39338 13.3171 7.78988 13.8298 7.94721V7.99642H13.0444C12.6857 7.96642 12.3333 8.10384 12.0897 8.36879L9.51628 12.3351C9.27257 12.6207 9.27257 13.0409 9.51628 13.3265C9.74232 13.5929 10.1415 13.6256 10.4079 13.3995C10.4342 13.3772 10.4586 13.3528 10.4809 13.3265L12.4114 10.3521V13.6574L11.2962 19.1487C11.2254 19.4961 11.4476 19.8357 11.7943 19.91L11.898 19.9285C12.2475 19.9759 12.5693 19.7309 12.6166 19.3814C12.6168 19.3804 12.6169 19.3795 12.617 19.3785L13.6973 14.318H15.3049L16.274 19.6272C16.3621 19.987 16.9305 20.0578 17.2432 19.9595C17.5553 19.8614 17.6433 19.3052 17.5561 18.9454L16.5915 13.6573V8.699L19.8269 5.00606Z" fill="white"/>
</svg>
