<svg width="20" height="20" viewBox="0 0 20 20" fill="none" xmlns="http://www.w3.org/2000/svg">
<path d="M1.21094 13.2812C1.21094 13.6048 1.47328 13.8672 1.79687 13.8672H18.2031C18.5267 13.8672 18.7891 13.6048 18.7891 13.2812V3.51562H1.21094V13.2812ZM14.3687 6.15234C14.8773 6.15234 15.3684 6.30242 15.7887 6.58629C16.0568 6.76742 16.1274 7.13164 15.9462 7.3998C15.7651 7.66789 15.4009 7.73855 15.1327 7.55734C14.9069 7.40484 14.6427 7.32418 14.3687 7.32418C13.6148 7.32418 13.0015 7.9375 13.0015 8.69137C13.0015 9.44523 13.6148 10.0586 14.3687 10.0586C14.9368 10.0586 15.2487 9.71203 15.3847 9.2773H14.8861C14.5625 9.2773 14.3002 9.01496 14.3002 8.69137C14.3002 8.36777 14.5625 8.10543 14.8861 8.10543H16.0547C16.3783 8.10543 16.6406 8.36777 16.6406 8.69137C16.6406 10.1863 15.7064 11.2304 14.3687 11.2304C12.9686 11.2304 11.8296 10.0914 11.8296 8.69137C11.8296 7.29133 12.9686 6.15234 14.3687 6.15234ZM7.26562 6.74559C7.26562 6.48918 7.43238 6.26254 7.67719 6.18621C7.92207 6.10988 8.18797 6.20168 8.33371 6.41266L9.98637 8.80578L9.96644 6.74402C9.96332 6.42043 10.2231 6.15559 10.5467 6.15242C10.5486 6.15238 10.5506 6.15238 10.5525 6.15238C10.8734 6.15238 11.1352 6.41098 11.1382 6.73262L11.1748 10.5072C11.1748 10.5091 11.1748 10.5111 11.1748 10.5129C11.1748 10.8198 10.9982 11.0732 10.725 11.1585C10.4564 11.2424 10.1741 11.1394 10.0059 10.8962L8.4375 8.62519V10.6445C8.4375 10.9681 8.17516 11.2305 7.85156 11.2305C7.52797 11.2305 7.26562 10.9681 7.26562 10.6445V6.74559ZM3.67187 6.73828C3.67187 6.41469 3.93422 6.15234 4.25781 6.15234H5.90375C6.22734 6.15234 6.48969 6.41469 6.48969 6.73828C6.48969 7.06187 6.22734 7.32422 5.90375 7.32422H4.84375V8.10547H5.78238C6.10598 8.10547 6.36832 8.36781 6.36832 8.69141C6.36832 9.015 6.10598 9.27734 5.78238 9.27734H4.84375V10.0586H5.90375C6.22734 10.0586 6.48969 10.3209 6.48969 10.6445C6.48969 10.9681 6.22734 11.2305 5.90375 11.2305H4.25781C3.93422 11.2305 3.67187 10.9681 3.67187 10.6445V6.73828Z" fill="white"/>
<path d="M19.4141 0H0.585937C0.262344 0 0 0.262344 0 0.585937V1.75781C0 2.08141 0.262344 2.34375 0.585937 2.34375H19.4141C19.7377 2.34375 20 2.08141 20 1.75781V0.585937C20 0.262344 19.7377 0 19.4141 0Z" fill="white"/>
<path d="M12.8033 15.0391H11.4931L12.1767 16.4062H7.82268L8.50627 15.0391H7.19604L5.13963 19.1519C4.9949 19.4413 5.11221 19.7933 5.40166 19.938C5.69112 20.0827 6.04307 19.9654 6.1878 19.676L7.23674 17.5781H12.7626L13.8115 19.676C13.9563 19.9654 14.3082 20.0827 14.5977 19.938C14.8871 19.7933 15.0044 19.4413 14.8597 19.1519L12.8033 15.0391Z" fill="white"/>
</svg>
