<svg width="15" height="20" viewBox="0 0 15 20" fill="none" xmlns="http://www.w3.org/2000/svg">
<path d="M12.1809 0C12.1809 0 10.5354 1.59647 8.75575 2.24012C-4.42303 7.00693 1.13502 16.2961 1.31634 16.3267C1.31634 16.3267 2.05534 15.0398 3.05362 14.3058C9.38829 9.64887 10.6758 4.28854 10.6758 4.28854C10.6758 4.28854 9.2543 10.7387 3.61866 14.7522C2.37396 15.6382 1.53114 17.8197 1.17437 20C1.17437 20 2.05669 19.6435 2.43609 19.547C2.58404 18.5815 2.89337 17.657 3.41634 16.8311C11.2928 17.7689 13.8725 11.4221 14.2095 9.20907C15.0049 3.98229 12.1809 0 12.1809 0Z" fill="white"/>
</svg>
