<svg width="15" height="20" viewBox="0 0 15 20" fill="none" xmlns="http://www.w3.org/2000/svg">
<path fill-rule="evenodd" clip-rule="evenodd" d="M1.73078 0H14.4231C14.7417 0 15 0.25832 15 0.576914V19.4231C15 19.7417 14.7417 20 14.4231 20H1.73078C0.776406 20 0 19.2236 0 18.2693V1.73078C0 0.776406 0.776406 0 1.73078 0ZM12.1154 2.5H2.88461C2.56602 2.5 2.3077 2.75832 2.3077 3.07691C2.3077 3.39551 2.56598 3.65383 2.88461 3.65383H12.1154C12.434 3.65383 12.6923 3.39551 12.6923 3.07691C12.6923 2.75832 12.434 2.5 12.1154 2.5ZM7.51922 5.57691H2.88461C2.56602 5.57691 2.3077 5.83523 2.3077 6.15383C2.3077 6.47242 2.56598 6.73074 2.88461 6.73074H7.51922C7.83781 6.73074 8.09613 6.47242 8.09613 6.15383C8.09613 5.83523 7.83785 5.57691 7.51922 5.57691ZM1.73078 18.8462H13.8462V17.5H1.15387V18.2693C1.15387 18.5874 1.41266 18.8462 1.73078 18.8462ZM5.08644 9.77109H7.37244V9.11709H4.30644V13.3171H5.08644V11.7091H7.11444V11.0491H5.08644V9.77109ZM10.8748 13.3171H11.7148L10.7488 11.9371C11.3188 11.7151 11.6428 11.2471 11.6428 10.6111C11.6428 9.68109 10.9588 9.11709 9.85476 9.11709H8.12676V13.3171H8.90676V12.0931H9.85476C9.90876 12.0931 9.96276 12.0931 10.0168 12.0871L10.8748 13.3171ZM9.81876 9.77709C10.5028 9.77709 10.8568 10.0831 10.8568 10.6111C10.8568 11.1391 10.5028 11.4511 9.81876 11.4511H8.90676V9.77709H9.81876Z" fill="white"/>
</svg>
