<svg width="22" height="20" viewBox="0 0 22 20" fill="none" xmlns="http://www.w3.org/2000/svg">
<path d="M1.68018 17.7734C2.43275 18.4643 3.37334 18.9163 4.38292 19.0724C4.49306 18.5184 4.47269 17.9464 4.32343 17.4016C4.17416 16.8568 3.9001 16.3543 3.52295 15.9338L1.68018 17.7734Z" fill="white"/>
<path d="M11.1961 16.9983C10.8993 16.9983 10.6091 17.0863 10.3623 17.2512C10.1155 17.4162 9.92313 17.6506 9.80954 17.9248C9.69596 18.1991 9.66624 18.5008 9.72416 18.792C9.78207 19.0831 9.92502 19.3505 10.1349 19.5604C10.3448 19.7703 10.6122 19.9132 10.9034 19.9711C11.1945 20.029 11.4963 19.9993 11.7705 19.8857C12.0447 19.7721 12.2791 19.5798 12.4441 19.3329C12.609 19.0861 12.697 18.796 12.697 18.4991C12.6965 18.1012 12.5383 17.7197 12.2569 17.4384C11.9755 17.157 11.594 16.9987 11.1961 16.9983Z" fill="white"/>
<path d="M10.3646 13.5881C10.1143 13.6344 9.8603 13.6578 9.60574 13.6579C8.59162 13.658 7.61365 13.2813 6.86168 12.6008L5.50195 13.9582L9.01087 17.4609C9.8928 16.5081 10.3812 15.2566 10.3777 13.9583C10.3778 13.8341 10.3734 13.7107 10.3646 13.5881Z" fill="white"/>
<path d="M3.83643 15.6211C4.25656 16.0911 4.56389 16.6507 4.73503 17.2575C4.90616 17.8642 4.93658 18.5019 4.82397 19.1222C5.52746 19.1726 6.23386 19.079 6.89994 18.8471C7.56602 18.6152 8.17779 18.2498 8.69782 17.7733L5.18895 14.2708L3.83643 15.6211Z" fill="white"/>
<path d="M14.5093 19.2658C14.4962 19.2748 14.4851 19.2862 14.4765 19.2995C14.4678 19.3128 14.4619 19.3276 14.459 19.3432C14.4562 19.3588 14.4564 19.3748 14.4597 19.3902C14.463 19.4057 14.4693 19.4204 14.4783 19.4334C14.5919 19.5973 14.7657 19.7096 14.9619 19.7456C15.158 19.7816 15.3604 19.7385 15.5248 19.6257L16.2228 19.1458C16.3177 19.0802 16.3962 18.9937 16.4524 18.8928L15.6689 18.4685L14.5093 19.2658Z" fill="white"/>
<path d="M15.2323 18.2321L13.9663 17.5464L14.6946 18.6018L15.2323 18.2321Z" fill="white"/>
<path d="M18.7645 12.6067L13.7062 12.9333L13.4775 13.9994L18.5351 14.3707C18.6699 14.3801 18.8043 14.3463 18.9185 14.274L20.2331 13.4361L19.3358 12.7716C19.1713 12.6498 18.9685 12.5912 18.7645 12.6067Z" fill="white"/>
<path d="M19.7653 2.48998C19.5472 2.0744 19.2175 1.72786 18.8134 1.48926L18.4888 2.19215L19.6551 2.72871L19.7653 2.48998Z" fill="white"/>
<path d="M17.9413 17.2121L13.1601 15.4785L12.9434 16.4892L17.3867 18.896C17.5787 19.0003 17.8036 19.0266 18.0145 18.9695L19.111 18.6744L18.2398 17.4398C18.1661 17.3351 18.0619 17.2555 17.9413 17.2121Z" fill="white"/>
<path d="M18.5797 14.8146C18.554 14.8146 18.5283 14.8136 18.5027 14.8118L13.3839 14.4358L13.2539 15.0418L18.0923 16.7961C18.1394 16.8133 18.1852 16.8338 18.2295 16.8574L20.0547 16.0861L18.7401 14.8021C18.687 14.8102 18.6334 14.8144 18.5797 14.8146Z" fill="white"/>
<path d="M11.877 16.2031L12.6142 12.7534L13.2623 12.8919L12.5251 16.3416L11.877 16.2031Z" fill="white"/>
<path d="M13.9678 12.4734L14.8467 10.5698C14.7113 10.5261 14.5785 10.4744 14.4492 10.415C14.3199 10.3552 14.1941 10.288 14.0725 10.2136L13.0635 12.3988L13.5412 12.5009L13.9678 12.4734Z" fill="white"/>
<path d="M11.5672 12.2609L11.5082 12.1754C11.2832 11.8498 11.1867 11.4525 11.2375 11.06C11.2742 10.7758 11.2044 10.4881 11.0414 10.2523L5.20641 1.79709C5.02348 1.53318 4.74348 1.35244 4.42765 1.29441C4.11182 1.23639 3.78586 1.30579 3.52107 1.48745C3.39015 1.57735 3.27826 1.69219 3.19178 1.8254C3.10531 1.9586 3.04596 2.10756 3.01713 2.26373C2.9883 2.4199 2.99056 2.58023 3.02378 2.73553C3.057 2.89083 3.12053 3.03805 3.21072 3.16876L6.97952 8.62971C7.89335 8.93511 8.71349 9.46999 9.36139 10.1831C10.0093 10.8963 10.4633 11.7638 10.6798 12.7027C10.9268 12.473 11.235 12.3195 11.5672 12.2609ZM3.98102 2.7799C3.95685 2.79599 3.92973 2.80717 3.90124 2.81279C3.87274 2.81841 3.84342 2.81836 3.81494 2.81265C3.78646 2.80694 3.75939 2.79567 3.73526 2.77949C3.71114 2.76331 3.69044 2.74254 3.67434 2.71837L3.624 2.64242C3.60791 2.61824 3.59673 2.59113 3.59111 2.56263C3.58549 2.53414 3.58554 2.50481 3.59125 2.47633C3.59697 2.44786 3.60823 2.42078 3.62441 2.39666C3.64059 2.37253 3.66136 2.35183 3.68553 2.33574C3.70971 2.31964 3.73682 2.30846 3.76532 2.30284C3.79382 2.29722 3.82314 2.29727 3.85162 2.30299C3.88009 2.3087 3.90717 2.31997 3.93129 2.33614C3.95542 2.35232 3.97612 2.37309 3.99221 2.39727L4.04273 2.47322C4.05882 2.49741 4.06998 2.52453 4.07559 2.55303C4.0812 2.58153 4.08113 2.61086 4.0754 2.63934C4.06967 2.66782 4.05839 2.69489 4.04219 2.71901C4.026 2.74312 4.00521 2.76382 3.98102 2.7799ZM6.32104 6.29532C6.29686 6.31141 6.26975 6.32259 6.24125 6.32821C6.21276 6.33383 6.18343 6.33378 6.15495 6.32807C6.12648 6.32235 6.0994 6.31109 6.07528 6.29491C6.05116 6.27873 6.03045 6.25796 6.01436 6.23379L4.12266 3.39193C4.10609 3.36776 4.09448 3.34054 4.08852 3.31185C4.08255 3.28316 4.08235 3.25357 4.08792 3.2248C4.09348 3.19603 4.10472 3.16865 4.12096 3.14426C4.1372 3.11987 4.15812 3.09895 4.18252 3.08271C4.20691 3.06647 4.23429 3.05525 4.26306 3.04968C4.29183 3.04412 4.32142 3.04433 4.35011 3.0503C4.3788 3.05627 4.40602 3.06788 4.43018 3.08446C4.45435 3.10103 4.47498 3.12225 4.49087 3.14687L6.38261 5.98868C6.41511 6.0375 6.42689 6.09723 6.41536 6.15473C6.40383 6.21223 6.36993 6.2628 6.32113 6.29532H6.32104Z" fill="white"/>
<path d="M11.4375 16.1304L12.1791 12.6734C11.5318 12.6067 10.9286 12.8865 10.7857 13.3386C10.8083 13.5444 10.8196 13.7513 10.8197 13.9584C10.8204 14.5556 10.726 15.1492 10.54 15.7167C10.7869 16.0438 11.1943 16.1063 11.4375 16.1304Z" fill="white"/>
<path d="M16.6366 5.14818L15.4704 4.61157L15.0234 5.57956L16.1897 6.11617L16.6366 5.14818Z" fill="white"/>
<path d="M3.52305 15.3087L4.87583 13.9584L1.36687 10.4556C0.484952 11.4084 -0.00341333 12.6599 1.79594e-05 13.9582C1.79594e-05 14.0805 0.00427926 14.2021 0.0128018 14.323C0.63434 14.21 1.27346 14.24 1.88167 14.4108C2.48988 14.5815 3.0512 14.8886 3.52305 15.3087Z" fill="white"/>
<path d="M0.0620117 14.7641C0.218782 15.7729 0.673019 16.7119 1.36658 17.4611L3.20953 15.6214C2.78714 15.2445 2.28295 14.9708 1.73674 14.8221C1.19052 14.6733 0.617209 14.6534 0.0620117 14.7641Z" fill="white"/>
<path d="M6.549 12.2884C6.12545 11.822 5.81573 11.2639 5.64412 10.6577C5.47252 10.0516 5.44371 9.41393 5.55996 8.79477C5.43651 8.78593 5.31288 8.7815 5.18905 8.7815C3.89003 8.77927 2.63761 9.26533 1.68018 10.1433L5.18905 13.6458L6.549 12.2884Z" fill="white"/>
<path d="M8.69783 10.1434C7.94669 9.45382 7.00821 9.00212 6.0007 8.84521C5.89224 9.39809 5.9136 9.9686 6.06311 10.5118C6.21263 11.055 6.48621 11.5561 6.86231 11.9756L8.69783 10.1434Z" fill="white"/>
<path d="M10.3142 13.1471C10.1566 12.1403 9.70278 11.2033 9.01054 10.4556L7.1748 12.2879C7.5962 12.6638 8.09895 12.937 8.64362 13.0861C9.18829 13.2351 9.76009 13.256 10.3142 13.1471Z" fill="white"/>
<path d="M13.7566 7.26823L13.8039 7.16587L13.7129 7.12402C13.7265 7.1725 13.7411 7.22057 13.7566 7.26823Z" fill="white"/>
<path d="M17.2935 8.89741C17.3403 8.87803 17.387 8.85752 17.4336 8.83588L17.3415 8.79346L17.2935 8.89741Z" fill="white"/>
<path d="M13.6052 5.41406C13.5532 5.80301 13.5522 6.19709 13.6023 6.58628L13.9889 6.76415L14.4357 5.79616L13.6052 5.41406Z" fill="white"/>
<path d="M15.3433 9.00336C15.788 9.15423 16.2658 9.17928 16.7239 9.07573L16.9395 8.60883L15.7732 8.07227L15.3433 9.00336Z" fill="white"/>
<path d="M14.2058 7.35059L13.9907 7.81638C14.2086 8.2322 14.5381 8.57903 14.9423 8.81794L15.372 7.88715L14.2058 7.35059Z" fill="white"/>
<path d="M17.5273 8.39206L17.9134 8.56971C18.2418 8.35434 18.5412 8.09765 18.8043 7.80595L17.9743 7.42407L17.5273 8.39206Z" fill="white"/>
<path d="M16.4059 6.70264L15.959 7.67062L17.1252 8.20724L17.5722 7.23925L16.4059 6.70264Z" fill="white"/>
<path d="M19.1223 0.294902C18.6931 0.0985104 18.2263 -0.00210812 17.7543 3.34823e-05C15.996 3.34823e-05 14.1218 1.3234 13.1458 3.43707C12.4434 4.95826 12.3279 6.60918 12.8287 7.9667C13.1823 8.92474 13.8066 9.6324 14.6343 10.0132C16.6926 10.9603 19.3735 9.55057 20.6108 6.8711C21.3132 5.34987 21.4287 3.69898 20.9279 2.34146C20.5744 1.38339 19.95 0.675674 19.1223 0.294902ZM20.0976 6.6355C19.2616 8.44576 17.6524 9.57817 16.1394 9.57817C15.7303 9.58 15.3258 9.49277 14.9539 9.32254C14.2337 8.99122 13.6917 8.37862 13.3863 7.55107C12.9577 6.38965 13.0571 4.97595 13.659 3.67244C14.7202 1.37423 17.0279 0.168789 18.8028 0.985406C19.5229 1.31672 20.065 1.92929 20.3704 2.75683C20.7989 3.91825 20.6995 5.33195 20.0976 6.63546V6.6355Z" fill="white"/>
<path d="M19.8716 3.31519L19.4248 4.28322L20.1786 4.63002C20.2105 4.22563 20.185 3.81876 20.1028 3.42153L19.8716 3.31519Z" fill="white"/>
<path d="M18.792 5.6528L19.8315 6.13102C19.9631 5.795 20.0603 5.44651 20.1217 5.09089L19.239 4.68481L18.792 5.6528Z" fill="white"/>
<path d="M18.1597 7.02245L19.0962 7.45334C19.3123 7.16703 19.4995 6.86003 19.655 6.53685L18.6067 6.05469L18.1597 7.02245Z" fill="white"/>
<path d="M17.269 3.77855L16.1027 3.24194L15.6558 4.20993L16.822 4.74654L17.269 3.77855Z" fill="white"/>
<path d="M19.4696 3.13032L18.3034 2.59375L17.8564 3.56174L19.0227 4.0983L19.4696 3.13032Z" fill="white"/>
<path d="M14.3911 6.94895L15.5574 7.48551L16.0043 6.51752L14.8381 5.98096L14.3911 6.94895Z" fill="white"/>
<path d="M15.0683 4.42658L14.0212 3.94482C13.8759 4.27257 13.7632 4.6138 13.6846 4.96359L14.6213 5.39457L15.0683 4.42658Z" fill="white"/>
<path d="M18.8373 4.49995L17.6711 3.96338L17.2241 4.93137L18.3903 5.46793L18.8373 4.49995Z" fill="white"/>
<path d="M18.4111 1.30474C18.1531 1.21498 17.8819 1.16948 17.6087 1.17017C17.4142 1.17089 17.2203 1.19199 17.0301 1.23312L16.9204 1.4707L18.0867 2.00727L18.4111 1.30474Z" fill="white"/>
<path d="M18.2045 5.86933L17.0383 5.33276L16.5913 6.30075L17.7576 6.83732L18.2045 5.86933Z" fill="white"/>
<path d="M15.7009 3.05698L14.8216 2.65259C14.5899 2.92963 14.387 3.22947 14.2158 3.5475L15.254 4.02523L15.7009 3.05698Z" fill="white"/>
<path d="M16.333 1.68727L16.104 1.58203C15.7492 1.77868 15.4234 2.02383 15.1362 2.3104L15.886 2.65543L16.333 1.68727Z" fill="white"/>
<path d="M17.4543 3.37687L17.9013 2.40888L16.735 1.87231L16.2881 2.8403L17.4543 3.37687Z" fill="white"/>
</svg>
