<svg width="18" height="20" viewBox="0 0 18 20" fill="none" xmlns="http://www.w3.org/2000/svg">
<path d="M1.63589 12.3735C1.33377 12.9005 1.17188 13.4944 1.17188 14.1016C1.17188 15.6642 2.20184 17.0209 3.67065 17.4622C4.11194 18.931 5.4686 20 7.03125 20C7.43958 20 7.82822 19.9071 8.20312 19.7734V16.1194C7.85706 16.3213 7.46002 16.4453 7.03125 16.4453C5.73868 16.4453 4.6875 15.3941 4.6875 14.1016H5.85938C5.85938 14.7476 6.38519 15.2734 7.03125 15.2734C7.67731 15.2734 8.20312 14.7476 8.20312 14.1016V10.26C7.85706 10.4619 7.46002 10.5859 7.03125 10.5859C5.73868 10.5859 4.6875 9.53476 4.6875 8.24219H5.85938C5.85938 8.88824 6.38519 9.41406 7.03125 9.41406C7.67731 9.41406 8.20312 8.88824 8.20312 8.24219V0.226593C7.82822 0.092926 7.43958 0 7.03125 0C5.4686 0 4.11194 1.02997 3.67065 2.49878C2.20184 2.94006 1.17188 4.33578 1.17188 5.89844C1.17188 6.16959 1.2056 6.44257 1.27319 6.71448C0.468597 7.3793 0 8.35892 0 9.41406C0 10.6238 0.634613 11.7378 1.63589 12.3735Z" fill="white"/>
<path d="M10.5469 16.4453C10.1181 16.4453 9.72107 16.3213 9.375 16.1194V19.7734C9.74991 19.9071 10.1385 20 10.5469 20C12.1095 20 13.4662 18.931 13.9075 17.4622C15.3763 17.0209 16.4062 15.6642 16.4062 14.1016C16.4062 13.4944 16.2444 12.9005 15.9422 12.3735C16.9435 11.7378 17.5781 10.6238 17.5781 9.41406C17.5781 8.35892 17.1095 7.3793 16.3049 6.71448C16.3725 6.44257 16.4062 6.16959 16.4062 5.89844C16.4062 4.33578 15.3763 2.94006 13.9075 2.49878C13.4662 1.02997 12.1095 0 10.5469 0C10.1385 0 9.74991 0.092926 9.375 0.226593V8.24219C9.375 8.88824 9.90082 9.41406 10.5469 9.41406C11.1929 9.41406 11.7188 8.88779 11.7188 8.24173H12.8906C12.8906 9.53445 11.8394 10.5859 10.5469 10.5859C10.1181 10.5859 9.72107 10.4619 9.375 10.26V14.1016C9.375 14.7476 9.90082 15.2734 10.5469 15.2734C11.1929 15.2734 11.7188 14.7472 11.7188 14.1011H12.8906C12.8906 15.3938 11.8394 16.4453 10.5469 16.4453Z" fill="white"/>
</svg>
