<svg width="25" height="20" viewBox="0 0 25 20" fill="none" xmlns="http://www.w3.org/2000/svg">
<path d="M22.745 6.375H16.9519V10.4973C16.9519 12.3521 15.4402 13.8638 13.5854 13.8638H10.9399V15.5048C10.9399 16.6734 11.8897 17.6231 13.0583 17.6231H19.4332L21.6659 19.8559C21.7604 19.9503 21.8847 20.0001 22.014 20.0001C22.0787 20.0001 22.1433 19.9851 22.208 19.9603C22.392 19.8857 22.5113 19.7017 22.5113 19.5028V17.6231H22.745C23.9136 17.6231 24.8634 16.6734 24.8634 15.5048V8.49335C24.8634 7.3198 23.9136 6.375 22.745 6.375ZM21.288 10.5669H19.9454V13.9285C19.9454 14.202 19.7216 14.4257 19.4481 14.4257C19.1747 14.4257 18.9509 14.202 18.9509 13.9285V10.5669H17.6083C17.3298 10.5669 17.111 10.3432 17.111 10.0697C17.111 9.79121 17.3298 9.57241 17.6083 9.57241H21.288C21.5665 9.57241 21.7853 9.79121 21.7853 10.0697C21.7853 10.3382 21.5665 10.5669 21.288 10.5669Z" fill="white"/>
<path d="M8.82112 4.3659L7.72217 3.54541L7.89621 4.3659H8.82112Z" fill="white"/>
<path d="M2.37195 12.8692H2.72004V15.1218C2.72004 15.3257 2.83938 15.5047 3.02337 15.5843C3.08802 15.6091 3.15266 15.6191 3.2173 15.6191C3.34659 15.6191 3.47091 15.5694 3.56539 15.4749L6.17603 12.8692H13.5853C14.8931 12.8692 15.9572 11.8051 15.9572 10.4973V2.37693C15.9572 1.06912 14.8931 0 13.5853 0H2.37195C1.06415 0 0 1.06912 0 2.37693V10.4923C0 11.8051 1.06415 12.8692 2.37195 12.8692ZM4.2367 4.36599H6.87718L6.64843 3.26206C6.63849 3.22725 6.63849 3.19244 6.63849 3.15763C6.63849 2.82944 6.82248 2.53605 7.12581 2.40179C7.42417 2.26256 7.76728 2.31228 8.01591 2.52611L10.4873 4.36599H11.7205C11.994 4.36599 12.2178 4.58976 12.2178 4.86325C12.2178 5.13675 11.994 5.36052 11.7205 5.36052H10.6216V10.0448C10.6216 10.3182 10.4028 10.542 10.1243 10.542C9.85082 10.542 9.62705 10.3182 9.62705 10.0448V5.36052H7.16559V6.48931C7.16559 6.7628 6.94182 6.98657 6.66832 6.98657C5.96221 6.98657 5.38538 7.55843 5.38538 8.26454C5.38538 8.97066 5.96221 9.54749 6.66832 9.54749C7.37444 9.54749 7.9463 8.97066 7.9463 8.26454C7.9463 7.99105 8.17006 7.76728 8.44356 7.76728C8.72203 7.76728 8.94083 7.99105 8.94083 8.26454C8.94083 9.52262 7.92143 10.542 6.66832 10.542C5.41522 10.542 4.39085 9.52262 4.39085 8.26454C4.39085 7.18051 5.15167 6.27548 6.17106 6.04674V5.36052H4.2367C3.9632 5.36052 3.73943 5.13675 3.73943 4.86325C3.73943 4.58976 3.9632 4.36599 4.2367 4.36599Z" fill="white"/>
</svg>
