<svg width="20" height="20" viewBox="0 0 20 20" fill="none" xmlns="http://www.w3.org/2000/svg">
<path d="M10.2813 12.3965C10.2752 12.3965 10.2693 12.3962 10.2632 12.3962C10.2578 12.3962 10.2525 12.3965 10.2471 12.3965H10.2813Z" fill="white"/>
<path d="M14.9232 9.60568C14.7919 9.48891 14.603 9.46315 14.4453 9.54052C13.817 9.83693 13.131 9.99077 12.4363 9.99098C9.80921 9.98309 7.68593 7.84702 7.69383 5.21994C7.69962 3.29954 8.85954 1.57103 10.6345 0.83784C10.8143 0.753296 10.9088 0.552957 10.8597 0.360347C10.8082 0.155955 10.6288 0.00950178 10.4182 6.94047e-08H10.2831C6.85992 -0.000506688 4.08449 2.77412 4.08398 6.19727C4.08348 9.61442 6.84839 12.3859 10.2633 12.3962C12.0715 12.3904 13.7872 11.5943 14.9588 10.2162C15.1176 10.0378 15.1016 9.76442 14.9232 9.60568Z" fill="white"/>
<path d="M14.3317 3.32533C14.2586 3.25139 14.1614 3.20625 14.0577 3.19814L12.7334 3.00895L12.1388 1.81076C12.0379 1.59433 11.7805 1.50071 11.5641 1.60168C11.472 1.64463 11.398 1.71866 11.355 1.81076L10.8145 3.00895L9.49017 3.19814C9.25351 3.23019 9.08763 3.44801 9.11969 3.68467C9.13269 3.78061 9.1775 3.86942 9.24692 3.93686L10.2019 4.83775L9.97666 6.15309C9.93303 6.38788 10.0881 6.6136 10.3229 6.65723C10.42 6.67526 10.5204 6.65951 10.6073 6.61255L11.7875 5.99092L12.9677 6.61255C13.1778 6.72602 13.4402 6.64764 13.5536 6.4375C13.6006 6.35059 13.6164 6.25021 13.5983 6.15309L13.3731 4.83775L14.3281 3.93686C14.4979 3.76904 14.4995 3.49523 14.3317 3.32533Z" fill="white"/>
<path d="M9.12061 18.9458H4.76025V19.9999H9.12061V18.9458Z" fill="white"/>
<path d="M8.56222 18.1082C8.5352 15.4055 7.36404 14.7839 6.36404 14.2974L5.94963 14.0812C4.78722 13.3874 3.75389 12.4973 2.89557 11.4505C2.85051 11.3875 2.67936 11.2614 2.59828 11.2794C2.51719 11.2974 2.34604 11.4776 2.34604 11.5677C2.34604 11.6578 2.52623 12.1443 2.96766 12.6758C3.40909 13.2073 3.9226 13.7209 4.31002 14.1082C5.04875 14.838 5.23794 15.0542 5.04875 15.4055C4.9797 15.5334 4.85111 15.618 4.70639 15.6307C4.63396 15.6297 4.56289 15.6111 4.49917 15.5767C4.3933 15.5198 4.31521 15.4222 4.28295 15.3064C4.19287 15.1893 3.94963 14.937 3.72438 14.7118C3.35499 14.3334 2.85051 13.8199 2.34599 13.2343C1.92568 12.8259 1.61576 12.3176 1.44511 11.7568C1.08493 10.9705 0.777959 10.1608 0.526185 9.3334C0.50828 9.18344 0.421751 9.05029 0.291936 8.97305C0.239909 8.95202 0.181759 8.95202 0.129774 8.97305C0.0576875 9.0271 -0.0774479 9.10818 0.0576875 9.6127C0.102747 9.76587 0.165796 10.0722 0.246877 10.4505C0.466388 11.7986 0.841262 13.1167 1.36398 14.3785C1.81445 14.9821 4.14777 17.2073 5.12974 18.1082H8.56222Z" fill="white"/>
<path d="M18.9497 8.96404C18.8979 8.942 18.8394 8.942 18.7876 8.96404C18.6602 9.04229 18.5769 9.17566 18.5624 9.32439C18.3189 10.1698 18.0179 10.9975 17.6615 11.8019C17.4908 12.3626 17.1809 12.8709 16.7606 13.2794C16.2741 13.8559 15.7425 14.3785 15.3732 14.7569C15.148 14.9821 14.9047 15.2344 14.8146 15.3515C14.7824 15.4672 14.7043 15.5649 14.5984 15.6217C14.5366 15.6516 14.4689 15.6671 14.4002 15.6668C14.2379 15.6659 14.089 15.576 14.0129 15.4326C13.8597 15.0452 14.0309 14.883 14.7606 14.1442C15.139 13.7478 15.5174 13.3875 16.103 12.7028C16.6886 12.0181 16.8417 11.7839 16.7697 11.6037C16.6976 11.4235 16.6526 11.3424 16.5174 11.3154C16.3823 11.2884 16.2652 11.4325 16.2201 11.4866C15.3456 12.5382 14.2937 13.4285 13.112 14.1172L12.6976 14.3334C11.7427 14.8109 10.5444 15.4055 10.5444 18.1082H13.9769C14.9588 17.2073 17.3012 14.9731 17.7426 14.3695C18.266 13.1048 18.6409 11.7836 18.8597 10.4325C18.9408 10.0631 19.0399 9.76582 19.0399 9.61269C19.184 9.09918 19.0578 9.02709 18.9497 8.96404Z" fill="white"/>
<path d="M14.3462 18.9458H9.98584V19.9999H14.3462V18.9458Z" fill="white"/>
</svg>
