<svg width="20" height="20" viewBox="0 0 20 20" fill="none" xmlns="http://www.w3.org/2000/svg">
<path d="M17.6648 20H1.53524C0.511747 20 0 19.6933 0 19.08V8.56C0 5.82666 0.935045 3.71998 2.80513 2.23998C4.68786 0.746647 6.95597 0 9.60948 0C12.3641 0 14.6511 0.773325 16.4707 2.31999C18.2902 3.85333 19.2 5.93333 19.2 8.56V19.08C19.2 19.6933 18.6883 20 17.6648 20ZM16.1106 18.18V8.56C16.1106 4.74666 14.3479 2.53334 10.8225 1.92C12.5157 3.04 13.3623 4.81333 13.3623 7.24C13.3876 11.68 11.4227 15.3267 7.46772 18.18H16.1106ZM3.08944 18.1598C5.04798 17.2931 6.74116 15.8331 8.169 13.7798C9.59684 11.7131 10.3108 9.53314 10.3108 7.23979C10.3108 6.23979 10.0833 5.21314 9.62843 4.15981C9.18618 3.09314 8.40276 2.55979 7.27818 2.55979C6.49477 2.55979 5.74926 2.88646 5.04166 3.5398C3.74018 4.7798 3.08944 6.45312 3.08944 8.55979V18.1598Z" fill="white"/>
</svg>
