<svg width="20" height="20" viewBox="0 0 20 20" fill="none" xmlns="http://www.w3.org/2000/svg">
<path d="M10.8335 10.8333V19.9999H16.6668C18.5078 19.9999 20.0002 18.5075 20.0002 16.6666V10.8333H10.8335ZM17.2224 17.4999H12.7779V15.8333H17.2224V17.4999ZM17.2224 14.1666H12.7779V12.4999H17.2224V14.1666Z" fill="white"/>
<path d="M3.33332 0C1.49238 0 0 1.49238 0 3.33332V9.16664H9.16668V0H3.33332ZM7.35707 5.96812H5.83336V7.4918H4.16668V5.96812H2.64301V4.30145H4.16668V2.77777H5.83336V4.30145H7.35707V5.96812Z" fill="white"/>
<path d="M0 10.8333V16.6666C0 18.5075 1.49238 19.9999 3.33332 19.9999H9.16664V10.8333H0ZM7.2559 16.0774L6.07738 17.2559L5 16.1784L3.92254 17.2559L2.74402 16.0774L3.82148 14.9999L2.7441 13.9225L3.92262 12.744L5 13.8214L6.07746 12.744L7.25598 13.9225L6.17852 14.9999L7.2559 16.0774Z" fill="white"/>
<path d="M16.6669 0H10.8335V9.16668H20.0002V3.33332C20.0002 1.49238 18.5078 0 16.6669 0ZM17.2224 5.83332H12.7779V4.16664H17.2224V5.83332Z" fill="white"/>
</svg>
