<svg width="25" height="20" viewBox="0 0 25 20" fill="none" xmlns="http://www.w3.org/2000/svg">
<path d="M0.714286 18.5714H9.36095C10.1423 18.5714 10.7687 19.146 11.2237 19.7811C11.2898 19.8734 11.3776 19.9445 11.4762 19.9968V2.14286C11.4762 0.959381 10.5168 0 9.33333 0H0.714286C0.31981 0 0 0.31981 0 0.714286V17.8571C0 18.2516 0.31981 18.5714 0.714286 18.5714ZM4.24686 4.495C3.96786 4.216 3.96786 3.76395 4.24686 3.48495C4.52586 3.20595 4.9779 3.20595 5.2569 3.48495L5.7619 3.98995L6.2669 3.48495C6.5459 3.20595 6.99795 3.20595 7.27695 3.48495C7.55595 3.76395 7.55595 4.216 7.27695 4.495L6.77195 5L7.27695 5.505C7.55595 5.784 7.55595 6.23605 7.27695 6.51505C6.99795 6.79405 6.5459 6.79405 6.2669 6.51505L5.7619 6.01005L5.2569 6.51505C4.9779 6.79405 4.52586 6.79405 4.24686 6.51505C3.96786 6.23605 3.96786 5.784 4.24686 5.505L4.75186 5L4.24686 4.495ZM2.90476 8.57143H8.61905C9.01386 8.57143 9.33333 8.8909 9.33333 9.28571C9.33333 9.68052 9.01386 10 8.61905 10H2.90476C2.50995 10 2.19048 9.68052 2.19048 9.28571C2.19048 8.8909 2.50995 8.57143 2.90476 8.57143ZM2.90476 11.4286H8.61905C9.01386 11.4286 9.33333 11.748 9.33333 12.1429C9.33333 12.5377 9.01386 12.8571 8.61905 12.8571H2.90476C2.50995 12.8571 2.19048 12.5377 2.19048 12.1429C2.19048 11.748 2.50995 11.4286 2.90476 11.4286ZM2.90476 14.2857H8.61905C9.01386 14.2857 9.33333 14.6052 9.33333 15C9.33333 15.3948 9.01386 15.7143 8.61905 15.7143H2.90476C2.50995 15.7143 2.19048 15.3948 2.19048 15C2.19048 14.6052 2.50995 14.2857 2.90476 14.2857Z" fill="white"/>
<path d="M23.6667 0H15.0476C13.8619 0 12.9048 0.957095 12.9048 2.14286V20C13.0191 19.9286 13.1191 19.8429 13.1905 19.7286C13.5762 19.0714 14.2905 18.5714 15.0476 18.5714H23.6667C24.0667 18.5714 24.381 18.2572 24.381 17.8571V0.714286C24.381 0.314238 24.0667 0 23.6667 0ZM16.3284 4.495C16.6074 4.216 17.0594 4.216 17.3384 4.495L18.1845 5.34114L19.8335 3.14319C20.0707 2.82652 20.5192 2.76514 20.8331 3.00019C21.1491 3.23667 21.2133 3.68448 20.9761 3.99976L18.8333 6.8569C18.5758 7.20114 18.0672 7.24386 17.7569 6.93362L16.3284 5.50505C16.0493 5.226 16.0493 4.774 16.3284 4.495ZM21.4762 15.7143H15.7619C15.3671 15.7143 15.0476 15.3948 15.0476 15C15.0476 14.6052 15.3671 14.2857 15.7619 14.2857H21.4762C21.871 14.2857 22.1905 14.6052 22.1905 15C22.1905 15.3948 21.871 15.7143 21.4762 15.7143ZM21.4762 12.8571H15.7619C15.3671 12.8571 15.0476 12.5377 15.0476 12.1429C15.0476 11.748 15.3671 11.4286 15.7619 11.4286H21.4762C21.871 11.4286 22.1905 11.748 22.1905 12.1429C22.1905 12.5377 21.871 12.8571 21.4762 12.8571ZM21.4762 10H15.7619C15.3671 10 15.0476 9.68052 15.0476 9.28571C15.0476 8.8909 15.3671 8.57143 15.7619 8.57143H21.4762C21.871 8.57143 22.1905 8.8909 22.1905 9.28571C22.1905 9.68052 21.871 10 21.4762 10Z" fill="white"/>
</svg>
