<svg width="15" height="20" viewBox="0 0 15 20" fill="none" xmlns="http://www.w3.org/2000/svg">
<path d="M4.08073 6.09299V9.34024V10.1348V15.4708C3.84647 15.3918 3.59018 15.3528 3.32136 15.3595C2.71777 15.3747 2.09418 15.6092 1.56539 16.0197C1.03664 16.4303 0.654964 16.9764 0.490785 17.5574C0.310199 18.1961 0.413676 18.8291 0.774611 19.2939C1.12453 19.7446 1.68738 20 2.32609 20C2.34621 20 2.36644 19.9997 2.38671 19.9992C2.9903 19.9841 3.61393 19.7496 4.14268 19.3391C4.67147 18.9285 5.05311 18.3824 5.21729 17.8013C5.291 17.5406 5.31658 17.2811 5.2974 17.0332H5.30521V9.81203L13.0592 7.76774V12.8412C12.825 12.7622 12.5687 12.7232 12.2999 12.7298C11.6963 12.7449 11.0727 12.9794 10.5439 13.3899C10.0152 13.8005 9.63348 14.3466 9.4693 14.9276C9.28871 15.5664 9.39219 16.1993 9.75316 16.6641C10.103 17.1148 10.6659 17.3702 11.3046 17.3702C11.3247 17.3702 11.345 17.3699 11.3652 17.3694C11.9688 17.3543 12.5924 17.1198 13.1212 16.7093C13.65 16.2987 14.0317 15.7526 14.1958 15.1715C14.2638 14.9313 14.2914 14.6919 14.2804 14.4619H14.2837V7.44485V6.76892V3.40308L4.08073 6.09299ZM13.0592 6.50142L5.30521 8.54567V7.0365L13.0592 4.99221V6.50142Z" fill="white"/>
<path d="M1.63681 2.28317C1.03494 2.50579 1.12498 3.1125 1.1315 3.15215C1.09592 3.1336 0.547246 2.8593 0.148498 3.36207C-0.263844 3.88191 0.224474 4.66437 1.09607 4.82167C1.93451 4.97296 2.39485 4.9455 2.42868 4.9432L2.42939 4.94417C2.42939 4.94417 2.42958 4.94367 2.42978 4.94316C2.4304 4.94308 2.43091 4.94304 2.43091 4.94304L2.43021 4.9421C2.44294 4.91066 2.6122 4.48175 2.72919 3.63777C2.85087 2.76043 2.25911 2.05302 1.63681 2.28317Z" fill="white"/>
<path d="M6.30204 0.0338807C5.68407 -0.139126 5.40087 0.404934 5.38294 0.440871C5.36501 0.404934 5.08181 -0.139126 4.46384 0.0338807C3.8249 0.212786 3.76103 1.13286 4.37443 1.7718C4.96443 2.38641 5.35329 2.63434 5.382 2.65235V2.65352C5.382 2.65352 5.38239 2.65328 5.38294 2.65293C5.38349 2.65324 5.38388 2.65352 5.38388 2.65352V2.65235C5.41263 2.63434 5.80141 2.38641 6.39149 1.7718C7.00489 1.13286 6.94098 0.212825 6.30204 0.0338807Z" fill="white"/>
</svg>
