<svg width="22" height="22" viewBox="0 0 22 22" fill="none" xmlns="http://www.w3.org/2000/svg">
<path d="M11 21.25C16.6609 21.25 21.25 16.6609 21.25 11C21.25 5.33908 16.6609 0.75 11 0.75C5.33908 0.75 0.75 5.33908 0.75 11C0.75 16.6609 5.33908 21.25 11 21.25Z" fill="#751A46" stroke="white" stroke-width="0.5"/>
<path d="M21 11C21 5.47719 16.5229 1 11 1C9.04379 1 7.21902 1.5623 5.6777 2.53324L7.86961 3.46453L4.91309 4.7207L7.86961 5.97684L4.91309 7.23293L7.86961 8.48898L4.91309 9.74488L7.86961 11.0007L4.91309 12.2568L7.86961 13.5128L4.91309 14.7687L7.86961 16.0247L4.91309 17.2808L7.86961 18.5367L5.67867 19.4675C7.2198 20.438 9.04418 21 11 21C16.5229 21 21 16.5228 21 11Z" fill="#F0F0F0"/>
</svg>
