<svg width="32" height="20" viewBox="0 0 32 20" fill="none" xmlns="http://www.w3.org/2000/svg">
<path d="M31.5601 1.13472L30.6381 4.99997L29.3261 11.3476L28.475 15.532L28.1558 17.0213L27.9785 17.766C27.6239 19.2553 26.9265 20 25.8863 20C25.4371 20 25.1298 19.9645 24.9644 19.8936C24.8225 19.8227 24.7161 19.6927 24.6452 19.5036L24.6807 19.1135C24.6807 18.7589 24.8934 17.7305 25.319 16.0284C25.7445 14.3262 25.9572 13.2861 25.9572 12.9078C25.9572 12.5059 25.7563 12.2222 25.3544 12.0567C24.9761 11.8676 24.5269 11.7731 24.0069 11.7731C23.2976 11.7731 22.3047 12.305 21.0282 13.3688C19.3497 14.7636 17.9549 15.7683 16.8438 16.383C14.6689 17.4705 12.3521 18.0142 9.89361 18.0142C7.34039 18.0142 5.09455 17.5059 3.15601 16.4893C1.05198 15.3782 0 13.9243 0 12.1276C0 11.513 0.141844 11.052 0.425531 10.7446C0.732857 10.4137 1.12294 10.2482 1.59574 10.2482H20.2129C20.7566 9.6808 21.1821 9.0307 21.4895 8.2978C21.8204 7.56495 21.9859 6.79664 21.9859 5.99288C21.9859 5.04729 21.7495 4.23165 21.2767 3.54606C20.8511 2.83687 20.201 2.32859 19.3263 2.02123L19.4327 3.40423L19.5745 4.4326C19.5745 5.33098 19.2908 6.22932 18.7235 7.12765C17.9906 8.1442 16.9386 8.65248 15.5675 8.65248C14.5509 8.65248 13.6526 8.22696 12.8724 7.37588C12.1396 6.5012 11.7731 5.6383 11.7731 4.78723C11.7731 3.55794 12.2932 2.49412 13.3334 1.59574C14.539 0.531926 16.1348 5.32785e-05 18.1206 0C20.1064 2.13114e-05 21.6903 0.543752 22.8724 1.63117C24.078 2.69503 24.6809 4.14891 24.6809 5.99288L24.3617 7.76592C24.1726 8.78248 23.9834 9.45623 23.7943 9.7872L24.1135 10.1418L25.1773 10.2127C26.2175 10.2127 27.0567 8.40424 27.695 4.78738C28.026 2.58884 28.4279 1.00492 28.9007 0.0356242H31.5603L31.5601 1.13472ZM16.6668 4.36185C16.6668 4.05454 16.5722 3.69992 16.3831 3.29804C16.194 2.87253 15.9221 2.44696 15.5675 2.02142L14.3264 3.33347C13.9481 3.85357 13.759 4.3855 13.759 4.92921C13.759 5.44931 13.8536 5.81576 14.0427 6.0285C14.2555 6.24128 14.5392 6.38313 14.8938 6.45404C15.3666 6.45405 15.7803 6.24129 16.1349 5.81576C16.4895 5.39024 16.6668 4.90562 16.6668 4.36185ZM18.2271 12.4826L17.5533 12.0216H4.04297C3.66472 12.0216 3.34555 12.1043 3.0855 12.2698L2.26991 12.9081C2.90819 13.9719 3.87749 14.7875 5.1777 15.3549C6.45431 15.8041 7.65994 16.0286 8.79472 16.0286C10.615 16.0287 12.199 15.7804 13.5465 15.284C14.894 14.7875 16.454 13.8537 18.2271 12.4826Z" fill="white"/>
</svg>
