<svg width="86" height="76" viewBox="0 0 86 76" fill="none" xmlns="http://www.w3.org/2000/svg">
<path d="M15.2391 15.9704H15.1693L15.1147 16.0138L10.1295 19.9746L9.97205 20.0997L10.098 20.2564L11.6748 22.2191L11.7999 22.3748L11.9558 22.2499L13.7337 20.825C13.7338 20.8249 13.7338 20.8249 13.7339 20.8248C13.9032 20.6897 14.1677 20.4464 14.5257 20.0968L14.4891 21.2001L14.4891 21.2001L14.489 21.2025L14.4577 22.671L14.4576 22.671V22.6753V31.6099V31.8099H14.6576H17.9279H18.1279V31.6099V16.1704V15.9704H17.9279H15.2391Z" fill="#484848" stroke="#484848" stroke-width="0.4"/>
<path d="M33.0329 28.6645H26.6383L28.4165 26.995C29.7439 25.7837 30.6801 24.8421 31.2156 24.1744C31.7519 23.5078 32.1512 22.8517 32.41 22.2073C32.6715 21.5584 32.7996 20.8666 32.7996 20.1317C32.7996 19.2802 32.586 18.5151 32.1555 17.8465L32.1551 17.846C31.7225 17.1787 31.1185 16.6632 30.3471 16.2957L30.3467 16.2955C29.5745 15.9299 28.6901 15.7495 27.6991 15.7495C26.9523 15.7495 26.2728 15.8225 25.6615 15.9708L25.6613 15.9709C25.0536 16.119 24.4903 16.3304 23.9746 16.6065C23.4532 16.8841 22.8096 17.3527 22.0433 18.0038L21.8913 18.1331L22.0202 18.2854L23.7984 20.3875L23.9261 20.5384L24.0785 20.4126C24.6831 19.9132 25.2586 19.5313 25.8067 19.2651L25.8071 19.2649C26.3441 19.0028 26.8973 18.8722 27.4655 18.8722C28.0007 18.8722 28.4065 19.0142 28.7033 19.2769L28.7036 19.2772C28.9897 19.5295 29.1499 19.9275 29.1499 20.511C29.1499 20.9005 29.0772 21.2767 28.9315 21.6386L28.9313 21.6391C28.7852 22.005 28.5425 22.4079 28.1967 22.8533C27.8517 23.2965 27.1074 24.1035 25.9576 25.2803C25.9574 25.2804 25.9573 25.2806 25.9571 25.2808L22.072 29.1985L22.014 29.257V29.3393V31.6094V31.8094H22.214H33.0329H33.2329V31.6094V28.8645V28.6645H33.0329Z" fill="#484848" stroke="#484848" stroke-width="0.4"/>
<path d="M78.1562 0.8H7.84234C3.95912 0.8 0.8 3.9598 0.8 7.84234V52.2539C0.8 53.1502 1.52741 53.8776 2.42372 53.8776H46.1588C47.0552 53.8776 47.7826 53.1502 47.7826 52.2539C47.7826 51.3576 47.0552 50.6302 46.1588 50.6302H4.04745V7.84234C4.04745 5.75028 5.75043 4.04745 7.84234 4.04745H78.1562C80.2483 4.04745 81.9511 5.74964 81.9511 7.84234V50.6302H72.4323C71.536 50.6302 70.8085 51.3576 70.8085 52.2539C70.8085 53.1502 71.536 53.8776 72.4323 53.8776H83.575C84.4722 53.8776 85.1987 53.1501 85.1987 52.2539V7.84234C85.1987 3.95979 82.0396 0.8 78.1562 0.8Z" fill="#484848" stroke="#484848" stroke-width="0.4"/>
<path d="M47.0095 50.6301H2.42372C1.52741 50.6301 0.8 51.3575 0.8 52.2538V60.7961C0.8 61.6925 1.52741 62.4199 2.42372 62.4199H36.368C37.2643 62.4199 37.9917 61.6925 37.9917 60.7961C37.9917 59.8998 37.2643 59.1724 36.368 59.1724H4.04745V53.8775H47.0097C47.906 53.8775 48.6334 53.1501 48.6334 52.2538C48.6334 51.3575 47.906 50.6301 47.0095 50.6301Z" fill="#484848" stroke="#484848" stroke-width="0.4"/>
<path d="M85.1994 52.2538V52.2538C85.1992 51.3573 84.4718 50.6301 83.5755 50.6301H72.0058C71.1094 50.6301 70.382 51.3575 70.382 52.2538C70.382 53.1501 71.1094 53.8775 72.0058 53.8775H81.952V59.3648C81.4424 59.6385 81.0956 60.1769 81.0956 60.7961C81.0956 61.6925 81.823 62.4199 82.7193 62.4199H83.5757C84.472 62.4199 85.1994 61.6925 85.1994 60.7961V52.2538Z" fill="#484848" stroke="#484848" stroke-width="0.4"/>
<path d="M81.1475 40.2854L80.9549 40.3305L81.1475 40.2854L75.1906 14.8677C74.9862 13.9956 74.11 13.4502 73.2392 13.6574C72.3658 13.862 71.8245 14.7356 72.0291 15.6083C72.0291 15.6083 72.0291 15.6083 72.0291 15.6084L77.986 41.026L77.9861 41.0261C78.5477 43.4204 77.5443 45.8819 75.3406 47.4497C75.3406 47.4497 75.3406 47.4497 75.3406 47.4498L66.7578 53.5524C66.0265 54.0719 65.855 55.0858 66.3753 55.8166C66.6921 56.2626 67.1926 56.4994 67.7 56.4994C68.0256 56.4994 68.3547 56.4019 68.6396 56.1991L77.2224 50.0964L77.1065 49.9334L77.2224 50.0964C80.5067 47.7607 82.0181 44.0011 81.1475 40.2854Z" fill="#484848" stroke="#484848" stroke-width="0.4"/>
<path d="M43.41 47.4523L43.41 47.4523L51.8105 53.8071C51.8106 53.8071 51.8106 53.8071 51.8106 53.8071C52.5259 54.3479 52.6671 55.3667 52.1257 56.082L52.1255 56.0822C51.8055 56.5034 51.3197 56.725 50.8286 56.725C50.4876 56.725 50.143 56.6178 49.8501 56.3962L41.486 50.0682C38.2372 47.7564 36.7266 43.9982 37.5976 40.2838L37.5982 40.2813L37.5982 40.2813L43.5595 16.2704L43.5595 16.2704C43.7762 15.3993 44.6614 14.8691 45.5269 15.0853M43.41 47.4523L45.4784 15.2793M43.41 47.4523L43.4053 47.4489C41.2016 45.8811 40.1984 43.4201 40.7553 41.0441L40.7549 41.0454L40.5608 40.9972L40.7556 41.0429L46.7118 17.0523L43.41 47.4523ZM45.5269 15.0853L45.4784 15.2793M45.5269 15.0853C45.5268 15.0853 45.5268 15.0852 45.5267 15.0852L45.4784 15.2793M45.5269 15.0853C46.3967 15.3019 46.9278 16.1825 46.7118 17.0523L46.5177 17.0041C46.7071 16.2417 46.2415 15.4693 45.4784 15.2793" fill="#484848" stroke="#484848" stroke-width="0.4"/>
<path d="M81.9527 65.9991V71.9858H36.7935V65.9991C36.7935 61.6704 40.3153 58.1486 44.644 58.1486C44.747 58.1486 44.85 58.1389 44.9519 58.1195L44.9525 58.1194L51.5578 56.8423L51.5579 56.8423C52.4379 56.6718 53.0135 55.8201 52.8438 54.9395L52.8438 54.9391C52.6725 54.0582 51.8252 53.4854 50.9415 53.6532L50.9408 53.6533L44.4818 54.9021C38.4366 54.9891 33.5461 59.9335 33.5461 65.9989V73.6094C33.5461 74.5057 34.2735 75.2331 35.1698 75.2331H83.5763C84.4726 75.2331 85.2 74.5057 85.2 73.6094V65.9989C85.2 59.9335 80.3093 54.9885 74.2643 54.9021L67.2401 53.5444L67.2392 53.5442C66.3537 53.3773 65.5078 53.9499 65.3371 54.8303L65.3371 54.8305C65.1674 55.7112 65.7428 56.5627 66.623 56.7334L66.6231 56.7334L73.7937 58.1194L73.794 58.1194C73.8955 58.1389 73.9994 58.1486 74.1022 58.1486C78.4309 58.1486 81.9527 61.6704 81.9527 65.9991Z" fill="#484848" stroke="#484848" stroke-width="0.4"/>
<path d="M52.9511 56.5537L52.9512 56.5538C54.9628 57.5589 57.1676 58.0613 59.3725 58.0613C61.5776 58.0613 63.7823 57.5589 65.7939 56.5538L65.794 56.5537C66.3437 56.2785 66.6911 55.7166 66.6911 55.1014V47.9828C66.6911 47.0865 65.9639 46.3591 65.0674 46.3591H53.6776C52.7813 46.3591 52.0539 47.0865 52.0539 47.9828V55.1014C52.0539 55.7168 52.4014 56.2787 52.9511 56.5537ZM63.4439 49.6065V54.0484C60.8368 55.072 57.9085 55.072 55.3015 54.0484V49.6065H63.4439Z" fill="#484848" stroke="#484848" stroke-width="0.4"/>
<path d="M75.2337 42.0986V42.0986V16.6611C75.2337 16.6611 75.2337 16.661 75.2337 16.661C75.2338 15.7645 74.5064 15.0373 73.6101 15.0373C72.7138 15.0373 71.9864 15.7647 71.9864 16.661V42.0986C71.9864 44.4475 70.0749 46.3591 67.7259 46.3591H51.0199C48.6709 46.3591 46.7594 44.4475 46.7594 42.0986V24.8324C46.7594 23.9361 46.0319 23.2087 45.1356 23.2087C44.2393 23.2087 43.5119 23.9361 43.5119 24.8324V42.0986C43.5119 46.2389 46.8802 49.6065 51.0199 49.6065H67.7251C71.8654 49.6065 75.233 46.2389 75.2337 42.0986Z" fill="#484848" stroke="#484848" stroke-width="0.4"/>
<path d="M73.6099 9.34224H51.0683C46.9015 9.34224 43.5119 12.732 43.5119 16.8986V25.2032C43.5119 26.0995 44.2393 26.8269 45.1356 26.8269H63.8775C70.1398 26.8269 75.2337 21.733 75.2337 15.4706V10.966C75.2337 10.0695 74.5064 9.34224 73.6099 9.34224ZM71.9862 15.4706C71.9862 19.9417 68.3485 23.5795 63.8773 23.5795H46.7594V16.8986C46.7594 14.5232 48.6929 12.5897 51.0683 12.5897H71.9862V15.4706Z" fill="#484848" stroke="#484848" stroke-width="0.4"/>
</svg>
