<svg width="85" height="85" viewBox="0 0 85 85" fill="none" xmlns="http://www.w3.org/2000/svg">
<path d="M75.0391 11.5854V0H49.9707C46.9986 0 44.3268 1.30867 42.5 3.37933C40.6732 1.30867 38.0014 0 35.0293 0H9.96094V11.5854H0V85L13.6489 71.3511H85V11.5854H75.0391ZM40.0098 47.7885C38.5435 46.9383 36.8431 46.4487 35.0293 46.4487H14.9414V41.4682H35.0293C37.7757 41.4682 40.0098 43.703 40.0098 46.4487V47.7885ZM14.9414 51.4292H35.0293C37.7757 51.4292 40.0098 53.6639 40.0098 56.4096H14.9414V51.4292ZM70.0586 46.4487H49.9707C48.1569 46.4487 46.4565 46.9383 44.9902 47.7885V46.4487C44.9902 43.703 47.2243 41.4682 49.9707 41.4682H70.0586V46.4487ZM70.0586 51.4292V56.4096H44.9902C44.9902 53.6639 47.2243 51.4292 49.9707 51.4292H70.0586ZM49.9707 4.98047H70.0586V36.4878H49.9707C48.1569 36.4878 46.4565 36.9774 44.9902 37.8276V9.96094C44.9902 7.21455 47.2243 4.98047 49.9707 4.98047ZM35.0293 4.98047C37.7757 4.98047 40.0098 7.21455 40.0098 9.96094V37.8276C38.5435 36.9774 36.8431 36.4878 35.0293 36.4878H14.9414V4.98047H35.0293ZM80.0195 66.3706H11.5854L4.98047 72.9762V16.5659H9.96094V61.3901H75.0391V16.5659H80.0195V66.3706Z" fill="#484848"/>
</svg>
