<svg width="89" height="89" viewBox="0 0 89 89" fill="none" xmlns="http://www.w3.org/2000/svg">
<path d="M44.5 87.75H44.5009C55.9673 87.7371 66.9604 83.1764 75.0684 75.0684C83.1764 66.9604 87.7371 55.9673 87.75 44.5009V44.5C87.75 35.946 85.2134 27.584 80.4611 20.4716C75.7087 13.3592 68.954 7.81572 61.0511 4.54223C53.1482 1.26874 44.452 0.412245 36.0624 2.08106C27.6727 3.74987 19.9663 7.86903 13.9177 13.9177C7.86903 19.9663 3.74987 27.6727 2.08106 36.0624C0.412245 44.452 1.26874 53.1482 4.54223 61.0511C7.81572 68.954 13.3592 75.7087 20.4716 80.4611C27.584 85.2134 35.946 87.75 44.5 87.75ZM23.1496 12.5469C29.4692 8.32427 36.8991 6.07042 44.4996 6.07033C54.6883 6.08199 64.4564 10.1346 71.6609 17.3391C78.8655 24.5438 82.9182 34.312 82.9297 44.5009C82.9295 52.1012 80.6757 59.5309 76.4531 65.8504C72.2304 72.1701 66.2285 77.0958 59.2064 80.0044C52.1843 82.9131 44.4574 83.6741 37.0028 82.1913C29.5481 80.7085 22.7006 77.0484 17.3261 71.6739C11.9516 66.2994 8.29156 59.4519 6.80875 51.9973C5.32593 44.5426 6.08697 36.8157 8.99562 29.7936C11.9043 22.7715 16.8299 16.7696 23.1496 12.5469Z" fill="#484848" stroke="#484848" stroke-width="1.5"/>
<path d="M42.6338 51.5279L42.6324 51.5271C42.2668 51.315 41.9634 51.0106 41.7527 50.6442C41.542 50.278 41.4313 49.8629 41.4316 49.4404M42.6338 51.5279L53.6367 57.5057C54.1673 57.5058 54.6832 57.3308 55.1042 57.0078C55.5252 56.6848 55.8279 56.2319 55.9653 55.7192C56.1026 55.2066 56.0669 54.663 55.8637 54.1728C55.6606 53.6826 55.3014 53.2732 54.8418 53.008C54.8417 53.0079 54.8417 53.0079 54.8416 53.0078L46.252 48.0484V26.0693C46.252 25.7528 46.1896 25.4394 46.0685 25.147C45.9474 24.8546 45.7698 24.5889 45.546 24.3651C45.3222 24.1413 45.0565 23.9638 44.7641 23.8426C44.4717 23.7215 44.1583 23.6592 43.8418 23.6592C43.5253 23.6592 43.2119 23.7215 42.9195 23.8426C42.6271 23.9638 42.3614 24.1413 42.1376 24.3651C41.9138 24.5889 41.7362 24.8546 41.6151 25.147C41.494 25.4394 41.4316 25.7528 41.4316 26.0693V49.4404M42.6338 51.5279L52.4278 57.1819M42.6338 51.5279L52.4278 57.1819M41.4316 49.4404C41.4316 49.4402 41.4316 49.4401 41.4316 49.4399L42.1807 49.4407H41.4316V49.4404ZM52.4278 57.1819C52.7943 57.3941 53.2103 57.5058 53.6337 57.5057M52.4278 57.1819L53.6337 57.5057M53.6337 57.5057C53.6338 57.5057 53.6339 57.5057 53.634 57.5057M53.6337 57.5057H53.634M53.634 57.5057H53.6365H53.634Z" fill="#484848" stroke="#484848" stroke-width="1.5"/>
</svg>
