<svg width="85" height="85" viewBox="0 0 85 85" fill="none" xmlns="http://www.w3.org/2000/svg">
<path d="M28 28.75L28.0008 28.75C30.8507 28.7468 33.5829 27.6133 35.5981 25.5981C37.6133 23.5829 38.7468 20.8507 38.75 18.0008V18C38.75 15.8739 38.1195 13.7955 36.9383 12.0276C35.7571 10.2598 34.0782 8.88194 32.1139 8.0683C30.1495 7.25466 27.9881 7.04177 25.9028 7.45656C23.8175 7.87135 21.902 8.89519 20.3986 10.3986C18.8952 11.902 17.8714 13.8175 17.4566 15.9028C17.0418 17.9881 17.2547 20.1495 18.0683 22.1138C18.8819 24.0782 20.2598 25.7571 22.0276 26.9383C23.7955 28.1195 25.8739 28.75 28 28.75ZM23.295 10.9585C24.6876 10.028 26.3248 9.53134 27.9996 9.53125C30.2449 9.53391 32.3975 10.427 33.9853 12.0148C35.5729 13.6024 36.466 15.7548 36.4688 18C36.4688 19.675 35.9721 21.3123 35.0415 22.705C34.111 24.0977 32.7883 25.1831 31.2409 25.8241C29.6934 26.4651 27.9906 26.6328 26.3478 26.306C24.7051 25.9793 23.1961 25.1727 22.0117 23.9883C20.8273 22.8039 20.0207 21.295 19.694 19.6522C19.3672 18.0094 19.5349 16.3066 20.1759 14.7592C20.8169 13.2117 21.9023 11.8891 23.295 10.9585Z" fill="#484848" stroke="#484848" stroke-width="1.5"/>
<path d="M27.2737 20.1505L27.2724 20.1497C27.0994 20.0494 26.9558 19.9053 26.856 19.7319C26.7564 19.5587 26.704 19.3625 26.7041 19.1627C26.7041 19.1626 26.7041 19.1626 26.7041 19.1625V13.6636C26.7041 13.5138 26.7336 13.3655 26.7909 13.2271C26.8482 13.0887 26.9323 12.9629 27.0382 12.857C27.1441 12.7511 27.2698 12.6671 27.4082 12.6098C27.5466 12.5525 27.6949 12.5229 27.8447 12.5229C27.9945 12.5229 28.1428 12.5525 28.2812 12.6098C28.4196 12.6671 28.5454 12.7511 28.6513 12.857C28.7572 12.9629 28.8412 13.0887 28.8985 13.2271C28.9558 13.3655 28.9854 13.5138 28.9854 13.6636V18.504L30.7195 19.5053L30.7197 19.5054L30.3447 20.1549C30.4192 20.1979 30.4775 20.2642 30.5104 20.3437C30.5433 20.4232 30.5491 20.5113 30.5268 20.5944C30.5046 20.6774 30.4555 20.7508 30.3873 20.8032C30.319 20.8556 30.2354 20.8839 30.1494 20.8839L27.2737 20.1505ZM27.2737 20.1505L29.5776 21.4805M27.2737 20.1505L29.5776 21.4805M30.1492 21.6339H30.149H30.1492ZM30.1492 21.6339C30.1493 21.6339 30.1493 21.6339 30.1494 21.6339H30.1492ZM29.5776 21.4805L29.5784 21.481C29.7518 21.5812 29.9485 21.6339 30.1487 21.6339L29.5776 21.4805Z" fill="#484848" stroke="#484848" stroke-width="1.5"/>
<path d="M75.0391 11.5854V0H49.9707C46.9986 0 44.3268 1.30867 42.5 3.37933C40.6732 1.30867 38.0014 0 35.0293 0H9.96094V11.5854H0V85L13.6489 71.3511H85V11.5854H75.0391ZM40.0098 47.7885C38.5435 46.9383 36.8431 46.4487 35.0293 46.4487H14.9414V41.4682H35.0293C37.7757 41.4682 40.0098 43.703 40.0098 46.4487V47.7885ZM14.9414 51.4292H35.0293C37.7757 51.4292 40.0098 53.6639 40.0098 56.4096H14.9414V51.4292ZM70.0586 46.4487H49.9707C48.1569 46.4487 46.4565 46.9383 44.9902 47.7885V46.4487C44.9902 43.703 47.2243 41.4682 49.9707 41.4682H70.0586V46.4487ZM70.0586 51.4292V56.4096H44.9902C44.9902 53.6639 47.2243 51.4292 49.9707 51.4292H70.0586ZM49.9707 4.98047H70.0586V36.4878H49.9707C48.1569 36.4878 46.4565 36.9774 44.9902 37.8276V9.96094C44.9902 7.21455 47.2243 4.98047 49.9707 4.98047ZM35.0293 4.98047C37.7757 4.98047 40.0098 7.21455 40.0098 9.96094V37.8276C38.5435 36.9774 36.8431 36.4878 35.0293 36.4878H14.9414V4.98047H35.0293ZM80.0195 66.3706H11.5854L4.98047 72.9762V16.5659H9.96094V61.3901H75.0391V16.5659H80.0195V66.3706Z" fill="#484848"/>
</svg>
