<svg width="16" height="17" viewBox="0 0 16 17" fill="none" xmlns="http://www.w3.org/2000/svg">
<path d="M8.25695 9.57116C6.99969 8.95819 8.2019 9.44483 6.71031 9.03398C7.68755 8.81611 8.55004 8.2453 9.13251 7.43093C9.71498 6.61656 9.97647 5.61589 9.86688 4.62067C9.75729 3.62545 9.28431 2.70567 8.53859 2.03756C7.79287 1.36945 6.82684 1 5.82561 1C4.82437 1 3.85834 1.36945 3.11262 2.03756C2.3669 2.70567 1.89393 3.62545 1.78434 4.62067C1.67474 5.61589 1.93623 6.61656 2.5187 7.43093C3.10117 8.2453 3.96366 8.81611 4.94091 9.03398C3.39793 9.26989 2.00963 10.1032 1.07574 11.3539C1.03304 11.4123 1.0073 11.4814 1.00134 11.5535C0.995376 11.6256 1.00943 11.698 1.04195 11.7626C1.07448 11.8272 1.12421 11.8816 1.18567 11.9198C1.24713 11.958 1.31794 11.9785 1.3903 11.9791C1.452 11.9797 1.51299 11.9658 1.56832 11.9384C1.62365 11.9111 1.67177 11.8711 1.70879 11.8218C2.17156 11.1957 2.77124 10.6835 3.46206 10.3245C4.15289 9.96541 4.91661 9.7689 5.69495 9.74993C6.47328 9.73096 7.24567 9.89005 7.95316 10.215C7.87271 10.1527 7.05424 9.61453 7.64749 10.0745C7.6805 10.1143 7.72104 10.1472 7.76678 10.1713C7.81253 10.1954 7.86259 10.2103 7.91409 10.215C7.96559 10.2198 8.01752 10.2143 8.06691 10.199C8.1163 10.1836 8.16217 10.1587 8.2019 10.1256C8.242 10.0928 8.27525 10.0525 8.29973 10.0069C8.32421 9.9613 8.33945 9.91131 8.34456 9.8598C8.34968 9.80829 8.34457 9.75627 8.32954 9.70674C8.3145 9.65721 8.28983 9.61113 8.25695 9.57116ZM2.54631 5.07051C2.54631 4.42193 2.73864 3.78791 3.09897 3.24863C3.4593 2.70935 3.97146 2.28904 4.57067 2.04083C5.16989 1.79263 5.82925 1.72769 6.46537 1.85422C7.10149 1.98075 7.6858 2.29308 8.14442 2.7517C8.60304 3.21031 8.91536 3.79463 9.0419 4.43075C9.16843 5.06687 9.10349 5.72623 8.85528 6.32544C8.60708 6.92466 8.18677 7.43681 7.64749 7.79715C7.10821 8.15748 6.47419 8.34981 5.82561 8.34981C4.9562 8.34877 4.12271 8.00294 3.50794 7.38817C2.89318 6.77341 2.54735 5.93991 2.54631 5.07051Z" fill="white" stroke="white" stroke-width="0.2"/>
<path d="M12.4242 8.98518C12.423 8.98517 12.4218 8.98499 12.4206 8.985L10.5165 8.99122L10.9558 8.54907C11.0885 8.41552 11.0878 8.19968 10.9542 8.067C10.8207 7.93432 10.6048 7.93503 10.4721 8.06858L9.45287 9.09454C9.44495 9.1025 9.43747 9.11089 9.43037 9.11959C9.42716 9.12353 9.42436 9.12769 9.42134 9.13174C9.41771 9.13661 9.41397 9.14137 9.41062 9.14643C9.40739 9.15128 9.40459 9.15632 9.40165 9.1613C9.39894 9.16588 9.39607 9.17037 9.39356 9.17509C9.39088 9.18016 9.3886 9.18538 9.38619 9.19055C9.38388 9.19548 9.38144 9.20033 9.37936 9.20537C9.3773 9.21039 9.37564 9.21552 9.37384 9.22061C9.3719 9.22602 9.36986 9.23136 9.3682 9.2369C9.36668 9.24198 9.36557 9.24716 9.36429 9.25231C9.36289 9.25796 9.36132 9.26352 9.36021 9.26928C9.35904 9.27523 9.35836 9.28124 9.35753 9.28722C9.35683 9.29223 9.3559 9.29716 9.35541 9.30224C9.35436 9.31332 9.3538 9.32443 9.35384 9.33555C9.35384 9.33566 9.35382 9.33577 9.35382 9.33588C9.35383 9.33601 9.35384 9.33612 9.35384 9.33625C9.35389 9.34735 9.35451 9.35846 9.35563 9.36951C9.35614 9.37459 9.35712 9.37952 9.35785 9.38454C9.35873 9.39053 9.35944 9.39652 9.36064 9.40246C9.36179 9.40821 9.36339 9.41376 9.36484 9.4194C9.36615 9.42454 9.36728 9.4297 9.36885 9.43477C9.37054 9.44029 9.37264 9.44562 9.37459 9.45104C9.37643 9.45611 9.37812 9.46122 9.3802 9.46621C9.38231 9.47125 9.38479 9.47609 9.38712 9.481C9.38956 9.48615 9.39188 9.49136 9.3946 9.4964C9.39714 9.5011 9.40003 9.50558 9.40279 9.51014C9.40577 9.51509 9.40859 9.52011 9.41185 9.52494C9.41526 9.53 9.41904 9.53475 9.4227 9.53959C9.42574 9.54361 9.42855 9.54775 9.43179 9.55166C9.43894 9.56033 9.44648 9.56866 9.45445 9.57657L10.4804 10.5958C10.614 10.7285 10.8298 10.7278 10.9625 10.5943C11.0952 10.4607 11.0944 10.2449 10.9609 10.1122L10.5187 9.67293L12.4199 9.66671C12.4208 9.6667 12.4217 9.66685 12.4226 9.66684C13.5535 9.66314 14.4708 10.5745 14.4745 11.7054C14.4762 12.2018 14.2794 12.6695 13.9336 13.0179C13.801 13.1515 13.8018 13.3673 13.9354 13.5C14.069 13.6326 14.2848 13.6318 14.4175 13.4982C14.8891 13.0231 15.1585 12.3825 15.1563 11.7032C15.1514 10.197 13.9299 8.98233 12.4242 8.98518Z" fill="white" stroke="white" stroke-width="0.2"/>
<path d="M12.0745 14.8216C12.0781 14.8168 12.0819 14.812 12.0852 14.807C12.0884 14.8021 12.0912 14.7971 12.0942 14.7921C12.0969 14.7875 12.0998 14.783 12.1023 14.7783C12.1049 14.7732 12.1072 14.768 12.1097 14.7628C12.112 14.7579 12.1144 14.7531 12.1165 14.748C12.1185 14.743 12.1202 14.7378 12.122 14.7327C12.1239 14.7273 12.126 14.722 12.1276 14.7165C12.1291 14.7114 12.1302 14.7062 12.1315 14.701C12.1329 14.6954 12.1345 14.6899 12.1356 14.6842C12.1368 14.6782 12.1374 14.6721 12.1383 14.6661C12.139 14.6611 12.1399 14.6562 12.1404 14.6512C12.1425 14.6288 12.1425 14.6063 12.1402 14.5839C12.1397 14.5789 12.1387 14.574 12.138 14.569C12.1371 14.563 12.1364 14.5569 12.1352 14.551C12.134 14.5452 12.1324 14.5397 12.131 14.5341C12.1297 14.5289 12.1285 14.5238 12.127 14.5186C12.1253 14.5131 12.1232 14.5078 12.1212 14.5025C12.1194 14.4974 12.1177 14.4922 12.1156 14.4872C12.1135 14.4822 12.111 14.4774 12.1087 14.4725C12.1062 14.4673 12.1039 14.4621 12.1012 14.457C12.0987 14.4523 12.0958 14.4479 12.0931 14.4433C12.0901 14.4384 12.0872 14.4333 12.084 14.4285C12.0806 14.4235 12.0768 14.4187 12.0732 14.4139C12.0701 14.4099 12.0673 14.4057 12.064 14.4017C12.057 14.3932 12.0495 14.385 12.0417 14.3772C12.0416 14.3771 12.0415 14.377 12.0414 14.3768L11.0154 13.3576C10.8819 13.2249 10.666 13.2256 10.5333 13.3591C10.4007 13.4927 10.4014 13.7085 10.5349 13.8412L10.9771 14.2805L9.07592 14.2867C9.07501 14.2867 9.07413 14.2866 9.07322 14.2866C7.9423 14.2903 7.025 13.3789 7.0213 12.248C7.01968 11.7516 7.21641 11.2839 7.56221 10.9355C7.69484 10.8019 7.56043 10.4535 7.56043 10.4535C7.56043 10.4535 7.21099 10.3216 7.07836 10.4552C6.60676 10.9303 6.33733 11.5709 6.33955 12.2502C6.34448 13.7564 7.56595 14.9711 9.07162 14.9683C9.07285 14.9683 9.07405 14.9684 9.07528 14.9684L10.9793 14.9622L10.54 15.4044C10.4074 15.5379 10.4081 15.7538 10.5416 15.8864C10.6752 16.0191 10.891 16.0184 11.0237 15.8849L12.0429 14.8589C12.043 14.8588 12.0431 14.8588 12.0431 14.8587C12.051 14.8508 12.0584 14.8425 12.0654 14.8338C12.0687 14.8299 12.0715 14.8257 12.0745 14.8216Z" fill="white" stroke="white" stroke-width="0.2"/>
</svg>
