<svg width="85" height="85" viewBox="0 0 85 85" fill="none" xmlns="http://www.w3.org/2000/svg">
<path d="M32.49 44.502C32.3537 43.8197 27.6584 20.3434 27.5095 19.5995C27.2769 18.4355 26.2548 17.5977 25.0678 17.5977H20.0873C18.9003 17.5977 17.8781 18.4355 17.6455 19.5995C17.4943 20.356 12.7942 43.8562 12.6651 44.5018C12.3953 45.8505 13.27 47.1624 14.6186 47.432C15.9671 47.7018 17.2791 46.827 17.5487 45.4785L19.1405 37.5195H26.0145L27.6063 45.4787C27.8761 46.8279 29.1886 47.7019 30.5365 47.4322C31.885 47.1624 32.7598 45.8505 32.49 44.502ZM20.1366 32.5391L22.1288 22.5781H23.0263L25.0185 32.5391H20.1366Z" fill="#484848"/>
<path d="M72.3828 37.5195H64.9121V35.0293C64.9121 33.654 63.7971 32.5391 62.4219 32.5391C61.0466 32.5391 59.9316 33.654 59.9316 35.0293V37.5195H52.4609C51.0857 37.5195 49.9707 38.6345 49.9707 40.0098C49.9707 41.385 51.0857 42.5 52.4609 42.5H53.0636C54.4825 47.084 56.6188 50.6026 58.9696 53.4222C57.0562 55.1723 55.1202 56.6075 53.3956 57.9871C52.3217 58.8462 52.1475 60.4133 53.0068 61.4872C53.8664 62.5617 55.4336 62.7348 56.5069 61.876C58.2411 60.4886 60.3198 58.9468 62.4219 57.0177C64.5255 58.9482 66.608 60.4928 68.3368 61.876C69.4108 62.7353 70.978 62.561 71.837 61.4872C72.6961 60.4133 72.5219 58.8461 71.4481 57.9871C69.7281 56.6107 67.7895 55.174 65.8742 53.4222C68.225 50.6026 70.3612 47.084 71.7802 42.5H72.3828C73.7581 42.5 74.873 41.385 74.873 40.0098C74.873 38.6345 73.7581 37.5195 72.3828 37.5195ZM62.4219 49.7624C60.8323 47.7668 59.4022 45.385 58.3241 42.4834H66.5195C65.4415 45.385 64.0115 47.7668 62.4219 49.7624Z" fill="#484848"/>
<path d="M77.5293 15.1074H41.6033L40.5359 6.544C40.0695 2.8133 36.8827 0 33.1229 0H7.4707C3.35136 0 0 3.35136 0 7.4707V62.4219C0 66.5412 3.35136 69.8926 7.4707 69.8926H28.4689L29.5227 78.456C29.9882 82.1792 33.1751 85 36.9358 85H77.5293C81.6486 85 85 81.6486 85 77.5293V22.5781C85 18.4588 81.6486 15.1074 77.5293 15.1074ZM7.4707 64.9121C6.09759 64.9121 4.98047 63.795 4.98047 62.4219V7.4707C4.98047 6.09759 6.09759 4.98047 7.4707 4.98047H33.1229C34.3762 4.98047 35.4385 5.91812 35.5937 7.16092C35.9547 10.0556 42.4349 62.0407 42.7929 64.9121H7.4707ZM34.3194 76.6577L33.4868 69.8926H40.168L34.3194 76.6577ZM80.0195 77.5293C80.0195 78.9024 78.9024 80.0195 77.5293 80.0195H37.9967L47.4768 69.0537C47.9621 68.5063 48.1796 67.7797 48.0793 67.0575L42.2242 20.0879H77.5293C78.9024 20.0879 80.0195 21.205 80.0195 22.5781V77.5293Z" fill="#484848"/>
</svg>
