<svg width="92" height="87" viewBox="0 0 92 87" fill="none" xmlns="http://www.w3.org/2000/svg">
<path d="M0.75 73.8735L0.75 73.8732L0.75 18.4128C0.75 18.4128 0.75 18.4127 0.75 18.4127C0.749727 17.2396 0.980594 16.0778 1.42941 14.9939C1.87824 13.91 2.53623 12.9251 3.36579 12.0956C4.19536 11.266 5.18024 10.608 6.26417 10.1592C7.34808 9.71036 8.5098 9.47949 9.68296 9.47976C9.68298 9.47976 9.683 9.47976 9.68302 9.47976H17.6499V7.24075C17.6499 5.51929 18.3338 3.86835 19.551 2.65109C20.7683 1.43384 22.4192 0.75 24.1407 0.75C25.8621 0.75 27.5131 1.43384 28.7303 2.65109C29.9476 3.86835 30.6314 5.51929 30.6314 7.24075V9.47976H61.3352V7.24075C61.3352 5.51929 62.019 3.86835 63.2363 2.65109C64.4535 1.43384 66.1045 0.75 67.8259 0.75C69.5474 0.75 71.1983 1.43384 72.4156 2.65109C73.6328 3.86835 74.3167 5.51929 74.3167 7.24075V9.47976H82.2893L0.75 73.8735ZM0.75 73.8735C0.753653 77.1548 2.05878 80.3007 4.37904 82.621C6.69929 84.9412 9.84519 86.2463 13.1265 86.25H13.1268M0.75 73.8735L13.1268 86.25M13.1268 86.25H78.8419H78.8422M13.1268 86.25H78.8422M78.8422 86.25C82.1234 86.2461 85.2691 84.9408 87.5893 82.6207C89.9095 80.3005 91.2147 77.1547 91.2187 73.8735V73.8732M78.8422 86.25L91.2187 73.8732M91.2187 73.8732V18.4134V73.8732ZM82.2836 13.3702H74.3167H82.2836ZM82.2836 13.3702C82.9459 13.3698 83.6018 13.4999 84.2138 13.7532M82.2836 13.3702L84.2138 13.7532M84.2138 13.7532C84.8258 14.0065 85.3818 14.3779 85.8502 14.8462M84.2138 13.7532L85.8502 14.8462M85.8502 14.8462C86.3185 15.3145 86.6899 15.8706 86.9432 16.4825M85.8502 14.8462L86.9432 16.4825M86.9432 16.4825C87.1964 17.0945 87.3266 17.7504 87.3262 18.4127L86.9432 16.4825ZM4.88835 18.4127L4.88835 18.4126C4.88809 17.783 5.01194 17.1596 5.25281 16.5779C5.49369 15.9962 5.84686 15.4677 6.29214 15.0226C6.73742 14.5775 7.26607 14.2245 7.84786 13.9839C8.42965 13.7433 9.05316 13.6197 9.68275 13.6202H9.68296H17.6499V15.2767C17.6499 16.9982 18.3338 18.6491 19.551 19.8664C20.7683 21.0836 22.4192 21.7675 24.1407 21.7675C25.8621 21.7675 27.5131 21.0836 28.7303 19.8664C29.9476 18.6491 30.6314 16.9982 30.6314 15.2767V13.6202H61.3352V15.2767C61.3352 16.9982 62.019 18.6491 63.2363 19.8664C64.4535 21.0836 66.1045 21.7675 67.8259 21.7675C69.5474 21.7675 71.1983 21.0836 72.4156 19.8664C73.6328 18.6491 74.3167 16.9982 74.3167 15.2767V13.6202H82.2836H82.2838C82.9132 13.6198 83.5366 13.7435 84.1182 13.9842C84.6998 14.2249 85.2283 14.5779 85.6734 15.023C86.1185 15.4681 86.4715 15.9965 86.7122 16.5781C86.9529 17.1598 87.0765 17.7831 87.0762 18.4126V18.4127V25.7775H4.88835V18.4127ZM74.0667 15.2767V13.6202H61.5852V15.2767C61.5852 16.9319 62.2427 18.5193 63.413 19.6896C64.5834 20.86 66.1708 21.5175 67.8259 21.5175C69.4811 21.5175 71.0684 20.86 72.2388 19.6896C73.4091 18.5193 74.0667 16.9319 74.0667 15.2767ZM30.6314 13.3702H61.3352H30.6314ZM30.3814 15.2767V13.6202H17.8999V15.2767C17.8999 16.9319 18.5574 18.5193 19.7278 19.6896C20.8982 20.86 22.4855 21.5175 24.1407 21.5175C25.7958 21.5175 27.3832 20.86 28.5536 19.6896C29.7239 18.5193 30.3814 16.9319 30.3814 15.2767ZM65.4756 7.24075C65.4756 6.6174 65.7232 6.01959 66.164 5.57882C66.6048 5.13806 67.2026 4.89043 67.8259 4.89043C68.4492 4.89043 69.0471 5.13806 69.4878 5.57882C69.9286 6.01959 70.1762 6.6174 70.1762 7.24075V9.47976H65.4756V7.24075ZM70.1762 13.6202V15.2767C70.1762 15.9001 69.9286 16.4979 69.4878 16.9387C69.0471 17.3794 68.4492 17.6271 67.8259 17.6271C67.2026 17.6271 66.6048 17.3794 66.164 16.9387C65.7232 16.4979 65.4756 15.9001 65.4756 15.2767V13.6202H70.1762ZM21.7904 7.24075C21.7904 6.6174 22.038 6.01959 22.4788 5.57882C22.9195 5.13806 23.5173 4.89043 24.1407 4.89043C24.764 4.89043 25.3618 5.13806 25.8026 5.57882C26.2434 6.01959 26.491 6.6174 26.491 7.24075V9.47976H21.7904V7.24075ZM26.491 13.6202V15.2767C26.491 15.9001 26.2434 16.4979 25.8026 16.9387C25.3618 17.3794 24.764 17.6271 24.1407 17.6271C23.5173 17.6271 22.9195 17.3794 22.4788 16.9387C22.038 16.4979 21.7904 15.9001 21.7904 15.2767V13.6202H26.491ZM87.0782 73.8729C87.0758 76.0567 86.2073 78.1503 84.6631 79.6944C83.119 81.2386 81.0253 82.1072 78.8416 82.1096H13.125C10.9412 82.1072 8.84762 81.2386 7.30347 79.6944C5.75937 78.1504 4.89082 76.0568 4.88835 73.8731C4.88835 73.8731 4.88835 73.873 4.88835 73.8729L4.88835 29.9179H87.0782V73.8729Z" fill="#484848" stroke="#484848" stroke-width="0.5"/>
<path d="M68.378 52.3845H79.2678L66.5576 50.3153C66.5576 50.5543 66.6047 50.7909 66.6962 51.0117C66.7877 51.2325 66.9218 51.4331 67.0908 51.602C67.2598 51.771 67.4605 51.9049 67.6814 51.9963C67.9022 52.0877 68.1388 52.1346 68.3778 52.1345V52.3845H68.378ZM66.4649 38.6329C66.3609 38.8841 66.3075 39.1533 66.3076 39.4252L68.3778 37.605L68.378 37.355C68.378 37.355 68.3779 37.355 68.3778 37.355C68.1059 37.3548 67.8367 37.4083 67.5855 37.5123C67.3342 37.6162 67.1059 37.7687 66.9137 37.961C66.7214 38.1533 66.5689 38.3816 66.4649 38.6329ZM70.4481 41.4944H77.1977V48.244H70.4481V41.4944Z" fill="#484848" stroke="#484848" stroke-width="0.5"/>
<path d="M49.7735 71.0537H60.6633L49.7733 70.8037V71.0537H49.7735ZM62.7337 68.9835V68.9834L62.4837 68.9835H62.7337ZM51.8436 60.1636H58.5932V66.9133H51.8436V60.1636Z" fill="#484848" stroke="#484848" stroke-width="0.5"/>
<path d="M22.5492 52.3845H11.6592H11.6591V52.1345C11.4201 52.1346 11.1834 52.0877 10.9626 51.9963C10.7418 51.9049 10.5411 51.771 10.3721 51.602C10.203 51.4331 10.0689 51.2325 9.97744 51.0117C9.88596 50.7909 9.83887 50.5543 9.83887 50.3153L22.5492 52.3845ZM22.5492 52.3845C23.0982 52.3845 23.6248 52.1664 24.0131 51.7781C24.4013 51.3899 24.6194 50.8633 24.6194 50.3143V39.4252C24.6194 38.8761 24.4013 38.3496 24.0131 37.9613C23.6248 37.5731 23.0982 37.355 22.5492 37.355H11.6591C11.3872 37.3548 11.118 37.4083 10.8668 37.5123C10.6155 37.6162 10.3872 37.7687 10.1949 37.961C10.0026 38.1533 9.85014 38.3816 9.74615 38.6329C9.64217 38.8841 9.58873 39.1533 9.58887 39.4252L22.5492 52.3845ZM13.7293 41.4944H20.479V48.244H13.7293V41.4944Z" fill="#484848" stroke="#484848" stroke-width="0.5"/>
<path d="M30.7168 71.0537H41.6067L30.7167 70.8037V71.0537H30.7168ZM43.677 68.9835V68.9834L43.427 68.9835H43.677ZM32.7869 60.1636H39.5366V66.9133H32.7869V60.1636Z" fill="#484848" stroke="#484848" stroke-width="0.5"/>
<path d="M68.378 71.0537H79.2678L68.3778 70.8037V71.0537H68.378ZM81.3382 68.9835V68.9834L81.0882 68.9835H81.3382ZM70.4481 60.1636H77.1977V66.9133H70.4481V60.1636Z" fill="#484848" stroke="#484848" stroke-width="0.5"/>
<path d="M24.6194 58.0934V58.0933L11.6591 70.8037V71.0537H11.6592H22.5492C23.0982 71.0537 23.6248 70.8356 24.0131 70.4474C24.4013 70.0591 24.6194 69.5326 24.6194 68.9835V58.0934ZM13.7293 60.1636H20.479V66.9133H13.7293V60.1636Z" fill="#484848" stroke="#484848" stroke-width="0.5"/>
<path d="M30.7168 52.3845H41.6067L28.8965 50.3153C28.8965 50.5543 28.9436 50.7909 29.0351 51.0117C29.1265 51.2325 29.2606 51.4331 29.4297 51.602C29.5987 51.771 29.7994 51.9049 30.0202 51.9963C30.241 52.0877 30.4777 52.1346 30.7167 52.1345V52.3845H30.7168ZM28.8038 38.6329C28.6998 38.8841 28.6463 39.1533 28.6465 39.4252L30.7167 37.605L30.7168 37.355C30.7168 37.355 30.7167 37.355 30.7167 37.355C30.4448 37.3548 30.1756 37.4083 29.9244 37.5123C29.6731 37.6162 29.4448 37.7687 29.2525 37.961C29.0603 38.1533 28.9078 38.3816 28.8038 38.6329ZM32.7869 41.4944H39.5366V48.244H32.7869V41.4944Z" fill="#484848" stroke="#484848" stroke-width="0.5"/>
<path d="M49.7735 52.3845H60.6633L47.9531 50.3153C47.9531 50.5543 48.0002 50.7909 48.0917 51.0117C48.1832 51.2325 48.3173 51.4331 48.4863 51.602C48.6554 51.771 48.856 51.9049 49.0769 51.9963C49.2977 52.0877 49.5344 52.1346 49.7733 52.1345V52.3845H49.7735ZM47.8604 38.6329C47.7564 38.8841 47.703 39.1533 47.7031 39.4252L49.7733 37.605L49.7735 37.355C49.7735 37.355 49.7734 37.355 49.7733 37.355C49.5014 37.3548 49.2322 37.4083 48.981 37.5123C48.7298 37.6162 48.5015 37.7687 48.3092 37.961C48.1169 38.1533 47.9644 38.3816 47.8604 38.6329ZM51.8436 41.4944H58.5932V48.244H51.8436V41.4944Z" fill="#484848" stroke="#484848" stroke-width="0.5"/>
</svg>
