<svg width="87" height="87" viewBox="0 0 87 87" fill="none" xmlns="http://www.w3.org/2000/svg">
<mask id="path-1-outside-1_328_255" maskUnits="userSpaceOnUse" x="0" y="0" width="87" height="87" fill="black">
<rect fill="white" width="87" height="87"/>
<path d="M83.5983 12.2718C82.8384 11.4639 81.9347 10.8233 80.9396 10.387C79.9445 9.95065 78.8776 9.72729 77.8005 9.72976H70.0314V7.24075C70.0314 5.5856 69.4102 3.99824 68.3045 2.82787C67.1987 1.6575 65.699 1 64.1353 1C62.5716 1 61.0719 1.6575 59.9662 2.82787C58.8604 3.99824 58.2392 5.5856 58.2392 7.24075V9.72976H28.7588V7.24075C28.7588 5.5856 28.1376 3.99824 27.0319 2.82787C25.9261 1.6575 24.4264 1 22.8627 1C21.299 1 19.7993 1.6575 18.6935 2.82787C17.5878 3.99824 16.9666 5.5856 16.9666 7.24075V9.72976H9.20342C8.12606 9.72949 7.05921 9.9539 6.0638 10.3902C5.0684 10.8264 4.16396 11.466 3.40215 12.2723C2.64034 13.0787 2.03609 14.036 1.62392 15.0896C1.21175 16.1432 0.999742 17.2724 1 18.4127V73.8732C1.00338 77.0883 2.21155 80.1707 4.35944 82.4442C6.50732 84.7176 9.41951 85.9964 12.4571 86H74.5429C77.5804 85.9961 80.4924 84.7173 82.6402 82.4439C84.7881 80.1705 85.9963 77.0882 86 73.8732V18.4127C86.0028 17.2719 85.7921 16.1419 85.3798 15.0878C84.9676 14.0338 84.3621 13.0767 83.5983 12.2718ZM61.6786 7.24075C61.6786 6.5511 61.9374 5.8897 62.3982 5.40205C62.8589 4.9144 63.4838 4.64044 64.1353 4.64044C64.7869 4.64044 65.4117 4.9144 65.8725 5.40205C66.3332 5.8897 66.592 6.5511 66.592 7.24075V9.72976H61.6786V7.24075ZM61.6786 13.3702H66.592V15.2767C66.592 15.9664 66.3332 16.6278 65.8725 17.1154C65.4117 17.6031 64.7869 17.8771 64.1353 17.8771C63.4838 17.8771 62.8589 17.6031 62.3982 17.1154C61.9374 16.6278 61.6786 15.9664 61.6786 15.2767V13.3702ZM20.406 7.24075C20.406 6.5511 20.6648 5.8897 21.1255 5.40205C21.5863 4.9144 22.2111 4.64044 22.8627 4.64044C23.5143 4.64044 24.1391 4.9144 24.5998 5.40205C25.0606 5.8897 25.3194 6.5511 25.3194 7.24075V9.72976H20.406V7.24075ZM20.406 13.3702H25.3194V15.2767C25.3194 15.9664 25.0606 16.6278 24.5998 17.1154C24.1391 17.6031 23.5143 17.8771 22.8627 17.8771C22.2111 17.8771 21.5863 17.6031 21.1255 17.1154C20.6648 16.6278 20.406 15.9664 20.406 15.2767V13.3702ZM4.43742 18.4127C4.43716 17.7503 4.56027 17.0943 4.79972 16.4822C5.03917 15.8702 5.39025 15.3141 5.83289 14.8458C6.27553 14.3775 6.80105 14.0061 7.3794 13.7529C7.95774 13.4997 8.57756 13.3696 9.20342 13.3702H16.9666V15.2767C16.9666 16.9319 17.5878 18.5193 18.6935 19.6896C19.7993 20.86 21.299 21.5175 22.8627 21.5175C24.4264 21.5175 25.9261 20.86 27.0319 19.6896C28.1376 18.5193 28.7588 16.9319 28.7588 15.2767V13.3702H58.2392V15.2767C58.2392 16.9319 58.8604 18.5193 59.9662 19.6896C61.0719 20.86 62.5716 21.5175 64.1353 21.5175C65.699 21.5175 67.1987 20.86 68.3045 19.6896C69.4102 18.5193 70.0314 16.9319 70.0314 15.2767V13.3702H77.7946C78.4203 13.3698 79.04 13.4999 79.6182 13.7532C80.1963 14.0065 80.7217 14.3779 81.1641 14.8462C81.6066 15.3145 81.9575 15.8706 82.1968 16.4825C82.436 17.0945 82.559 17.7504 82.5586 18.4127V26.0275H4.43742V18.4127ZM82.5606 73.8732C82.5582 76.1232 81.7128 78.2803 80.2097 79.8712C78.7066 81.4622 76.6686 82.3571 74.5429 82.3596H12.4551C10.3294 82.3571 8.29144 81.4622 6.78833 79.8712C5.28523 78.2803 4.43976 76.1232 4.43742 73.8732V29.6679H82.5606V73.8732Z"/>
<path d="M64.6568 52.1345H74.9455C75.1713 52.1346 75.395 52.0876 75.6037 51.9962C75.8124 51.9048 76.0021 51.7707 76.1618 51.6016C76.3215 51.4326 76.4482 51.2319 76.5345 51.011C76.6209 50.7901 76.6653 50.5533 76.6652 50.3143V39.4252C76.6653 39.1861 76.6209 38.9494 76.5345 38.7285C76.4482 38.5076 76.3215 38.3069 76.1618 38.1378C76.0021 37.9688 75.8124 37.8347 75.6037 37.7433C75.395 37.6518 75.1713 37.6048 74.9455 37.605H64.6568C64.4309 37.6048 64.2073 37.6518 63.9986 37.7433C63.7899 37.8347 63.6002 37.9688 63.4405 38.1378C63.2808 38.3069 63.1541 38.5076 63.0677 38.7285C62.9814 38.9494 62.937 39.1861 62.9371 39.4252V50.3153C62.9371 50.5543 62.9816 50.7909 63.068 51.0117C63.1545 51.2325 63.2812 51.4331 63.4409 51.602C63.6006 51.771 63.7901 51.9049 63.9988 51.9963C64.2074 52.0877 64.431 52.1346 64.6568 52.1345ZM66.3765 41.2444H73.2258V48.494H66.3765V41.2444Z"/>
<path d="M47.0797 70.804H57.3684C57.5943 70.8041 57.818 70.7571 58.0267 70.6657C58.2354 70.5743 58.425 70.4402 58.5847 70.2712C58.7444 70.1021 58.8711 69.9014 58.9575 69.6805C59.0438 69.4596 59.0882 69.2228 59.0881 68.9838V58.0937C59.0881 57.6109 58.9069 57.1479 58.5844 56.8066C58.2619 56.4652 57.8245 56.2734 57.3684 56.2734H47.0797C46.6236 56.2734 46.1862 56.4652 45.8637 56.8066C45.5412 57.1479 45.36 57.6109 45.36 58.0937V68.9848C45.36 69.2238 45.4045 69.4604 45.491 69.6812C45.5774 69.902 45.7041 70.1026 45.8638 70.2715C46.0235 70.4405 46.2131 70.5744 46.4217 70.6658C46.6303 70.7572 46.8539 70.8041 47.0797 70.804ZM48.7994 59.9139H55.6487V67.1635H48.7994V59.9139Z"/>
<path d="M11.0703 52.1345H21.359C21.815 52.1345 22.2525 51.9427 22.575 51.6013C22.8975 51.26 23.0786 50.797 23.0786 50.3143V39.4252C23.0786 38.9424 22.8975 38.4795 22.575 38.1381C22.2525 37.7968 21.815 37.605 21.359 37.605H11.0703C10.8444 37.6048 10.6207 37.6518 10.412 37.7433C10.2033 37.8347 10.0137 37.9688 9.85398 38.1378C9.69427 38.3069 9.5676 38.5076 9.48123 38.7285C9.39485 38.9494 9.35046 39.1861 9.35059 39.4252V50.3153C9.35059 50.5543 9.39507 50.7909 9.48151 51.0117C9.56794 51.2325 9.69463 51.4331 9.85433 51.602C10.014 51.771 10.2036 51.9049 10.4123 51.9963C10.6209 52.0877 10.8445 52.1346 11.0703 52.1345ZM12.79 41.2444H19.6393V48.494H12.79V41.2444Z"/>
<path d="M29.0757 70.804H39.3643C39.5902 70.8041 39.8139 70.7571 40.0226 70.6657C40.2313 70.5743 40.4209 70.4402 40.5806 70.2712C40.7404 70.1021 40.867 69.9014 40.9534 69.6805C41.0398 69.4596 41.0842 69.2228 41.084 68.9838V58.0937C41.084 57.6109 40.9029 57.1479 40.5804 56.8066C40.2578 56.4652 39.8204 56.2734 39.3643 56.2734H29.0757C28.6196 56.2734 28.1822 56.4652 27.8597 56.8066C27.5372 57.1479 27.356 57.6109 27.356 58.0937V68.9848C27.356 69.2238 27.4005 69.4604 27.4869 69.6812C27.5733 69.902 27.7 70.1026 27.8597 70.2715C28.0194 70.4405 28.209 70.5744 28.4176 70.6658C28.6263 70.7572 28.8499 70.8041 29.0757 70.804ZM30.7954 59.9139H37.6447V67.1635H30.7954V59.9139Z"/>
<path d="M64.6568 70.804H74.9455C75.1713 70.8041 75.395 70.7571 75.6037 70.6657C75.8124 70.5743 76.0021 70.4402 76.1618 70.2712C76.3215 70.1021 76.4482 69.9014 76.5345 69.6805C76.6209 69.4596 76.6653 69.2228 76.6652 68.9838V58.0937C76.6652 57.6109 76.484 57.1479 76.1615 56.8066C75.839 56.4652 75.4016 56.2734 74.9455 56.2734H64.6568C64.2007 56.2734 63.7633 56.4652 63.4408 56.8066C63.1183 57.1479 62.9371 57.6109 62.9371 58.0937V68.9848C62.9371 69.2238 62.9816 69.4604 63.068 69.6812C63.1545 69.902 63.2812 70.1026 63.4409 70.2715C63.6006 70.4405 63.7901 70.5744 63.9988 70.6658C64.2074 70.7572 64.431 70.8041 64.6568 70.804ZM66.3765 59.9139H73.2258V67.1635H66.3765V59.9139Z"/>
<path d="M11.0703 70.804H21.359C21.815 70.804 22.2525 70.6122 22.575 70.2708C22.8975 69.9295 23.0786 69.4665 23.0786 68.9838V58.0937C23.0784 57.611 22.8971 57.1482 22.5747 56.8069C22.2522 56.4656 21.815 56.2737 21.359 56.2734H11.0703C10.6142 56.2734 10.1768 56.4652 9.85427 56.8066C9.53177 57.1479 9.35059 57.6109 9.35059 58.0937V68.9848C9.35059 69.2238 9.39507 69.4604 9.48151 69.6812C9.56794 69.902 9.69463 70.1026 9.85433 70.2715C10.014 70.4405 10.2036 70.5744 10.4123 70.6658C10.6209 70.7572 10.8445 70.8041 11.0703 70.804ZM12.79 59.9139H19.6393V67.1635H12.79V59.9139Z"/>
<path d="M29.0757 52.1345H39.3643C39.5902 52.1346 39.8139 52.0876 40.0226 51.9962C40.2313 51.9048 40.4209 51.7707 40.5806 51.6016C40.7404 51.4326 40.867 51.2319 40.9534 51.011C41.0398 50.7901 41.0842 50.5533 41.084 50.3143V39.4252C41.0842 39.1861 41.0398 38.9494 40.9534 38.7285C40.867 38.5076 40.7404 38.3069 40.5806 38.1378C40.4209 37.9688 40.2313 37.8347 40.0226 37.7433C39.8139 37.6518 39.5902 37.6048 39.3643 37.605H29.0757C28.8498 37.6048 28.6261 37.6518 28.4174 37.7433C28.2087 37.8347 28.0191 37.9688 27.8594 38.1378C27.6997 38.3069 27.573 38.5076 27.4866 38.7285C27.4002 38.9494 27.3558 39.1861 27.356 39.4252V50.3153C27.356 50.5543 27.4005 50.7909 27.4869 51.0117C27.5733 51.2325 27.7 51.4331 27.8597 51.602C28.0194 51.771 28.209 51.9049 28.4176 51.9963C28.6263 52.0877 28.8499 52.1346 29.0757 52.1345ZM30.7954 41.2444H37.6447V48.494H30.7954V41.2444Z"/>
<path d="M47.0797 52.1345H57.3684C57.5943 52.1346 57.818 52.0876 58.0267 51.9962C58.2354 51.9048 58.425 51.7707 58.5847 51.6016C58.7444 51.4326 58.8711 51.2319 58.9575 51.011C59.0438 50.7901 59.0882 50.5533 59.0881 50.3143V39.4252C59.0882 39.1861 59.0438 38.9494 58.9575 38.7285C58.8711 38.5076 58.7444 38.3069 58.5847 38.1378C58.425 37.9688 58.2354 37.8347 58.0267 37.7433C57.818 37.6518 57.5943 37.6048 57.3684 37.605H47.0797C46.8539 37.6048 46.6302 37.6518 46.4215 37.7433C46.2128 37.8347 46.0232 37.9688 45.8634 38.1378C45.7037 38.3069 45.5771 38.5076 45.4907 38.7285C45.4043 38.9494 45.3599 39.1861 45.36 39.4252V50.3153C45.36 50.5543 45.4045 50.7909 45.491 51.0117C45.5774 51.2325 45.7041 51.4331 45.8638 51.602C46.0235 51.771 46.2131 51.9049 46.4217 51.9963C46.6304 52.0877 46.8539 52.1346 47.0797 52.1345ZM48.7994 41.2444H55.6487V48.494H48.7994V41.2444Z"/>
</mask>
<path d="M83.5983 12.2718C82.8384 11.4639 81.9347 10.8233 80.9396 10.387C79.9445 9.95065 78.8776 9.72729 77.8005 9.72976H70.0314V7.24075C70.0314 5.5856 69.4102 3.99824 68.3045 2.82787C67.1987 1.6575 65.699 1 64.1353 1C62.5716 1 61.0719 1.6575 59.9662 2.82787C58.8604 3.99824 58.2392 5.5856 58.2392 7.24075V9.72976H28.7588V7.24075C28.7588 5.5856 28.1376 3.99824 27.0319 2.82787C25.9261 1.6575 24.4264 1 22.8627 1C21.299 1 19.7993 1.6575 18.6935 2.82787C17.5878 3.99824 16.9666 5.5856 16.9666 7.24075V9.72976H9.20342C8.12606 9.72949 7.05921 9.9539 6.0638 10.3902C5.0684 10.8264 4.16396 11.466 3.40215 12.2723C2.64034 13.0787 2.03609 14.036 1.62392 15.0896C1.21175 16.1432 0.999742 17.2724 1 18.4127V73.8732C1.00338 77.0883 2.21155 80.1707 4.35944 82.4442C6.50732 84.7176 9.41951 85.9964 12.4571 86H74.5429C77.5804 85.9961 80.4924 84.7173 82.6402 82.4439C84.7881 80.1705 85.9963 77.0882 86 73.8732V18.4127C86.0028 17.2719 85.7921 16.1419 85.3798 15.0878C84.9676 14.0338 84.3621 13.0767 83.5983 12.2718ZM61.6786 7.24075C61.6786 6.5511 61.9374 5.8897 62.3982 5.40205C62.8589 4.9144 63.4838 4.64044 64.1353 4.64044C64.7869 4.64044 65.4117 4.9144 65.8725 5.40205C66.3332 5.8897 66.592 6.5511 66.592 7.24075V9.72976H61.6786V7.24075ZM61.6786 13.3702H66.592V15.2767C66.592 15.9664 66.3332 16.6278 65.8725 17.1154C65.4117 17.6031 64.7869 17.8771 64.1353 17.8771C63.4838 17.8771 62.8589 17.6031 62.3982 17.1154C61.9374 16.6278 61.6786 15.9664 61.6786 15.2767V13.3702ZM20.406 7.24075C20.406 6.5511 20.6648 5.8897 21.1255 5.40205C21.5863 4.9144 22.2111 4.64044 22.8627 4.64044C23.5143 4.64044 24.1391 4.9144 24.5998 5.40205C25.0606 5.8897 25.3194 6.5511 25.3194 7.24075V9.72976H20.406V7.24075ZM20.406 13.3702H25.3194V15.2767C25.3194 15.9664 25.0606 16.6278 24.5998 17.1154C24.1391 17.6031 23.5143 17.8771 22.8627 17.8771C22.2111 17.8771 21.5863 17.6031 21.1255 17.1154C20.6648 16.6278 20.406 15.9664 20.406 15.2767V13.3702ZM4.43742 18.4127C4.43716 17.7503 4.56027 17.0943 4.79972 16.4822C5.03917 15.8702 5.39025 15.3141 5.83289 14.8458C6.27553 14.3775 6.80105 14.0061 7.3794 13.7529C7.95774 13.4997 8.57756 13.3696 9.20342 13.3702H16.9666V15.2767C16.9666 16.9319 17.5878 18.5193 18.6935 19.6896C19.7993 20.86 21.299 21.5175 22.8627 21.5175C24.4264 21.5175 25.9261 20.86 27.0319 19.6896C28.1376 18.5193 28.7588 16.9319 28.7588 15.2767V13.3702H58.2392V15.2767C58.2392 16.9319 58.8604 18.5193 59.9662 19.6896C61.0719 20.86 62.5716 21.5175 64.1353 21.5175C65.699 21.5175 67.1987 20.86 68.3045 19.6896C69.4102 18.5193 70.0314 16.9319 70.0314 15.2767V13.3702H77.7946C78.4203 13.3698 79.04 13.4999 79.6182 13.7532C80.1963 14.0065 80.7217 14.3779 81.1641 14.8462C81.6066 15.3145 81.9575 15.8706 82.1968 16.4825C82.436 17.0945 82.559 17.7504 82.5586 18.4127V26.0275H4.43742V18.4127ZM82.5606 73.8732C82.5582 76.1232 81.7128 78.2803 80.2097 79.8712C78.7066 81.4622 76.6686 82.3571 74.5429 82.3596H12.4551C10.3294 82.3571 8.29144 81.4622 6.78833 79.8712C5.28523 78.2803 4.43976 76.1232 4.43742 73.8732V29.6679H82.5606V73.8732Z" fill="#484848"/>
<path d="M64.6568 52.1345H74.9455C75.1713 52.1346 75.395 52.0876 75.6037 51.9962C75.8124 51.9048 76.0021 51.7707 76.1618 51.6016C76.3215 51.4326 76.4482 51.2319 76.5345 51.011C76.6209 50.7901 76.6653 50.5533 76.6652 50.3143V39.4252C76.6653 39.1861 76.6209 38.9494 76.5345 38.7285C76.4482 38.5076 76.3215 38.3069 76.1618 38.1378C76.0021 37.9688 75.8124 37.8347 75.6037 37.7433C75.395 37.6518 75.1713 37.6048 74.9455 37.605H64.6568C64.4309 37.6048 64.2073 37.6518 63.9986 37.7433C63.7899 37.8347 63.6002 37.9688 63.4405 38.1378C63.2808 38.3069 63.1541 38.5076 63.0677 38.7285C62.9814 38.9494 62.937 39.1861 62.9371 39.4252V50.3153C62.9371 50.5543 62.9816 50.7909 63.068 51.0117C63.1545 51.2325 63.2812 51.4331 63.4409 51.602C63.6006 51.771 63.7901 51.9049 63.9988 51.9963C64.2074 52.0877 64.431 52.1346 64.6568 52.1345ZM66.3765 41.2444H73.2258V48.494H66.3765V41.2444Z" fill="#484848"/>
<path d="M47.0797 70.804H57.3684C57.5943 70.8041 57.818 70.7571 58.0267 70.6657C58.2354 70.5743 58.425 70.4402 58.5847 70.2712C58.7444 70.1021 58.8711 69.9014 58.9575 69.6805C59.0438 69.4596 59.0882 69.2228 59.0881 68.9838V58.0937C59.0881 57.6109 58.9069 57.1479 58.5844 56.8066C58.2619 56.4652 57.8245 56.2734 57.3684 56.2734H47.0797C46.6236 56.2734 46.1862 56.4652 45.8637 56.8066C45.5412 57.1479 45.36 57.6109 45.36 58.0937V68.9848C45.36 69.2238 45.4045 69.4604 45.491 69.6812C45.5774 69.902 45.7041 70.1026 45.8638 70.2715C46.0235 70.4405 46.2131 70.5744 46.4217 70.6658C46.6303 70.7572 46.8539 70.8041 47.0797 70.804ZM48.7994 59.9139H55.6487V67.1635H48.7994V59.9139Z" fill="#484848"/>
<path d="M11.0703 52.1345H21.359C21.815 52.1345 22.2525 51.9427 22.575 51.6013C22.8975 51.26 23.0786 50.797 23.0786 50.3143V39.4252C23.0786 38.9424 22.8975 38.4795 22.575 38.1381C22.2525 37.7968 21.815 37.605 21.359 37.605H11.0703C10.8444 37.6048 10.6207 37.6518 10.412 37.7433C10.2033 37.8347 10.0137 37.9688 9.85398 38.1378C9.69427 38.3069 9.5676 38.5076 9.48123 38.7285C9.39485 38.9494 9.35046 39.1861 9.35059 39.4252V50.3153C9.35059 50.5543 9.39507 50.7909 9.48151 51.0117C9.56794 51.2325 9.69463 51.4331 9.85433 51.602C10.014 51.771 10.2036 51.9049 10.4123 51.9963C10.6209 52.0877 10.8445 52.1346 11.0703 52.1345ZM12.79 41.2444H19.6393V48.494H12.79V41.2444Z" fill="#484848"/>
<path d="M29.0757 70.804H39.3643C39.5902 70.8041 39.8139 70.7571 40.0226 70.6657C40.2313 70.5743 40.4209 70.4402 40.5806 70.2712C40.7404 70.1021 40.867 69.9014 40.9534 69.6805C41.0398 69.4596 41.0842 69.2228 41.084 68.9838V58.0937C41.084 57.6109 40.9029 57.1479 40.5804 56.8066C40.2578 56.4652 39.8204 56.2734 39.3643 56.2734H29.0757C28.6196 56.2734 28.1822 56.4652 27.8597 56.8066C27.5372 57.1479 27.356 57.6109 27.356 58.0937V68.9848C27.356 69.2238 27.4005 69.4604 27.4869 69.6812C27.5733 69.902 27.7 70.1026 27.8597 70.2715C28.0194 70.4405 28.209 70.5744 28.4176 70.6658C28.6263 70.7572 28.8499 70.8041 29.0757 70.804ZM30.7954 59.9139H37.6447V67.1635H30.7954V59.9139Z" fill="#484848"/>
<path d="M64.6568 70.804H74.9455C75.1713 70.8041 75.395 70.7571 75.6037 70.6657C75.8124 70.5743 76.0021 70.4402 76.1618 70.2712C76.3215 70.1021 76.4482 69.9014 76.5345 69.6805C76.6209 69.4596 76.6653 69.2228 76.6652 68.9838V58.0937C76.6652 57.6109 76.484 57.1479 76.1615 56.8066C75.839 56.4652 75.4016 56.2734 74.9455 56.2734H64.6568C64.2007 56.2734 63.7633 56.4652 63.4408 56.8066C63.1183 57.1479 62.9371 57.6109 62.9371 58.0937V68.9848C62.9371 69.2238 62.9816 69.4604 63.068 69.6812C63.1545 69.902 63.2812 70.1026 63.4409 70.2715C63.6006 70.4405 63.7901 70.5744 63.9988 70.6658C64.2074 70.7572 64.431 70.8041 64.6568 70.804ZM66.3765 59.9139H73.2258V67.1635H66.3765V59.9139Z" fill="#484848"/>
<path d="M11.0703 70.804H21.359C21.815 70.804 22.2525 70.6122 22.575 70.2708C22.8975 69.9295 23.0786 69.4665 23.0786 68.9838V58.0937C23.0784 57.611 22.8971 57.1482 22.5747 56.8069C22.2522 56.4656 21.815 56.2737 21.359 56.2734H11.0703C10.6142 56.2734 10.1768 56.4652 9.85427 56.8066C9.53177 57.1479 9.35059 57.6109 9.35059 58.0937V68.9848C9.35059 69.2238 9.39507 69.4604 9.48151 69.6812C9.56794 69.902 9.69463 70.1026 9.85433 70.2715C10.014 70.4405 10.2036 70.5744 10.4123 70.6658C10.6209 70.7572 10.8445 70.8041 11.0703 70.804ZM12.79 59.9139H19.6393V67.1635H12.79V59.9139Z" fill="#484848"/>
<path d="M29.0757 52.1345H39.3643C39.5902 52.1346 39.8139 52.0876 40.0226 51.9962C40.2313 51.9048 40.4209 51.7707 40.5806 51.6016C40.7404 51.4326 40.867 51.2319 40.9534 51.011C41.0398 50.7901 41.0842 50.5533 41.084 50.3143V39.4252C41.0842 39.1861 41.0398 38.9494 40.9534 38.7285C40.867 38.5076 40.7404 38.3069 40.5806 38.1378C40.4209 37.9688 40.2313 37.8347 40.0226 37.7433C39.8139 37.6518 39.5902 37.6048 39.3643 37.605H29.0757C28.8498 37.6048 28.6261 37.6518 28.4174 37.7433C28.2087 37.8347 28.0191 37.9688 27.8594 38.1378C27.6997 38.3069 27.573 38.5076 27.4866 38.7285C27.4002 38.9494 27.3558 39.1861 27.356 39.4252V50.3153C27.356 50.5543 27.4005 50.7909 27.4869 51.0117C27.5733 51.2325 27.7 51.4331 27.8597 51.602C28.0194 51.771 28.209 51.9049 28.4176 51.9963C28.6263 52.0877 28.8499 52.1346 29.0757 52.1345ZM30.7954 41.2444H37.6447V48.494H30.7954V41.2444Z" fill="#484848"/>
<path d="M47.0797 52.1345H57.3684C57.5943 52.1346 57.818 52.0876 58.0267 51.9962C58.2354 51.9048 58.425 51.7707 58.5847 51.6016C58.7444 51.4326 58.8711 51.2319 58.9575 51.011C59.0438 50.7901 59.0882 50.5533 59.0881 50.3143V39.4252C59.0882 39.1861 59.0438 38.9494 58.9575 38.7285C58.8711 38.5076 58.7444 38.3069 58.5847 38.1378C58.425 37.9688 58.2354 37.8347 58.0267 37.7433C57.818 37.6518 57.5943 37.6048 57.3684 37.605H47.0797C46.8539 37.6048 46.6302 37.6518 46.4215 37.7433C46.2128 37.8347 46.0232 37.9688 45.8634 38.1378C45.7037 38.3069 45.5771 38.5076 45.4907 38.7285C45.4043 38.9494 45.3599 39.1861 45.36 39.4252V50.3153C45.36 50.5543 45.4045 50.7909 45.491 51.0117C45.5774 51.2325 45.7041 51.4331 45.8638 51.602C46.0235 51.771 46.2131 51.9049 46.4217 51.9963C46.6304 52.0877 46.8539 52.1346 47.0797 52.1345ZM48.7994 41.2444H55.6487V48.494H48.7994V41.2444Z" fill="#484848"/>
<path d="M83.5983 12.2718C82.8384 11.4639 81.9347 10.8233 80.9396 10.387C79.9445 9.95065 78.8776 9.72729 77.8005 9.72976H70.0314V7.24075C70.0314 5.5856 69.4102 3.99824 68.3045 2.82787C67.1987 1.6575 65.699 1 64.1353 1C62.5716 1 61.0719 1.6575 59.9662 2.82787C58.8604 3.99824 58.2392 5.5856 58.2392 7.24075V9.72976H28.7588V7.24075C28.7588 5.5856 28.1376 3.99824 27.0319 2.82787C25.9261 1.6575 24.4264 1 22.8627 1C21.299 1 19.7993 1.6575 18.6935 2.82787C17.5878 3.99824 16.9666 5.5856 16.9666 7.24075V9.72976H9.20342C8.12606 9.72949 7.05921 9.9539 6.0638 10.3902C5.0684 10.8264 4.16396 11.466 3.40215 12.2723C2.64034 13.0787 2.03609 14.036 1.62392 15.0896C1.21175 16.1432 0.999742 17.2724 1 18.4127V73.8732C1.00338 77.0883 2.21155 80.1707 4.35944 82.4442C6.50732 84.7176 9.41951 85.9964 12.4571 86H74.5429C77.5804 85.9961 80.4924 84.7173 82.6402 82.4439C84.7881 80.1705 85.9963 77.0882 86 73.8732V18.4127C86.0028 17.2719 85.7921 16.1419 85.3798 15.0878C84.9676 14.0338 84.3621 13.0767 83.5983 12.2718ZM61.6786 7.24075C61.6786 6.5511 61.9374 5.8897 62.3982 5.40205C62.8589 4.9144 63.4838 4.64044 64.1353 4.64044C64.7869 4.64044 65.4117 4.9144 65.8725 5.40205C66.3332 5.8897 66.592 6.5511 66.592 7.24075V9.72976H61.6786V7.24075ZM61.6786 13.3702H66.592V15.2767C66.592 15.9664 66.3332 16.6278 65.8725 17.1154C65.4117 17.6031 64.7869 17.8771 64.1353 17.8771C63.4838 17.8771 62.8589 17.6031 62.3982 17.1154C61.9374 16.6278 61.6786 15.9664 61.6786 15.2767V13.3702ZM20.406 7.24075C20.406 6.5511 20.6648 5.8897 21.1255 5.40205C21.5863 4.9144 22.2111 4.64044 22.8627 4.64044C23.5143 4.64044 24.1391 4.9144 24.5998 5.40205C25.0606 5.8897 25.3194 6.5511 25.3194 7.24075V9.72976H20.406V7.24075ZM20.406 13.3702H25.3194V15.2767C25.3194 15.9664 25.0606 16.6278 24.5998 17.1154C24.1391 17.6031 23.5143 17.8771 22.8627 17.8771C22.2111 17.8771 21.5863 17.6031 21.1255 17.1154C20.6648 16.6278 20.406 15.9664 20.406 15.2767V13.3702ZM4.43742 18.4127C4.43716 17.7503 4.56027 17.0943 4.79972 16.4822C5.03917 15.8702 5.39025 15.3141 5.83289 14.8458C6.27553 14.3775 6.80105 14.0061 7.3794 13.7529C7.95774 13.4997 8.57756 13.3696 9.20342 13.3702H16.9666V15.2767C16.9666 16.9319 17.5878 18.5193 18.6935 19.6896C19.7993 20.86 21.299 21.5175 22.8627 21.5175C24.4264 21.5175 25.9261 20.86 27.0319 19.6896C28.1376 18.5193 28.7588 16.9319 28.7588 15.2767V13.3702H58.2392V15.2767C58.2392 16.9319 58.8604 18.5193 59.9662 19.6896C61.0719 20.86 62.5716 21.5175 64.1353 21.5175C65.699 21.5175 67.1987 20.86 68.3045 19.6896C69.4102 18.5193 70.0314 16.9319 70.0314 15.2767V13.3702H77.7946C78.4203 13.3698 79.04 13.4999 79.6182 13.7532C80.1963 14.0065 80.7217 14.3779 81.1641 14.8462C81.6066 15.3145 81.9575 15.8706 82.1968 16.4825C82.436 17.0945 82.559 17.7504 82.5586 18.4127V26.0275H4.43742V18.4127ZM82.5606 73.8732C82.5582 76.1232 81.7128 78.2803 80.2097 79.8712C78.7066 81.4622 76.6686 82.3571 74.5429 82.3596H12.4551C10.3294 82.3571 8.29144 81.4622 6.78833 79.8712C5.28523 78.2803 4.43976 76.1232 4.43742 73.8732V29.6679H82.5606V73.8732Z" stroke="#484848" mask="url(#path-1-outside-1_328_255)"/>
<path d="M64.6568 52.1345H74.9455C75.1713 52.1346 75.395 52.0876 75.6037 51.9962C75.8124 51.9048 76.0021 51.7707 76.1618 51.6016C76.3215 51.4326 76.4482 51.2319 76.5345 51.011C76.6209 50.7901 76.6653 50.5533 76.6652 50.3143V39.4252C76.6653 39.1861 76.6209 38.9494 76.5345 38.7285C76.4482 38.5076 76.3215 38.3069 76.1618 38.1378C76.0021 37.9688 75.8124 37.8347 75.6037 37.7433C75.395 37.6518 75.1713 37.6048 74.9455 37.605H64.6568C64.4309 37.6048 64.2073 37.6518 63.9986 37.7433C63.7899 37.8347 63.6002 37.9688 63.4405 38.1378C63.2808 38.3069 63.1541 38.5076 63.0677 38.7285C62.9814 38.9494 62.937 39.1861 62.9371 39.4252V50.3153C62.9371 50.5543 62.9816 50.7909 63.068 51.0117C63.1545 51.2325 63.2812 51.4331 63.4409 51.602C63.6006 51.771 63.7901 51.9049 63.9988 51.9963C64.2074 52.0877 64.431 52.1346 64.6568 52.1345ZM66.3765 41.2444H73.2258V48.494H66.3765V41.2444Z" stroke="#484848" mask="url(#path-1-outside-1_328_255)"/>
<path d="M47.0797 70.804H57.3684C57.5943 70.8041 57.818 70.7571 58.0267 70.6657C58.2354 70.5743 58.425 70.4402 58.5847 70.2712C58.7444 70.1021 58.8711 69.9014 58.9575 69.6805C59.0438 69.4596 59.0882 69.2228 59.0881 68.9838V58.0937C59.0881 57.6109 58.9069 57.1479 58.5844 56.8066C58.2619 56.4652 57.8245 56.2734 57.3684 56.2734H47.0797C46.6236 56.2734 46.1862 56.4652 45.8637 56.8066C45.5412 57.1479 45.36 57.6109 45.36 58.0937V68.9848C45.36 69.2238 45.4045 69.4604 45.491 69.6812C45.5774 69.902 45.7041 70.1026 45.8638 70.2715C46.0235 70.4405 46.2131 70.5744 46.4217 70.6658C46.6303 70.7572 46.8539 70.8041 47.0797 70.804ZM48.7994 59.9139H55.6487V67.1635H48.7994V59.9139Z" stroke="#484848" mask="url(#path-1-outside-1_328_255)"/>
<path d="M11.0703 52.1345H21.359C21.815 52.1345 22.2525 51.9427 22.575 51.6013C22.8975 51.26 23.0786 50.797 23.0786 50.3143V39.4252C23.0786 38.9424 22.8975 38.4795 22.575 38.1381C22.2525 37.7968 21.815 37.605 21.359 37.605H11.0703C10.8444 37.6048 10.6207 37.6518 10.412 37.7433C10.2033 37.8347 10.0137 37.9688 9.85398 38.1378C9.69427 38.3069 9.5676 38.5076 9.48123 38.7285C9.39485 38.9494 9.35046 39.1861 9.35059 39.4252V50.3153C9.35059 50.5543 9.39507 50.7909 9.48151 51.0117C9.56794 51.2325 9.69463 51.4331 9.85433 51.602C10.014 51.771 10.2036 51.9049 10.4123 51.9963C10.6209 52.0877 10.8445 52.1346 11.0703 52.1345ZM12.79 41.2444H19.6393V48.494H12.79V41.2444Z" stroke="#484848" mask="url(#path-1-outside-1_328_255)"/>
<path d="M29.0757 70.804H39.3643C39.5902 70.8041 39.8139 70.7571 40.0226 70.6657C40.2313 70.5743 40.4209 70.4402 40.5806 70.2712C40.7404 70.1021 40.867 69.9014 40.9534 69.6805C41.0398 69.4596 41.0842 69.2228 41.084 68.9838V58.0937C41.084 57.6109 40.9029 57.1479 40.5804 56.8066C40.2578 56.4652 39.8204 56.2734 39.3643 56.2734H29.0757C28.6196 56.2734 28.1822 56.4652 27.8597 56.8066C27.5372 57.1479 27.356 57.6109 27.356 58.0937V68.9848C27.356 69.2238 27.4005 69.4604 27.4869 69.6812C27.5733 69.902 27.7 70.1026 27.8597 70.2715C28.0194 70.4405 28.209 70.5744 28.4176 70.6658C28.6263 70.7572 28.8499 70.8041 29.0757 70.804ZM30.7954 59.9139H37.6447V67.1635H30.7954V59.9139Z" stroke="#484848" mask="url(#path-1-outside-1_328_255)"/>
<path d="M64.6568 70.804H74.9455C75.1713 70.8041 75.395 70.7571 75.6037 70.6657C75.8124 70.5743 76.0021 70.4402 76.1618 70.2712C76.3215 70.1021 76.4482 69.9014 76.5345 69.6805C76.6209 69.4596 76.6653 69.2228 76.6652 68.9838V58.0937C76.6652 57.6109 76.484 57.1479 76.1615 56.8066C75.839 56.4652 75.4016 56.2734 74.9455 56.2734H64.6568C64.2007 56.2734 63.7633 56.4652 63.4408 56.8066C63.1183 57.1479 62.9371 57.6109 62.9371 58.0937V68.9848C62.9371 69.2238 62.9816 69.4604 63.068 69.6812C63.1545 69.902 63.2812 70.1026 63.4409 70.2715C63.6006 70.4405 63.7901 70.5744 63.9988 70.6658C64.2074 70.7572 64.431 70.8041 64.6568 70.804ZM66.3765 59.9139H73.2258V67.1635H66.3765V59.9139Z" stroke="#484848" mask="url(#path-1-outside-1_328_255)"/>
<path d="M11.0703 70.804H21.359C21.815 70.804 22.2525 70.6122 22.575 70.2708C22.8975 69.9295 23.0786 69.4665 23.0786 68.9838V58.0937C23.0784 57.611 22.8971 57.1482 22.5747 56.8069C22.2522 56.4656 21.815 56.2737 21.359 56.2734H11.0703C10.6142 56.2734 10.1768 56.4652 9.85427 56.8066C9.53177 57.1479 9.35059 57.6109 9.35059 58.0937V68.9848C9.35059 69.2238 9.39507 69.4604 9.48151 69.6812C9.56794 69.902 9.69463 70.1026 9.85433 70.2715C10.014 70.4405 10.2036 70.5744 10.4123 70.6658C10.6209 70.7572 10.8445 70.8041 11.0703 70.804ZM12.79 59.9139H19.6393V67.1635H12.79V59.9139Z" stroke="#484848" mask="url(#path-1-outside-1_328_255)"/>
<path d="M29.0757 52.1345H39.3643C39.5902 52.1346 39.8139 52.0876 40.0226 51.9962C40.2313 51.9048 40.4209 51.7707 40.5806 51.6016C40.7404 51.4326 40.867 51.2319 40.9534 51.011C41.0398 50.7901 41.0842 50.5533 41.084 50.3143V39.4252C41.0842 39.1861 41.0398 38.9494 40.9534 38.7285C40.867 38.5076 40.7404 38.3069 40.5806 38.1378C40.4209 37.9688 40.2313 37.8347 40.0226 37.7433C39.8139 37.6518 39.5902 37.6048 39.3643 37.605H29.0757C28.8498 37.6048 28.6261 37.6518 28.4174 37.7433C28.2087 37.8347 28.0191 37.9688 27.8594 38.1378C27.6997 38.3069 27.573 38.5076 27.4866 38.7285C27.4002 38.9494 27.3558 39.1861 27.356 39.4252V50.3153C27.356 50.5543 27.4005 50.7909 27.4869 51.0117C27.5733 51.2325 27.7 51.4331 27.8597 51.602C28.0194 51.771 28.209 51.9049 28.4176 51.9963C28.6263 52.0877 28.8499 52.1346 29.0757 52.1345ZM30.7954 41.2444H37.6447V48.494H30.7954V41.2444Z" stroke="#484848" mask="url(#path-1-outside-1_328_255)"/>
<path d="M47.0797 52.1345H57.3684C57.5943 52.1346 57.818 52.0876 58.0267 51.9962C58.2354 51.9048 58.425 51.7707 58.5847 51.6016C58.7444 51.4326 58.8711 51.2319 58.9575 51.011C59.0438 50.7901 59.0882 50.5533 59.0881 50.3143V39.4252C59.0882 39.1861 59.0438 38.9494 58.9575 38.7285C58.8711 38.5076 58.7444 38.3069 58.5847 38.1378C58.425 37.9688 58.2354 37.8347 58.0267 37.7433C57.818 37.6518 57.5943 37.6048 57.3684 37.605H47.0797C46.8539 37.6048 46.6302 37.6518 46.4215 37.7433C46.2128 37.8347 46.0232 37.9688 45.8634 38.1378C45.7037 38.3069 45.5771 38.5076 45.4907 38.7285C45.4043 38.9494 45.3599 39.1861 45.36 39.4252V50.3153C45.36 50.5543 45.4045 50.7909 45.491 51.0117C45.5774 51.2325 45.7041 51.4331 45.8638 51.602C46.0235 51.771 46.2131 51.9049 46.4217 51.9963C46.6304 52.0877 46.8539 52.1346 47.0797 52.1345ZM48.7994 41.2444H55.6487V48.494H48.7994V41.2444Z" stroke="#484848" mask="url(#path-1-outside-1_328_255)"/>
</svg>
