<?xml version="1.0" encoding="utf-8"?>
<!-- Generator: Adobe Illustrator 27.4.1, SVG Export Plug-In . SVG Version: 6.00 Build 0)  -->
<svg version="1.1" id="Layer_1" xmlns="http://www.w3.org/2000/svg" xmlns:xlink="http://www.w3.org/1999/xlink" x="0px" y="0px"
	 viewBox="0 0 2807 1604" style="enable-background:new 0 0 2807 1604;" xml:space="preserve">
<style type="text/css">
	.st0{fill:#FFFFFF;}
	.st1{clip-path:url(#SVGID_00000168837344451349927690000009730892295736052631_);}
	.st2{opacity:0;}
	.st3{fill:#9AD3F9;}
	.st4{opacity:0.0476;}
	.st5{opacity:0.0952;}
	.st6{opacity:0.1429;}
	.st7{opacity:0.1905;}
	.st8{opacity:0.2381;}
	.st9{opacity:0.2857;}
	.st10{opacity:0.3333;}
	.st11{opacity:0.381;}
	.st12{opacity:0.4286;}
	.st13{opacity:0.4762;}
	.st14{opacity:0.5238;}
	.st15{opacity:0.5714;}
	.st16{opacity:0.619;}
	.st17{opacity:0.6667;}
	.st18{opacity:0.7143;}
	.st19{opacity:0.7619;}
	.st20{opacity:0.8095;}
	.st21{opacity:0.8571;}
	.st22{opacity:0.9048;}
	.st23{opacity:0.9524;}
	.st24{fill:#676767;}
	.st25{fill:none;}
	.st26{opacity:0.33;}
	.st27{fill:#4394D0;}
</style>
<g>
	<rect x="1" class="st0" width="2806" height="1604"/>
	<g>
		<defs>
			<rect id="SVGID_1_" width="2806" height="1604"/>
		</defs>
		<clipPath id="SVGID_00000005989653996268793060000007389037675083245458_">
			<use xlink:href="#SVGID_1_"  style="overflow:visible;"/>
		</clipPath>
		<g style="clip-path:url(#SVGID_00000005989653996268793060000007389037675083245458_);">
			<g class="st2">
				<path class="st3" d="M738.07,2485.95l-5.4-1.37c67.94-267.73,5.75-570.25-162.3-789.48
					c-168.05-219.22-444.02-357.86-720.21-361.8c-20.77-0.29-42,0.11-62.52,0.51c-46.87,0.9-95.32,1.83-142.43-5.56
					c-78.38-12.29-141.59-49.16-173.43-101.17c-62.09-101.41,0.67-238.66,98.24-303.21c87.53-57.9,194.65-74.01,298.25-89.58
					c11.73-1.77,23.44-3.52,35.08-5.34c110.9-17.29,234.81-46.49,312.94-132.02c65.85-72.08,89.88-172.88,113.12-270.35
					c26.18-109.8,53.25-223.33,140.88-292.98c83.26-66.17,206.73-80.03,377.44-42.41c17.41,3.84,34.9,7.91,52.46,12.01
					c109.78,25.59,223.31,52.04,330.98,22.33c137.08-37.81,244.72-170.46,261.78-322.57c15.7-140.01-41-289.23-151.68-399.18
					l3.93-3.95c111.88,111.13,169.18,262.06,153.29,403.75c-17.3,154.31-126.62,288.91-265.84,327.32
					c-109.03,30.07-223.26,3.46-333.73-22.28c-17.54-4.08-35.01-8.16-52.4-11.99C677.56,59.38,555.63,72.9,473.76,137.97
					c-86.12,68.44-111.77,176.02-138.93,289.9c-23.41,98.16-47.61,199.67-114.43,272.81c-79.3,86.8-204.34,116.33-316.2,133.77
					c-11.66,1.82-23.37,3.58-35.11,5.34c-103,15.49-209.5,31.49-296.01,88.72c-95.41,63.12-156.97,196.99-96.57,295.67
					c30.99,50.61,92.78,86.54,169.55,98.57c46.63,7.31,94.85,6.39,141.46,5.49c20.56-0.39,41.82-0.79,62.71-0.51
					c137.22,1.96,276.69,36.63,403.34,100.25c126.65,63.62,237.72,154.82,321.21,263.74c83.49,108.91,142.7,239.86,171.24,378.7
					C774.58,2209.24,771.82,2352.93,738.07,2485.95z"/>
			</g>
			<g class="st4">
				<path class="st3" d="M689.05,2485.12l-5.38-1.45c63.27-234.66,29.45-489.88-92.78-700.21c-14.63-25.17-30.62-49.73-47.5-72.99
					c-122.45-168.8-311.02-294.27-517.36-344.24c-57.31-13.89-115.89-21.97-174.12-24.01c-20.62-0.72-41.67-0.73-62.04-0.75
					c-45.46-0.04-92.46-0.07-138.24-7.88c-44.91-7.66-126.78-30.82-170.5-99.9c-63.75-100.75-5.4-232.91,85.23-297.57
					c83.41-59.51,188.11-78.57,289.36-97c9.31-1.69,18.61-3.39,27.89-5.11c113.47-20.8,229.13-51.46,306.41-134.32
					C254.85,630,280.8,533.61,305.9,440.39c28.69-106.54,58.35-216.71,146.92-283.03c60.07-44.99,141.26-64.4,248.21-59.26
					c39.82,1.89,83.05,6.88,132.17,15.26c13.62,2.3,27.22,4.69,40.78,7.07c25,4.39,50.84,8.92,75.71,12.69
					c78.24,12.04,161.64,21.41,245.63-6.92c5.11-1.73,10.25-3.62,15.28-5.63c71.34-28.32,136.83-81.77,184.43-150.5
					c35.31-50.98,58.76-108.26,67.82-165.67c3.04-19.17,4.69-38.86,4.93-58.52c1.74-122.51-53.86-250.39-148.72-342.09l3.87-4
					c95.94,92.75,152.17,222.15,150.41,346.16c-0.24,19.93-1.92,39.89-5,59.32c-9.19,58.22-32.96,116.31-68.74,167.96
					c-48.21,69.63-114.6,123.79-186.95,152.51c-5.11,2.03-10.34,3.96-15.55,5.73c-85.18,28.74-169.34,19.28-248.25,7.15
					c-24.93-3.77-50.81-8.31-75.84-12.71c-13.54-2.38-27.13-4.76-40.75-7.06c-48.89-8.34-91.91-13.31-131.5-15.19
					c-105.57-5-185.6,13.99-244.6,58.16c-87.03,65.16-115.13,169.53-144.88,280.02C286,535.71,259.86,632.78,194.11,703.49
					c-78.39,84.04-195.07,115.03-309.48,136c-9.28,1.72-18.59,3.41-27.9,5.11c-100.65,18.32-204.73,37.26-287.13,96.05
					c-88.94,63.46-143.82,195.16-83.76,290.06c42.57,67.26,122.73,89.89,166.73,97.38c45.31,7.74,92.08,7.77,137.3,7.81
					c20.41,0.02,41.51,0.03,62.23,0.75c58.6,2.06,117.56,10.18,175.23,24.16c207.61,50.28,397.34,176.53,520.56,346.38
					c16.99,23.42,33.08,48.14,47.81,73.47C718.68,1992.27,752.7,2249.03,689.05,2485.12z"/>
			</g>
			<g class="st5">
				<path class="st3" d="M640.03,2484.29l-5.35-1.53c65.45-228.62,38.42-478.24-74.14-684.84c-13.52-24.8-28.37-49.06-44.12-72.08
					c-114.65-167.73-294.5-294.39-493.45-347.5c-55.37-14.8-112.33-23.95-169.3-27.19c-20.47-1.15-41.4-1.61-61.64-2.05
					c-44.03-0.96-89.56-1.95-133.95-10.17c-43.77-8.09-123.74-31.66-167.57-98.63c-63.35-96.8-11.84-226.9,72.21-291.91
					c80.28-62.09,184.11-84.28,284.53-105.74l16.65-3.57c110.86-23.84,223.91-56.89,299.88-136.61
					c63.71-67.28,91.54-159.25,118.46-248.19c31.27-103.32,63.6-210.15,153.12-273.17c78.69-55.4,180.9-58.72,250.94-56.42
					c38.89,1.27,82.18,4.82,132.36,10.84l15.36,1.8c34.33,4.03,66.77,7.84,98.12,10.52c82.21,7.04,151.15,9.95,227.31-21
					c4.79-1.95,9.66-4.08,14.47-6.33c68.79-32.02,136.01-87.85,184.41-153.19c37.83-51.06,62.86-105.4,74.39-161.51
					c3.84-18.58,6.36-37.99,7.49-57.71c7.03-122.52-47.91-254.46-143.39-344.33l3.82-4.06c96.64,90.97,152.25,224.58,145.12,348.7
					c-1.14,19.99-3.7,39.68-7.59,58.52c-11.69,56.9-37.05,111.98-75.37,163.7c-48.94,66.06-116.93,122.53-186.53,154.92
					c-4.9,2.29-9.85,4.45-14.73,6.44c-77.31,31.42-146.92,28.49-229.88,21.39c-31.44-2.69-63.92-6.5-98.3-10.53l-15.37-1.8
					c-50.02-6.01-93.16-9.54-131.88-10.8c-69.25-2.28-170.23,0.97-247.55,55.41C350.62,247.57,320,348.76,287.58,455.89
					c-27.11,89.56-55.13,182.17-119.76,250.41C90.81,787.12-23.2,820.5-134.93,844.52l-16.66,3.57
					c-99.81,21.33-203.02,43.39-282.29,104.7c-82.1,63.5-132.58,190.32-70.96,284.47c42.69,65.23,121.02,88.27,163.92,96.2
					c43.96,8.13,89.26,9.12,133.07,10.07c20.29,0.44,41.27,0.9,61.83,2.06c57.35,3.26,114.68,12.47,170.42,27.36
					c200.22,53.46,381.22,180.93,496.61,349.74c15.86,23.19,30.81,47.6,44.42,72.56C678.69,2003.13,705.88,2254.27,640.03,2484.29z"
					/>
			</g>
			<g class="st6">
				<path class="st3" d="M591.01,2483.46l-5.33-1.62c67.64-222.67,47.41-466.68-55.5-669.46c-12.42-24.44-26.13-48.39-40.75-71.19
					C381.05,1572.04,214.3,1447.48,19.9,1390.44c-53.38-15.69-108.72-25.91-164.48-30.36c-20.36-1.62-41.21-2.52-61.38-3.41
					c-42.56-1.86-86.56-3.79-129.54-12.39c-42.63-8.52-120.71-32.5-164.62-97.36c-63.76-94.17-19.98-219.49,59.19-286.25
					c77.02-64.96,175.58-89.38,279.93-115.23l5.18-1.28c101.06-25.05,215.41-58.51,293.35-138.91
					c62.79-64.78,92.44-152.42,121.12-237.19c35.41-104.66,68.86-203.52,159.24-263.2c75.66-49.96,170.69-55.13,253.68-53.57
					c45.59,0.82,90.47,3.62,132.53,6.42c45.33,3.02,80.43,4.57,110.46,4.9c80.68,0.85,138.82-1.1,209.01-35.08
					c4.54-2.21,9.1-4.56,13.67-7.05c67.83-36.69,135.04-93.5,184.4-155.88c39.98-50.49,67.22-103.44,80.97-157.35
					c4.67-18.19,8.05-37.32,10.05-56.89c12.69-124.03-40.21-256.83-138.06-346.57l3.76-4.1c99.12,90.9,152.71,225.49,139.84,351.24
					c-2.03,19.84-5.46,39.26-10.19,57.7c-13.94,54.68-41.53,108.32-82,159.44c-49.81,62.94-117.64,120.28-186.11,157.31
					c-4.64,2.52-9.27,4.92-13.89,7.17c-71.3,34.51-130.06,36.49-211.51,35.64c-30.13-0.33-65.33-1.89-110.77-4.91
					c-41.99-2.79-86.8-5.58-132.26-6.4c-82.15-1.52-176.12,3.54-250.51,52.65c-88.79,58.63-121.94,156.61-157.04,260.34
					c-28.88,85.35-58.73,173.6-122.4,239.28c-78.96,81.46-194.2,115.21-296.01,140.44l-5.18,1.28
					c-103.7,25.69-201.65,49.96-277.68,114.08c-77.28,65.17-120.17,187.31-58.17,278.88c42.79,63.21,119.31,86.67,161.1,95.02
					c42.56,8.52,86.35,10.43,128.69,12.29c20.21,0.89,41.11,1.8,61.58,3.43c56.14,4.48,111.86,14.77,165.61,30.57
					c195.69,57.41,363.55,182.81,472.65,353.09c14.72,22.95,28.53,47.06,41.03,71.67C638.7,2013.91,659.06,2259.43,591.01,2483.46z"
					/>
			</g>
			<g class="st7">
				<path class="st3" d="M541.99,2482.64l-5.3-1.71c69.85-216.81,56.41-455.22-36.87-654.11c-11.31-24.07-23.88-47.72-37.37-70.28
					c-100.4-168.15-258.66-293.87-445.62-354.01c-51.45-16.58-105.17-27.87-159.66-33.54c-20.29-2.09-41.08-3.49-61.2-4.83
					c-41.06-2.75-83.51-5.58-125.04-14.56c-71.67-15.45-129.09-49.57-161.68-96.08c-65.66-93.7-25.22-214.5,46.16-280.59
					c73.96-68.47,177.6-97.82,269.04-123.72c103.39-29.28,210.7-64.3,286.83-141.21c61.63-62.26,93.03-145.45,123.4-225.9
					c38.26-101.35,74.4-197.09,165.76-253.51c76.89-47.48,172.65-51.11,256.41-50.73c29.49,0.1,58.94,0.67,87.43,1.21
					c15.5,0.3,30.66,0.59,45.28,0.79c40.66,0.58,76.79-0.28,107.41-2.52c74.79-5.46,124.95-11.49,190.73-49.15
					c4.26-2.46,8.55-5.05,12.88-7.77c67.97-42.5,135.18-100.3,184.4-158.58c42.26-50.02,71.72-101.57,87.55-153.21
					c5.5-17.8,9.74-36.66,12.61-56.07c18.26-123.48-33.85-260.4-132.75-348.82l3.71-4.15c100.26,89.63,153.07,228.5,134.54,353.79
					c-2.91,19.68-7.22,38.82-12.79,56.89c-16.05,52.36-45.86,104.57-88.62,155.16c-49.58,58.71-117.26,116.92-185.69,159.7
					c-4.38,2.76-8.73,5.38-13.06,7.88c-66.82,38.25-117.52,44.36-193.1,49.88c-30.78,2.25-67.07,3.09-107.9,2.53
					c-14.64-0.21-29.81-0.49-45.32-0.79c-28.46-0.54-57.9-1.11-87.34-1.21c-82.96-0.33-177.82,3.19-253.46,49.9
					c-89.74,55.42-125.56,150.29-163.48,250.74c-30.57,81-62.19,164.74-124.65,227.85C38.14,789.8-69.94,825.1-174.04,854.58
					c-90.84,25.72-193.79,54.89-266.77,122.45c-69.66,64.48-109.24,182.18-45.38,273.3c31.78,45.36,88,78.69,158.29,93.84
					c41.13,8.88,83.38,11.71,124.24,14.44c20.16,1.35,41.01,2.75,61.4,4.85c54.88,5.71,108.98,17.07,160.8,33.78
					c188.25,60.55,347.6,187.13,448.7,356.45c13.59,22.71,26.25,46.53,37.64,70.77C598.74,2024.61,612.27,2264.5,541.99,2482.64z"/>
			</g>
			<g class="st8">
				<path class="st3" d="M492.97,2481.81l-5.27-1.79c72.1-211.06,65.45-443.88-18.23-638.75c-10.22-23.75-21.66-47.09-34-69.37
					c-92.39-167.21-242.15-294.08-421.71-357.26c-49.49-17.45-101.58-29.81-154.85-36.71c-20.25-2.6-41.04-4.5-61.15-6.33
					c-39.52-3.6-80.38-7.32-120.41-16.63c-69.74-16.19-126.11-49.86-158.74-94.81c-65.84-90.73-33.18-206.97,33.13-274.9
					c65.29-66.9,153.19-98.88,252.97-130.94c89.2-28.66,200.22-64.32,280.32-143.53c60.37-59.7,93.42-138.37,125.39-214.45
					c41.22-98.11,80.16-190.78,172.56-243.97c73.96-42.58,164.78-46.95,259.14-47.35h16.61c39.39-1.1,80.12-1.52,116.27-2.94
					c38.6-1.51,74.68-4.93,104.34-9.91c65.14-10.92,108.32-19.82,172.47-63.23c3.98-2.7,8-5.54,12.08-8.5
					c41.57-29.92,120.8-90.64,184.39-161.29c45.34-50.33,76.13-99.1,94.14-149.07c6.34-17.46,11.44-36.05,15.17-55.25
					c23.81-122.76-27.4-263.84-127.43-351.06l3.66-4.2c103.07,89.86,153.8,229.73,129.24,356.32c-3.78,19.49-8.96,38.36-15.4,56.09
					c-18.25,50.66-49.4,100.02-95.23,150.9c-63.94,71.02-143.52,132.03-185.27,162.07c-4.13,3-8.2,5.87-12.23,8.6
					c-65.1,44.06-108.78,53.06-174.67,64.11c-29.88,5.01-66.21,8.46-105.04,9.98c-36.22,1.41-77,1.83-116.43,2.37h-16.61
					c-93.59,0.96-183.63,5.27-256.42,47.18c-90.77,52.25-129.35,144.08-170.2,241.3c-32.18,76.59-65.46,155.78-126.61,216.25
					C7.89,794.88-108.56,832.29-193.6,859.6c-99.05,31.83-186.28,63.55-250.68,129.54c-64.67,66.26-96.64,179.5-32.6,267.73
					c31.83,43.87,87.05,76.78,155.49,92.66c39.66,9.22,80.33,12.93,119.66,16.51c20.16,1.84,41,3.74,61.36,6.35
					c53.65,6.96,106.13,19.4,155.98,36.98c180.85,63.63,331.69,191.42,424.73,359.82c12.43,22.44,23.95,45.95,34.25,69.87
					C558.81,2035.2,565.51,2269.47,492.97,2481.81z"/>
			</g>
			<g class="st9">
				<path class="st3" d="M443.95,2480.99l-5.24-1.89c75.48-208.44,75.62-429.83,0.4-623.4c-9.11-23.39-19.41-46.42-30.63-68.47
					c-84.32-166.3-225.6-294.33-397.81-360.5c-47.56-18.33-98.03-31.75-150.03-39.89c-20.27-3.15-41.12-5.58-61.28-7.93
					c-37.92-4.43-77.12-9-115.59-18.61c-67.83-16.91-123.16-50.13-155.79-93.53c-68.35-90.9-37.5-203.27,20.09-269.2
					c61.66-70.61,150.84-106.97,236.89-138.17l2.74-0.99c90.95-32.97,194.03-70.33,271.07-144.85
					c58.99-57.07,93.58-131.16,127.04-202.81c44.32-94.94,86.19-184.61,179.71-234.63c75.91-40.6,168.76-42.82,258.55-44.97
					l3.32-0.08c55.68-1.38,97.96-3.53,133.05-6.8c38-3.53,73.01-9.51,101.25-17.29c64.34-17.72,97.31-32.06,154.24-77.33
					c3.69-2.94,7.45-6.02,11.3-9.22l8.22-6.79c54.38-44.9,122.05-100.78,176.16-157.21c48.01-50.05,80.96-97.45,100.73-144.92
					c7.19-17.14,13.16-35.46,17.72-54.44c29.81-123.82-19.27-265.8-122.13-353.31l3.61-4.24
					c104.41,88.84,154.22,233.05,123.94,358.86c-4.64,19.27-10.69,37.87-18,55.28c-20.03,48.11-53.35,96.07-101.84,146.62
					c-54.33,56.67-122.15,112.66-176.64,157.66l-8.21,6.78c-3.87,3.22-7.66,6.34-11.39,9.3c-57.68,45.86-91.07,60.39-156.22,78.34
					c-28.54,7.86-63.89,13.9-102.21,17.46c-35.22,3.27-77.62,5.44-133.44,6.82l-3.32,0.08c-89.14,2.13-181.32,4.34-256.06,44.31
					c-91.88,49.15-133.37,138.01-177.29,232.08c-33.67,72.11-68.48,146.67-128.21,204.45c-77.89,75.35-181.57,112.93-273.04,146.09
					l-2.74,0.99c-85.37,30.95-173.8,66.99-234.6,136.6c-56.15,64.29-86.31,173.77-19.83,262.19c31.87,42.39,86.1,74.88,152.69,91.48
					c38.13,9.53,77.15,14.08,114.89,18.48c20.21,2.36,41.12,4.8,61.49,7.97c52.39,8.2,103.25,21.73,151.17,40.19
					c173.5,66.66,315.83,195.64,400.77,363.18c11.29,22.21,21.67,45.41,30.85,68.97C520.01,2048.51,519.88,2271.29,443.95,2480.99z"
					/>
			</g>
			<g class="st10">
				<path class="st3" d="M394.92,2480.17l-5.2-1.99c77.86-202.86,84.62-418.8,19.03-608.04c-8-23.01-17.17-45.75-27.25-67.57
					c-76.21-165.45-209-294.63-373.91-363.75c-45.59-19.17-94.45-33.66-145.21-43.06c-20.34-3.74-41.29-6.74-61.56-9.65
					c-36.27-5.2-73.77-10.59-110.63-20.47c-46.64-12.47-111.01-38.6-152.84-92.26c-68.16-87.45-45.58-195.35,7.04-263.49
					c51.85-67.16,125.78-106.7,220.82-145.41l14.56-5.92c83.98-34.07,179.17-72.68,252.74-142.25
					c57.47-54.35,93.44-123.78,128.23-190.92c47.59-91.86,92.55-178.63,187.31-225.53c71.79-35.52,157.99-38.5,241.35-41.37
					c7.75-0.27,15.51-0.54,23.25-0.83c51.54-2,96.37-5.76,133.23-11.19c37.77-5.56,71.7-14.08,98.14-24.63
					c57.81-23.07,82.19-41.17,136.02-91.44c2.49-2.32,5.01-4.73,7.59-7.19l2.92-2.78c23.03-21.91,50.08-45.63,78.72-70.74
					c35.81-31.38,72.83-63.84,105.64-96c51.61-50.54,85.71-95.27,107.32-140.77c8.06-16.83,14.88-34.88,20.28-53.62
					c35.38-122.84-12.66-269.05-116.83-355.57l3.56-4.28c105.82,87.89,154.6,236.5,118.62,361.39
					c-5.48,19.04-12.42,37.37-20.6,54.47c-21.9,46.1-56.36,91.34-108.46,142.35c-32.93,32.27-70.01,64.77-105.87,96.21
					c-28.6,25.07-55.61,48.75-78.55,70.58l-2.91,2.77c-2.6,2.48-5.14,4.89-7.63,7.23c-54.42,50.82-79.11,69.13-137.75,92.55
					c-26.83,10.71-61.2,19.34-99.39,24.97c-37.05,5.45-82.08,9.24-133.82,11.24c-7.75,0.29-15.51,0.56-23.27,0.83
					c-82.77,2.85-168.37,5.81-239.08,40.8c-93.13,46.09-137.68,132.07-184.84,223.1c-35,67.56-71.2,137.42-129.35,192.41
					C-38,790.66-133.7,829.48-218.14,863.73l-14.55,5.91c-94.2,38.37-167.41,77.48-218.51,143.66
					c-51.3,66.44-73.39,171.57-7.06,256.66c40.87,52.44,104.07,78.05,149.89,90.3c36.54,9.8,73.88,15.15,109.98,20.34
					c20.32,2.92,41.33,5.93,61.78,9.69c51.16,9.48,100.4,24.08,146.36,43.41c166.2,69.65,300.02,199.83,376.81,366.55
					c10.16,21.99,19.4,44.89,27.46,68.08C480.03,2058.8,473.25,2276.09,394.92,2480.17z"/>
			</g>
			<g class="st11">
				<path class="st3" d="M345.89,2479.36l-5.16-2.1c80.31-197.43,93.69-407.92,37.67-592.7c-6.89-22.65-14.93-45.08-23.88-66.67
					c-68.03-164.64-192.33-294.97-350.01-366.98c-43.68-20.02-90.91-35.57-140.4-46.24c-20.47-4.38-41.6-8-62.04-11.52
					c-34.55-5.94-70.28-12.07-105.46-22.18c-45.31-12.98-108.1-39.3-149.88-90.98c-72.26-89.36-48.4-194.7-6.01-257.76
					c50.54-75.16,128.27-117.79,204.74-152.66c8.68-3.95,17.52-7.94,26.5-11.98c77.1-34.7,164.48-74.02,234.3-138.52
					c55.77-51.52,92.92-116.2,128.85-178.76c51.07-88.9,99.3-172.87,195.49-216.7c68.2-31.08,148.65-34.37,226.44-37.55
					c13.63-0.56,27.28-1.11,40.88-1.82c49.85-2.62,95.98-8,133.4-15.58c37.71-7.62,70.57-18.67,95.03-31.94
					c45.26-24.56,62.7-44.07,97.44-82.94c6.18-6.91,12.88-14.41,20.37-22.64l9.72-10.71c31.99-34.93,76.31-73.8,119.16-111.38
					c21.87-19.19,44.49-39.02,65.18-58.09c37.39-34.41,84.13-81.04,113.93-136.62c8.94-16.55,16.62-34.31,22.83-52.8
					c41.57-123.7-4.3-270.84-111.54-357.82l3.51-4.33c109.01,88.42,155.6,238.07,113.31,363.92c-6.32,18.8-14.12,36.85-23.21,53.67
					c-30.19,56.3-77.35,103.37-115.06,138.08c-20.74,19.1-43.38,38.97-65.28,58.17c-42.74,37.49-86.94,76.25-118.73,110.96
					l-9.71,10.7c-7.47,8.21-14.17,15.7-20.34,22.6c-34.07,38.11-52.84,59.1-98.94,84.12c-24.94,13.53-58.34,24.77-96.58,32.51
					c-37.68,7.62-84.09,13.04-134.21,15.68c-13.62,0.7-27.29,1.26-40.94,1.82c-77.26,3.16-157.16,6.43-224.36,37.06
					C238.34,371.78,190.54,455,139.94,543.1c-36.14,62.92-73.51,127.98-129.9,180.07c-70.49,65.11-158.31,104.64-235.79,139.51
					c-8.97,4.03-17.81,8.02-26.48,11.97c-75.73,34.53-152.66,76.68-202.43,150.7c-41.34,61.48-64.64,164.14,5.71,251.14
					c40.87,50.55,102.54,76.37,147.09,89.13c34.89,10.02,70.47,16.13,104.87,22.04c20.5,3.52,41.69,7.16,62.27,11.56
					c49.88,10.76,97.5,26.44,141.54,46.62c158.96,72.59,284.27,203.97,352.84,369.92c9.03,21.74,17.12,44.35,24.07,67.17
					C440.12,2068.94,426.68,2280.75,345.89,2479.36z"/>
			</g>
			<g class="st12">
				<path class="st3" d="M296.86,2478.54l-5.11-2.21c82.86-192.18,102.85-397.23,56.3-577.36c-5.8-22.34-12.7-44.47-20.51-65.76
					c-59.77-163.87-175.58-295.35-326.12-370.23c-41.75-20.83-87.37-37.45-135.58-49.4c-20.7-5.09-42.13-9.42-62.86-13.59
					c-32.74-6.6-66.58-13.42-99.96-23.69c-44.01-13.49-105.22-40-146.93-89.7c-71.68-85.4-56.84-186.17-19.05-252
					c36.3-63.24,92.72-111.07,188.65-159.92c12.57-6.4,25.56-12.84,38.84-19.41c70.21-34.78,149.79-74.19,215.46-133.42
					c53.84-48.56,91.92-108.38,128.74-166.23c54.8-86.1,106.55-167.41,204.4-208.24c65.02-27.13,140.42-30.44,213.33-33.64
					c18.62-0.82,37.87-1.66,56.71-2.89c49.44-3.26,95.63-10.16,133.58-19.95c37.76-9.74,69.54-23.3,91.92-39.22
					c33.18-23.6,46.87-43.98,65.81-72.18c9.13-13.58,19.47-28.98,33.8-47.57l0.69-0.9c2.63-3.41,5.35-6.94,8.24-10.55
					c36.86-46.23,94.19-95.15,149.63-142.47c11.8-10.06,23.44-20,34.69-29.75c44.35-38.4,89.64-81.03,120.53-132.48
					c9.83-16.26,18.37-33.75,25.38-51.98c47.13-122.51,2.45-273.94-106.24-360.08l3.46-4.36
					c110.55,87.61,155.96,241.73,107.98,366.45c-7.13,18.54-15.82,36.32-25.81,52.86c-31.28,52.11-76.96,95.11-121.65,133.81
					c-11.26,9.75-22.91,19.7-34.72,29.78c-55.24,47.14-112.36,95.88-148.89,141.7c-2.86,3.59-5.57,7.1-8.18,10.48l-0.69,0.9
					c-14.22,18.44-24.51,33.76-33.59,47.27c-19.27,28.69-33.2,49.42-67.21,73.61c-22.93,16.31-55.36,30.17-93.76,40.08
					c-38.28,9.87-84.82,16.82-134.61,20.11c-18.91,1.23-38.19,2.08-56.83,2.89c-72.43,3.18-147.32,6.47-211.43,33.22
					c-96.24,40.15-147.54,120.75-201.85,206.08c-37.02,58.16-75.3,118.31-129.7,167.38c-66.24,59.75-146.19,99.34-216.72,134.28
					c-13.26,6.57-26.23,12.99-38.78,19.38c-94.9,48.33-150.63,95.5-186.36,157.73c-36.85,64.2-51.35,162.45,18.48,245.65
					c40.83,48.65,101.01,74.68,144.3,87.95c33.12,10.18,66.83,16.98,99.43,23.55c20.78,4.19,42.27,8.52,63.09,13.65
					c48.61,12.04,94.61,28.81,136.72,49.82c151.82,75.51,268.61,208.09,328.86,373.3c7.87,21.46,14.83,43.76,20.67,66.27
					C400.3,2078.91,380.21,2285.23,296.86,2478.54z"/>
			</g>
			<g class="st13">
				<path class="st3" d="M247.83,2477.73l-5.06-2.32c85.53-187.14,112.14-386.73,74.94-562.03c-4.69-21.97-10.46-43.79-17.14-64.86
					c-51.42-163.13-158.76-295.76-302.23-373.46c-39.85-21.65-83.85-39.34-130.76-52.57c-21-5.89-42.79-10.96-63.87-15.88
					c-30.85-7.18-62.75-14.62-94.26-24.97c-42.71-14-102.37-40.7-143.96-88.41c-71.27-81.74-63.31-180.79-32.09-246.23
					c31.32-65.66,84.54-117.23,172.56-167.2c16.49-9.36,33.59-18.61,51.69-28.4c63.3-34.24,135.05-73.05,196.13-126.77
					C5.39,679.19,44.04,624.37,81.42,571.36c58.85-83.48,114.44-162.33,214.28-200.22c62.12-23.57,132.98-26.7,201.51-29.73
					c23.4-1.03,47.59-2.1,71.26-3.96c49.36-3.93,95.61-12.33,133.76-24.32c37.81-11.88,68.53-27.95,88.84-46.48
					c26.5-24.17,36-44.96,48.01-71.26c8.09-17.7,17.25-37.77,33.39-62.66c2.56-3.95,5.24-8.03,8.13-12.21
					C920.04,63.52,992.31,4.65,1056.08-47.28l8.79-7.17c46.01-37.48,93.72-78.26,127.14-128.32c10.74-15.99,20.14-33.2,27.94-51.17
					c52.61-121.23,9.21-277.01-100.96-362.35l3.41-4.4c112.12,86.85,156.25,245.47,102.66,368.97
					c-7.93,18.28-17.49,35.79-28.42,52.05c-33.85,50.7-81.92,91.79-128.25,129.54l-8.8,7.17c-63.48,51.7-135.43,110.3-174.42,166.64
					c-2.86,4.14-5.51,8.18-8.04,12.08c-15.92,24.55-24.99,44.42-33,61.95c-12.28,26.88-21.98,48.12-49.32,73.06
					c-20.9,19.07-52.34,35.56-90.92,47.68c-38.54,12.11-85.22,20.61-134.99,24.56c-23.76,1.86-48.01,2.94-71.45,3.97
					c-71.22,3.15-138.5,6.12-199.78,29.38c-98.24,37.28-153.36,115.46-211.7,198.22C48.4,627.85,9.56,682.94-42.56,728.8
					c-61.55,54.15-133.59,93.11-197.15,127.49c-18.08,9.78-35.15,19.01-51.58,28.35c-86.97,49.38-139.49,100.2-170.29,164.75
					c-30.46,63.85-38.24,160.48,31.26,240.18c40.76,46.75,99.45,73,141.5,86.78c31.27,10.28,63.05,17.69,93.79,24.84
					c21.14,4.93,43,10.02,64.12,15.94c47.32,13.35,91.7,31.19,131.92,53.04c144.75,78.39,253.03,212.16,304.89,376.67
					c6.73,21.23,12.55,43.23,17.28,65.38C360.6,2088.69,333.85,2289.52,247.83,2477.73z"/>
			</g>
			<g class="st14">
				<path class="st3" d="M198.79,2476.92l-5.01-2.42c89.63-184.95,121.99-374,93.58-546.71c-3.58-21.6-8.22-43.12-13.77-63.95
					c-42.98-162.43-141.83-296.2-278.35-376.69c-37.93-22.44-80.3-41.19-125.95-55.74c-21.4-6.78-43.69-12.71-65.24-18.44
					c-28.85-7.68-58.69-15.62-88.2-25.97c-59.44-20.81-108.2-50.94-141-87.12c-89.35-98.57-57.12-208.96-45.12-240.44
					c26.25-68.85,74.51-122.66,156.46-174.49c20.44-12.92,42.2-25.67,65.23-39.17c56.32-33,120.15-70.4,176.08-118.36
					c49.06-42.06,87.83-91.71,125.32-139.73c63.34-81.12,123.16-157.73,225.41-192.74c59.44-20.36,123.23-23.05,190.77-25.9
					c27.83-1.17,56.6-2.39,84.73-4.97c48.73-4.52,96.3-14.71,133.94-28.68c37.88-14.07,67.55-32.65,85.78-53.72
					c22.19-25.64,28.29-48.2,35.35-74.33c5.65-20.9,12.05-44.58,27.83-73.8c2.27-4.2,4.68-8.53,7.33-12.97
					C881.05,58.56,958.51-3.68,1028.2-57.16c53.06-40.68,99.76-78.11,133.75-124.18c11.65-15.69,21.91-32.63,30.49-50.35
					c58.99-121.88,17.86-278.63-95.67-364.62l3.36-4.44c115.61,87.56,157.45,247.27,97.33,371.48
					c-8.73,18.04-19.17,35.28-31.03,51.24c-34.42,46.65-81.43,84.33-134.84,125.28c-69.28,53.16-146.26,115-182.84,176.15
					c-2.61,4.36-4.98,8.62-7.21,12.75c-15.47,28.65-21.78,52-27.35,72.61c-7.24,26.79-13.49,49.92-36.52,76.52
					c-18.84,21.78-49.29,40.89-88.05,55.29c-38.63,14.34-85.44,24.38-135.37,29.01c-28.26,2.59-57.11,3.81-85,4.99
					c-67.13,2.83-130.53,5.51-189.2,25.6c-100.69,34.48-160.02,110.46-222.83,190.9c-37.66,48.23-76.6,98.11-126.08,140.54
					c-56.32,48.28-120.38,85.82-176.89,118.93c-22.99,13.47-44.71,26.2-65.08,39.07c-80.87,51.14-128.43,104.12-154.23,171.76
					c-11.72,30.74-43.19,138.51,44.04,234.72c32.18,35.5,80.15,65.1,138.72,85.61c29.31,10.29,59.04,18.2,87.79,25.85
					c21.62,5.75,43.97,11.7,65.5,18.51c46.05,14.68,88.81,33.6,127.09,56.26c137.78,81.24,237.55,216.21,280.9,380.06
					c5.6,21,10.27,42.7,13.88,64.48C321.45,2100.73,288.93,2290.93,198.79,2476.92z"/>
			</g>
			<g class="st15">
				<path class="st3" d="M149.76,2476.11l-4.95-2.54c92.69-180.32,131.49-364.06,112.22-531.38c-2.47-21.23-5.97-42.45-10.4-63.05
					C212.19,1717.4,121.82,1582.47-7.85,1499.2c-36.07-23.23-76.82-43.05-121.14-58.91c-21.95-7.81-44.9-14.71-67.09-21.4
					c-26.7-8.04-54.32-16.34-81.66-26.59c-58.49-21.87-104.93-50.75-138.03-85.84c-86.81-92.02-69.58-194.74-58.14-234.63
					c20.34-70.94,64.93-128.7,140.34-181.79c24.51-17.25,51.48-34.22,80.03-52.18c51.49-32.4,104.73-65.9,154.8-107.7
					c46-38.41,84.27-82.67,121.28-125.47c68.39-79.09,132.98-153.79,238.26-186c56.89-17.41,117.05-19.71,180.75-22.15
					c32.02-1.23,65.14-2.5,97.46-5.88c48.89-5.18,96.53-16.91,134.13-33.05c37.94-16.27,66.56-37.34,82.76-60.94
					c18.98-27.64,21.68-51.62,24.82-79.39c2.67-23.65,5.69-50.44,20.11-82.95c2.23-5.04,4.37-9.53,6.52-13.72
					C841.72,53.73,923.82-10.97,991.52-59.86l3.54-2.56c51.46-37.13,100.07-72.2,136.83-117.47c12.6-15.42,23.71-32.08,33.04-49.53
					c64.41-120.46,24.7-281.62-90.4-366.9l3.32-4.47c117.26,86.88,157.67,251.16,91.99,373.99c-9.5,17.78-20.82,34.74-33.64,50.43
					c-37.22,45.83-86.12,81.11-137.89,118.47l-3.54,2.55C927.59-6.82,846.13,57.33,812.31,123.13c-2.11,4.1-4.19,8.49-6.39,13.44
					c-14.07,31.73-16.91,56.94-19.66,81.32c-3.09,27.32-6,53.13-25.76,81.91c-16.8,24.47-46.25,46.22-85.15,62.91
					c-38.1,16.34-86.31,28.23-135.74,33.46c-32.52,3.41-65.72,4.68-97.84,5.91c-63.32,2.42-123.14,4.71-179.33,21.91
					C158.69,455.74,94.6,529.86,26.75,608.32c-37.16,42.97-75.58,87.41-121.92,126.11c-50.36,42.05-103.76,75.65-155.4,108.14
					c-28.49,17.93-55.4,34.85-79.79,52.03c-75.33,53.03-117.95,108.16-138.19,178.77c-11.17,38.98-28.01,139.34,56.84,229.28
					c32.52,34.46,78.25,62.88,135.94,84.44c27.17,10.18,54.7,18.47,81.31,26.48c22.26,6.7,45.27,13.63,67.36,21.48
					c44.72,16,85.86,36,122.28,59.47c130.93,84.07,222.17,220.25,256.91,383.44c4.46,20.78,7.99,42.17,10.49,63.58
					C281.96,2109.96,242.95,2294.8,149.76,2476.11z"/>
			</g>
			<g class="st16">
				<path class="st3" d="M100.72,2475.3l-4.89-2.66c95.99-175.97,141.24-354.42,130.86-516.06c-1.36-20.86-3.73-41.78-7.03-62.15
					C193.9,1733.37,112,1597.31-10.95,1511.26c-34.19-24-73.32-44.89-116.33-62.08c-22.64-9-45.35-16.67-69.4-24.78
					c-24.41-8.24-49.64-16.76-74.66-26.77c-56.73-22.63-102.17-51.07-135.06-84.55c-83.87-85.35-80.57-180-71.14-228.81
					c14.25-73.75,53.71-133.84,124.2-189.09c28.77-22.55,61.74-44.6,96.64-67.95c43.48-29.08,88.45-59.16,131.71-94.31
					C-82.72,698.58-45.8,660-10.09,622.7c74.21-77.54,144.31-150.78,253.45-180.25c54.42-14.7,111.2-16.56,171.31-18.53
					c36.03-1.18,73.29-2.4,109.62-6.68c49.1-5.83,96.81-19.11,134.33-37.4c37.99-18.53,65.58-42.1,79.77-68.19
					c16.32-29.98,15.77-57.01,15.2-85.61c-0.55-27.4-1.11-55.74,11.46-90.95c1.86-5.2,3.73-9.94,5.71-14.48
					C803.18,46.55,891.35-19.4,954.84-62.56l13.88-9.4c49.57-33.53,96.38-65.2,133.11-106.47c13.73-15.34,25.37-31.28,35.6-48.72
					c69.73-118.98,31.55-284.59-85.12-369.18l3.27-4.51c118.92,86.23,157.8,255.12,86.65,376.5
					c-10.41,17.76-22.27,33.99-36.24,49.61c-37.18,41.79-84.28,73.64-134.14,107.37l-13.87,9.39
					C895.05-15.18,807.7,50.1,775.85,122.86c-1.93,4.42-3.75,9.04-5.57,14.12c-12.22,34.25-11.67,62.06-11.13,88.96
					c0.59,29.37,1.14,57.1-15.88,88.39c-14.75,27.11-43.18,51.49-82.22,70.52c-38.07,18.55-86.41,32.02-136.11,37.92
					c-36.57,4.31-73.95,5.54-110.1,6.72c-59.78,1.96-116.25,3.81-170.04,18.33C137.16,476.89,67.59,549.58-6.07,626.55
					c-35.82,37.43-72.87,76.14-115.4,110.69c-43.46,35.31-88.54,65.47-132.13,94.62c-34.81,23.29-67.69,45.28-96.29,67.71
					c-69.37,54.37-108.19,113.4-122.17,185.76c-9.22,47.75-12.44,140.32,69.65,223.85c32.35,32.92,77.15,60.94,133.16,83.28
					c24.88,9.95,50.04,18.45,74.38,26.66c23.06,7.78,46.9,15.83,69.68,24.89c43.41,17.35,82.92,38.44,117.46,62.69
					c124.19,86.91,206.91,224.28,232.91,386.82c3.33,20.55,5.72,41.64,7.09,62.68C242.69,2118.9,197.21,2298.4,100.72,2475.3z"/>
			</g>
			<g class="st17">
				<path class="st3" d="M51.68,2474.49l-4.82-2.8c101.01-174.4,151.32-342.88,149.51-500.75c-0.26-20.53-1.5-41.14-3.67-61.25
					c-16.98-160.34-90.4-297.55-206.74-386.37c-32.34-24.77-69.86-46.72-111.51-65.24c-23.53-10.41-47.27-19.34-72.39-28.79
					c-21.89-8.23-44.52-16.75-66.97-26.32c-55.05-23.42-99.49-51.44-132.09-83.26c-84.41-82.38-88.94-175.06-84.13-222.98
					c7.66-76.3,41.99-138.7,108.04-196.39c33.33-29.11,73.5-57.33,116.02-87.21c34.74-24.41,70.66-49.65,105.84-77.43
					c37.59-29.68,71.95-62.15,105.18-93.57c81.13-76.67,157.76-149.1,271.96-175.9c51.98-12.2,108.02-13.64,162.22-15.03
					c39.93-1.03,81.22-2.09,121.43-7.35c49.37-6.49,97.15-21.32,134.53-41.75c38.03-20.79,64.59-46.88,76.81-75.43
					c13.94-32.59,10.06-61.74,5.96-92.6c-3.96-29.8-8.06-60.62,2.41-98.16c1.45-5.22,3.1-10.34,4.89-15.22
					c22-59.34,83.9-121.9,184-185.94c7.7-4.93,15.4-9.79,23.07-14.63c48.2-30.43,93.72-59.18,130.54-97.07
					c14.7-15.05,27.18-30.72,38.15-47.9c76.24-119.47,40.42-286.11-79.85-371.46l3.22-4.55c122.66,87.05,159.13,257.07,81.32,379
					c-11.18,17.51-23.88,33.47-38.85,48.8c-37.28,38.37-83.07,67.28-131.56,97.9c-7.66,4.84-15.36,9.69-23.04,14.61
					C822.11,2.8,760.95,64.43,739.39,122.6c-1.76,4.8-3.32,9.64-4.76,14.8c-10.17,36.44-6.14,66.68-2.25,95.93
					c4.21,31.64,8.18,61.52-6.36,95.52c-12.71,29.72-40.12,56.74-79.26,78.13c-37.97,20.75-86.44,35.81-136.47,42.39
					c-40.51,5.29-81.95,6.36-122.02,7.39c-56.4,1.45-109.67,2.82-161.09,14.88C114.44,498.09,38.34,570.02-42.22,646.16
					c-33.32,31.49-67.78,64.06-105.55,93.89c-35.31,27.88-71.29,53.17-106.09,77.62c-42.4,29.79-82.44,57.93-115.55,86.85
					c-64.92,56.7-98.66,117.95-106.17,192.75c-4.71,46.92-0.26,137.69,82.48,218.44c32.1,31.33,75.97,58.96,130.38,82.12
					c22.34,9.53,44.92,18.02,66.75,26.23c25.21,9.48,49.01,18.44,72.69,28.92c42.06,18.7,79.96,40.88,112.64,65.91
					c117.57,89.75,191.76,228.33,208.9,390.2c2.19,20.29,3.43,41.07,3.7,61.77C203.76,2129.77,153.2,2299.21,51.68,2474.49z"/>
			</g>
			<g class="st18">
				<path class="st3" d="M2.63,2473.68l-4.74-2.91c105.05-170.7,161.63-334.03,168.16-485.44c0.84-20.16,0.74-40.46-0.3-60.35
					c-8.07-159.62-73.02-297.98-182.89-389.61c-30.51-25.51-66.41-48.53-106.7-68.41c-24.66-12.1-49.69-22.53-76.19-33.56
					c-19.11-7.96-38.87-16.19-58.48-25.11c-53.45-24.26-96.88-51.84-129.11-81.96c-81.12-75.85-97.57-159.95-97.09-217.14
					c0.66-78.53,29.85-143.25,91.87-203.7c38.41-37.44,87.7-73.25,139.88-111.16c24.69-17.94,50.22-36.49,75.5-55.87
					c31.49-24.15,61.5-49.88,90.52-74.77C2.69,586.8,87.37,514.18,208.46,490c49.53-9.9,102.32-10.81,153.37-11.7
					c43.76-0.76,89.01-1.55,133.01-7.86c49.67-7.16,97.52-23.53,134.74-46.1c38.05-23.08,63.6-51.67,73.87-82.7
					c11.71-35.39,4.48-66.83-3.18-100.12c-7.38-32.06-15.01-65.22-6.75-104.83c1.13-5.44,2.5-10.81,4.07-15.98
					c24.3-79.05,113.42-146.23,183.9-188.67c10.41-6.26,20.85-12.39,31.24-18.5c47.27-27.77,91.93-54,128.99-89.04
					c15.69-14.77,29-30.17,40.7-47.09c81.47-117.89,47.32-289.05-74.57-373.76l3.18-4.57c124.37,86.42,159.16,261.13,75.97,381.49
					c-11.92,17.25-25.48,32.94-41.45,47.98c-37.52,35.46-82.43,61.85-129.99,89.79c-10.37,6.1-20.8,12.22-31.19,18.47
					C814.71-21.26,726.7,44.96,702.91,122.33c-1.52,5-2.85,10.21-3.95,15.49c-8.01,38.42-0.52,70.97,6.72,102.45
					c7.84,34.08,15.25,66.26,3.04,103.13c-10.7,32.3-37.07,61.94-76.27,85.71c-37.84,22.95-86.44,39.59-136.83,46.85
					c-44.35,6.36-89.77,7.14-133.7,7.91c-53.14,0.92-103.34,1.79-152.37,11.59C89.89,519.36,5.75,591.51-83.33,667.91
					c-29.08,24.94-59.15,50.72-90.76,74.96c-25.34,19.43-50.89,38-75.61,55.96c-52.01,37.79-101.14,73.49-139.26,110.65
					c-60.88,59.33-89.54,122.81-90.19,199.75c-0.47,56.08,15.68,138.56,95.33,213.03c31.78,29.72,74.72,56.95,127.61,80.96
					c19.53,8.88,39.25,17.1,58.32,25.03c26.58,11.07,51.69,21.53,76.51,33.71c40.7,20.08,76.97,43.34,107.82,69.13
					c111.08,92.63,176.74,232.42,184.88,393.6c1.05,20.06,1.15,40.54,0.3,60.87C165.04,2137.94,108.19,2302.17,2.63,2473.68z"/>
			</g>
			<g class="st19">
				<path class="st3" d="M-46.42,2472.88l-4.66-3.04c111.1-169.77,172.21-323.56,186.82-470.14c1.95-19.78,2.98-39.78,3.07-59.45
					c0.97-158.85-55.52-298.36-159.05-392.83c-29.13-26.65-62.45-50.06-101.9-71.57c-26.13-14.2-52.88-26.45-81.19-39.43
					c-15.95-7.31-32.43-14.87-48.79-22.79c-52.72-25.52-93.98-51.91-126.13-80.66c-82.58-73.88-105.42-155.69-110.03-211.32
					c-6.67-80.39,17.37-147.43,75.67-210.98c44.42-48.43,106.16-93.81,171.51-141.85c12.36-9.08,24.85-18.26,37.37-27.58
					c23.14-17.21,45.99-35.11,68.08-52.42C-34.98,609.92,60.1,535.42,191.02,513.78c47-7.77,96.59-8.16,144.54-8.53
					c47.59-0.38,96.79-0.76,144.56-8.2c50-7.83,97.93-25.75,134.95-50.45c38.07-25.4,62.6-56.52,70.95-89.99
					c9.55-38.3-1.11-72.14-12.39-107.97c-10.78-34.24-21.92-69.64-15.86-111.19c0.79-5.56,1.89-11.18,3.25-16.72
					C681.98,36.71,772.53-29.72,844.81-70.66c12.87-7.28,25.83-14.34,38.72-21.37c46.66-25.43,90.74-49.45,128.14-82
					c16.68-14.46,30.82-29.6,43.25-46.28c40.57-54.47,57.06-126,45.25-196.24c-12.28-73.08-54.04-138.62-114.56-179.81l3.13-4.6
					c61.77,42.04,104.38,108.92,116.92,183.49c12.06,71.73-4.81,144.8-46.28,200.49c-12.67,17.01-27.08,32.43-44.06,47.16
					c-37.85,32.95-82.19,57.1-129.12,82.68c-12.87,7.01-25.8,14.06-38.64,21.33C776.22-25.42,686.9,39.97,666.43,122.07
					c-1.32,5.34-2.38,10.78-3.14,16.17c-5.88,40.3,5.07,75.09,15.66,108.72c11.52,36.6,22.41,71.17,12.48,110.99
					c-8.69,34.84-34.03,67.09-73.27,93.27c-37.68,25.14-86.4,43.36-137.18,51.32c-48.17,7.51-97.59,7.89-145.37,8.27
					c-47.74,0.37-97.1,0.76-143.67,8.46C62.42,540.68-32.12,614.75-132.2,693.18c-22.12,17.33-44.99,35.26-68.19,52.51
					c-12.53,9.32-25.03,18.5-37.4,27.6c-65.13,47.88-126.65,93.1-170.71,141.13c-57.17,62.33-80.76,128.02-74.23,206.76
					c4.53,54.61,26.98,134.97,108.2,207.62c31.75,28.41,72.59,54.51,124.84,79.81c16.3,7.91,32.76,15.45,48.68,22.74
					c28.4,13.02,55.23,25.32,81.53,39.61c39.29,21.43,73.94,45.77,102.99,72.35c104.71,95.55,161.84,236.53,160.86,396.97
					c-0.09,19.85-1.13,40.03-3.1,59.98C126.58,2147.75,65.18,2302.35-46.42,2472.88z"/>
			</g>
			<g class="st20">
				<path class="st3" d="M-95.47,2472.08l-4.57-3.19c117.85-169.18,183.14-313.71,205.49-454.84c3.05-19.4,5.22-39.09,6.44-58.56
					c9.98-155.73-39.31-300.09-135.22-396.06c-27.31-27.39-59.07-51.84-97.09-74.73c-27.99-16.8-56.91-31.3-87.54-46.66
					c-12.5-6.27-25.11-12.59-37.75-19.12c-52.19-26.95-91.32-52.17-123.14-79.36c-84.68-72.38-113.61-151.69-122.96-205.48
					c-14.04-80.78,5.4-152.17,59.46-218.26c47.93-58.6,120.01-112.5,202.39-171.83c10.82-7.79,21.58-15.62,32.33-23.43
					c115.85-84.25,225.28-163.83,371.21-183c44.38-5.83,90.75-5.7,135.64-5.55c51.42,0.17,104.64,0.31,156.17-8.36
					c50.34-8.5,98.34-27.96,135.18-54.8c38.07-27.73,61.6-61.38,68.04-97.29c7.42-41.38-6.7-77.73-21.65-116.22
					c-14.1-36.28-28.67-73.79-24.91-117.12c0.49-5.83,1.31-11.71,2.42-17.46c18.35-93.56,122.95-161.76,183.66-194.1
					c15.09-8.03,30.56-15.83,45.52-23.38c46.34-23.36,90.11-45.42,127.96-75.82c17.66-14.13,32.64-29.01,45.8-45.48
					c43.34-54.24,61.84-126.31,50.74-197.72c-11.47-73.8-53.3-139.64-114.77-180.63l3.09-4.63
					c62.76,41.86,105.48,109.08,117.19,184.41c11.34,72.95-7.57,146.59-51.89,202.06c-13.42,16.79-28.69,31.95-46.67,46.34
					c-38.3,30.76-84.38,53.99-128.93,76.45c-14.93,7.53-30.38,15.31-45.41,23.32C750.9-36.57,647.83,30.52,629.93,121.81
					c-1.08,5.56-1.86,11.23-2.34,16.87c-3.65,42.04,10.69,78.95,24.56,114.63c15.24,39.24,29.64,76.3,21.94,119.22
					c-6.7,37.36-31,72.22-70.25,100.82c-37.51,27.33-86.35,47.14-137.53,55.79c-52,8.75-105.44,8.61-157.12,8.44
					c-44.67-0.14-90.88-0.27-134.9,5.51C29.78,562.05-79.1,641.23-194.36,725.05c-10.75,7.82-21.53,15.65-32.34,23.45
					c-82.05,59.11-153.84,112.76-201.33,170.84c-52.97,64.77-72.03,134.69-58.28,213.78c9.19,52.89,37.66,130.9,121.09,202.21
					c31.49,26.91,70.28,51.9,122.08,78.65c12.62,6.53,25.21,12.84,37.69,19.1c30.72,15.4,59.74,29.95,87.91,46.86
					c38.42,23.14,70.53,47.86,98.16,75.57c97.04,97.1,146.91,243.03,136.83,400.35c-1.23,19.62-3.41,39.5-6.49,59.07
					C88.47,2156.92,22.88,2302.18-95.47,2472.08z"/>
			</g>
			<g class="st21">
				<path class="st3" d="M-144.53,2471.28l-4.47-3.32c84.46-113.78,186.26-266.57,224.16-439.54c4.15-19.04,7.45-38.45,9.8-57.66
					c19.11-154.86-21.49-300.4-111.39-399.3c-25.53-28.14-55.72-53.62-92.29-77.89c-30.44-20.15-62.29-37.51-96-55.88
					c-8.16-4.45-16.37-8.92-24.59-13.45c-35.04-19.3-80.37-45.62-120.15-78.06c-70.3-57.32-116.01-124.5-135.87-199.66
					c-21.64-81.91-7.5-155.67,43.23-225.52c49.17-67.7,130.52-128.68,195.89-174.25C-128.57,657.8-1,576.69,156.14,561.34
					c41.62-4.06,84.79-3.43,126.52-2.79c55.4,0.83,112.68,1.69,168.01-8.31c50.52-9.15,98.61-30.16,135.4-59.14
					c38.07-30.22,60.6-66.4,65.14-104.63c5.3-44.55-12.36-83.49-31.06-124.7c-17.35-38.25-35.29-77.79-33.84-122.8
					c0.19-6.06,0.72-12.18,1.6-18.2C602.4,22.18,709.12-44.86,771.45-76.05c17.12-8.56,34.76-16.77,51.81-24.7
					c44.2-20.56,89.9-41.82,128.29-70.32c18.67-13.82,34.49-28.43,48.35-44.67c46.15-54.02,66.64-126.65,56.23-199.27
					c-10.68-74.49-52.6-140.6-114.99-181.39l3.04-4.67c63.74,41.67,106.55,109.19,117.46,185.26
					c10.64,74.2-10.32,148.44-57.51,203.68c-14.14,16.56-30.26,31.44-49.27,45.52c-38.84,28.82-84.8,50.21-129.26,70.89
					c-17.02,7.92-34.62,16.11-51.67,24.63c-49.4,24.72-165.87,92.96-180.51,192.63c-0.84,5.8-1.36,11.72-1.54,17.57
					c-1.42,43.71,16.25,82.66,33.34,120.32c18.19,40.1,37,81.56,31.52,127.66c-4.72,39.73-27.97,77.19-67.22,108.34
					c-37.51,29.55-86.47,50.95-137.87,60.26c-55.87,10.09-113.43,9.24-169.08,8.4c-41.58-0.62-84.58-1.27-125.9,2.77
					C0.88,582.1-126.02,662.81-253.02,751.32c-65.02,45.32-145.89,105.93-194.57,172.95c-49.68,68.4-63.53,140.63-42.35,220.82
					c19.55,74.01,64.63,140.22,134,196.77c39.44,32.16,84.48,58.31,119.32,77.51c8.22,4.53,16.41,8.99,24.57,13.44
					c33.82,18.43,65.77,35.84,96.41,56.13c36.96,24.53,67.49,50.3,93.33,78.79c90.99,100.1,132.1,247.26,112.79,403.72
					c-2.37,19.38-5.7,38.95-9.89,58.17C42.47,2203.62-59.74,2357.05-144.53,2471.28z"/>
			</g>
			<g class="st22">
				<path class="st3" d="M-193.59,2470.48l-4.37-3.46c94.59-119.43,197.4-263.23,242.83-424.22c5.25-18.67,9.68-37.76,13.17-56.76
					c28.35-153.9-3.57-300.62-87.57-402.55c-23.78-28.9-52.4-55.41-87.49-81.06c-33.67-24.57-69.46-45.59-107.33-67.84l-8.57-5.04
					c-39.15-23.01-80.44-48.24-117.16-76.76c-73.33-56.95-123.38-122.17-148.75-193.86c-28.86-81.55-19.78-159.86,26.99-232.76
					c37.37-58.23,99.32-116.02,189.39-176.67c96.77-65.16,245.71-153.09,421.13-164.38c38.69-2.5,78.54-1.37,117.07-0.28
					c59.47,1.67,120.96,3.41,180.19-8.01c50.21-9.69,99.64-32.84,135.63-63.49c38.12-32.62,59.64-71.33,62.25-111.97
					c3.25-47.85-18.05-89.44-40.6-133.48c-20.55-40.12-41.8-81.61-42.62-128.19c-0.12-6.31,0.14-12.68,0.77-18.94
					c10.9-107.41,131.89-175.3,183.39-199.5c19-8.92,38.67-17.35,57.68-25.49c44.27-18.96,90.04-38.55,129.04-65.35
					c19.8-13.57,36.45-27.92,50.91-43.85c48.98-53.65,71.52-126.75,61.83-200.57c-9.88-75.29-51.91-141.78-115.32-182.42l3-4.69
					c64.8,41.53,107.75,109.46,117.84,186.38c9.9,75.45-13.15,150.18-63.24,205.04c-14.75,16.25-31.72,30.88-51.88,44.7
					c-39.45,27.11-85.48,46.82-130,65.88c-18.98,8.13-38.6,16.53-57.51,25.41c-50.65,23.81-169.61,90.45-180.22,195.02
					c-0.61,6.04-0.85,12.19-0.74,18.28c0.8,45.29,21.75,86.2,42.01,125.76c21.91,42.77,44.56,87,41.2,136.38
					c-2.7,42.15-24.9,82.21-64.19,115.83c-36.71,31.26-87.07,54.85-138.2,64.73c-59.83,11.53-121.63,9.79-181.4,8.11
					c-38.4-1.08-78.12-2.2-116.55,0.27c-174.07,11.2-322.14,98.65-418.38,163.44c-89.43,60.21-150.86,117.48-187.82,175.06
					c-45.8,71.37-54.69,148.04-26.43,227.88c25.01,70.67,74.44,135.04,146.92,191.33c36.46,28.32,77.57,53.43,116.56,76.35
					l8.56,5.03c38.01,22.33,73.9,43.41,107.8,68.15c35.47,25.93,64.42,52.75,88.5,82.01c85.04,103.2,117.39,251.58,88.74,407.1
					c-3.51,19.17-7.98,38.43-13.29,57.27C4.54,2206.24-98.66,2350.61-193.59,2470.48z"/>
			</g>
			<g class="st23">
				<path class="st3" d="M-242.65,2469.68l-4.25-3.6c98.01-115.82,207.13-252.49,261.51-408.91c6.35-18.29,11.92-37.08,16.54-55.87
					c37.67-152.84,14.43-300.75-63.75-405.8c-22.05-29.66-49.1-57.2-82.69-84.22c-34.67-27.86-72.39-52.05-111.21-76.42l-5.29-3.32
					c-36.47-22.87-74.18-46.52-108.86-72.12c-77.22-57.01-131.6-120.29-161.64-188.09c-36.35-82.04-32.74-162.77,10.75-239.95
					c35.71-63.38,97.24-123.64,182.89-179.1c95.54-62.23,247.69-137.62,429.92-143.35c35.53-1.13,71.92,0.44,107.11,1.94
					c63.73,2.72,129.63,5.54,192.87-7.42c50.64-10.39,100.17-35.12,135.88-67.84c38.03-34.94,58.56-76.2,59.35-119.33
					c1.04-51.17-25.07-97.48-50.32-142.27c-23.67-41.99-48.16-85.41-51.23-133.57c-0.42-6.55-0.45-13.16-0.06-19.67
					C521.51,8.26,645.21-58.11,698.09-81.41c20.72-9.14,42.29-17.62,63.15-25.82c44.49-17.49,90.5-35.57,130.19-60.85
					c20.75-13.2,38.24-27.28,53.47-43.05c51.83-53.5,76.36-127.27,67.29-202.39c-9.16-75.86-51.26-142.53-115.51-182.9l2.96-4.71
					c65.68,41.27,108.72,109.41,118.07,186.94c9.27,76.79-15.81,152.22-68.81,206.93c-15.53,16.09-33.36,30.44-54.48,43.88
					c-40.15,25.57-86.41,43.75-131.15,61.33c-20.81,8.18-42.32,16.64-62.94,25.72C648.4-53.43,526.89,11.65,520.4,121.09
					c-0.37,6.28-0.35,12.66,0.06,18.98c2.99,46.89,27.15,89.75,50.52,131.19c25.62,45.44,52.12,92.43,51.04,145.11
					c-0.83,44.69-21.98,87.34-61.16,123.33c-36.43,33.39-86.92,58.61-138.52,69.2c-63.9,13.09-130.15,10.27-194.22,7.53
					c-35.09-1.5-71.36-3.06-106.7-1.94c-180.94,5.69-332.11,80.61-427.06,142.46c-84.89,54.97-145.8,114.58-181.07,177.16
					c-42.58,75.57-46.12,154.62-10.51,234.97c29.64,66.9,83.43,129.43,159.86,185.86c34.51,25.47,72.13,49.07,108.52,71.88l5.3,3.32
					c38.97,24.47,76.84,48.75,111.74,76.8c33.97,27.32,61.33,55.2,83.67,85.23c79.18,106.39,102.76,255.99,64.69,410.46
					c-4.66,18.95-10.27,37.92-16.68,56.36C-34.83,2216.32-144.32,2353.47-242.65,2469.68z"/>
			</g>
			<g>
				<path class="st3" d="M-291.72,2468.88l-4.13-3.74c117.89-130.18,220.35-249.66,280.2-393.61
					c68.66-165.13,60.98-342.94-20.04-464.03c-55.52-82.99-141.78-139.57-225.19-194.29c-23.29-15.28-47.38-31.08-70.38-47.19
					c-216.04-151.31-226.02-294.97-196.36-388.85C-467.57,787.12-184.84,632.71,102.89,632h0.92c32.11,0.75,64.86,2.67,96.52,4.53
					c68.22,4,138.76,8.13,206.17-6.48c95.02-20.6,194.81-97.31,192.58-198.9c-1.19-54.53-31.19-103.67-60.19-151.19
					c-30.36-49.74-61.75-101.16-60.58-159.19C480.73-0.12,619.07-66.61,661.41-84.1c22.33-9.23,45.69-17.63,68.29-25.76
					c67.19-24.17,136.67-49.17,187.7-98.96c54.71-53.39,81.23-127.85,72.76-204.3c-8.47-76.4-50.64-143.22-115.71-183.33l2.92-4.74
					c66.54,41.02,109.67,109.35,118.33,187.46c8.66,78.16-18.46,154.3-74.41,208.89c-51.9,50.65-121.96,75.85-189.7,100.22
					c-22.54,8.11-45.84,16.49-68.05,25.66c-41.55,17.17-177.3,82.32-179.66,199.83c-1.13,56.4,29.83,107.13,59.77,156.18
					c29.39,48.15,59.78,97.94,61.01,153.97c2.29,104.57-99.77,183.39-196.97,204.46c-68.16,14.77-139.09,10.62-207.68,6.6
					c-31.59-1.85-64.25-3.76-96.2-4.08h-0.92c-285.49,0.28-565.82,152.93-625.2,340.86c-29.1,92.1-19.03,233.24,194.24,382.62
					c22.93,16.06,46.99,31.84,70.25,47.09c83.88,55.02,170.62,111.92,226.77,195.84c82.04,122.62,89.92,302.43,20.55,469.27
					C-70.7,2218.44-173.47,2338.3-291.72,2468.88z"/>
			</g>
		</g>
		<g style="clip-path:url(#SVGID_00000005989653996268793060000007389037675083245458_);">
			<g class="st2">
				<path class="st3" d="M265.88,1873.89c-38.21-152.99-9.13-311.79,77.8-424.81c94.67-123.09,257.87-181.66,396.87-142.49
					c108.87,30.7,192.84,112.59,274.03,191.8c12.89,12.57,25.73,25.09,38.62,37.37c125.3,119.32,236.63,170.89,340.36,157.57
					c109.11-13.99,186.73-92.76,268.91-176.15c70.83-71.88,144.08-146.21,239.11-174.21c112.78-33.23,235.05,6.23,339.78,49.19
					c10.93,4.49,21.88,9.05,32.85,13.62c96.13,40.05,195.48,81.53,299.15,77.27c114.3-4.63,236.26-87.3,235.64-203
					c-0.32-59.34-34.6-122.07-94.05-172.1c-36.12-30.4-77.85-54.55-118.21-77.92c-17.79-10.3-36.19-20.95-53.9-32.02
					c-116.4-72.69-217.8-174.54-293.24-294.52s-123.28-255.51-138.35-391.91c-15.06-136.4,2.04-279.09,49.47-412.66
					c47.43-133.56,124.16-255.09,221.88-351.43l3.91,3.97c-196.7,193.93-300.05,484.95-269.73,759.51
					c30.33,274.56,194.71,536.01,428.99,682.33c17.63,11.01,35.99,21.64,53.74,31.92c40.57,23.48,82.52,47.77,119.01,78.47
					c60.71,51.08,95.71,115.36,96.04,176.33c0.64,118.92-124.09,203.87-240.99,208.6c-104.84,4.3-204.83-37.4-301.51-77.7
					c-10.97-4.57-21.91-9.12-32.83-13.6c-103.84-42.61-224.96-81.74-336.1-49.01c-93.65,27.6-166.38,101.4-236.71,172.78
					c-79.23,80.39-161.15,163.53-272.17,177.77c-105.51,13.54-218.31-38.5-344.91-159.06c-12.9-12.29-25.76-24.83-38.67-37.41
					c-80.7-78.71-164.15-160.11-271.66-190.42c-136.85-38.6-297.62,19.19-390.94,140.52c-85.9,111.67-114.61,268.71-76.81,420.06
					L265.88,1873.89z"/>
			</g>
			<g class="st4">
				<path class="st3" d="M284.92,1885.47c-34.09-129.01-15.23-268.84,50.45-374.04c10.52-16.93,22.29-33.14,34.98-48.17
					c38-45.06,88.4-82.46,145.74-108.14c77.29-34.63,162.13-46.62,238.9-33.74c5.41,0.9,10.89,1.96,16.27,3.15
					c87.75,19.49,154.88,71.14,216.12,122.36c19.35,16.11,39.12,33.36,58.24,50.05c10.38,9.06,20.8,18.16,31.28,27.19
					c37.5,32.43,71.73,58.94,104.66,81.06c87.75,58.96,166.02,84.1,239.39,76.83c108.19-10.72,186.25-85.47,268.89-164.61
					c70.22-67.25,142.82-136.78,235.68-163.25c110.58-31.34,226.45,2.53,335.19,43.8c8.84,3.33,17.69,6.7,26.55,10.08
					c95.6,36.41,194.42,74.09,295.37,66.41c108.94-8.27,224.06-92.56,221.79-204.84c-1.61-79.57-58.49-140.43-92.26-169.62
					c-34.78-30.07-74.78-54.31-113.47-77.76c-17.45-10.57-35.49-21.5-52.83-32.83c-49.08-32.09-95.32-69.56-137.43-111.37
					c-151.62-150.46-248.62-356.69-266.14-565.8c-2.43-28.85-3.4-58.32-2.88-87.6c4.29-244.7,108.07-482.01,284.72-651.07l3.85,4.02
					c-175.59,168.04-278.74,403.92-283.01,647.15c-0.51,29.09,0.45,58.38,2.86,87.04c17.42,207.82,113.83,412.77,264.52,562.32
					c41.85,41.54,87.79,78.77,136.56,110.65c17.26,11.28,35.26,22.19,52.67,32.74c38.89,23.56,79.1,47.93,114.23,78.3
					c34.46,29.8,92.53,91.99,94.18,173.72c2.41,119.19-115.92,202.07-226.93,210.5c-102.2,7.71-201.61-30.13-297.77-66.76
					c-8.85-3.37-17.7-6.74-26.53-10.07c-107.85-40.93-222.68-74.56-331.7-43.66c-91.52,26.09-163.62,95.14-233.35,161.91
					c-79.69,76.31-162.09,155.23-272.2,166.14c-74.69,7.41-154.18-18.03-243.05-77.75c-33.12-22.24-67.53-48.89-105.19-81.47
					c-10.49-9.04-20.92-18.14-31.31-27.21c-19.09-16.67-38.83-33.9-58.14-49.97c-60.72-50.8-127.23-101.99-213.76-121.21
					c-5.29-1.17-10.66-2.21-15.98-3.1c-75.7-12.69-159.41-0.85-235.7,33.33c-56.59,25.34-106.3,62.23-143.77,106.65
					c-12.52,14.83-24.13,30.82-34.51,47.52c-64.89,103.93-83.51,242.12-49.8,369.68L284.92,1885.47z"/>
			</g>
			<g class="st5">
				<path class="st3" d="M303.95,1897.04c-35.61-127.86-14.04-270.96,56.29-373.47c11.32-16.5,23.69-32.02,36.78-46.14
					c39.46-42.65,89.66-76.65,149.21-101.07c76.07-31.2,163.47-44.33,239.78-36.01c5.34,0.57,10.7,1.28,15.94,2.1
					c82.4,13.13,140.45,51.67,207.78,100.67c25.47,18.55,51.25,38.59,78.53,59.8l12.33,9.59c39.62,30.98,74.71,56.33,107.26,77.5
					c58.06,37.78,146.09,87.3,240.5,80.71c107.29-7.46,185.87-78.19,269.05-153.08c69.54-62.61,141.45-127.34,232.07-152.29
					c107.72-29.3,222.54,1.15,330.58,38.42l16.14,5.58c96.43,33.4,196.15,67.94,295.69,56.5
					c103.12-11.84,211.94-94.23,207.95-206.67c-2.77-77.91-57.87-138.17-90.47-167.15c-33.4-29.72-71.66-54-108.65-77.49
					c-17.13-10.87-34.84-22.12-51.84-33.76c-47.4-32.48-91.69-70.03-131.66-111.61c-143.65-149.36-232.56-352.11-243.91-556.28
					c-1.57-28.04-1.73-56.66-0.45-85.07c10.67-236.48,117.39-465.45,292.77-628.18l3.79,4.08
					c-174.32,161.75-280.39,389.32-291,624.35c-1.27,28.22-1.11,56.66,0.45,84.51c11.29,202.85,99.62,404.32,242.37,552.73
					c39.7,41.31,83.7,78.61,130.79,110.89c16.91,11.58,34.59,22.8,51.68,33.65c37.18,23.61,75.63,48.02,109.37,78.03
					c33.26,29.58,89.49,91.14,92.33,171.12c4.11,115.62-107.3,200.28-212.87,212.4c-100.82,11.55-201.13-23.17-298.15-56.77
					l-16.13-5.58c-107.19-36.98-221.05-67.21-327.29-38.31c-89.34,24.59-160.75,88.88-229.82,151.05
					c-80.23,72.23-163.18,146.9-272.39,154.5c-96.01,6.71-185.19-43.38-243.92-81.61c-32.69-21.26-67.9-46.7-107.64-77.78
					l-12.33-9.58c-27.25-21.18-52.99-41.19-78.39-59.69c-66.71-48.57-124.2-86.74-205.37-99.67c-5.14-0.81-10.41-1.51-15.67-2.07
					c-75.42-8.21-161.83,4.77-237.07,35.63c-58.8,24.1-108.34,57.65-147.24,99.7c-12.91,13.91-25.11,29.23-36.28,45.51
					c-69.43,101.19-90.7,242.52-55.52,368.83L303.95,1897.04z"/>
			</g>
			<g class="st6">
				<path class="st3" d="M322.99,1908.62c-37.76-129.08-13.96-271.98,62.13-372.91c12.01-15.93,24.99-30.77,38.59-44.1
					c40.23-39.57,91.6-71.19,152.68-93.98c75.2-28.07,162.94-42.05,240.67-38.28c5.27,0.24,10.47,0.59,15.6,1.06
					c78.86,7.37,130.15,36.06,199.42,78.98c25.57,15.84,54.87,35.39,92.24,61.52c34.51,24.14,71.42,49.74,109.86,73.94
					c69.49,43.81,152.57,88.12,241.59,84.6c106.32-4.2,185.39-70.88,269.11-141.48c68.88-58.08,140.1-118.14,228.57-141.38
					c109.71-28.83,225.79,1.94,325.97,33.03l5.08,1.58c102.04,31.69,198.42,61.64,296.65,46.11
					c99.86-15.77,199.76-98.08,194.11-208.52c-3.9-76.23-57.23-135.9-88.67-164.68c-32.01-29.32-68.5-53.63-103.78-77.14
					c-16.83-11.21-34.23-22.8-50.89-34.78c-45.7-32.88-88.05-70.52-125.88-111.86c-137.73-150.41-216.45-344.58-221.68-546.75
					c-0.72-27.26-0.05-55.04,1.99-82.56c17-228.2,126.65-448.82,300.83-605.29l3.72,4.14c-173.12,155.52-282.1,374.78-298.99,601.55
					c-2.03,27.33-2.69,54.92-1.97,82c5.19,200.83,83.4,393.72,220.22,543.14c37.57,41.07,79.64,78.45,125.03,111.1
					c16.58,11.92,33.94,23.48,50.73,34.67c35.46,23.63,72.12,48.06,104.45,77.66c32.07,29.36,86.47,90.29,90.47,168.51
					c5.81,113.57-96.51,198.15-198.8,214.31c-99.52,15.7-196.5-14.41-299.17-46.29l-5.08-1.58
					c-99.44-30.87-214.59-61.42-322.9-32.97c-87.25,22.92-157.99,82.57-226.4,140.26c-84.47,71.23-164.25,138.51-272.48,142.79
					c-90.51,3.52-174.57-41.18-244.78-85.46c-38.54-24.27-75.51-49.9-110.08-74.08c-37.28-26.08-66.51-45.58-91.98-61.36
					c-68.59-42.5-119.36-70.91-196.99-78.16c-5.03-0.45-10.15-0.81-15.35-1.04c-77.02-3.71-163.94,10.12-238.46,37.94
					c-60.34,22.51-111.05,53.71-150.72,92.74c-13.4,13.15-26.2,27.77-38.04,43.48c-75.05,99.56-98.52,240.57-61.24,368
					L322.99,1908.62z"/>
			</g>
			<g class="st7">
				<path class="st3" d="M342.03,1920.2c-39.4-128.57-12.71-274.73,67.98-372.34c12.67-15.32,26.26-29.48,40.39-42.06
					c40.84-36.5,93.37-65.74,156.13-86.91c72.8-24.57,160.84-39.35,241.54-40.54c5.18-0.09,10.27-0.09,15.25,0.02
					c76.96,1.85,123.51,22.87,191.04,57.26c27.51,14.02,59.02,32.08,93.63,53.68c12.38,7.73,25.17,15.81,38.25,24.06
					c24.11,15.22,49.03,30.96,74.21,46.31c70.82,43.24,153.75,89.32,242.7,88.48c105.47-0.97,185.22-63.62,269.65-129.93
					c68.08-53.48,138.48-108.78,224.58-130.45c106.28-26.73,217.02-0.99,321.35,27.65c91.03,25,194.21,53.35,291.64,33.29
					c92.98-19.12,187.76-99.35,180.28-210.36c-3.72-55.26-34.58-112.88-86.88-162.22c-30.59-28.88-65.27-53.15-98.8-76.63
					c-16.56-11.6-33.69-23.59-50.06-35.95c-44.01-33.3-84.42-71.02-120.1-112.12c-129.74-149.24-200.57-340.03-199.44-537.23
					c0.13-26.46,1.62-53.38,4.42-80.03c23.26-219.84,135.84-432.11,308.87-582.39l3.65,4.21
					c-171.98,149.36-283.87,360.31-306.99,578.77c-2.78,26.46-4.26,53.2-4.39,79.48c-1.12,195.84,69.22,385.32,198.08,533.54
					c35.43,40.81,75.56,78.27,119.26,111.33c16.28,12.3,33.37,24.26,49.89,35.83c33.7,23.59,68.55,47.99,99.43,77.15
					c53.33,50.31,84.79,109.23,88.61,165.9c7.69,114.16-89.43,196.59-184.72,216.19c-98.74,20.31-202.6-8.22-294.23-33.38
					c-103.62-28.46-213.56-54.03-318.51-27.62c-84.96,21.37-154.88,76.3-222.5,129.42c-85.19,66.92-165.67,130.13-273.04,131.12
					c-0.79,0.01-1.6,0.01-2.39,0.01c-89.45,0.01-172.41-46.05-243.26-89.31c-25.21-15.38-50.16-31.12-74.28-46.35
					c-13.07-8.25-25.85-16.32-38.23-24.05c-34.48-21.52-65.84-39.49-93.21-53.44c-66.82-34.03-112.87-54.83-188.64-56.65
					c-4.91-0.1-9.93-0.11-15.04-0.02c-80.15,1.19-167.57,15.86-239.85,40.25c-62.05,20.93-113.93,49.79-154.21,85.79
					c-13.93,12.4-27.32,26.34-39.81,41.45c-79.53,96.22-105.81,240.34-66.95,367.17L342.03,1920.2z"/>
			</g>
			<g class="st8">
				<path class="st3" d="M361.06,1931.77c-41.68-130.24-12.7-276.17,73.83-371.77c13.32-14.72,27.52-28.18,42.2-40.03
					c41.82-33.89,94.03-60,159.59-79.82c91.42-27.67,191.12-38.69,242.4-42.79c5.08-0.42,10.05-0.78,14.91-1.03
					c78.51-4.01,120.55,10.9,182.64,35.54c28.17,11.18,61.04,27.03,95.05,45.82c31.56,17.44,66.46,38.07,100.22,58.02l14.86,8.78
					c80.57,47.64,159.84,90.56,243.8,92.37c104.77,2.26,185.25-56.34,270.52-118.38c67.17-48.88,136.63-99.41,220.26-119.51
					c110.81-26.62,229.82,1.63,316.72,22.27c101.21,24.03,192.27,42.05,281.53,18.91c89.63-23.22,175.59-103.58,166.47-212.22
					c-4.54-54.02-34.75-110.76-85.09-159.76c-29.16-28.41-62.03-52.62-93.82-76.04c-16.3-12.01-33.16-24.42-49.23-37.2
					c-42.31-33.73-80.78-71.54-114.33-112.38c-121.81-148.04-184.74-335.45-177.2-527.7c0.98-25.67,3.29-51.75,6.86-77.51
					c29.44-211.41,144.95-415.33,316.92-559.48l3.58,4.26c-170.92,143.28-285.73,345.92-314.99,555.98
					c-3.55,25.57-5.84,51.47-6.81,76.96c-7.49,190.89,55,376.96,175.94,523.95c33.3,40.54,71.48,78.08,113.49,111.56
					c15.98,12.71,32.8,25.1,49.06,37.08c31.94,23.53,64.97,47.85,94.41,76.53c51.3,49.94,82.11,107.93,86.75,163.28
					c9.38,111.71-78.73,194.27-170.62,218.08c-90.51,23.43-182.27,5.32-284.22-18.89c-91.16-21.65-204.61-48.6-314.13-22.27
					c-82.55,19.84-151.56,70.04-218.29,118.6c-86.05,62.61-167.2,121.69-273.92,119.44c-85.31-1.84-165.29-45.11-246.52-93.14
					l-14.86-8.78c-33.72-19.93-68.59-40.54-100.08-57.94c-33.8-18.68-66.45-34.42-94.41-45.52
					c-61.39-24.37-102.96-39.07-180.3-35.16c-4.8,0.25-9.71,0.6-14.74,1.02c-51.07,4.09-150.32,15.06-241.24,42.58
					c-64.86,19.61-116.44,45.39-157.7,78.83c-14.47,11.66-28.45,24.92-41.57,39.43c-83.91,92.72-113.11,239.94-72.65,366.34
					L361.06,1931.77z"/>
			</g>
			<g class="st9">
				<path class="st3" d="M380.1,1943.35c-43.36-130.05-11.34-279.22,79.68-371.2c13.95-14.09,28.76-26.87,44.01-37.99
					c42.04-30.8,95.37-54.6,163.03-72.75c75.79-20.36,162.77-33.17,232.66-43.47l10.61-1.57c4.99-0.75,9.83-1.45,14.56-2.06
					c73.09-9.39,109.19-4.54,174.21,13.82c28.51,8.06,61.88,21.18,96.5,37.96c31.79,15.41,69.19,35.5,117.7,63.22l2.86,1.64
					c77.38,44.32,157.4,90.15,242.05,94.63c104,5.48,185.54-49.06,271.81-106.82c66.13-44.28,134.51-90.06,215.52-108.59
					c105.66-24.17,213.84-2.65,309.28,16.32l2.81,0.56c89.06,17.7,183.38,32.64,271.43,4.53
					c81.33-25.95,163.79-104.02,152.67-214.08c-5.33-52.77-34.92-108.63-83.3-157.29c-27.7-27.89-58.73-51.98-88.75-75.28
					c-16.08-12.48-32.7-25.38-48.49-38.64c-40.59-34.14-77.11-72.04-108.55-112.63c-113.95-146.84-168.98-330.87-154.96-518.18
					c1.83-24.85,4.96-50.08,9.3-74.98c36.04-205.88,151.45-396.44,324.97-536.57l3.5,4.33
					c-172.46,139.29-287.17,328.65-322.98,533.2c-4.31,24.72-7.41,49.76-9.23,74.44c-13.92,185.94,40.7,368.6,153.81,514.35
					c31.2,40.28,67.44,77.89,107.72,111.78c15.71,13.19,32.29,26.06,48.33,38.5c30.15,23.41,61.33,47.61,89.28,75.75
					c49.28,49.57,79.43,106.62,84.89,160.67c11.43,113.15-73.12,193.33-156.52,219.94c-89.31,28.51-184.43,13.47-274.21-4.38
					l-2.81-0.56c-94.89-18.86-202.44-40.25-306.95-16.36c-80.01,18.3-147.95,63.79-213.66,107.79
					c-87.06,58.29-169.29,113.38-275.2,107.75c-85.97-4.55-166.58-50.71-244.52-95.35l-2.86-1.64
					c-48.4-27.65-85.69-47.69-117.37-63.04c-34.33-16.64-67.38-29.64-95.58-37.61c-64.22-18.13-99.86-22.93-171.99-13.66
					c-4.68,0.6-9.49,1.3-14.44,2.04l-10.62,1.57c-69.75,10.28-156.55,23.07-232.03,43.34c-66.98,17.98-119.71,41.48-161.19,71.87
					c-15.02,10.94-29.6,23.52-43.34,37.4c-89.58,90.53-121.08,237.41-78.36,365.52L380.1,1943.35z"/>
			</g>
			<g class="st10">
				<path class="st3" d="M399.14,1954.93c-45.07-129.97-9.89-282.37,85.54-370.62c14.54-13.45,29.96-25.55,45.82-35.95
					c42.61-28.12,95.51-48.99,166.47-65.67c44.88-10.57,93.45-19.19,140.42-27.54c37.43-6.64,72.78-12.92,103.71-19.73l3.38-0.75
					c3.69-0.82,7.3-1.61,10.82-2.35c72.87-15.31,103.48-18.22,165.77-7.88c28.49,4.72,62.37,15.12,97.97,30.07
					c34.54,14.51,75.02,34.58,120.33,59.64c6.79,3.77,13.59,7.56,20.38,11.35c72.29,40.39,147.04,82.15,225.64,88.8
					c103.54,8.76,186.16-41.75,273.62-95.23c64.91-39.69,132.04-80.74,210.26-97.69c100.01-21.7,202.01-5.36,292.01,9.04l15.44,2.46
					c100.46,15.93,183.34,20.35,261.32-9.83c78.29-30.3,151.59-108.82,138.88-215.96c-7.84-66.02-48.65-120.65-81.51-154.84
					c-26.2-27.29-55.36-51.19-83.57-74.31c-15.88-13.02-32.31-26.47-47.87-40.28c-38.86-34.58-73.44-72.56-102.77-112.89
					c-106.16-145.62-153.29-326.27-132.71-508.66c2.69-24.06,6.63-48.44,11.74-72.46c42.1-197.16,160.37-379.58,333.02-513.66
					l3.41,4.39c-171.61,133.28-289.16,314.55-330.99,510.42c-5.06,23.84-8.99,48.04-11.65,71.92
					c-20.42,181.01,26.34,360.27,131.67,504.76c29.1,40.01,63.4,77.69,101.97,112c15.47,13.74,31.85,27.16,47.7,40.14
					c28.33,23.22,57.63,47.22,84.05,74.75c33.45,34.82,75.01,90.5,83.03,158.05c13.06,110.09-62.1,190.73-142.4,221.8
					c-79.15,30.63-162.86,26.21-264.2,10.14l-15.45-2.47c-89.51-14.32-190.96-30.55-289.95-9.1c-77.3,16.76-144.01,57.55-208.53,97
					c-88.27,53.97-171.67,104.98-276.99,96.03c-79.8-6.75-155.08-48.81-227.89-89.48c-6.79-3.79-13.57-7.58-20.36-11.34
					c-45.13-24.97-85.43-44.95-119.79-59.38c-35.2-14.79-68.65-25.07-96.72-29.72c-61.41-10.17-91.64-7.31-163.71,7.84
					c-3.5,0.73-7.08,1.53-10.76,2.34l-3.39,0.75c-31.03,6.83-66.44,13.12-103.93,19.77c-46.89,8.33-95.38,16.94-140.12,27.47
					c-70.31,16.53-122.64,37.15-164.69,64.91c-15.61,10.24-30.78,22.14-45.1,35.39c-93.85,86.79-128.42,236.76-84.06,364.7
					L399.14,1954.93z"/>
			</g>
			<g class="st11">
				<path class="st3" d="M418.17,1966.5c-47.51-132.07-9.93-284.23,91.4-370.03c15.14-12.82,31.16-24.22,47.63-33.9
					c54.96-32.55,119.68-48.42,169.91-58.6c27.65-5.62,57.32-10.9,86.01-16c55.95-9.96,113.82-20.24,158.97-33.48l13.84-4.13
					c10.64-3.15,20.24-6.1,29.09-8.81c48.88-14.98,75.82-23.23,128.21-20.78c28.35,1.33,62.74,8.99,99.46,22.17
					c36.23,13,78.75,32.38,122.95,56.05c12.02,6.45,24,13.04,35.98,19.63c67.75,37.28,137.8,75.84,211.15,84.41
					c103.22,12.1,187.19-34.4,276.09-83.59c63.48-35.13,129.13-71.46,204.35-86.85c94.01-19.23,189.6-7.6,273.93,2.67
					c9.77,1.19,19.4,2.36,28.87,3.46c82.67,9.65,170.32,13.39,251.2-24.17c67.19-31.21,140.26-106.99,125.09-217.86
					c-8.81-64.4-48.22-118.41-79.73-152.38c-24.66-26.63-51.93-50.26-78.3-73.12c-15.72-13.63-31.98-27.72-47.32-42.15
					c-37.11-35.02-69.74-73.08-96.98-113.14c-98.44-144.39-137.67-321.65-110.45-499.14c3.53-23.24,8.3-46.77,14.17-69.94
					c48.02-188.34,169.14-362.61,341.06-490.74l3.33,4.47C2547.2-112.08,2426.81,61.1,2379.11,248.2
					c-5.83,22.99-10.57,46.34-14.07,69.41c-27,176.09,11.9,351.93,109.55,495.16c27.02,39.73,59.38,77.48,96.2,112.22
					c15.25,14.34,31.47,28.4,47.14,41.99c26.49,22.96,53.88,46.69,78.74,73.54c32.05,34.56,72.16,89.58,81.17,155.42
					c15.58,113.87-59.36,191.65-128.27,223.65c-82.14,38.15-170.71,34.39-254.2,24.66c-9.48-1.11-19.12-2.28-28.89-3.47
					c-83.92-10.21-179.03-21.79-272.15-2.73c-74.38,15.22-139.65,51.33-202.76,86.26c-89.71,49.64-174.42,96.51-279.43,84.25
					c-74.44-8.71-144.98-47.53-213.19-85.07c-11.95-6.58-23.92-13.17-35.92-19.61c-43.97-23.54-86.23-42.81-122.2-55.72
					c-36.21-12.99-70.04-20.55-97.84-21.85c-51.45-2.39-76.46,5.26-126.31,20.54c-8.86,2.71-18.48,5.66-29.14,8.82l-13.86,4.13
					c-45.45,13.33-103.46,23.65-159.56,33.63c-28.66,5.09-58.3,10.37-85.88,15.97c-49.81,10.1-113.94,25.81-168.19,57.94
					c-16.21,9.53-31.97,20.75-46.86,33.36c-99.59,84.32-136.5,233.96-89.76,363.9L418.17,1966.5z"/>
			</g>
			<g class="st12">
				<path class="st3" d="M437.21,1978.07c-49.25-132.18-8.34-287.55,97.27-369.44c15.72-12.19,32.35-22.9,49.44-31.86
					c53.74-28.39,115.07-41.55,173.35-51.54c14.69-2.52,29.82-5,45.15-7.51c71.65-11.74,145.74-23.89,200.7-44.18
					c4.39-1.63,8.59-3.26,12.65-4.83l0.83-0.32c21.72-8.43,38.45-16.21,53.22-23.08c31.33-14.57,53.98-25.09,95.59-28.19
					c28.06-2.07,62.98,2.83,100.97,14.23c37.84,11.35,81.26,29.49,125.58,52.45c16.82,8.74,33.76,17.99,50.13,26.94
					c63.62,34.77,129.41,70.71,198.11,81.01c103.13,15.45,188.74-26.97,279.38-71.88c61.78-30.61,125.66-62.26,197.6-76.09
					c87.59-16.83,176.49-9.34,254.92-2.72c14.75,1.25,29.18,2.46,43.23,3.49c106.21,7.78,178.32-3.76,241.09-38.52
					c64.77-35.85,128.02-112.42,111.32-219.75c-9.76-62.75-47.77-116.18-77.95-149.94c-23.08-25.86-48.42-49.13-72.92-71.64
					c-15.6-14.33-31.74-29.14-46.89-44.29c-35.36-35.47-66.05-73.62-91.2-113.4c-90.82-143.18-122.14-317.07-88.2-489.62
					c4.38-22.47,9.97-45.15,16.62-67.41c53.75-179.41,177.73-345.55,349.09-467.82l3.24,4.53
					c-170.36,121.55-293.59,286.65-346.99,464.88c-6.59,22.09-12.14,44.59-16.49,66.89c-33.67,171.15-2.62,343.59,87.43,485.57
					c24.94,39.43,55.36,77.26,90.44,112.45c15.06,15.06,31.15,29.84,46.71,44.12c24.61,22.6,50.05,45.97,73.31,72.04
					c30.67,34.33,69.33,88.7,79.29,152.79c17.14,110.17-47.72,188.72-114.13,225.48c-63.79,35.32-136.8,47.05-244.2,39.2
					c-14.07-1.03-28.52-2.25-43.29-3.5c-78.07-6.57-166.56-14.04-253.4,2.65c-71.2,13.68-134.74,45.16-196.18,75.61
					c-91.45,45.3-177.82,88.11-282.68,72.39c-69.67-10.43-135.9-46.63-199.95-81.62c-16.35-8.94-33.26-18.18-50.03-26.89
					c-44.02-22.8-87.11-40.8-124.62-52.06c-37.35-11.21-71.55-16.04-98.96-14.01c-40.6,3.02-62.86,13.37-93.65,27.68
					c-14.84,6.9-31.67,14.72-53.55,23.21l-0.83,0.33c-4.09,1.58-8.32,3.23-12.74,4.86c-55.46,20.48-129.82,32.67-201.73,44.45
					c-15.31,2.51-30.43,4.99-45.11,7.51c-57.82,9.91-118.65,22.94-171.7,50.97c-16.8,8.81-33.16,19.36-48.62,31.34
					c-103.73,80.43-143.88,233.13-95.45,363.09L437.21,1978.07z"/>
			</g>
			<g class="st13">
				<path class="st3" d="M456.24,1989.64c-50.98-132.35-6.65-290.91,103.12-368.83c16.26-11.55,33.51-21.58,51.26-29.83
					c55.21-25.87,117.61-36.15,176.78-44.47l11.22-1.58c81.08-11.39,172.98-24.29,235.5-52.32c4.59-2.06,8.95-4.14,13.13-6.17
					c26.33-12.77,44.38-25.07,60.3-35.93c24.42-16.65,43.71-29.8,80.01-36.99c27.74-5.5,63.18-3.33,102.47,6.26
					c39.24,9.58,83.58,26.47,128.21,48.85c21.3,10.71,42.6,22.34,63.2,33.59c62.57,34.16,121.67,66.43,186.14,78.25
					c103.36,18.95,190.98-19.42,283.73-60.03c59.71-26.15,121.46-53.18,189.8-65.44c80.69-14.48,162.51-10.54,234.71-7.05
					c20.52,0.99,39.89,1.92,58.78,2.44c99.99,2.82,171.21-13.53,230.98-52.84c59.11-38.87,115.78-117.52,97.56-221.68
					c-10.68-61.1-47.31-113.93-76.17-147.49c-21.45-24.99-44.81-47.78-67.41-69.82c-15.53-15.15-31.59-30.81-46.59-46.8
					c-33.6-35.94-62.33-74.17-85.42-113.66c-83.29-141.98-106.7-312.48-65.92-480.09c5.23-21.67,11.64-43.5,19.05-64.89
					c59.29-170.37,186.12-328.37,357.13-444.89l3.14,4.6C2630.93-71.31,2504.86,85.7,2445.96,254.95
					c-7.35,21.22-13.71,42.87-18.9,64.37c-40.43,166.21-17.23,335.24,65.32,475.97c22.88,39.13,51.36,77.03,84.68,112.66
					c14.91,15.89,30.93,31.52,46.42,46.62c22.68,22.12,46.14,45,67.75,70.18c29.3,34.09,66.52,87.81,77.43,150.16
					c18.68,106.82-39.4,187.46-99.98,227.3c-60.78,39.97-133.03,56.58-234.19,53.75c-18.95-0.52-38.35-1.46-58.9-2.45
					c-71.89-3.48-153.38-7.4-233.45,6.97c-67.69,12.15-129.13,39.05-188.55,65.06c-93.56,40.97-181.92,79.65-286.97,60.42
					c-65.35-11.98-127.6-45.97-187.81-78.85c-20.56-11.22-41.81-22.83-63.03-33.5c-44.26-22.19-88.19-38.93-127.03-48.42
					c-38.5-9.4-73.11-11.54-100.07-6.21c-35.19,6.97-54.06,19.84-77.96,36.13c-16.08,10.97-34.31,23.39-61.01,36.34
					c-4.23,2.05-8.63,4.15-13.28,6.24c-63.25,28.35-155.56,41.31-237.01,52.75l-11.22,1.58c-58.76,8.25-120.69,18.45-175.21,44
					c-17.45,8.11-34.4,17.97-50.39,29.32c-107.76,76.49-151.25,232.24-101.15,362.29L456.24,1989.64z"/>
			</g>
			<g class="st14">
				<path class="st3" d="M475.28,2001.22c-53.6-134.76-6.74-293.06,108.99-368.23c16.79-10.91,34.64-20.25,53.07-27.79
					c53.59-22.09,113.32-30.01,180.21-37.41c86.79-9.62,184.66-22.7,247.61-56.09c4.49-2.39,8.72-4.8,12.77-7.18
					c28.06-16.51,45.55-33.22,60.98-47.97c20.06-19.17,37.38-35.73,70.85-46.58c27.39-8.87,63.34-9.48,103.96-1.74
					c40.48,7.72,85.73,23.36,130.84,45.24c25.53,12.41,50.84,26.3,75.33,39.73c58.9,32.31,114.53,62.84,175.13,76.02
					c104.02,22.61,194.1-11.7,289.47-48.02c57.19-21.78,116.32-44.3,180.62-54.99c73.16-12.17,147.38-11.14,212.85-10.22
					c26.68,0.38,51.87,0.73,75.97,0.24c95.66-1.9,163.78-22.61,220.87-67.15c25.94-20.23,108.64-96.16,83.8-223.63
					c-9.16-47.03-34.89-97.19-74.39-145.05c-19.75-23.98-41.1-46.14-61.75-67.57c-15.52-16.11-31.56-32.76-46.45-49.73
					c-31.8-36.39-58.59-74.72-79.63-113.92c-75.85-140.82-91.35-307.94-43.65-470.57c6.08-20.89,13.32-41.87,21.49-62.36
					c65.5-163.55,191.77-309.46,365.16-421.96l3.03,4.68c-172.41,111.87-297.94,256.88-363.02,419.35
					c-8.11,20.33-15.28,41.13-21.32,61.85c-47.29,161.23-31.94,326.85,43.21,466.37c20.84,38.84,47.39,76.82,78.92,112.89
					c14.8,16.87,30.8,33.47,46.26,49.53c20.72,21.51,42.15,43.75,62.04,67.89c40.09,48.57,66.22,99.59,75.56,147.53
					c25.45,130.57-59.27,208.36-85.84,229.09c-58.1,45.32-127.24,66.4-224.18,68.32c-24.19,0.48-49.43,0.13-76.15-0.24
					c-65.25-0.92-139.19-1.95-211.86,10.14c-63.75,10.6-122.62,33.02-179.55,54.71c-96.18,36.62-187.02,71.24-292.63,48.25
					c-61.39-13.34-117.36-44.05-176.62-76.57c-24.42-13.4-49.68-27.25-75.08-39.61c-44.04-21.35-90.01-37.26-129.45-44.78
					c-39.7-7.57-74.7-7.04-101.2,1.57c-32.26,10.46-49.16,26.61-68.72,45.31c-15.65,14.96-33.38,31.91-62,48.74
					c-4.11,2.42-8.42,4.88-12.98,7.3c-63.82,33.85-162.3,47.02-249.61,56.71c-66.47,7.35-125.79,15.21-178.71,37.02
					c-18.11,7.41-35.65,16.59-52.15,27.3c-113.55,73.75-159.48,229.17-106.84,361.51L475.28,2001.22z"/>
			</g>
			<g class="st15">
				<path class="st3" d="M494.32,2012.79c-55.37-135.03-4.92-296.51,114.85-367.62c17.33-10.29,35.79-18.94,54.88-25.74
					c55.54-19.95,115.62-24.83,179.22-29.99l4.43-0.36c82.6-6.75,185.5-19.47,248.5-58.28c3.93-2.42,7.99-5.1,12.42-8.19
					c28.46-19.86,43.94-39.96,58.91-59.4c16.78-21.78,32.63-42.36,64.44-56.76c27.04-12.25,63.49-15.62,105.42-9.76
					c41.07,5.73,88.47,20.52,133.47,41.62c29.58,13.91,58.64,30,86.75,45.57c55.45,30.71,107.82,59.71,164.81,74.08
					c105.2,26.52,198.39-3.71,297.05-35.74c54.03-17.54,109.91-35.67,169.59-44.8c64.85-9.92,127.92-11.03,188.93-12.1
					c33.66-0.59,65.45-1.15,95.22-3.22c91.9-6.38,156.9-31.5,210.77-81.44c29.73-27.56,96.08-104.73,70.03-225.6
					c-9.98-46.32-34.41-94.3-72.61-142.61c-17.99-22.79-37.26-44.13-55.89-64.77c-15.57-17.24-31.67-35.07-46.5-53.22
					c-29.99-36.84-54.84-75.26-73.85-114.17c-68.52-139.7-76.11-303.45-21.37-461.06c6.94-20.1,14.99-40.23,23.93-59.83
					c70.57-154.15,199.61-292.13,373.19-399.02l2.92,4.74c-172.63,106.32-300.93,243.46-371.04,396.6
					c-8.86,19.43-16.85,39.39-23.73,59.33c-54.25,156.2-46.75,318.42,21.11,456.79c18.83,38.54,43.44,76.59,73.16,113.1
					c14.73,18.03,30.79,35.81,46.31,53c18.7,20.7,38.03,42.11,56.13,65.04c38.73,48.99,63.52,97.73,73.68,144.89
					c26.65,123.67-41.26,202.64-71.69,230.86c-54.12,50.17-122.17,76.52-214.16,82.91c-29.91,2.08-61.77,2.64-95.5,3.24
					c-60.82,1.07-123.71,2.18-188.18,12.04c-59.24,9.06-114.89,27.12-168.72,44.59c-99.45,32.28-193.39,62.76-300.13,35.84
					c-57.69-14.55-110.37-43.72-166.14-74.6c-28.03-15.52-57.01-31.57-86.42-45.4c-44.51-20.87-91.34-35.48-131.87-41.14
					c-40.88-5.71-76.28-2.49-102.36,9.31c-30.54,13.83-45.27,32.95-62.32,55.09c-14.52,18.85-30.98,40.22-60.14,60.57
					c-4.52,3.15-8.67,5.88-12.69,8.36c-64.01,39.43-167.75,52.29-250.97,59.09l-4.43,0.36c-63.22,5.13-122.94,9.98-177.79,29.68
					c-18.76,6.68-36.89,15.18-53.91,25.28c-117.45,69.74-166.89,228.19-112.54,360.73L494.32,2012.79z"/>
			</g>
			<g class="st16">
				<path class="st3" d="M513.36,2024.36c-57.13-135.33-2.98-299.96,120.71-367c17.86-9.68,36.94-17.66,56.69-23.7
					c53.44-16.51,110.23-19.39,170.36-22.44l16.72-0.86c75.99-4.04,184.51-14.7,249.42-60.46c3.95-2.79,7.9-5.8,12.07-9.2
					c28.19-22.97,42.1-47.06,55.57-70.35c14.69-25.43,28.58-49.45,59.33-67.4c26.65-15.57,63.59-21.71,106.85-17.8
					c42.18,3.83,90.51,17.32,136.09,38c33.53,15.24,66.15,33.54,97.69,51.24c52.16,29.26,101.43,56.9,154.97,72.31
					c107.14,30.84,204.3,4.64,307.16-23.09c50.03-13.48,101.76-27.43,156.04-34.98c55.48-7.72,109.66-10.2,162.06-12.59
					c41.82-1.91,81.33-3.71,117.4-8.09c87.5-10.62,151.27-41.04,200.68-95.72c32.6-36.08,83.27-113.63,56.27-227.59
					c-10.64-44.9-34.47-92.07-70.84-140.17c-16.14-21.4-33.28-41.69-49.85-61.32c-15.7-18.59-31.93-37.81-46.72-57.34
					c-28.16-37.31-51.06-75.81-68.06-114.44c-61.28-138.64-60.95-298.99,0.92-451.52c7.79-19.31,16.66-38.59,26.37-57.31
					c75.27-144.61,207.09-274.66,381.21-376.08l2.8,4.81C2752.04-7.84,2620.96,121.43,2546.18,265.1
					c-9.63,18.56-18.42,37.68-26.15,56.83c-61.3,151.12-61.65,309.93-0.98,447.19c16.83,38.24,39.51,76.36,67.4,113.33
					c14.71,19.41,30.17,37.72,46.54,57.1c16.62,19.69,33.81,40.05,50.04,61.56c36.83,48.72,60.99,96.58,71.81,142.24
					c27.59,116.44-24.22,195.71-57.55,232.6c-50.36,55.73-115.23,86.72-204.14,97.51c-36.28,4.4-75.88,6.21-117.82,8.12
					c-52.27,2.39-106.32,4.85-161.54,12.54c-53.93,7.51-105.49,21.41-155.36,34.85c-103.63,27.94-201.51,54.32-310.15,23.06
					c-54.17-15.59-103.71-43.38-156.16-72.81c-31.44-17.64-63.96-35.88-97.27-51.02c-45.02-20.42-92.72-33.75-134.29-37.52
					c-42.07-3.83-77.89,2.08-103.54,17.06c-29.48,17.21-43,40.61-57.32,65.39c-13.71,23.73-27.89,48.26-56.87,71.88
					c-4.27,3.48-8.32,6.57-12.38,9.43c-66.08,46.6-175.65,57.4-252.33,61.48l-16.73,0.86c-59.77,3.03-116.22,5.9-169.01,22.21
					c-19.68,6.02-37.89,13.63-55.67,23.27c-121.24,65.71-174.28,227.18-118.24,359.94L513.36,2024.36z"/>
			</g>
			<g class="st17">
				<path class="st3" d="M532.4,2035.92c-59.9-137.96-3.12-302.32,126.57-366.38c18.62-9.2,37.76-16.28,58.5-21.65
					c51.78-13.53,105.95-14.58,163.31-15.68c9.04-0.17,18.11-0.35,27.21-0.58c117.55-2.96,201.78-24.04,250.34-62.66
					c3.95-3.16,7.9-6.59,11.73-10.19c27.56-25.91,39.77-53.87,51.58-80.92c12.77-29.25,24.84-56.88,54.88-78.44
					c26.25-18.84,63.7-27.8,108.25-25.83c43.22,1.89,92.48,14.09,138.71,34.36c37.4,16.44,73.4,36.97,108.22,56.82
					c49.01,27.95,95.31,54.35,145.55,70.64c110.16,35.72,212.5,13.56,320.84-9.9c44.81-9.7,91.15-19.73,138.91-25.71
					c44.65-5.58,88.53-8.6,130.97-11.51c51.69-3.55,100.51-6.89,143.8-14.5c84.9-14.92,145.46-49.87,190.6-109.98
					c28.32-37.71,71.49-117.68,42.49-229.6c-11.25-43.42-34.49-89.76-69.06-137.75c-14.18-19.71-29.1-38.66-43.53-56.98
					c-16.66-21.16-32.4-41.15-47.24-62.37c-26.31-37.77-47.26-76.36-62.27-114.69c-54.14-137.65-45.9-294.62,23.21-441.99
					c8.64-18.53,18.34-36.96,28.81-54.78c80.67-136.89,211.62-255.71,389.21-353.15l2.68,4.88
					c-176.7,96.95-306.94,215.07-387.1,351.08c-10.38,17.67-19.99,35.94-28.57,54.31c-68.45,145.98-76.65,301.39-23.07,437.61
					c14.85,37.93,35.59,76.12,61.65,113.54c14.75,21.09,30.44,41.02,47.05,62.11c14.46,18.37,29.42,37.36,43.67,57.17
					c34.98,48.54,58.51,95.51,69.93,139.61c29.59,114.18-14.5,195.82-43.42,234.33c-46.05,61.32-107.72,96.95-194.1,112.13
					c-43.58,7.66-92.54,11.02-144.38,14.58c-42.36,2.9-86.17,5.91-130.66,11.48c-47.52,5.94-93.73,15.95-138.42,25.62
					c-109.1,23.61-212.15,45.93-323.74,9.76c-50.79-16.46-99.49-44.24-146.59-71.09c-34.7-19.79-70.57-40.24-107.7-56.56
					c-45.61-20-94.17-32.04-136.72-33.9c-43.31-1.93-79.53,6.67-104.76,24.79c-28.79,20.67-40.56,47.62-53.02,76.15
					c-12.04,27.56-24.48,56.05-52.87,82.75c-3.94,3.7-8,7.23-12.07,10.49c-49.53,39.38-134.88,60.87-253.67,63.87
					c-9.11,0.23-18.19,0.4-27.24,0.58c-57.02,1.09-110.87,2.13-162.01,15.5c-20.37,5.27-39.16,12.22-57.44,21.25
					c-127.07,62.76-182.67,223.88-123.93,359.17L532.4,2035.92z"/>
			</g>
			<g class="st18">
				<path class="st3" d="M551.84,2047.15c-61.62-138.18-1.04-305.49,132.3-365.37c19.11-8.59,38.82-14.99,60.25-19.58
					c50.39-10.91,102.42-10.25,157.5-9.54c12.03,0.15,24.12,0.31,36.24,0.34c0.6,0,1.09,0,1.69,0c81.14,0,189.6-11.34,249.58-64.87
					c3.9-3.5,7.73-7.27,11.4-11.21c26.75-28.74,37.19-60.48,47.29-91.18c10.93-33.23,21.26-64.62,50.8-89.85
					c25.87-22.11,63.79-33.83,109.67-33.89c0.11,0,0.21,0,0.21,0s94.23,10.98,141.01,30.81c41.24,17.51,80.52,40.35,118.5,62.43
					c45.95,26.71,89.35,51.94,136.37,68.94c114.76,41.47,224.09,23.28,339.85,4.02c37.79-6.29,76.86-12.79,116.46-17.17
					c31.72-3.51,63.19-6.17,93.63-8.74c64.08-5.42,124.6-10.54,176.46-22.6c82.81-19.27,140.18-58.74,180.55-124.24
					c29.43-47.74,58.3-126.68,28.69-231.61c-11.81-41.86-34.45-87.39-67.29-135.32c-12.11-17.7-24.72-34.92-36.93-51.58
					c-17.02-23.24-33.1-45.18-48.03-68.46c-24.43-38.22-43.43-76.9-56.47-114.95c-47.1-136.75-30.94-290.34,45.51-432.47
					c9.49-17.72,20.01-35.3,31.25-52.24c84.49-126.98,218.14-238.08,397.22-330.21l2.54,4.95
					c-178.23,91.69-311.17,202.16-395.13,328.34c-11.14,16.79-21.57,34.22-30.98,51.8c-75.71,140.74-91.74,292.75-45.15,428.02
					c12.9,37.64,31.71,75.91,55.9,113.76c14.84,23.13,30.86,45.01,47.83,68.17c12.23,16.69,24.87,33.96,37.03,51.73
					c33.18,48.43,56.08,94.5,68.05,136.95c30.16,106.88,0.71,187.36-29.31,236.05c-41.2,66.84-99.68,107.11-184.03,126.74
					c-52.25,12.15-112.97,17.29-177.25,22.72c-30.4,2.57-61.83,5.23-93.48,8.73c-39.45,4.36-78.45,10.85-116.16,17.13
					c-116.49,19.38-226.53,37.68-342.66-4.28c-47.5-17.17-93.14-43.71-137.28-69.37c-37.84-21.99-76.96-44.74-117.88-62.12
					c-46.1-19.54-138.83-29.93-138.83-29.93s-0.68,0-0.79,0c-44.47,0.05-81.09,11.29-105.9,32.5
					c-28.31,24.19-38.38,54.81-49.05,87.23c-10.27,31.22-20.89,63.5-48.43,93.1c-3.77,4.05-7.72,7.94-11.74,11.55
					c-61.65,55.01-172.28,66.39-254.74,66.19c-12.15-0.03-24.25-0.18-36.3-0.34c-54.76-0.71-106.48-1.36-156.26,9.41
					c-21.05,4.51-40.39,10.79-59.14,19.22c-130.6,58.64-189.9,222.6-129.5,358.03L551.84,2047.15z"/>
			</g>
			<g class="st19">
				<path class="st3" d="M570.47,2059.06c-31.09-67.94-32.94-147.22-5.07-217.51c26.81-67.61,79.06-121.41,143.36-147.59
					c19.65-8,39.97-13.74,62.11-17.55c49.44-8.6,99.88-6.32,153.28-3.91c14.64,0.66,29.35,1.32,44.1,1.74
					c81.93,2.37,192.21-7.36,252.22-67.02c3.88-3.88,7.6-7.98,11.06-12.21c25.88-31.44,34.52-66.87,42.87-101.14
					c9.08-37.27,17.66-72.48,46.77-101.42c25.47-25.32,63.84-39.8,110.96-41.89c45.26-2.07,96.38,7.61,143.94,27.09
					c45.11,18.5,87.59,43.75,128.67,68.16c41.04,24.39,83.47,49.6,127.3,67.12c121.89,48.7,241.11,34.24,367.33,18.95
					c27.9-3.39,56.75-6.88,85.54-9.64c15.56-1.49,31.01-2.88,46.3-4.26c80.5-7.26,156.54-14.12,219.09-32.41
					c81.17-23.74,135.36-67.75,170.52-138.5c24.39-49.07,46.76-129.44,14.87-233.64c-12.47-40.74-33.9-84.22-65.52-132.9
					c-9.86-15.21-20.05-30.2-29.9-44.69c-17.55-25.83-34.14-50.23-49.24-76.06c-22.85-39.23-39.43-76.91-50.68-115.21
					c-40.14-135.95-16.06-286.15,67.81-422.92c10.34-16.92,21.68-33.65,33.69-49.71c88.93-118.61,221.48-219.11,405.23-307.26
					l2.41,5.02c-182.92,87.75-314.8,187.71-403.18,305.58c-11.91,15.92-23.14,32.51-33.4,49.28
					c-83.04,135.42-106.91,284.03-67.22,418.44c11.12,37.87,27.53,75.15,50.15,113.97c15,25.66,31.54,49.99,49.04,75.73
					c9.87,14.52,20.07,29.53,29.97,44.79c31.9,49.12,53.55,93.05,66.17,134.3c32.43,105.95,9.63,187.77-15.21,237.75
					c-35.9,72.24-91.17,117.16-173.94,141.36c-63.07,18.44-139.37,25.33-220.15,32.61c-15.28,1.38-30.73,2.77-46.27,4.26
					c-28.72,2.75-57.54,6.24-85.4,9.62c-126.95,15.39-246.85,29.93-370.07-19.31c-44.24-17.67-86.86-43-128.08-67.5
					c-40.91-24.31-83.21-49.45-127.94-67.79c-46.83-19.18-97.12-28.64-141.58-26.69c-45.72,2.03-82.82,15.96-107.28,40.28
					c-27.99,27.83-36.39,62.3-45.29,98.79c-8.49,34.87-17.28,70.93-43.97,103.34c-3.57,4.37-7.42,8.61-11.43,12.62
					c-61.43,61.06-173.31,71.01-256.31,68.65c-14.78-0.43-29.52-1.09-44.19-1.75c-53.1-2.4-103.24-4.65-152.08,3.84
					c-21.75,3.74-41.69,9.37-60.96,17.22c-62.9,25.62-114.03,78.28-140.29,144.49c-27.31,68.89-25.51,146.58,4.96,213.15
					L570.47,2059.06z"/>
			</g>
			<g class="st20">
				<path class="st3" d="M589.51,2070.62c-32.04-68.29-33.8-147.91-4.83-218.43c28.05-68.29,82.35-121.52,148.97-146.03
					c20.17-7.43,41.08-12.5,63.92-15.5c48.7-6.49,100.16-2.52,149.92,1.32c16.66,1.28,33.89,2.62,50.89,3.55
					c67.7,3.7,190.61-0.36,253.18-69.21c3.81-4.21,7.42-8.66,10.73-13.23c24.88-34.09,31.71-73.08,38.32-110.79
					c7.26-41.46,14.12-80.62,42.93-113.36c25.07-28.49,63.89-45.75,112.28-49.91c46.24-3.97,98.29,4.36,146.55,23.45
					c49.02,19.42,94.67,47.21,138.8,74.1c38.16,23.24,77.62,47.27,118.28,65.1c133.49,58.57,267.64,47.16,409.66,35.09
					c13.24-1.13,26.5-2.26,39.78-3.32c100.8-8.11,189.98-16.87,260.69-41.98c78.84-28,131.34-77.97,160.51-152.76
					c19.5-50.01,35.52-131.49,1.04-235.69c-13.02-39.33-33.28-80.79-63.75-130.48c-7.41-12.1-14.91-24-22.34-35.81
					c-18.32-29.1-35.63-56.57-50.99-85.63c-20.9-39.68-35.58-77.45-44.88-115.46c-32.77-133.31,0.08-283.98,90.13-413.38
					c11.2-16.14,23.35-32.02,36.13-47.19c92.72-109.86,224.03-200.21,413.22-284.33l2.26,5.09
					c-188.39,83.76-319.06,173.63-411.22,282.83c-12.67,15.04-24.72,30.78-35.82,46.77c-89.14,128.1-121.68,277.12-89.29,408.88
					c9.19,37.57,23.72,74.92,44.4,114.19c15.26,28.87,32.51,56.27,50.78,85.26c7.45,11.83,14.95,23.74,22.37,35.87
					c30.71,50.05,51.13,91.88,64.29,131.64c35,105.77,18.7,188.6-1.14,239.46c-29.79,76.39-83.38,127.41-163.84,155.98
					c-71.35,25.34-160.92,34.14-262.11,42.28c-13.27,1.07-26.52,2.2-39.75,3.32c-142.74,12.14-277.58,23.6-412.37-35.54
					c-41-17.99-80.62-42.11-118.94-65.45c-43.94-26.76-89.38-54.42-137.96-73.67c-47.47-18.78-98.64-26.99-144.02-23.08
					c-46.93,4.03-84.48,20.65-108.58,48.04c-27.77,31.56-34.5,69.97-41.62,110.65c-6.71,38.33-13.66,77.97-39.3,113.1
					c-3.42,4.72-7.16,9.33-11.11,13.69c-64.13,70.56-188.92,74.8-257.62,71.03c-17.06-0.94-34.32-2.27-51.01-3.56
					c-51.75-4-100.64-7.77-148.76-1.35c-22.43,2.95-42.94,7.92-62.72,15.2c-65.16,23.98-118.29,76.07-145.75,142.92
					c-28.38,69.08-26.66,147.07,4.72,213.96L589.51,2070.62z"/>
			</g>
			<g class="st21">
				<path class="st3" d="M608.55,2082.2c-32.97-68.64-34.66-148.57-4.62-219.31c29.3-69,85.66-121.67,154.62-144.52
					c20.67-6.85,42.17-11.25,65.72-13.45c48.15-4.55,98.54,0.92,147.28,6.24c18.66,2.03,37.97,4.14,56.97,5.67
					c55.06,4.41,190.04,6.3,254.15-71.4c3.74-4.55,7.24-9.34,10.41-14.24c23.84-36.68,28.88-79.14,33.75-120.22
					c5.19-43.72,10.55-88.93,39.11-125.54c24.6-31.54,63.87-51.57,113.58-57.91c47.39-5.85,100.35,1.16,149.15,19.8
					c53.03,20.28,101.84,50.81,149.03,80.33c35.26,22.05,71.71,44.86,109.15,62.79c141.19,67.63,291.54,64.24,446.01,54.23
					c79.09-5.12,179.66-15.13,256-47.28c77.91-32.82,127.15-87.46,150.53-167.03c21.57-73.45,17.26-153.43-12.82-237.72
					c-17.11-47.96-42.12-93.63-61.99-128.06c-4.68-8.13-9.38-16.19-14.06-24.21c-19.4-33.28-37.73-64.72-53.45-97.93
					c-18.93-40.12-31.71-77.97-39.08-115.73c-26.05-132.75,14.94-279.94,112.44-403.82c12.06-15.35,25.03-30.38,38.57-44.65
					c122.68-129.17,289.55-207.54,421.21-261.39l2.11,5.15c-131.15,53.64-297.33,131.67-419.28,260.07
					c-13.41,14.15-26.28,29.04-38.23,44.26c-96.5,122.61-137.09,268.15-111.35,399.31c7.28,37.3,19.92,74.73,38.65,114.42
					c15.62,32.99,33.89,64.33,53.23,97.5c4.68,8.03,9.38,16.09,14.07,24.23c19.99,34.64,45.14,80.6,62.41,128.98
					c30.48,85.42,34.83,166.56,12.92,241.16c-23.88,81.28-74.16,137.08-153.71,170.59c-77.11,32.48-178.28,42.56-257.8,47.71
					c-155.23,10.06-306.38,13.44-448.77-54.76c-37.72-18.07-74.31-40.95-109.69-63.09c-46.97-29.38-95.54-59.76-148.07-79.85
					c-47.96-18.31-99.98-25.22-146.47-19.47c-48.21,6.15-86.21,25.45-109.89,55.81c-27.6,35.38-32.63,77.83-37.96,122.78
					c-4.95,41.7-10.06,84.83-34.61,122.59c-3.28,5.07-6.91,10.03-10.79,14.75c-63.42,76.86-189.42,79.01-258.9,73.4
					c-19.09-1.53-38.43-3.64-57.13-5.68c-48.46-5.27-98.56-10.75-146.15-6.23c-23.13,2.16-44.23,6.48-64.49,13.19
					c-67.45,22.34-122.57,73.88-151.25,141.41c-29.41,69.26-27.77,147.53,4.51,214.72L608.55,2082.2z"/>
			</g>
			<g class="st22">
				<path class="st3" d="M627.58,2093.76c-33.95-69.07-35.54-149.43-4.36-220.47c30.58-69.68,88.98-121.7,160.22-142.71
					c21.04-6.27,43.12-10,67.52-11.4c47.79-2.77,97.37,4.19,145.33,10.91c20.44,2.87,41.58,5.83,62.36,8.02
					c55.66,5.85,191.94,10.39,255.14-73.6c3.64-4.84,7.03-9.98,10.09-15.26c22.76-39.17,26-85.01,29.14-129.35
					c3.39-47.94,6.9-97.5,35.33-138.02c24.13-34.67,63.85-57.46,114.87-65.9c47.58-7.76,102.89-1.87,151.75,16.14
					c57.16,21.09,109.14,54.57,159.41,86.95c32.3,20.8,65.7,42.31,99.87,60.09c154.74,80.51,326.7,82.3,442.57,76.68
					c107.69-5.24,189.89-22.44,251.31-52.59c76.12-37.36,123.41-98.36,140.56-181.31c15.17-73.42,6.19-154.08-26.7-239.74
					c-16.57-43.16-38.73-85.9-60.22-125.66l-4.63-8.57c-21-38.83-40.83-75.51-57.06-114.27c-16.93-40.55-27.82-78.48-33.28-115.98
					c-19.36-132.31,29.76-276.02,134.76-394.26c12.92-14.57,26.71-28.74,41.01-42.12c122.9-114.91,285.93-185.02,429.2-238.46
					l1.95,5.22c-142.75,53.24-305.16,123.07-427.34,237.31c-14.17,13.26-27.85,27.31-40.65,41.75
					c-103.9,117.01-152.53,259.07-133.41,389.76c5.39,37.03,16.15,74.53,32.91,114.64c16.12,38.5,35.89,75.06,56.82,113.77
					l4.63,8.58c21.58,39.92,43.84,82.86,60.52,126.31c33.27,86.68,42.34,168.39,26.95,242.87
					c-17.51,84.72-65.81,147.02-143.56,185.18c-62.11,30.48-145.03,47.87-253.49,53.14c-116.52,5.68-289.48,3.82-445.42-77.3
					c-34.39-17.89-67.91-39.48-100.32-60.34c-50.02-32.21-101.73-65.52-158.32-86.41c-47.98-17.69-102.27-23.47-148.92-15.87
					c-49.5,8.18-87.96,30.18-111.21,63.59c-27.55,39.26-30.85,85.87-34.34,135.22c-3.18,44.97-6.47,91.47-29.88,131.75
					c-3.17,5.46-6.68,10.78-10.46,15.81c-64.92,86.26-203.56,81.75-260.18,75.79c-20.87-2.2-42.06-5.17-62.55-8.04
					c-47.69-6.69-97-13.62-144.24-10.87c-23.96,1.37-45.63,5.03-66.26,11.18c-69.67,20.55-126.79,71.43-156.71,139.61
					c-30.52,69.54-28.97,148.19,4.26,215.77L627.58,2093.76z"/>
			</g>
			<g class="st23">
				<path class="st3" d="M646.62,2105.33c-34.84-69.31-36.39-149.89-4.27-221.08c31.81-70.5,92.31-122.06,165.98-141.45
					c21.61-5.72,44.29-8.78,69.32-9.35c47.57-1.13,96.56,7.29,143.93,15.39c22.05,3.77,44.84,7.67,67.19,10.57
					c56.3,7.3,193.94,14.48,256.14-75.79c3.56-5.18,6.85-10.65,9.77-16.27c21.7-41.67,23.21-90.84,24.66-138.4
					c1.59-52.14,3.24-106.06,31.43-150.58c23.84-37.81,64.01-63.36,116.16-73.87c48.46-9.72,104.71-5.15,154.33,12.5
					c61.46,21.87,116.68,58.58,170.09,94.08c29.25,19.44,59.49,39.54,90.29,56.88c157.78,88.78,325.9,102.89,439.15,99.13
					c101.08-3.1,184.05-22.57,246.62-57.87c75.54-42.62,119.48-108.44,130.6-195.62c9.26-72.6-4.4-153.93-40.59-241.76
					c-16.31-39.57-36.24-79.15-55.52-117.42l-2.94-5.83c-20.67-41.07-40.49-81.42-55.86-123.55
					c-14.92-40.94-23.91-78.96-27.48-116.23c-12.69-132.02,44.56-272.23,157.08-384.69c13.77-13.78,28.39-27.1,43.45-39.6
					c128.22-106.3,292.89-166.99,437.18-215.54l1.78,5.27c-143.81,48.39-307.92,108.86-435.4,214.55
					c-14.93,12.39-29.42,25.59-43.07,39.25c-111.33,111.28-168,249.86-155.47,380.22c3.53,36.79,12.41,74.36,27.17,114.86
					c15.27,41.84,35.02,82.03,55.61,122.95l2.94,5.83c19.32,38.37,39.31,78.04,55.7,117.81c36.56,88.73,50.35,171.02,40.97,244.59
					c-11.36,89.01-56.24,156.22-133.39,199.76c-63.36,35.75-147.2,55.46-249.18,58.59c-113.94,3.78-283.15-10.43-442.05-99.85
					c-30.98-17.43-61.31-37.59-90.64-57.09c-53.13-35.31-108.06-71.83-168.87-93.48c-48.7-17.32-103.87-21.79-151.37-12.28
					c-50.62,10.21-89.54,34.89-112.55,71.39c-27.37,43.24-29,96.38-30.57,147.78c-1.48,48.19-3,98.01-25.29,140.8
					c-3.03,5.82-6.43,11.49-10.12,16.86c-63.93,92.81-204.13,85.56-261.44,78.16c-22.47-2.91-45.32-6.82-67.42-10.6
					c-47.11-8.06-95.85-16.38-142.87-15.31c-24.6,0.55-46.85,3.55-68.03,9.16c-72.04,18.96-131.21,69.39-162.33,138.36
					c-31.43,69.65-29.91,148.48,4.17,216.28L646.62,2105.33z"/>
			</g>
			<g>
				<path class="st3" d="M665.66,2116.89c-35.71-69.54-37.25-150.32-4.23-221.64c33.04-71.36,95.65-122.47,171.77-140.23
					c70.62-16.46,143.61-1.78,214.19,12.44c23.48,4.72,47.76,9.61,71.51,13.26c44.43,6.81,194.32,21.32,257.15-78
					c30.16-47.68,29.92-107.1,29.69-164.58c-0.23-56.41-0.46-114.74,27.48-163.31c52.16-90.66,180.28-105.29,274.36-73
					c65.96,22.63,124.5,62.89,181.11,101.83c26.07,17.93,53.03,36.48,80.36,53.05c244.37,148.2,563.77,162.84,712,32.64
					c72.57-63.74,137-189.73,31.82-427.92c-11.31-25.62-23.73-51.57-35.73-76.66c-43.29-90.49-88.06-184.06-92.67-284.93
					c-6.74-147.38,79.59-305.31,225.28-412.16c126.43-92.72,276.41-142.09,445.16-192.62l1.6,5.33
					c-168.25,50.38-317.75,99.58-443.46,191.77c-144.21,105.77-229.67,261.88-223.02,407.42c4.56,99.74,49.08,192.79,92.13,282.77
					c12.02,25.13,24.46,51.12,35.81,76.81c106.54,241.28,40.73,369.38-33.24,434.35c-149.93,131.69-472.27,117.3-718.56-32.06
					c-27.46-16.65-54.49-35.25-80.63-53.22c-56.3-38.73-114.52-78.77-179.76-101.15c-91.96-31.54-217.05-17.56-267.72,70.51
					c-27.2,47.28-26.97,104.84-26.74,160.52c0.24,58.27,0.48,118.53-30.55,167.58c-64.63,102.17-217.41,87.46-262.69,80.52
					c-23.88-3.66-48.22-8.56-71.77-13.3c-70-14.09-142.39-28.68-211.82-12.47c-74.44,17.36-135.67,67.35-167.99,137.14
					c-32.3,69.75-30.79,148.76,4.12,216.76L665.66,2116.89z"/>
			</g>
		</g>
	</g>
	<g>
		<path class="st24" d="M1225.96,814.77c0.62,9.13,8.71,14.21,16.5,14.11c6.64,0,11.1-3.01,13.69-7.68h14.01
			c-2.7,6.33-6.74,11.1-11.52,14.32c-4.77,3.32-10.37,4.98-16.29,4.98c-17.53,0-30.09-14.21-30.09-30.09
			c0-16.18,12.66-30.4,29.88-30.4c8.51,0,15.98,3.22,21.27,8.71c6.95,7.16,9.54,16.08,8.4,26.04H1225.96z M1258.43,804.4
			c-0.52-5.4-6.22-12.97-16.18-12.86c-10.06,0-15.56,7.26-16.08,12.86H1258.43z"/>
		<path class="st24" d="M1340.49,838.74h-12.97v-8.2c-2.49,4.25-7.88,9.96-19.5,9.96c-17.53,0-28.84-13.69-28.84-30.29
			c0-18.47,13.18-30.19,28.63-30.19c10.89,0,17.01,5.81,19.09,9.13v-8.3v-18.88h13.59V838.74z M1292.77,810.21
			c0,9.65,6.95,17.53,17.43,17.53c4.98,0,9.44-1.97,12.66-5.19c3.22-3.22,5.08-7.68,4.88-12.66c0-4.98-1.97-9.23-5.08-12.24
			c-3.11-3.11-7.47-4.98-12.35-4.98c-11.1,0-17.53,8.51-17.53,17.43V810.21z"/>
		<path class="st24" d="M1406.58,838.74h-12.76v-7.57c-2.39,4.46-7.47,9.44-17.74,9.34c-18.67-0.1-22.2-14.32-22.2-24.28v-34.44
			h13.59v31.02c0,8.4,2.8,15.04,12.45,14.94c9.75,0,13.07-6.43,13.07-14.52v-31.43h13.59V838.74z"/>
		<path class="st25" d="M1427.96,805.74c0.18,3.55,1.06,6.92,2.66,10.11c1.6,3.19,3.7,5.99,6.32,8.38c2.62,2.4,5.59,4.3,8.91,5.72
			c3.33,1.42,6.76,2.13,10.31,2.13c3.28-0.09,6.34-0.6,9.18-1.53c2.84-0.93,5.37-2.17,7.58-3.73c2.22-1.55,4.12-3.35,5.72-5.39
			c1.6-2.04,2.79-4.21,3.59-6.52h9.85c-1.24,3.64-3.02,7.01-5.32,10.11c-2.31,3.11-5.03,5.81-8.18,8.12
			c-3.15,2.31-6.61,4.1-10.38,5.39c-3.77,1.28-7.74,1.93-11.91,1.93c-5.06,0-9.89-0.98-14.5-2.93c-4.61-1.95-8.65-4.63-12.11-8.05
			c-3.46-3.41-6.21-7.43-8.25-12.04c-2.04-4.61-3.06-9.62-3.06-15.03c0-5.14,0.98-10.02,2.93-14.63c1.95-4.61,4.63-8.65,8.05-12.11
			c3.41-3.46,7.4-6.23,11.97-8.32c4.57-2.08,9.51-3.17,14.83-3.26c3.99,0,7.69,0.56,11.11,1.66c3.41,1.11,6.47,2.55,9.18,4.32
			c2.7,1.78,5.08,3.77,7.12,5.99c2.04,2.22,3.73,4.44,5.06,6.65c2.13,3.46,3.61,6.92,4.46,10.38c0.84,3.46,1.26,6.79,1.26,9.98
			c0,0.44-0.02,0.89-0.07,1.33c-0.05,0.44-0.07,0.89-0.07,1.33H1427.96z M1484.77,797.36c-0.71-4.26-2.06-7.96-4.06-11.11
			c-2-3.15-4.32-5.74-6.98-7.78c-2.66-2.04-5.5-3.55-8.51-4.52c-3.02-0.97-5.99-1.46-8.91-1.46c-2.84,0-5.79,0.49-8.85,1.46
			c-3.06,0.98-5.92,2.48-8.58,4.52c-2.66,2.04-4.99,4.64-6.98,7.78c-2,3.15-3.31,6.85-3.92,11.11H1484.77z"/>
		<path class="st24" d="M1563.92,832.2c0,9.86-2.49,16.18-6.64,20.96c-5.19,6.02-14.01,10.27-23.76,10.27
			c-15.98,0-25.31-9.34-28.01-18.78h12.45c1.25,2.49,3.42,4.77,6.22,6.54c3.42,2.28,7.26,3.01,9.75,3.01
			c9.44,0,19.19-6.95,19.19-19.61v-5.81c-3.32,6.33-10.17,11.62-20.33,11.62c-16.91,0-29.15-12.86-29.15-29.67
			c0-17.64,12.76-30.09,29.15-30.09c9.44,0,17.22,4.98,20.33,11.2v-9.54h10.79V832.2z M1514.43,810.52
			c0,10.58,7.57,19.81,19.5,19.81c5.71,0,10.48-2.18,13.9-5.71c3.32-3.42,5.39-8.3,5.5-13.8c0-4.46-1.45-9.54-4.56-13.38
			c-3.11-3.94-7.99-6.64-14.84-6.64c-10.69,0-19.5,7.99-19.5,19.61V810.52z"/>
		<path class="st24" d="M1635.4,838.74h-10.79v-9.86c-3.94,7.57-12.03,11.52-20.96,11.52c-18.16,0-28.95-14.11-28.95-29.88
			c0-17.22,12.55-29.88,28.95-29.88c11.2,0,18.36,6.23,20.96,11.62v-9.96h10.79V838.74z M1585.5,810.73
			c0.1,8.4,6.02,19.61,19.71,19.61c8.61,0,14.73-4.77,17.53-11.2c1.25-2.59,1.87-5.5,1.97-8.4c0.1-2.9-0.42-5.81-1.66-8.4
			c-2.7-6.54-9.03-11.62-18.05-11.62c-11.83,0-19.5,9.34-19.5,19.92V810.73z"/>
		<path class="st24" d="M1653.67,790.71h-10.17v-8.4h10.17v-20.33h10.79v20.33h10.89v8.4h-10.89v48.03h-10.79V790.71z"/>
		<path class="st24" d="M1687.59,813.94c0.52,11.41,10.48,17.22,18.99,17.22c7.57,0,13.18-3.63,16.29-9.54h11.2
			c-2.7,6.22-6.64,10.89-11.41,14.01c-4.77,3.22-10.37,4.77-16.08,4.77c-18.47,0-29.88-14.84-29.88-29.77
			c0-16.18,12.66-29.98,29.78-29.98c8.09,0,15.46,3.01,20.85,8.3c6.64,6.74,9.44,15.56,8.51,25H1687.59z M1725.15,805.54
			c-0.52-7.47-7.99-15.87-18.67-15.67c-11,0-18.16,7.99-18.67,15.67H1725.15z"/>
	</g>
	<path class="st26" d="M1484.5,461.24l-0.29,0.1c0.11,0.1,0.22,0.2,0.33,0.31L1484.5,461.24z M1433.19,461.24l-0.03,0.3
		c0.08-0.07,0.16-0.15,0.24-0.22L1433.19,461.24z M1433.19,461.24l-0.03,0.3c0.08-0.07,0.16-0.15,0.24-0.22L1433.19,461.24z
		 M1433.19,461.24l-0.03,0.3c0.08-0.07,0.16-0.15,0.24-0.22L1433.19,461.24z M1433.19,461.24l-0.03,0.3
		c0.08-0.07,0.16-0.15,0.24-0.22L1433.19,461.24z M1433.19,461.24l-0.03,0.3c0.08-0.07,0.16-0.15,0.24-0.22L1433.19,461.24z"/>
	<path class="st27" d="M1503.05,759.16c0,1.47-0.91,2.79-2.29,3.28l-23.04,8.29l-10.53,3.79l-7.17,2.58
		c-1.1,0.39-2.26,0.59-3.44,0.59c-1.18,0-2.34-0.2-3.44-0.59l-7.18-2.59l-10.48-3.78l-5.51-1.99c1.29-1.34,2.87-2.42,4.67-3.14
		l22.8-8.96c1.19-0.47,1.77-1.82,1.31-3.01c-0.46-1.19-1.82-1.78-3.01-1.31l-22.8,8.96c-2.84,1.12-5.27,2.93-7.15,5.19
		c-2.57,3.31-4.05,7.45-3.43,11.83v3.57c-0.18,0.97,0.19,1.98,0.52,3.02c-0.48,0.91-0.92,1.86-1.33,2.83
		c-1.95,4.61-2.93,9.49-2.93,14.63c0,0.87,0.02,1.73,0.08,2.58l-6.82-1.7c-0.75-0.19-1.37-0.74-1.63-1.48
		c-0.26-0.74-0.13-1.55,0.34-2.18c1.25-1.71,2.32-3.57,3.27-5.46c1.67-3.35,3.24-7.61,3.51-11.73v-4.08
		c-0.27-4.66,1.08-9.09,3.46-12.84l-8.4-3.04c-1.38-0.5-2.3-1.81-2.3-3.28c0-1.47,0.91-2.77,2.3-3.28l40.73-14.71
		c1.1-0.39,2.26-0.6,3.44-0.6s2.34,0.21,3.44,0.6l40.73,14.71C1502.14,756.39,1503.05,757.69,1503.05,759.16z"/>
	<path class="st27" d="M1493.87,803.15c0,0.44-0.02,0.87-0.07,1.3c-0.04,0.44-0.06,0.87-0.06,1.3h-64.98
		c0.17,3.48,1.04,6.79,2.61,9.91c1.57,3.13,3.63,5.87,6.2,8.22c2.56,2.35,5.48,4.22,8.74,5.62c3.26,1.39,6.63,2.09,10.11,2.09
		c3.22-0.09,6.22-0.59,9-1.5c2.78-0.91,5.27-2.13,7.44-3.65c2.17-1.52,4.05-3.28,5.61-5.28c1.57-2,2.74-4.13,3.52-6.4h9.66
		c-1.22,3.57-2.96,6.87-5.22,9.92c-2.27,3.05-4.94,5.7-8.03,7.96c-3.09,2.27-6.48,4.03-10.18,5.28c-3.7,1.26-7.59,1.89-11.68,1.89
		c-4.96,0-9.7-0.96-14.22-2.87c-4.53-1.91-8.48-4.54-11.88-7.89c-3.39-3.34-6.09-7.28-8.09-11.81c-1.68-3.79-2.65-7.86-2.92-12.21
		l2.42,0.61c0.59,0.16,1.23,0.04,1.77-0.29c0.52-0.33,0.9-0.87,1.01-1.48c1.23-6.1,0.62-11.57-0.3-15.48
		c-0.23-1.01-0.49-2.02-0.8-3.02c1.74-3.38,3.94-6.42,6.59-9.1c0.42-0.43,0.84-0.84,1.28-1.24c0.08-0.07,0.16-0.15,0.24-0.22
		l9.08,3.28l10.96,3.96c1.57,0.57,3.24,0.86,4.91,0.86s3.33-0.29,4.92-0.86l10.9-3.94l9.07-3.28c0.11,0.1,0.22,0.2,0.32,0.3
		c0.52,0.5,1.01,1.01,1.5,1.53c2,2.17,3.65,4.35,4.96,6.52c2.09,3.39,3.55,6.78,4.37,10.18
		C1493.45,796.75,1493.87,800.02,1493.87,803.15z"/>
	<g>
		<path class="st24" d="M1678.19,863.81h16.56v4.16h-11.84v8.4h11.68v4.12h-11.68v8.76h11.84v4.16h-16.56V863.81z"/>
		<path class="st24" d="M1699.51,863.81h8.36c4.64,0,7.04,0.64,8.6,1.72c2.44,1.6,3.92,4.68,3.92,8c0,2.08-0.6,4.08-1.68,5.64
			c-1.52,2.12-3.44,2.84-5.72,3.24l6.96,11h-5l-8.12-13.36h1.04c2.04,0,4.52-0.08,5.92-1.28c1.36-1.2,2.04-2.92,2.04-4.84
			c0-2-0.96-3.96-2.52-5c-1.28-0.8-2.92-0.96-5.04-0.96h-4.04v25.44h-4.72V863.81z"/>
		<path class="st24" d="M1732.3,863.81c4.6,0,6.56,0.6,8.32,2c2.08,1.6,3.28,4.44,3.28,7.28c0,2.84-1.24,5.8-3.08,7.28
			c-2,1.56-4,2.2-8.08,2.2h-4.16v10.84h-4.72v-29.59H1732.3z M1728.58,878.4h4.08c1.88,0,3.32-0.2,4.6-1
			c1.2-0.68,2.12-2.24,2.12-4.24c0-2-0.92-3.52-2.16-4.24c-1.32-0.8-2.76-0.96-4.72-0.96h-3.92V878.4z"/>
	</g>
</g>
</svg>
