<?xml version="1.0" encoding="utf-8"?>
<!-- Generator: Adobe Illustrator 27.4.1, SVG Export Plug-In . SVG Version: 6.00 Build 0)  -->
<svg version="1.1" id="Layer_1" xmlns="http://www.w3.org/2000/svg" xmlns:xlink="http://www.w3.org/1999/xlink" x="0px" y="0px"
	 viewBox="0 0 226 42" style="enable-background:new 0 0 226 42;" xml:space="preserve">
<style type="text/css">
	.st0{fill:#FFFFFF;}
</style>
<g>
	<path class="st0" d="M4.6,25.3c0.2,3.1,3,4.8,5.6,4.8c2.3,0,3.8-1,4.6-2.6h4.7c-0.9,2.1-2.3,3.8-3.9,4.9c-1.6,1.1-3.5,1.7-5.5,1.7
		C4.3,34,0,29.2,0,23.9c0-5.5,4.3-10.3,10.1-10.3c2.9,0,5.4,1.1,7.2,3c2.4,2.4,3.2,5.5,2.8,8.8H4.6z M15.7,21.8
		c-0.2-1.8-2.1-4.4-5.5-4.4c-3.4,0-5.3,2.5-5.5,4.4H15.7z"/>
	<path class="st0" d="M43.5,33.5h-4.4v-2.8c-0.8,1.4-2.7,3.4-6.6,3.4c-5.9,0-9.8-4.6-9.8-10.3c0-6.3,4.5-10.2,9.7-10.2
		c3.7,0,5.8,2,6.5,3.1v-2.8V7.4h4.6V33.5z M27.3,23.8c0,3.3,2.4,5.9,5.9,5.9c1.7,0,3.2-0.7,4.3-1.8c1.1-1.1,1.7-2.6,1.7-4.3
		c0-1.7-0.7-3.1-1.7-4.2c-1.1-1.1-2.5-1.7-4.2-1.7C29.5,17.8,27.3,20.7,27.3,23.8L27.3,23.8z"/>
	<path class="st0" d="M65.9,33.5h-4.3v-2.6c-0.8,1.5-2.5,3.2-6,3.2c-6.3,0-7.5-4.9-7.5-8.2V14.1h4.6v10.5c0,2.8,0.9,5.1,4.2,5.1
		c3.3,0,4.4-2.2,4.4-4.9V14.1h4.6V33.5z"/>
	<path class="st0" d="M73.1,22.3c0.1,1.2,0.4,2.3,0.9,3.4c0.5,1.1,1.3,2,2.1,2.8c0.9,0.8,1.9,1.5,3,1.9c1.1,0.5,2.3,0.7,3.5,0.7
		c1.1,0,2.1-0.2,3.1-0.5c1-0.3,1.8-0.7,2.6-1.3c0.8-0.5,1.4-1.1,1.9-1.8c0.5-0.7,0.9-1.4,1.2-2.2h3.3c-0.4,1.2-1,2.4-1.8,3.4
		c-0.8,1.1-1.7,2-2.8,2.8c-1.1,0.8-2.2,1.4-3.5,1.8c-1.3,0.4-2.6,0.7-4,0.7c-1.7,0-3.4-0.3-4.9-1c-1.6-0.7-2.9-1.6-4.1-2.7
		c-1.2-1.2-2.1-2.5-2.8-4.1c-0.7-1.6-1-3.3-1-5.1c0-1.7,0.3-3.4,1-5c0.7-1.6,1.6-2.9,2.7-4.1c1.2-1.2,2.5-2.1,4.1-2.8
		c1.5-0.7,3.2-1.1,5-1.1c1.4,0,2.6,0.2,3.8,0.6c1.2,0.4,2.2,0.9,3.1,1.5c0.9,0.6,1.7,1.3,2.4,2c0.7,0.8,1.3,1.5,1.7,2.3
		c0.7,1.2,1.2,2.3,1.5,3.5c0.3,1.2,0.4,2.3,0.4,3.4c0,0.2,0,0.3,0,0.5s0,0.3,0,0.5H73.1z M92.4,19.4c-0.2-1.4-0.7-2.7-1.4-3.8
		c-0.7-1.1-1.5-1.9-2.4-2.6c-0.9-0.7-1.9-1.2-2.9-1.5c-1-0.3-2-0.5-3-0.5c-1,0-2,0.2-3,0.5c-1,0.3-2,0.8-2.9,1.5
		c-0.9,0.7-1.7,1.6-2.4,2.6c-0.7,1.1-1.1,2.3-1.3,3.8H92.4z"/>
	<path class="st0" d="M119.2,31.2c0,3.3-0.8,5.5-2.3,7.1c-1.8,2-4.7,3.5-8.1,3.5c-5.4,0-8.6-3.2-9.5-6.4h4.2
		c0.4,0.8,1.2,1.6,2.1,2.2c1.2,0.8,2.5,1,3.3,1c3.2,0,6.5-2.4,6.5-6.6v-2c-1.1,2.1-3.4,3.9-6.9,3.9c-5.7,0-9.9-4.4-9.9-10.1
		c0-6,4.3-10.2,9.9-10.2c3.2,0,5.8,1.7,6.9,3.8v-3.2h3.7V31.2z M102.4,23.9c0,3.6,2.6,6.7,6.6,6.7c1.9,0,3.6-0.7,4.7-1.9
		c1.1-1.2,1.8-2.8,1.9-4.7c0-1.5-0.5-3.2-1.5-4.5c-1.1-1.3-2.7-2.3-5-2.3C105.4,17.2,102.4,19.9,102.4,23.9L102.4,23.9z"/>
	<path class="st0" d="M143.5,33.5h-3.7v-3.3c-1.3,2.6-4.1,3.9-7.1,3.9c-6.2,0-9.8-4.8-9.8-10.1c0-5.8,4.3-10.1,9.8-10.1
		c3.8,0,6.2,2.1,7.1,3.9v-3.4h3.7V33.5z M126.5,24c0,2.8,2,6.6,6.7,6.6c2.9,0,5-1.6,5.9-3.8c0.4-0.9,0.6-1.9,0.7-2.8
		c0-1-0.1-2-0.6-2.8c-0.9-2.2-3.1-3.9-6.1-3.9C129.1,17.2,126.5,20.3,126.5,24L126.5,24z"/>
	<path class="st0" d="M149.7,17.2h-3.4v-2.8h3.4V7.4h3.7v6.9h3.7v2.8h-3.7v16.3h-3.7V17.2z"/>
	<path class="st0" d="M161.2,25c0.2,3.9,3.6,5.8,6.4,5.8c2.6,0,4.5-1.2,5.5-3.2h3.8c-0.9,2.1-2.3,3.7-3.9,4.7
		c-1.6,1.1-3.5,1.6-5.5,1.6c-6.3,0-10.1-5-10.1-10.1c0-5.5,4.3-10.2,10.1-10.2c2.7,0,5.2,1,7.1,2.8c2.3,2.3,3.2,5.3,2.9,8.5H161.2z
		 M173.9,22.2c-0.2-2.5-2.7-5.4-6.3-5.3c-3.7,0-6.2,2.7-6.3,5.3H173.9z"/>
</g>
<path class="st0" d="M98.5,6.5c0,0.5-0.3,0.9-0.8,1.1l-7.8,2.8l-3.6,1.3l-2.4,0.9c-0.4,0.1-0.8,0.2-1.2,0.2c-0.4,0-0.8-0.1-1.2-0.2
	l-2.4-0.9l-3.6-1.3l-1.9-0.7c0.4-0.5,1-0.8,1.6-1.1l7.7-3c0.4-0.2,0.6-0.6,0.4-1c-0.2-0.4-0.6-0.6-1-0.4l-7.7,3
	c-1,0.4-1.8,1-2.4,1.8c-0.9,1.1-1.4,2.5-1.4,4v1.2c0.1,0.3,0.3,0.7,0.4,1c0.1,0.3,0.2,0.7,0.3,1c0.3,1.4,0.5,3.2,0.1,5.4
	c0,0.2-0.2,0.4-0.3,0.5c-0.2,0.1-0.4,0.2-0.6,0.1L69.9,22l-2.3-0.6c-0.3-0.1-0.5-0.3-0.6-0.5s0-0.5,0.1-0.7c0.4-0.6,0.8-1.2,1.1-1.9
	c0.6-1.1,1.1-2.6,1.1-4V13c0-1.6,0.5-3.1,1.3-4.4l-2.8-1C67.3,7.4,67,7,67,6.5s0.3-0.9,0.8-1.1l13.8-5c0.4-0.1,0.8-0.2,1.2-0.2
	c0.4,0,0.8,0.1,1.2,0.2l13.8,5C98.2,5.5,98.5,6,98.5,6.5z"/>
<path class="st0" d="M95.6,21.4c0,0.2,0,0.3,0,0.5c0,0.2,0,0.3,0,0.5H73.1c0.1,1.2,0.4,2.3,0.9,3.4c0.5,1.1,1.3,2,2.1,2.8
	c0.9,0.8,1.9,1.5,3,1.9c1.1,0.5,2.3,0.7,3.5,0.7c1.1,0,2.1-0.2,3.1-0.5c1-0.3,1.8-0.7,2.6-1.3c0.8-0.5,1.4-1.1,1.9-1.8
	c0.5-0.7,0.9-1.4,1.2-2.2h3.3c-0.4,1.2-1,2.4-1.8,3.4c-0.8,1.1-1.7,2-2.8,2.8c-1.1,0.8-2.2,1.4-3.5,1.8c-1.3,0.4-2.6,0.7-4,0.7
	c-1.7,0-3.4-0.3-4.9-1c-1.6-0.7-2.9-1.6-4.1-2.7c-1.2-1.2-2.1-2.5-2.8-4.1c-0.6-1.3-0.9-2.7-1-4.2l0.8,0.2c0.2,0.1,0.4,0,0.6-0.1
	c0.2-0.1,0.3-0.3,0.3-0.5c0.4-2.1,0.2-4-0.1-5.4c-0.1-0.3-0.2-0.7-0.3-1c0.6-1.2,1.4-2.2,2.3-3.1c0.1-0.1,0.3-0.3,0.4-0.4
	c0,0,0.1-0.1,0.1-0.1l3.1,1.1l3.8,1.4c0.5,0.2,1.1,0.3,1.7,0.3c0.6,0,1.2-0.1,1.7-0.3l3.8-1.4l3.1-1.1c0,0,0.1,0.1,0.1,0.1
	c0.2,0.2,0.4,0.3,0.5,0.5c0.7,0.8,1.3,1.5,1.7,2.3c0.7,1.2,1.2,2.3,1.5,3.5C95.5,19.1,95.6,20.3,95.6,21.4z"/>
</svg>
