<svg xmlns="http://www.w3.org/2000/svg" version="1.1" xmlns:xlink="http://www.w3.org/1999/xlink" xmlns:svgjs="http://svgjs.dev/svgjs" width="1000" height="1000" viewBox="0 0 1000 1000"><rect width="1000" height="1000" fill="#ffffff"></rect><g transform="matrix(0.7,0,0,0.7,149.57575757575756,420.5474569784378)"><svg viewBox="0 0 396 90" data-background-color="#ffffff" preserveAspectRatio="xMidYMid meet" height="227" width="1000" xmlns="http://www.w3.org/2000/svg" xmlns:xlink="http://www.w3.org/1999/xlink"><g id="tight-bounds" transform="matrix(1,0,0,1,0.2400000000000091,0.0014403520490873234)"><svg viewBox="0 0 395.52 89.9971192959018" height="89.9971192959018" width="395.52"><g><svg viewBox="0 0 527.8657399563488 120.11123576828226" height="89.9971192959018" width="395.52"><g transform="matrix(1,0,0,1,0,16.600033308062166)"><svg viewBox="0 0 395.52 86.91116915215792" height="86.91116915215792" width="395.52"><g id="textblocktransform"><svg viewBox="0 0 395.52 86.91116915215792" height="86.91116915215792" width="395.52" id="textblock"><g><svg viewBox="0 0 395.52 51.82443021766965" height="51.82443021766965" width="395.52"><g transform="matrix(1,0,0,1,0,0)"><svg width="395.52" viewBox="2.25 -29.540000915527344 228.7899932861328 29.98000144958496" height="51.82443021766965" data-palette-color="#0080ff"><path d="M25.73-6.88L23.73 0.24Q22.31 0.1 21.22 0.05 20.12 0 19.14 0L19.14 0 2.39 0 2.25-1.86 5.27-2.54Q5.32-2.78 5.37-3.66 5.42-4.54 5.44-6.05 5.47-7.57 5.47-9.72L5.47-9.72 5.47-18.9Q5.47-21.09 5.44-22.63 5.42-24.17 5.37-25.05 5.32-25.93 5.27-26.12L5.27-26.12 2.25-26.81 2.39-28.66 18.07-28.66Q18.75-28.66 19.53-28.66 20.31-28.66 21.17-28.74 22.02-28.81 22.95-28.86L22.95-28.86 23.93-22.41 21.73-22.07 20.12-26.17Q19.73-26.27 19.24-26.29 18.75-26.32 18.21-26.32L18.21-26.32 12.7-26.32Q11.77-26.32 11.06-26.29 10.35-26.27 9.67-26.17L9.67-26.17Q9.67-25.98 9.64-25.07 9.62-24.17 9.59-23 9.57-21.83 9.57-20.65L9.57-20.65 9.57-7.47Q9.57-6.49 9.59-5.49 9.62-4.49 9.64-3.74 9.67-2.98 9.67-2.64L9.67-2.64Q10.4-2.59 11.13-2.54 11.87-2.49 12.79-2.49L12.79-2.49 17.53-2.49Q18.6-2.49 19.29-2.51 19.97-2.54 20.36-2.59 20.75-2.64 21-2.69L21-2.69 23.54-7.32 25.73-6.88ZM20.41-10.01L18.31-10.01 17.72-13.33Q17.48-13.43 16.89-13.48 16.31-13.53 15.48-13.53L15.48-13.53 11.77-13.53Q11.13-13.53 10.38-13.48 9.62-13.43 8.84-13.38L8.84-13.38 8.84-16.06Q9.62-16.02 10.38-15.99 11.13-15.97 11.77-15.97L11.77-15.97 15.48-15.97Q16.31-15.97 16.89-15.99 17.48-16.02 17.72-16.11L17.72-16.11 18.31-19.48 20.41-19.48 20.41-10.01ZM29.44-26.81L29.54-28.66 41.35-28.66Q49.07-28.66 53.39-24.98 57.71-21.29 57.71-14.65L57.71-14.65Q57.71-10.35 55.71-7.03 53.71-3.71 50.14-1.86 46.58 0 41.94 0L41.94 0 29.54 0 29.44-1.86 32.42-2.54Q32.52-2.98 32.59-5.03 32.66-7.08 32.66-9.72L32.66-9.72 32.66-18.9Q32.66-21.83 32.59-23.83 32.52-25.83 32.42-26.12L32.42-26.12 29.44-26.81ZM36.91-26.03L36.91-26.03Q36.91-25.54 36.89-24.78 36.86-24.02 36.84-22.66 36.81-21.29 36.81-18.9L36.81-18.9 36.81-9.72Q36.81-8.25 36.84-6.96 36.86-5.66 36.94-4.64 37.01-3.61 37.06-2.93L37.06-2.93Q38.62-2.73 39.87-2.61 41.11-2.49 42.28-2.49L42.28-2.49Q47.46-2.49 50.14-5.25 52.83-8.01 52.83-13.23L52.83-13.23Q52.83-16.41 52.05-18.85 51.27-21.29 49.73-22.97 48.19-24.66 45.97-25.51 43.75-26.37 40.82-26.37L40.82-26.37Q39.94-26.37 38.96-26.29 37.99-26.22 36.91-26.03ZM62.59-26.81L62.69-28.66 73.04-28.66 73.19-26.81 70.16-26.07Q70.16-25.88 70.11-25.2 70.06-24.51 70.04-23.05 70.01-21.58 70.01-18.9L70.01-18.9 70.01-11.38Q70.06-8.3 71.02-6.42 71.97-4.54 73.68-3.66 75.39-2.78 77.58-2.78L77.58-2.78Q79.73-2.78 81.32-3.66 82.91-4.54 83.78-6.52 84.66-8.5 84.66-11.72L84.66-11.72 84.66-18.02Q84.66-20.21 84.61-21.9 84.57-23.58 84.52-24.68 84.47-25.78 84.37-26.07L84.37-26.07 80.95-26.81 81.1-28.66 90.57-28.66 90.72-26.81 87.74-26.07Q87.74-25.93 87.69-25.17 87.64-24.41 87.62-22.71 87.59-21 87.59-18.02L87.59-18.02 87.59-11.47Q87.59-7.37 86.23-4.74 84.86-2.1 82.47-0.83 80.07 0.44 77.09 0.44L77.09 0.44Q71.77 0.44 68.77-2.49 65.77-5.42 65.77-10.79L65.77-10.79 65.77-18.9Q65.77-21.58 65.72-23.07 65.67-24.56 65.64-25.24 65.62-25.93 65.57-26.07L65.57-26.07 62.59-26.81ZM118.6-6.88L116.59 0.24Q115.18 0.1 114.08 0.05 112.98 0 112 0L112 0 95.26 0 95.11-1.86 98.14-2.54Q98.19-2.78 98.23-3.66 98.28-4.54 98.31-6.05 98.33-7.57 98.33-9.72L98.33-9.72 98.33-18.9Q98.33-21.09 98.31-22.63 98.28-24.17 98.23-25.05 98.19-25.93 98.14-26.12L98.14-26.12 95.11-26.81 95.26-28.66 110.93-28.66Q111.61-28.66 112.39-28.66 113.18-28.66 114.03-28.74 114.89-28.81 115.81-28.86L115.81-28.86 116.79-22.41 114.59-22.07 112.98-26.17Q112.59-26.27 112.1-26.29 111.61-26.32 111.08-26.32L111.08-26.32 105.56-26.32Q104.63-26.32 103.92-26.29 103.22-26.27 102.53-26.17L102.53-26.17Q102.53-25.98 102.51-25.07 102.48-24.17 102.46-23 102.43-21.83 102.43-20.65L102.43-20.65 102.43-7.47Q102.43-6.49 102.46-5.49 102.48-4.49 102.51-3.74 102.53-2.98 102.53-2.64L102.53-2.64Q103.26-2.59 104-2.54 104.73-2.49 105.66-2.49L105.66-2.49 110.39-2.49Q111.47-2.49 112.15-2.51 112.83-2.54 113.22-2.59 113.62-2.64 113.86-2.69L113.86-2.69 116.4-7.32 118.6-6.88ZM113.27-10.01L111.17-10.01 110.59-13.33Q110.34-13.43 109.76-13.48 109.17-13.53 108.34-13.53L108.34-13.53 104.63-13.53Q104-13.53 103.24-13.48 102.48-13.43 101.7-13.38L101.7-13.38 101.7-16.06Q102.48-16.02 103.24-15.99 104-15.97 104.63-15.97L104.63-15.97 108.34-15.97Q109.17-15.97 109.76-15.99 110.34-16.02 110.59-16.11L110.59-16.11 111.17-19.48 113.27-19.48 113.27-10.01ZM138.03 0.44L138.03 0.44Q133.63 0.44 130.04-1.2 126.45-2.83 124.36-6.05 122.26-9.28 122.26-14.06L122.26-14.06Q122.26-17.14 123.35-19.85 124.45-22.56 126.53-24.66 128.6-26.76 131.61-27.93 134.61-29.1 138.47-29.1L138.47-29.1Q140.52-29.1 142.79-28.71 145.06-28.32 146.72-27.59L146.72-27.59 147.01-21.19 144.86-21 143.45-25.34Q142.52-26.03 140.96-26.32 139.39-26.61 138.08-26.61L138.08-26.61Q134.32-26.61 131.95-25.02 129.58-23.44 128.46-20.8 127.33-18.16 127.33-14.99L127.33-14.99Q127.33-10.84 128.82-7.93 130.31-5.03 132.85-3.56 135.39-2.1 138.56-2.1L138.56-2.1Q139.93-2.1 141.62-2.49 143.3-2.88 144.62-3.86L144.62-3.86 143.45-1.12 143.45-6.25Q143.45-7.86 143.4-9.08 143.35-10.3 143.25-10.94L143.25-10.94 139.93-11.47 140.03-13.43 149.55-13.43 149.65-11.57 147.5-10.99Q147.5-10.74 147.5-9.81 147.5-8.89 147.5-7.57L147.5-7.57Q147.5-5.86 147.55-4.69 147.6-3.52 147.65-2.25L147.65-2.25Q145.74-0.98 143.08-0.27 140.42 0.44 138.03 0.44ZM159.75 0L151.55 0 151.45-1.86 153.84-2.54 163.9-27.83 166.74-29.54 177.38-2.54 179.82-1.86 179.68 0 169.81 0 169.71-1.86 172.69-2.54 169.81-9.77 169.27-11.28 163.95-24.56 165.08-25.2 160-11.28 159.46-9.81 156.87-2.54 159.85-1.86 159.75 0ZM158.39-9.03L158.39-9.03 158.39-11.62Q159.31-11.57 160.93-11.52 162.54-11.47 164.88-11.47L164.88-11.47Q167.18-11.47 168.81-11.52 170.45-11.57 171.33-11.62L171.33-11.62 171.33-9.03Q169.67-9.08 168.03-9.11 166.39-9.13 164.88-9.13L164.88-9.13Q163.42-9.13 161.83-9.11 160.24-9.08 158.39-9.03ZM203.4-28.86L203.4-28.86 204.48-20.95 202.33-20.7 200.28-26.22Q199.89-26.32 199.37-26.34 198.86-26.37 198.47-26.37L198.47-26.37 196.71-26.37Q196.23-26.37 195.4-26.37 194.57-26.37 193.88-26.32L193.88-26.32Q193.88-25.93 193.86-24.49 193.83-23.05 193.83-21.14 193.83-19.24 193.83-17.48L193.83-17.48 193.83-10.89Q193.83-7.81 193.88-5.54 193.93-3.27 193.93-2.54L193.93-2.54 198.08-1.95 197.93 0 185.48 0 185.39-1.95 189.49-2.54Q189.49-3.27 189.54-5.54 189.58-7.81 189.58-10.89L189.58-10.89 189.58-17.48Q189.58-19.24 189.58-21.14 189.58-23.05 189.58-24.49 189.58-25.93 189.54-26.32L189.54-26.32Q188.9-26.37 188.07-26.37 187.24-26.37 186.75-26.37L186.75-26.37 184.85-26.37Q184.46-26.37 183.99-26.34 183.53-26.32 183.09-26.22L183.09-26.22 181.09-20.65 178.89-20.95 179.97-28.86Q180.5-28.81 181.11-28.78 181.72-28.76 182.33-28.71 182.94-28.66 183.53-28.66 184.12-28.66 184.7-28.66L184.7-28.66 198.67-28.66Q199.2-28.66 199.81-28.66 200.42-28.66 201.01-28.71 201.6-28.76 202.21-28.78 202.82-28.81 203.4-28.86ZM231.04-6.88L229.04 0.24Q227.62 0.1 226.52 0.05 225.42 0 224.45 0L224.45 0 207.7 0 207.55-1.86 210.58-2.54Q210.63-2.78 210.68-3.66 210.72-4.54 210.75-6.05 210.77-7.57 210.77-9.72L210.77-9.72 210.77-18.9Q210.77-21.09 210.75-22.63 210.72-24.17 210.68-25.05 210.63-25.93 210.58-26.12L210.58-26.12 207.55-26.81 207.7-28.66 223.37-28.66Q224.05-28.66 224.84-28.66 225.62-28.66 226.47-28.74 227.33-28.81 228.25-28.86L228.25-28.86 229.23-22.41 227.03-22.07 225.42-26.17Q225.03-26.27 224.54-26.29 224.05-26.32 223.52-26.32L223.52-26.32 218-26.32Q217.07-26.32 216.36-26.29 215.66-26.27 214.97-26.17L214.97-26.17Q214.97-25.98 214.95-25.07 214.92-24.17 214.9-23 214.88-21.83 214.88-20.65L214.88-20.65 214.88-7.47Q214.88-6.49 214.9-5.49 214.92-4.49 214.95-3.74 214.97-2.98 214.97-2.64L214.97-2.64Q215.71-2.59 216.44-2.54 217.17-2.49 218.1-2.49L218.1-2.49 222.83-2.49Q223.91-2.49 224.59-2.51 225.28-2.54 225.67-2.59 226.06-2.64 226.3-2.69L226.3-2.69 228.84-7.32 231.04-6.88ZM225.71-10.01L223.62-10.01 223.03-13.33Q222.79-13.43 222.2-13.48 221.61-13.53 220.78-13.53L220.78-13.53 217.07-13.53Q216.44-13.53 215.68-13.48 214.92-13.43 214.14-13.38L214.14-13.38 214.14-16.06Q214.92-16.02 215.68-15.99 216.44-15.97 217.07-15.97L217.07-15.97 220.78-15.97Q221.61-15.97 222.2-15.99 222.79-16.02 223.03-16.11L223.03-16.11 223.62-19.48 225.71-19.48 225.71-10.01Z" opacity="1" transform="matrix(1,0,0,1,0,0)" fill="#000000" class="undefined-text-0" data-fill-palette-color="primary" id="text-0"></path></svg></g></svg></g><g transform="matrix(1,0,0,1,163.310208,64.05893440573624)"><svg viewBox="0 0 232.209792 22.8522347464217" height="22.8522347464217" width="232.209792"><g transform="matrix(1,0,0,1,0,0)"><svg width="232.209792" viewBox="3.130000114440918 -34 351.0400085449219 34.54999923706055" height="22.8522347464217" data-palette-color="#0080ff"><path d="M22.25 0L19.73 0 19.35-4.93 19.35-15.43Q19.35-19 17.8-20.5 16.25-22 13.38-22L13.38-22Q11.78-22 10.4-21.54 9.03-21.08 8.2-20.06 7.38-19.05 7.38-17.4L7.38-17.4 4.08-17.4Q4.08-19.93 5.33-21.44 6.58-22.95 8.69-23.61 10.8-24.28 13.38-24.28L13.38-24.28Q15.93-24.28 17.93-23.39 19.93-22.5 21.09-20.54 22.25-18.57 22.25-15.38L22.25-15.38 22.25 0ZM11.48 0.55L11.48 0.55Q8.63 0.55 6.78-0.49 4.93-1.53 4.03-3.15 3.13-4.78 3.13-6.5L3.13-6.5Q3.13-9 4.34-10.5 5.55-12 7.59-12.68 9.63-13.35 12.05-13.35L12.05-13.35Q13.88-13.35 15.84-12.94 17.8-12.53 19.6-11.8L19.6-11.8 19.6-9.85Q18.05-10.53 16.03-10.93 14-11.33 12.35-11.33L12.35-11.33Q9.8-11.33 8-10.23 6.2-9.13 6.2-6.5L6.2-6.5Q6.2-4.53 7.54-3.15 8.88-1.78 11.85-1.78L11.85-1.78Q13.88-1.78 15.58-2.75 17.28-3.73 18.31-5.18 19.35-6.63 19.35-8.1L19.35-8.1 20.08-8.1Q20.08-5.83 19.01-3.85 17.95-1.88 16.01-0.66 14.08 0.55 11.48 0.55ZM51.9 0L49.07 0 49.07-13.98Q49.07-17.75 47.26-19.75 45.45-21.75 42.27-21.75L42.27-21.75Q39.95-21.75 38.26-20.48 36.57-19.2 35.69-16.9 34.8-14.6 34.8-11.53L34.8-11.53 33.52-11.53Q33.52-15.43 34.59-18.29 35.65-21.15 37.73-22.71 39.82-24.28 42.92-24.28L42.92-24.28Q45.67-24.28 47.69-23.05 49.7-21.83 50.8-19.51 51.9-17.2 51.9-13.98L51.9-13.98 51.9 0ZM34.8 0L31.9 0 31.9-23.73 34.35-23.73 34.8-17.88 34.8 0ZM80.97 0.55L80.97 0.55Q77.87 0.55 75.51-1.04 73.14-2.63 71.79-5.41 70.44-8.2 70.44-11.78L70.44-11.78Q70.44-15.68 71.78-18.48 73.12-21.28 75.48-22.78 77.84-24.28 80.97-24.28L80.97-24.28Q83.59-24.28 85.43-23.21 87.27-22.15 88.39-20.33 89.52-18.5 89.98-16.2 90.44-13.9 90.34-11.45L90.34-11.45 72.82-11.45 72.82-13.45 88.57-13.45 87.42-12.7Q87.49-14.33 87.23-15.94 86.97-17.55 86.26-18.9 85.54-20.25 84.27-21.08 82.99-21.9 80.99-21.9L80.99-21.9Q78.44-21.9 76.74-20.59 75.04-19.28 74.21-17.19 73.37-15.1 73.37-12.73L73.37-12.73 73.37-11.5Q73.37-8.78 74.21-6.6 75.04-4.42 76.73-3.15 78.42-1.88 80.97-1.88L80.97-1.88Q83.59-1.88 85.26-3.16 86.92-4.45 87.24-6.95L87.24-6.95 90.34-6.95Q89.97-4.58 88.68-2.9 87.39-1.23 85.42-0.34 83.44 0.55 80.97 0.55ZM106.64 0.55L106.64 0.55Q103.82 0.55 101.43-0.99 99.04-2.53 97.62-5.33 96.19-8.13 96.19-11.95L96.19-11.95Q96.19-15.78 97.6-18.54 99.02-21.3 101.35-22.79 103.69-24.28 106.47-24.28L106.47-24.28Q109.04-24.28 111.04-23.01 113.04-21.75 114.17-19.41 115.29-17.07 115.29-13.8L115.29-13.8 113.97-13.8Q113.97-16.43 112.95-18.19 111.94-19.95 110.32-20.85 108.69-21.75 106.84-21.75L106.84-21.75Q104.82-21.75 103.08-20.58 101.34-19.4 100.28-17.23 99.22-15.05 99.22-11.95L99.22-11.95Q99.22-8.83 100.27-6.6 101.32-4.38 103.07-3.2 104.82-2.02 106.87-2.02L106.87-2.02Q108.62-2.02 110.24-2.93 111.87-3.83 112.92-5.59 113.97-7.35 113.97-9.93L113.97-9.93 115.29-9.93Q115.29-6.63 114.15-4.28 113.02-1.93 111.05-0.69 109.09 0.55 106.64 0.55ZM116.84 0L114.39 0 113.97-5.4 113.97-34 116.84-34 116.84 0ZM143.69 0L143.69-23.75 146.59-23.75 146.59 0 143.69 0ZM126.59-8.7L126.59-23.75 129.49-23.75 129.49-8.85Q129.49-5.55 131.1-3.81 132.71-2.08 135.76-2.08L135.76-2.08Q138.26-2.08 140.04-3.43 141.81-4.78 142.75-7.05 143.69-9.33 143.69-12.08L143.69-12.08 145.06-12.08Q145.06-8.28 143.89-5.45 142.71-2.63 140.56-1.09 138.41 0.45 135.46 0.45L135.46 0.45Q132.71 0.45 130.73-0.58 128.74-1.6 127.66-3.64 126.59-5.68 126.59-8.7L126.59-8.7ZM165.14 0.55L165.14 0.55Q162.36 0.55 159.94-0.98 157.51-2.5 156.02-5.3 154.54-8.1 154.54-11.93L154.54-11.93Q154.54-15.8 156.02-18.56 157.51-21.33 159.94-22.8 162.36-24.28 165.14-24.28L165.14-24.28Q166.99-24.28 168.5-23.74 170.01-23.2 171.17-22.24 172.34-21.28 173.16-20.01 173.99-18.75 174.44-17.3L174.44-17.3 171.41-16.85Q170.69-19.15 169.04-20.45 167.39-21.75 165.09-21.75L165.09-21.75Q163.14-21.75 161.42-20.63 159.71-19.5 158.64-17.31 157.56-15.13 157.56-11.93L157.56-11.93Q157.56-9.03 158.52-6.79 159.49-4.55 161.19-3.29 162.89-2.02 165.09-2.02L165.09-2.02Q168.11-2.02 169.76-3.53 171.41-5.03 171.41-7.75L171.41-7.75 174.44-7.75Q174.44-5.3 173.26-3.43 172.09-1.55 169.99-0.5 167.89 0.55 165.14 0.55ZM199.58 0L197.06 0 196.68-4.93 196.68-15.43Q196.68-19 195.13-20.5 193.58-22 190.71-22L190.71-22Q189.11-22 187.73-21.54 186.36-21.08 185.53-20.06 184.71-19.05 184.71-17.4L184.71-17.4 181.41-17.4Q181.41-19.93 182.66-21.44 183.91-22.95 186.02-23.61 188.13-24.28 190.71-24.28L190.71-24.28Q193.26-24.28 195.26-23.39 197.26-22.5 198.42-20.54 199.58-18.57 199.58-15.38L199.58-15.38 199.58 0ZM188.81 0.55L188.81 0.55Q185.96 0.55 184.11-0.49 182.26-1.53 181.36-3.15 180.46-4.78 180.46-6.5L180.46-6.5Q180.46-9 181.67-10.5 182.88-12 184.92-12.68 186.96-13.35 189.38-13.35L189.38-13.35Q191.21-13.35 193.17-12.94 195.13-12.53 196.93-11.8L196.93-11.8 196.93-9.85Q195.38-10.53 193.36-10.93 191.33-11.33 189.68-11.33L189.68-11.33Q187.13-11.33 185.33-10.23 183.53-9.13 183.53-6.5L183.53-6.5Q183.53-4.53 184.87-3.15 186.21-1.78 189.18-1.78L189.18-1.78Q191.21-1.78 192.91-2.75 194.61-3.73 195.65-5.18 196.68-6.63 196.68-8.1L196.68-8.1 197.41-8.1Q197.41-5.83 196.35-3.85 195.28-1.88 193.35-0.66 191.41 0.55 188.81 0.55ZM216.16 0.55L216.16 0.55Q214.31 0.55 212.87-0.18 211.43-0.9 210.62-2.33 209.81-3.75 209.81-5.85L209.81-5.85 209.81-30.48 212.63-30.48 212.63-5.9Q212.63-1.85 216.38-1.85L216.38-1.85Q217.48-1.85 218.48-2.1 219.48-2.35 220.73-2.8L220.73-2.8 221.13-0.68Q219.91-0.13 218.68 0.21 217.46 0.55 216.16 0.55ZM220.66-21.63L205.73-21.63 205.73-23.73 220.66-23.73 220.66-21.63ZM229.13-29.98L229.13-29.98Q228.2-29.98 227.63-30.55 227.05-31.13 227.05-32L227.05-32Q227.05-32.85 227.63-33.36 228.2-33.88 229.13-33.88L229.13-33.88Q230.1-33.88 230.65-33.36 231.2-32.85 231.2-32L231.2-32Q231.2-31.13 230.65-30.55 230.1-29.98 229.13-29.98ZM230.58 0L227.68 0 227.68-23.75 230.58-23.75 230.58 0ZM249.9 0.55L249.9 0.55Q246.73 0.55 244.3-0.88 241.88-2.3 240.49-5.08 239.1-7.85 239.1-11.88L239.1-11.88Q239.1-15.9 240.49-18.66 241.88-21.43 244.3-22.85 246.73-24.28 249.9-24.28L249.9-24.28Q253.08-24.28 255.5-22.85 257.93-21.43 259.3-18.66 260.68-15.9 260.68-11.88L260.68-11.88Q260.68-7.85 259.3-5.08 257.93-2.3 255.5-0.88 253.08 0.55 249.9 0.55ZM249.85-1.98L249.85-1.98Q252.48-1.98 254.23-3.21 255.98-4.45 256.84-6.68 257.7-8.9 257.7-11.88L257.7-11.88Q257.7-16.35 255.79-19.07 253.88-21.8 249.95-21.8L249.95-21.8Q247.33-21.8 245.59-20.56 243.85-19.33 242.99-17.09 242.13-14.85 242.13-11.88L242.13-11.88Q242.13-7.43 244.04-4.7 245.95-1.98 249.85-1.98ZM288.52 0L285.7 0 285.7-13.98Q285.7-17.75 283.89-19.75 282.07-21.75 278.9-21.75L278.9-21.75Q276.57-21.75 274.89-20.48 273.2-19.2 272.31-16.9 271.42-14.6 271.42-11.53L271.42-11.53 270.15-11.53Q270.15-15.43 271.21-18.29 272.27-21.15 274.36-22.71 276.45-24.28 279.55-24.28L279.55-24.28Q282.3-24.28 284.31-23.05 286.32-21.83 287.42-19.51 288.52-17.2 288.52-13.98L288.52-13.98 288.52 0ZM271.42 0L268.52 0 268.52-23.73 270.97-23.73 271.42-17.88 271.42 0ZM317.87 0.55L317.87 0.55Q314.69 0.55 312.27-0.88 309.84-2.3 308.46-5.08 307.07-7.85 307.07-11.88L307.07-11.88Q307.07-15.9 308.46-18.66 309.84-21.43 312.27-22.85 314.69-24.28 317.87-24.28L317.87-24.28Q321.04-24.28 323.47-22.85 325.89-21.43 327.27-18.66 328.64-15.9 328.64-11.88L328.64-11.88Q328.64-7.85 327.27-5.08 325.89-2.3 323.47-0.88 321.04 0.55 317.87 0.55ZM317.82-1.98L317.82-1.98Q320.44-1.98 322.19-3.21 323.94-4.45 324.81-6.68 325.67-8.9 325.67-11.88L325.67-11.88Q325.67-16.35 323.76-19.07 321.84-21.8 317.92-21.8L317.92-21.8Q315.29-21.8 313.56-20.56 311.82-19.33 310.96-17.09 310.09-14.85 310.09-11.88L310.09-11.88Q310.09-7.43 312.01-4.7 313.92-1.98 317.82-1.98ZM344.87 0.55L344.87 0.55Q341.42 0.55 339.18-0.45 336.94-1.45 335.82-3.15 334.69-4.85 334.59-6.95L334.59-6.95 337.49-6.95Q337.64-4.42 339.53-3.14 341.42-1.85 344.69-1.85L344.69-1.85Q346.39-1.85 347.84-2.41 349.29-2.98 350.18-3.96 351.07-4.95 351.07-6.2L351.07-6.2Q351.07-7.8 349.89-8.7 348.72-9.6 346.17-10.25L346.17-10.25 341.84-11.55Q338.72-12.45 337.07-14.11 335.42-15.78 335.42-18.1L335.42-18.1Q335.42-20.9 337.84-22.59 340.27-24.28 344.17-24.28L344.17-24.28Q348.42-24.28 350.79-22.6 353.17-20.93 353.29-18.43L353.29-18.43 350.29-18.43Q350.02-20.2 348.47-21.06 346.92-21.93 344.17-21.93L344.17-21.93Q341.44-21.93 339.94-20.68 338.44-19.43 338.44-17.95L338.44-17.95Q338.44-15.1 343.34-13.78L343.34-13.78 347.59-12.45Q350.79-11.55 352.48-10.05 354.17-8.55 354.17-6.2L354.17-6.2Q354.17-4.48 353.05-2.93 351.94-1.38 349.87-0.41 347.79 0.55 344.87 0.55Z" opacity="1" transform="matrix(1,0,0,1,0,0)" fill="#000000" class="undefined-text-1" data-fill-palette-color="secondary" id="text-1"></path></svg></g></svg></g></svg></g></svg></g><g transform="matrix(1,0,0,1,407.75450418806656,0)"><svg viewBox="0 0 120.11123576828226 120.11123576828226" height="120.11123576828226" width="120.11123576828226"><g data-palette-color="#0080ff"><rect width="32.83040444333049" height="120.11123576828226" fill="#000000" stroke="transparent" data-fill-palette-color="accent" x="0" fill-opacity="1"></rect><rect width="32.83040444333049" height="120.11123576828226" fill="#000000" stroke="transparent" data-fill-palette-color="accent" x="40.03707858942742" fill-opacity="0.75"></rect><rect width="32.83040444333049" height="120.11123576828226" fill="#000000" stroke="transparent" data-fill-palette-color="accent" x="80.07415717885485" fill-opacity="0.5"></rect></g></svg></g></svg></g><defs></defs></svg><rect width="395.52" height="89.9971192959018" fill="none" stroke="none" visibility="hidden"></rect></g></svg></g></svg>