<svg xmlns="http://www.w3.org/2000/svg" version="1.1" xmlns:xlink="http://www.w3.org/1999/xlink" xmlns:svgjs="http://svgjs.dev/svgjs" width="1000" height="1000" viewBox="0 0 1000 1000"><rect width="1000" height="1000" fill="#4b91f1"></rect><g transform="matrix(0.7,0,0,0.7,149.57576455131283,444.4681363583776)"><svg viewBox="0 0 396 63" data-background-color="#4b91f1" preserveAspectRatio="xMidYMid meet" height="159" width="1000" xmlns="http://www.w3.org/2000/svg" xmlns:xlink="http://www.w3.org/1999/xlink"><g id="tight-bounds" transform="matrix(1,0,0,1,0.23999629089979635,-0.06686963681750058)"><svg viewBox="0 0 395.52 63.13373927363502" height="63.13373927363502" width="395.52"><g><svg viewBox="0 0 530.0780289032379 84.61217655607653" height="63.13373927363502" width="395.52"><g><rect width="4.882488438388288" height="84.61217655607653" x="116.89415711828336" y="0" fill="#ffffff" opacity="1" stroke-width="0" stroke="transparent" fill-opacity="1" class="rect-o-0" data-fill-palette-color="primary" rx="1%" id="o-0" data-palette-color="#ffffff"></rect></g><g transform="matrix(1,0,0,1,134.55802890323784,0.21047805113451545)"><svg viewBox="0 0 395.52 84.1912204538075" height="84.1912204538075" width="395.52"><g id="textblocktransform"><svg viewBox="0 0 395.52 84.1912204538075" height="84.1912204538075" width="395.52" id="textblock"><g><svg viewBox="0 0 395.52 54.14096878363831" height="54.14096878363831" width="395.52"><g transform="matrix(1,0,0,1,0,0)"><svg width="395.52" viewBox="1.9000000953674316 -37.599998474121094 278.67999267578125 38.14999771118164" height="54.14096878363831" data-palette-color="#ffffff"><path d="M5.9-3.5L5.9-33.4 1.9-34.05 1.9-37.15 28.55-37.15 29.2-28.75 25.7-28.75 24.05-33.7 13.25-34.15 13.25-20.7 20.2-20.85 21-24.95 24.2-24.95 24.2-12.85 21-12.85 20.2-17.15 13.25-17.3 13.25-3.2 25.35-3.8 28.25-10.2 32-9.15 30.7 0 1.95 0 1.95-3 5.9-3.5ZM38.65-3.5L38.65-33.4 34.9-34.05 34.9-37.15 42.2-37.15Q43.85-37.15 46.65-37.35L46.65-37.35Q47.3-37.4 48.62-37.45 49.95-37.5 51-37.5L51-37.5Q60.2-37.5 64.77-32.9 69.35-28.3 69.35-19.85L69.35-19.85Q69.35-13.95 67.07-9.35 64.8-4.75 60.6-2.18 56.4 0.4 50.8 0.4L50.8 0.4Q49.35 0.4 46.25 0.2L46.25 0.2Q43.35 0 42.3 0L42.3 0 34.7 0 34.7-3 38.65-3.5ZM45.9-3.35Q47.6-2.9 50.65-2.9L50.65-2.9Q55.65-3 58.5-6.93 61.35-10.85 61.35-18.7L61.35-18.7Q61.35-26.15 58.55-30.23 55.75-34.3 49.85-34.3L49.85-34.3Q48.6-34.3 47.47-34.15 46.35-34 45.9-33.95L45.9-33.95 45.9-3.35ZM90.05 0.4Q82.45 0.4 78.75-3.4 75.05-7.2 75.05-15.35L75.05-15.35 75.05-33.4 71.75-34.05 71.75-37.15 86.85-37.15 86.85-34.05 82.6-33.35 82.6-14.7Q82.6-2.8 91.05-2.8L91.05-2.8Q95.2-2.8 97.2-5.88 99.2-8.95 99.2-14.5L99.2-14.5 99.2-33.35 94.9-34.05 94.9-37.15 107.4-37.15 107.4-34.05 104-33.4 104-14.9Q104-7.1 100.22-3.35 96.45 0.4 90.05 0.4L90.05 0.4ZM113.84-3.5L113.84-33.4 109.84-34.05 109.84-37.15 136.49-37.15 137.14-28.75 133.64-28.75 131.99-33.7 121.19-34.15 121.19-20.7 128.14-20.85 128.94-24.95 132.14-24.95 132.14-12.85 128.94-12.85 128.14-17.15 121.19-17.3 121.19-3.2 133.29-3.8 136.19-10.2 139.94-9.15 138.64 0 109.89 0 109.89-3 113.84-3.5ZM159.99 0.55Q154.49 0.55 150.52-1.88 146.54-4.3 144.49-8.55 142.44-12.8 142.44-18.15L142.44-18.15Q142.44-24.3 144.82-28.7 147.19-33.1 151.54-35.35 155.89-37.6 161.69-37.6L161.69-37.6Q167.14-37.6 173.94-36.05L173.94-36.05 173.39-26.75 168.34-26.75 166.99-33.15Q166.49-33.65 165.09-34.08 163.69-34.5 161.44-34.5L161.44-34.5Q156.54-34.5 153.74-30.53 150.94-26.55 150.94-19.05L150.94-19.05Q150.94-11.7 153.34-7.18 155.74-2.65 160.64-2.65L160.64-2.65Q162.64-2.65 164.39-3.15 166.14-3.65 167.04-4.45L167.04-4.45 167.04-15.2 161.74-15.7 161.74-19.05 176.94-19.05 176.94-15.7 174.29-15.25 174.29-2Q173.24-1.95 170.49-1.15L170.49-1.15Q167.29-0.3 165.02 0.13 162.74 0.55 159.99 0.55L159.99 0.55ZM180.04-3.5L191.54-37.35 199.19-37.35 210.74-3.5 213.64-3 213.64 0 198.89 0 198.89-3 202.64-3.5 200.69-10 187.74-10 185.79-3.45 189.84-3 189.84 0 177.09 0 177.04-3 180.04-3.5ZM199.69-13.5L194.99-28.9 194.09-32.8 193.14-28.85 188.69-13.5 199.69-13.5ZM227.09-3.5L227.09-33.85 219.94-33.6 217.99-22.7 213.79-22.7 214.64-37.15 246.89-37.15 247.49-22.7 243.54-22.7 241.59-33.6 234.54-33.85 234.54-3.5 241.54-3 241.54 0 220.69 0 220.69-3 227.09-3.5ZM254.48-3.5L254.48-33.4 250.48-34.05 250.48-37.15 277.13-37.15 277.78-28.75 274.28-28.75 272.63-33.7 261.83-34.15 261.83-20.7 268.78-20.85 269.58-24.95 272.78-24.95 272.78-12.85 269.58-12.85 268.78-17.15 261.83-17.3 261.83-3.2 273.93-3.8 276.83-10.2 280.58-9.15 279.28 0 250.53 0 250.53-3 254.48-3.5Z" opacity="1" transform="matrix(1,0,0,1,0,0)" fill="#ffffff" class="undefined-text-0" data-fill-palette-color="primary" id="text-0"></path></svg></g></svg></g><g transform="matrix(1,0,0,1,0,66.9223521302045)"><svg viewBox="0 0 232.20979200000002 17.268868323603" height="17.268868323603" width="232.20979200000002"><g transform="matrix(1,0,0,1,0,0)"><svg width="232.20979200000002" viewBox="0 -25.350000381469727 359.6700134277344 26.75" height="17.268868323603" data-palette-color="#ffffff"><path d="M14.2 0.35L14.05 0.1 14.2-1.7Q16.3-1.85 17.03-2.15 17.75-2.45 17.75-3.15L17.75-3.15Q17.75-3.95 17.4-4.85L17.4-4.85 16.2-8.7Q15.2-8.75 12.05-8.75L12.05-8.75Q10.6-8.75 7.75-8.45L7.75-8.45 6.35-4.75Q6-3.6 6-3.35L6-3.35Q6-2.55 6.55-2.2 7.1-1.85 8.35-1.85L8.35-1.85 10.5-1.85 10.65-1.65 10.35 0.25Q9.85 0.2 8.08 0.1 6.3 0 4.6 0L4.6 0Q3 0 1.73 0.05 0.45 0.1 0 0.1L0 0.1 0.3-1.95Q1.4-2.1 2.05-2.73 2.7-3.35 3.35-4.85L3.35-4.85 11.2-24.7 14.75-25.35 15.1-25.3Q15.1-25.1 17.38-17.4 19.65-9.7 21.45-4.65L21.45-4.65Q21.95-3.2 22.73-2.63 23.5-2.05 25.2-1.9L25.2-1.9 25.3-1.7 25.05 0.1Q24.55 0.1 23.2 0.05 21.85 0 20.5 0L20.5 0Q18.45 0 16.6 0.15 14.75 0.3 14.2 0.35L14.2 0.35ZM8.55-10.8L11.95-10.8Q13.7-10.8 15.6-11L15.6-11 12.55-20.7 12.2-20.7 8.55-10.8ZM48.6-6.8L48.55-21.25Q48.55-22.9 47.2-22.9L47.2-22.9 45.7-22.9 45.6-23.1 45.95-25.05Q46.4-25 47.65-24.95 48.9-24.9 50.2-24.9L50.2-24.9Q51.3-24.9 52.67-25.03 54.05-25.15 54.45-25.2L54.45-25.2 54.25-23.15Q52.8-22.95 52.17-22.38 51.55-21.8 51.5-20.65L51.5-20.65 50.9 0.85 48.95 1.4Q44.2-5.55 39.35-12.2 34.5-18.85 34.5-18.75L34.5-18.75 34.25-18.75 34.1-3.6Q34.1-2.65 34.4-2.3 34.7-1.95 35.4-1.95L35.4-1.95 37.4-2 37.55-1.85 37.15 0.15Q36.7 0.1 35.37 0.05 34.05 0 32.6 0L32.6 0Q31.45 0 30.15 0.13 28.85 0.25 28.45 0.3L28.45 0.3 28.7-1.75Q29.95-1.9 30.55-2.48 31.15-3.05 31.2-4.2L31.2-4.2 31.75-20.7Q31.75-21.95 31.02-22.43 30.3-22.9 28.25-23.15L28.25-23.15 28.05-23.4 28.4-25.1Q28.8-25.05 29.92-24.98 31.05-24.9 32.2-24.9L32.2-24.9Q33.3-24.9 34.15-24.95 35-25 35.25-25.05L35.25-25.05Q39.3-19.1 43.82-12.9 48.35-6.7 48.35-6.8L48.35-6.8 48.6-6.8ZM68.79 0.4L69.04-1.7Q70.89-1.9 71.54-2.6 72.19-3.3 72.19-5L72.19-5 72.24-20.85Q72.24-22.1 71.94-22.53 71.64-22.95 70.74-22.95L70.74-22.95 69.39-22.9 69.29-23.1 69.59-25Q70.19-25 71.94-24.95 73.69-24.9 75.74-24.9L75.74-24.9Q84.09-24.9 88.09-25.35L88.09-25.35 88.24-25.1Q88.14-24.55 87.79-22.6 87.44-20.65 87.29-18.4L87.29-18.4 84.89-18.2Q84.89-18.4 84.94-18.88 84.99-19.35 84.99-19.85L84.99-19.85Q84.99-21.15 84.62-21.68 84.24-22.2 83.07-22.38 81.89-22.55 78.99-22.55L78.99-22.55Q77.64-22.55 77.14-22.48 76.64-22.4 76.49-22.13 76.34-21.85 76.29-21.1L76.29-21.1 75.99-14 80.09-13.95Q80.99-13.95 82.74-14.13 84.49-14.3 85.04-14.35L85.04-14.35 85.24-14.1 84.64-11.5Q84.09-11.5 82.47-11.55 80.84-11.6 79.04-11.6L79.04-11.6Q77.64-11.6 75.89-11.35L75.89-11.35Q75.74-7.55 75.74-4.5L75.74-4.5Q75.74-3.35 75.92-2.9 76.09-2.45 76.72-2.3 77.34-2.15 78.79-2.15L78.79-2.15Q82.04-2.15 83.44-2.45 84.84-2.75 85.42-3.68 85.99-4.6 86.34-6.85L86.34-6.85 88.54-7.05 88.74-6.8Q88.59-6.25 88.22-4.23 87.84-2.2 87.64 0L87.64 0 87.34 0.25Q85.99 0.2 81.74 0.1 77.49 0 74.84 0L74.84 0Q72.79 0 71.04 0.18 69.29 0.35 68.79 0.4L68.79 0.4ZM105.04 0.45Q104.39 0.35 102.42 0.18 100.44 0 99.09 0L99.09 0Q97.79 0 96.24 0.18 94.69 0.35 94.24 0.45L94.24 0.45 94.49-1.65Q96.29-1.95 96.94-2.65 97.59-3.35 97.59-4.95L97.59-4.95 97.64-20.85Q97.64-22.1 97.34-22.53 97.04-22.95 96.19-22.95L96.19-22.95Q95.74-22.95 95.34-22.9 94.94-22.85 94.79-22.85L94.79-22.85 94.69-23.1 94.99-25Q95.49-25 96.82-24.95 98.14-24.9 99.49-24.9L99.49-24.9Q101.29-24.9 103.19-24.98 105.09-25.05 105.79-25.05L105.79-25.05Q109.79-25.05 112.84-23.6 115.89-22.15 117.57-19.53 119.24-16.9 119.24-13.4L119.24-13.4Q119.24-9.5 117.37-6.35 115.49-3.2 112.24-1.38 108.99 0.45 105.04 0.45L105.04 0.45ZM103.14-22.7Q102.34-22.7 102.07-22.53 101.79-22.35 101.74-21.8L101.74-21.8Q101.14-7.75 101.14-5.3L101.14-5.3Q101.14-3.95 101.54-3.23 101.94-2.5 102.94-2.23 103.94-1.95 105.89-1.95L105.89-1.95Q110.09-1.95 112.47-4.7 114.84-7.45 114.84-12.4L114.84-12.4Q114.84-17.45 111.84-20.08 108.84-22.7 103.14-22.7L103.14-22.7ZM135.14 0.45Q130.69 0.45 128.36-1.75 126.04-3.95 126.04-8.1L126.04-8.1 126.04-20.85Q126.04-22.1 125.74-22.53 125.44-22.95 124.54-22.95L124.54-22.95 123.19-22.9 123.09-23.05 123.39-25Q123.94-25 125.39-24.95 126.84-24.9 128.34-24.9L128.34-24.9Q129.44-24.9 130.89-25.03 132.34-25.15 132.79-25.2L132.79-25.2 132.59-23.2Q131.14-23 130.64-22.55 130.14-22.1 130.04-21L130.04-21 129.74-9.55Q129.74-6 131.39-4.08 133.04-2.15 136.14-2.15L136.14-2.15Q139.29-2.15 140.91-3.73 142.54-5.3 142.54-8.3L142.54-8.3Q142.54-11.4 142.46-15.33 142.39-19.25 142.34-20.85L142.34-20.85Q142.24-22.2 141.99-22.58 141.74-22.95 140.89-22.95L140.89-22.95 139.19-22.9 139.14-23.05 139.44-25Q139.94-25 141.31-24.95 142.69-24.9 144.09-24.9L144.09-24.9Q145.24-24.9 146.56-25.03 147.89-25.15 148.29-25.2L148.29-25.2 148.14-23.2Q146.39-22.95 145.89-22.55 145.39-22.15 145.39-21.05L145.39-21.05 145.39-8.25Q145.39-4.1 142.71-1.83 140.04 0.45 135.14 0.45L135.14 0.45ZM164.34 0.45Q158.69 0.45 155.39-2.8 152.09-6.05 152.09-11.65L152.09-11.65Q152.09-15.6 153.91-18.73 155.74-21.85 159.01-23.6 162.29-25.35 166.44-25.35L166.44-25.35Q167.94-25.35 169.56-25.15 171.19-24.95 172.31-24.7 173.44-24.45 173.74-24.4L173.74-24.4 173.94-24.1Q173.89-23.85 173.69-22.93 173.49-22 173.24-20.5 172.99-19 172.89-17.3L172.89-17.3 170.39-17.15Q170.39-17.3 170.44-17.85 170.49-18.4 170.49-19.1L170.49-19.1Q170.49-22.6 164.89-22.6L164.89-22.6Q160.99-22.6 158.74-20.03 156.49-17.45 156.49-12.95L156.49-12.95Q156.49-7.95 158.86-5 161.24-2.05 165.24-2.05L165.24-2.05Q167.89-2.05 169.46-3.48 171.04-4.9 171.74-7.95L171.74-7.95 174.24-8.15Q174.09-7.55 173.71-5.45 173.34-3.35 173.19-1.5L173.19-1.5 172.89-1.1Q172.59-1 171.46-0.63 170.34-0.25 168.44 0.1 166.54 0.45 164.34 0.45L164.34 0.45ZM190.88 0.35L190.73 0.1 190.88-1.7Q192.98-1.85 193.71-2.15 194.43-2.45 194.43-3.15L194.43-3.15Q194.43-3.95 194.08-4.85L194.08-4.85 192.88-8.7Q191.88-8.75 188.73-8.75L188.73-8.75Q187.28-8.75 184.43-8.45L184.43-8.45 183.03-4.75Q182.68-3.6 182.68-3.35L182.68-3.35Q182.68-2.55 183.23-2.2 183.78-1.85 185.03-1.85L185.03-1.85 187.18-1.85 187.33-1.65 187.03 0.25Q186.53 0.2 184.76 0.1 182.98 0 181.28 0L181.28 0Q179.68 0 178.41 0.05 177.13 0.1 176.68 0.1L176.68 0.1 176.98-1.95Q178.08-2.1 178.73-2.73 179.38-3.35 180.03-4.85L180.03-4.85 187.88-24.7 191.43-25.35 191.78-25.3Q191.78-25.1 194.06-17.4 196.33-9.7 198.13-4.65L198.13-4.65Q198.63-3.2 199.41-2.63 200.18-2.05 201.88-1.9L201.88-1.9 201.98-1.7 201.73 0.1Q201.23 0.1 199.88 0.05 198.53 0 197.18 0L197.18 0Q195.13 0 193.28 0.15 191.43 0.3 190.88 0.35L190.88 0.35ZM185.23-10.8L188.63-10.8Q190.38-10.8 192.28-11L192.28-11 189.23-20.7 188.88-20.7 185.23-10.8ZM206.43 0.2L206.78-1.8Q208.78-1.95 209.61-2.3 210.43-2.65 210.66-3.48 210.88-4.3 210.88-6.35L210.88-6.35 210.88-22.9Q207.73-22.8 206.63-22.55 205.53-22.3 205.01-21.38 204.48-20.45 204.13-17.9L204.13-17.9 201.78-17.75Q201.88-18.4 202.11-20.63 202.33-22.85 202.38-25L202.38-25 202.78-25.35 206.33-24.95 219.08-24.95 222.73-25.35 223.13-25Q223.18-22.8 223.38-20.65 223.58-18.5 223.68-17.9L223.68-17.9 221.38-17.75Q220.98-20.35 220.46-21.33 219.93-22.3 218.91-22.55 217.88-22.8 214.98-22.9L214.98-22.9Q214.73-20.5 214.53-14.93 214.33-9.35 214.33-4.65L214.33-4.65Q214.33-3.2 214.88-2.6 215.43-2 216.68-2L216.68-2Q217.58-2 218.16-2.05 218.73-2.1 218.88-2.1L218.88-2.1 219.03-1.95 218.68 0.15Q217.98 0.15 216.08 0.08 214.18 0 212.38 0L212.38 0Q210.58 0 208.83 0.08 207.08 0.15 206.43 0.2L206.43 0.2ZM227.28 0.45L227.53-1.6Q229.43-1.95 230.08-2.63 230.73-3.3 230.73-4.95L230.73-4.95 230.78-20.85Q230.78-22.1 230.48-22.53 230.18-22.95 229.28-22.95L229.28-22.95 227.63-22.9 227.53-23.1 227.78-25Q228.08-25 229.4-24.95 230.73-24.9 232.88-24.9L232.88-24.9Q234.03-24.9 235.7-25.05 237.38-25.2 237.88-25.25L237.88-25.25 237.68-23.2Q236.03-23 235.48-22.58 234.93-22.15 234.83-21L234.83-21Q234.63-17 234.45-12.15 234.28-7.3 234.28-4.65L234.28-4.65Q234.28-3.05 234.63-2.5 234.98-1.95 236.03-1.95L236.03-1.95Q236.73-1.95 237.3-2 237.88-2.05 238.08-2.1L238.08-2.1 238.18-1.9 237.83 0.1Q237.23 0.1 235.58 0.05 233.93 0 232.28 0L232.28 0Q230.93 0 229.35 0.18 227.78 0.35 227.28 0.45L227.28 0.45ZM254.13 0.45Q250.73 0.45 248.1-1.05 245.48-2.55 244.05-5.3 242.63-8.05 242.63-11.65L242.63-11.65Q242.63-15.55 244.4-18.68 246.18-21.8 249.25-23.58 252.33-25.35 256.13-25.35L256.13-25.35Q259.58-25.35 262.23-23.85 264.88-22.35 266.33-19.63 267.78-16.9 267.78-13.3L267.78-13.3Q267.78-9.4 266-6.28 264.23-3.15 261.1-1.35 257.98 0.45 254.13 0.45L254.13 0.45ZM255.33-1.95Q258.98-1.95 261.23-4.58 263.48-7.2 263.48-11.55L263.48-11.55Q263.48-14.85 262.4-17.35 261.33-19.85 259.35-21.2 257.38-22.55 254.78-22.55L254.78-22.55Q251.23-22.55 249.05-19.95 246.88-17.35 246.88-13L246.88-13Q246.88-9.7 247.93-7.2 248.98-4.7 250.9-3.33 252.83-1.95 255.33-1.95L255.33-1.95ZM292.92-6.8L292.87-21.25Q292.87-22.9 291.52-22.9L291.52-22.9 290.02-22.9 289.92-23.1 290.27-25.05Q290.72-25 291.97-24.95 293.22-24.9 294.52-24.9L294.52-24.9Q295.62-24.9 297-25.03 298.37-25.15 298.77-25.2L298.77-25.2 298.57-23.15Q297.12-22.95 296.5-22.38 295.87-21.8 295.82-20.65L295.82-20.65 295.22 0.85 293.27 1.4Q288.52-5.55 283.67-12.2 278.82-18.85 278.82-18.75L278.82-18.75 278.57-18.75 278.42-3.6Q278.42-2.65 278.72-2.3 279.02-1.95 279.72-1.95L279.72-1.95 281.72-2 281.87-1.85 281.47 0.15Q281.02 0.1 279.7 0.05 278.37 0 276.92 0L276.92 0Q275.77 0 274.47 0.13 273.17 0.25 272.77 0.3L272.77 0.3 273.02-1.75Q274.27-1.9 274.87-2.48 275.47-3.05 275.52-4.2L275.52-4.2 276.07-20.7Q276.07-21.95 275.35-22.43 274.62-22.9 272.57-23.15L272.57-23.15 272.37-23.4 272.72-25.1Q273.12-25.05 274.25-24.98 275.37-24.9 276.52-24.9L276.52-24.9Q277.62-24.9 278.47-24.95 279.32-25 279.57-25.05L279.57-25.05Q283.62-19.1 288.15-12.9 292.67-6.7 292.67-6.8L292.67-6.8 292.92-6.8ZM323.97 0.45Q320.57 0.45 317.94-1.05 315.32-2.55 313.89-5.3 312.47-8.05 312.47-11.65L312.47-11.65Q312.47-15.55 314.24-18.68 316.02-21.8 319.09-23.58 322.17-25.35 325.97-25.35L325.97-25.35Q329.42-25.35 332.07-23.85 334.72-22.35 336.17-19.63 337.62-16.9 337.62-13.3L337.62-13.3Q337.62-9.4 335.84-6.28 334.07-3.15 330.94-1.35 327.82 0.45 323.97 0.45L323.97 0.45ZM325.17-1.95Q328.82-1.95 331.07-4.58 333.32-7.2 333.32-11.55L333.32-11.55Q333.32-14.85 332.24-17.35 331.17-19.85 329.19-21.2 327.22-22.55 324.62-22.55L324.62-22.55Q321.07-22.55 318.89-19.95 316.72-17.35 316.72-13L316.72-13Q316.72-9.7 317.77-7.2 318.82-4.7 320.74-3.33 322.67-1.95 325.17-1.95L325.17-1.95ZM349.22 0.45Q347.47 0.45 345.99 0.15 344.52-0.15 343.64-0.48 342.77-0.8 342.56-0.9L342.56-0.9 342.31-1.35Q342.37-1.6 342.49-2.48 342.62-3.35 342.74-4.93 342.87-6.5 342.87-8.1L342.87-8.1 345.12-8.3Q345.12-5.6 345.54-4.28 345.97-2.95 347.02-2.45 348.06-1.95 350.22-1.95L350.22-1.95Q352.62-1.95 354.09-3 355.56-4.05 355.56-5.8L355.56-5.8Q355.56-6.95 354.74-7.83 353.92-8.7 352.84-9.3 351.77-9.9 349.42-11.05L349.42-11.05Q346.22-12.6 344.49-14.1 342.77-15.6 342.77-17.95L342.77-17.95Q342.77-20.05 344.04-21.75 345.31-23.45 347.56-24.4 349.81-25.35 352.56-25.35L352.56-25.35Q354.22-25.35 355.67-25.15 357.12-24.95 357.97-24.73 358.81-24.5 359.02-24.4L359.02-24.4 359.22-24.05Q359.12-23.5 358.77-21.58 358.42-19.65 358.27-17.45L358.27-17.45 356.31-17.25 356.02-17.45Q356.02-17.6 356.06-18.07 356.12-18.55 356.12-19.25L356.12-19.25Q356.12-21.2 355.09-21.98 354.06-22.75 351.47-22.75L351.47-22.75Q349.37-22.75 347.99-21.78 346.62-20.8 346.62-19.3L346.62-19.3Q346.62-17.8 347.99-16.75 349.37-15.7 352.17-14.35L352.17-14.35Q354.62-13.2 356.09-12.35 357.56-11.5 358.62-10.2 359.67-8.9 359.67-7.2L359.67-7.2Q359.67-4.95 358.34-3.23 357.02-1.5 354.64-0.53 352.27 0.45 349.22 0.45L349.22 0.45Z" opacity="1" transform="matrix(1,0,0,1,0,0)" fill="#ffffff" class="undefined-text-1" data-fill-palette-color="secondary" id="text-1"></path></svg></g></svg></g></svg></g></svg></g><g transform="matrix(1,0,0,1,0,0.21047805113451545)"><svg viewBox="0 0 104.11277377171716 84.1912204538075" height="84.1912204538075" width="104.11277377171716"><g><svg xmlns="http://www.w3.org/2000/svg" xmlns:xlink="http://www.w3.org/1999/xlink" version="1.1" x="0" y="0" viewBox="4.999500274658203 13.610249519348145 90.00086975097656 72.77957153320312" enable-background="new 0 0 100 100" xml:space="preserve" height="84.1912204538075" width="104.11277377171716" class="icon-icon-0" data-fill-palette-color="accent" id="icon-0"><g fill="#ffffff" data-fill-palette-color="accent"><path fill="#ffffff" d="M71.62 59.237l-7.172 3.973c-4.41 2.441-9.407 3.734-14.45 3.734-5.039 0-10.035-1.292-14.449-3.734l-8.796-4.873c0.11 4.083-0.062 8.421-1.726 11.882-0.459 0.945-1.377 1.8-1.36 2.936 0.02 1.576 1.812 1.842 3.102 1.602 0 0 7.604-1.458 18.126 8.854 1.045 1.025 2.076 1.989 3.492 2.49 2.771 0.983 4.831-0.715 6.735-2.508 1.296-1.219 2.741-2.277 4.193-3.306 3.486-2.463 7.91-5.56 12.351-5.635 0 0 5.729 1.25 2.396-4.062C74.062 70.59 72.535 65.669 71.62 59.237" data-fill-palette-color="accent"></path><polygon fill="#ffffff" points="14.998,55.277 13.331,65.277 13.331,78.611 19.998,78.611 19.998,65.277 18.331,55.277    18.331,46.051 14.998,44.204  " data-fill-palette-color="accent"></polygon><path fill="#ffffff" d="M93.499 34.391L61.22 16.512c-6.986-3.869-15.456-3.869-22.438 0L6.498 34.391c-1.998 1.108-1.998 3.996 0 5.106l8.5 4.706v-7.259h38.334v3.333H18.331v5.773l20.45 11.327c6.982 3.867 15.452 3.867 22.438 0l32.279-17.879C95.501 38.387 95.501 35.5 93.499 34.391" data-fill-palette-color="accent"></path></g></svg></g></svg></g></svg></g><defs></defs></svg><rect width="395.52" height="63.13373927363502" fill="none" stroke="none" visibility="hidden"></rect></g></svg></g></svg>