<svg width="17" height="21" viewBox="0 0 17 21" fill="none" xmlns="http://www.w3.org/2000/svg">
<g id="Layer_1">
<path id="Vector" d="M15.2086 3.73272e-05H5.86561C5.70106 -0.00123548 5.53788 0.0300542 5.38546 0.092105C5.23305 0.154156 5.09442 0.245742 4.97754 0.36159L0.383342 4.84546C0.260783 4.96298 0.163558 5.10433 0.0976426 5.26081C0.0317275 5.41729 -0.00148372 5.5856 5.08539e-05 5.75539V19.7286C0.00043081 20.0657 0.134512 20.3888 0.37288 20.6272C0.611247 20.8656 0.934433 20.9997 1.27154 21H15.2086C15.5457 20.9997 15.8689 20.8656 16.1073 20.6272C16.3457 20.3888 16.4797 20.0657 16.4801 19.7286V1.27152C16.4798 0.934416 16.3457 0.611224 16.1073 0.372854C15.8689 0.134485 15.5457 0.000406449 15.2086 3.73272e-05ZM4.95884 2.21386V4.95883H2.14619L4.95884 2.21386ZM15.1676 19.6875H1.31255V6.27133H4.99986C5.33696 6.27095 5.66014 6.13686 5.89851 5.8985C6.13688 5.66013 6.27096 5.33694 6.27134 4.99984V4.70043H12.4483C12.6223 4.70043 12.7893 4.63129 12.9123 4.50822C13.0354 4.38515 13.1045 4.21823 13.1045 4.04418C13.1045 3.87013 13.0354 3.70321 12.9123 3.58014C12.7893 3.45707 12.6223 3.38793 12.4483 3.38793H6.27134V1.31254H15.1676V19.6875ZM13.1045 16.9559C13.1045 17.1299 13.0354 17.2969 12.9123 17.4199C12.7893 17.543 12.6223 17.6121 12.4483 17.6121H4.03189C3.85784 17.6121 3.69092 17.543 3.56785 17.4199C3.44478 17.2969 3.37564 17.1299 3.37564 16.9559C3.37564 16.7818 3.44478 16.6149 3.56785 16.4919C3.69092 16.3688 3.85784 16.2996 4.03189 16.2996H12.4483C12.6223 16.2996 12.7893 16.3688 12.9123 16.4919C13.0354 16.6149 13.1045 16.7818 13.1045 16.9559ZM13.1045 13.728C13.1045 13.902 13.0354 14.0689 12.9123 14.192C12.7893 14.3151 12.6223 14.3842 12.4483 14.3842H4.03189C3.85784 14.3842 3.69092 14.3151 3.56785 14.192C3.44478 14.0689 3.37564 13.902 3.37564 13.728C3.37564 13.5539 3.44478 13.387 3.56785 13.2639C3.69092 13.1409 3.85784 13.0717 4.03189 13.0717H12.4483C12.6223 13.0717 12.7893 13.1409 12.9123 13.2639C13.0354 13.387 13.1045 13.5539 13.1045 13.728ZM13.1045 10.5C13.1045 10.6741 13.0354 10.841 12.9123 10.9641C12.7893 11.0871 12.6223 11.1563 12.4483 11.1563H4.03189C3.85784 11.1563 3.69092 11.0871 3.56785 10.9641C3.44478 10.841 3.37564 10.6741 3.37564 10.5C3.37564 10.326 3.44478 10.1591 3.56785 10.036C3.69092 9.91293 3.85784 9.84379 4.03189 9.84379H12.4483C12.6223 9.84379 12.7893 9.91293 12.9123 10.036C13.0354 10.1591 13.1045 10.326 13.1045 10.5ZM13.1045 7.27211C13.1045 7.44616 13.0354 7.61308 12.9123 7.73615C12.7893 7.85922 12.6223 7.92836 12.4483 7.92836H4.03189C3.85784 7.92836 3.69092 7.85922 3.56785 7.73615C3.44478 7.61308 3.37564 7.44616 3.37564 7.27211C3.37564 7.09806 3.44478 6.93114 3.56785 6.80807C3.69092 6.685 3.85784 6.61586 4.03189 6.61586H12.4483C12.6223 6.61586 12.7893 6.685 12.9123 6.80807C13.0354 6.93114 13.1045 7.09806 13.1045 7.27211Z" fill="#515151"/>
</g>
</svg>
