<svg width="16" height="22" viewBox="0 0 16 22" fill="none" xmlns="http://www.w3.org/2000/svg">
<g id="Capa_1">
<g id="Group">
<g id="Group_2">
<path id="Vector" d="M15.4278 3.49399L12.5017 0.57088C12.1332 0.202739 11.6434 0 11.1226 0H1.95132C0.87538 0 0 0.87538 0 1.95132V19.1253C0 20.2012 0.87538 21.0766 1.95132 21.0766H14.0487C15.1247 21.0766 16 20.2012 16 19.1253V4.87446C16 4.3529 15.7968 3.86262 15.4278 3.49399ZM12.292 2.10672L13.9046 3.7176H12.292V2.10672ZM14.7653 19.1253C14.7653 19.5204 14.4438 19.8419 14.0487 19.8419H1.95132C1.55617 19.8419 1.23471 19.5204 1.23471 19.1253V1.95132C1.23471 1.55617 1.55621 1.23471 1.95132 1.23471H11.0573V4.33495C11.0573 4.67588 11.3337 4.95231 11.6747 4.95231H14.7653V19.1253Z" fill="#515151"/>
</g>
</g>
<g id="Group_3">
<g id="Group_4">
<path id="Vector_2" d="M6.25232 17.5369L5.21754 14.1614C5.18799 14.0691 5.12068 13.9981 5.01559 13.9483C4.91041 13.8985 4.78955 13.8736 4.65313 13.8736C4.51662 13.8736 4.3958 13.8985 4.29067 13.9483C4.18549 13.9981 4.11818 14.0692 4.08867 14.1614L3.05941 17.5369C3.05196 17.5665 3.04834 17.5867 3.04834 17.5978C3.04834 17.6938 3.10828 17.7768 3.22819 17.8468C3.34802 17.9169 3.47255 17.952 3.60168 17.952C3.76025 17.952 3.85436 17.8985 3.88391 17.7915L4.07204 17.0998H5.23969L5.42782 17.7915C5.45729 17.8986 5.55135 17.952 5.71005 17.952C5.83914 17.952 5.96367 17.9169 6.08358 17.8468C6.20341 17.7767 6.26343 17.6938 6.26343 17.5978C6.26339 17.5867 6.25968 17.5665 6.25232 17.5369ZM4.24909 16.4357L4.65305 14.9526L5.057 16.4357H4.24909Z" fill="#515151"/>
</g>
</g>
<g id="Group_5">
<g id="Group_6">
<path id="Vector_3" d="M8.6125 16.4078C8.55898 16.3415 8.49719 16.3084 8.42713 16.3084H7.89593V15.7513C7.89593 15.6778 7.86271 15.6131 7.79631 15.5569C7.72991 15.5009 7.64692 15.4728 7.5473 15.4728C7.45131 15.4728 7.36832 15.5009 7.29829 15.5569C7.22815 15.6131 7.19312 15.6778 7.19312 15.7513V16.3084H6.65632C6.57885 16.3084 6.51607 16.3407 6.4682 16.4052C6.4202 16.4697 6.39624 16.549 6.39624 16.643C6.39624 16.7407 6.4202 16.8199 6.4682 16.881C6.51611 16.942 6.57885 16.9725 6.65632 16.9725H7.19308V17.5354C7.19308 17.6167 7.22716 17.6823 7.29545 17.7327C7.36371 17.783 7.4476 17.8081 7.54726 17.8081C7.65051 17.8081 7.73444 17.783 7.79907 17.7327C7.86358 17.6823 7.89593 17.6167 7.89593 17.5354V16.9724H8.42713C8.49719 16.9724 8.55898 16.9412 8.6125 16.8783C8.66593 16.8156 8.69273 16.7371 8.69273 16.643C8.69269 16.5524 8.66589 16.474 8.6125 16.4078Z" fill="#515151"/>
</g>
</g>
<g id="Group_7">
<g id="Group_8">
<path id="Vector_4" d="M10.6432 10.8749H3.16814C2.82721 10.8749 2.55078 11.1513 2.55078 11.4922C2.55078 11.8332 2.82721 12.1096 3.16814 12.1096H10.6432C10.9841 12.1096 11.2605 11.8332 11.2605 11.4922C11.2605 11.1513 10.9841 10.8749 10.6432 10.8749Z" fill="#515151"/>
</g>
</g>
<g id="Group_9">
<g id="Group_10">
<path id="Vector_5" d="M12.8316 8.6862H3.16814C2.82721 8.6862 2.55078 8.96263 2.55078 9.30356C2.55078 9.64449 2.82721 9.92091 3.16814 9.92091H12.8316C13.1725 9.92091 13.4489 9.64449 13.4489 9.30356C13.4489 8.96263 13.1725 8.6862 12.8316 8.6862Z" fill="#515151"/>
</g>
</g>
<g id="Group_11">
<g id="Group_12">
<path id="Vector_6" d="M7.89646 6.46838H3.16814C2.82721 6.46838 2.55078 6.74481 2.55078 7.08574C2.55078 7.42667 2.82721 7.7031 3.16814 7.7031H7.89646C8.2374 7.7031 8.51382 7.42667 8.51382 7.08574C8.51382 6.74481 8.2374 6.46838 7.89646 6.46838Z" fill="#515151"/>
</g>
</g>
</g>
</svg>
