<svg width="20" height="24" viewBox="0 0 20 24" fill="none" xmlns="http://www.w3.org/2000/svg">
<g id="Layer_1">
<g id="Group">
<g id="Group_2">
<path id="Vector" d="M14.7656 8.01562C15.1539 8.01562 15.4688 7.70081 15.4688 7.3125V2.10938C15.4688 0.946266 14.5225 0 13.3594 0H2.10938C0.946266 0 0 0.946266 0 2.10938V21.8906C0 23.0537 0.946266 24 2.10938 24H13.3594C14.5225 24 15.4688 23.0537 15.4688 21.8906V16.6875C15.4688 16.2992 15.154 15.9844 14.7656 15.9844C14.3773 15.9844 14.0625 16.2992 14.0625 16.6875V21.8906C14.0625 22.2783 13.7471 22.5938 13.3594 22.5938H2.10938C1.72167 22.5938 1.40625 22.2783 1.40625 21.8906V2.10938C1.40625 1.72167 1.72167 1.40625 2.10938 1.40625H13.3594C13.7471 1.40625 14.0625 1.72167 14.0625 2.10938V7.3125C14.0625 7.70081 14.3773 8.01562 14.7656 8.01562Z" fill="#515151"/>
</g>
</g>
<g id="Group_3">
<g id="Group_4">
<path id="Vector_2" d="M14.5117 11.2969H5.97656C5.58825 11.2969 5.27344 11.6117 5.27344 12C5.27344 12.3883 5.58825 12.7031 5.97656 12.7031H14.5117C14.7386 12.4234 14.9192 12.3181 15.3704 12C14.9196 11.6821 14.7381 11.5759 14.5117 11.2969Z" fill="#515151"/>
</g>
</g>
<g id="Group_5">
<g id="Group_6">
<path id="Vector_3" d="M19.4364 11.4253L16.5573 9.39558C16.2399 9.1718 15.8013 9.24779 15.5775 9.56513C15.3538 9.88252 15.4297 10.3212 15.747 10.545L17.811 12L15.747 13.4551C15.4297 13.6788 15.3537 14.1175 15.5775 14.4349C15.8014 14.7525 16.2401 14.8282 16.5573 14.6045L19.4364 12.5747C19.8328 12.2953 19.8338 11.7055 19.4364 11.4253Z" fill="#515151"/>
</g>
</g>
</g>
</svg>
